M48
; DRILL file {KiCad 9.0.5} date 2025-11-03T18:46:07+0200
; FORMAT={-:-/ absolute / metric / decimal}
; #@! TF.CreationDate,2025-11-03T18:46:07+02:00
; #@! TF.GenerationSoftware,Kicad,Pcbnew,9.0.5
; #@! TF.FileFunction,Plated,1,2,PTH
FMAT,2
METRIC
; #@! TA.AperFunction,Plated,PTH,ViaDrill
T1C0.300
; #@! TA.AperFunction,Plated,PTH,ComponentDrill
T2C0.800
; #@! TA.AperFunction,Plated,PTH,ComponentDrill
T3C1.000
; #@! TA.AperFunction,Plated,PTH,ComponentDrill
T4C1.400
; #@! TA.AperFunction,Plated,PTH,ComponentDrill
T5C2.700
%
G90
G05
T1
X28.25Y-40.8
X28.35Y-51.0
X28.5Y-46.25
X32.25Y-40.75
X32.5Y-43.75
X32.525Y-51.775
X33.75Y-57.0
X34.163Y-41.637
X35.663Y-47.562
X36.163Y-40.312
X37.962Y-42.163
X39.2Y-48.0
X39.362Y-37.062
X39.5Y-57.75
X39.75Y-53.0
X40.462Y-47.262
X41.462Y-50.262
X44.25Y-51.25
X44.25Y-57.5
X45.05Y-49.7
X46.1Y-39.75
X46.25Y-54.5
X49.25Y-43.75
X53.0Y-51.25
X53.75Y-39.5
X53.8Y-55.9
X54.0Y-47.6
X54.05Y-43.4
X54.2Y-37.3
X63.925Y-47.0
X63.95Y-49.675
X64.025Y-52.4
X64.05Y-42.0
X66.075Y-43.975
X66.985Y-48.565
X67.6Y-37.212
X67.685Y-53.002
X68.385Y-48.165
X68.6Y-39.262
X69.8Y-37.212
X71.9Y-37.7
X72.2Y-47.162
X73.735Y-51.865
X74.8Y-38.612
X75.394Y-41.406
X75.5Y-37.163
X76.05Y-46.712
X76.7Y-37.163
X76.75Y-42.312
X77.1Y-39.462
X77.15Y-41.012
X79.05Y-37.163
X79.25Y-39.712
X79.85Y-45.362
X79.95Y-46.962
X80.535Y-48.765
X80.735Y-53.102
X81.05Y-39.762
X81.05Y-41.312
X81.4Y-37.163
X83.05Y-48.15
X83.2Y-49.85
X83.65Y-52.65
X84.05Y-37.2
X85.25Y-49.95
X85.7Y-48.15
X85.75Y-52.6
X86.0Y-37.15
X87.75Y-48.2
X87.75Y-49.95
X87.95Y-37.15
X88.15Y-52.55
X89.7Y-37.15
X89.7Y-42.1
X89.7Y-43.55
X89.75Y-38.45
X89.8Y-47.65
X89.85Y-49.55
X89.85Y-51.5
T2
X71.235Y-50.515
X76.115Y-50.515
T3
X33.9Y-31.75
X33.9Y-34.29
X36.44Y-31.75
X36.44Y-34.29
X38.98Y-31.75
X38.98Y-34.29
X41.52Y-31.75
X41.52Y-34.29
X44.06Y-31.75
X44.06Y-34.29
X46.6Y-31.75
X46.6Y-34.29
X49.14Y-31.75
X49.14Y-34.29
X51.68Y-31.75
X51.68Y-34.29
X54.22Y-31.75
X54.22Y-34.29
X56.76Y-31.75
X56.76Y-34.29
X59.3Y-31.75
X59.3Y-34.29
X61.84Y-31.75
X61.84Y-34.29
X64.38Y-31.75
X64.38Y-34.29
X66.92Y-31.75
X66.92Y-34.29
X69.46Y-31.75
X69.46Y-34.29
X72.0Y-31.75
X72.0Y-34.29
X74.54Y-31.75
X74.54Y-34.29
X77.08Y-31.75
X77.08Y-34.29
X79.62Y-31.75
X79.62Y-34.29
X82.16Y-31.75
X82.16Y-34.29
T4
X83.625Y-40.8
X83.625Y-45.9
X86.175Y-43.35
X88.725Y-40.8
X88.725Y-45.9
T5
X29.0Y-33.0
X29.0Y-56.0
X87.0Y-33.0
X87.0Y-56.0
M30
