G04 #@! TF.GenerationSoftware,KiCad,Pcbnew,9.0.5*
G04 #@! TF.CreationDate,2025-11-03T18:46:07+02:00*
G04 #@! TF.ProjectId,elecDeTrimisproiect,656c6563-4465-4547-9269-6d697370726f,rev?*
G04 #@! TF.SameCoordinates,Original*
G04 #@! TF.FileFunction,Other,User*
%FSLAX46Y46*%
G04 Gerber Fmt 4.6, Leading zero omitted, Abs format (unit mm)*
G04 Created by KiCad (PCBNEW 9.0.5) date 2025-11-03 18:46:07*
%MOMM*%
%LPD*%
G01*
G04 APERTURE LIST*
%ADD10C,0.050000*%
G04 APERTURE END LIST*
G04 #@! TO.C,U4*
D10*
X69900000Y-40900000D02*
X75100000Y-40900000D01*
X75100000Y-46100000D01*
X69900000Y-46100000D01*
X69900000Y-40900000D01*
G04 #@! TO.C,U3*
X39650000Y-40362500D02*
X37150000Y-40362500D01*
X37150000Y-37862500D01*
X39650000Y-37862500D01*
X39650000Y-40362500D01*
G04 #@! TO.C,C1*
X33520000Y-49520000D02*
X34980000Y-49520000D01*
X33520000Y-52480000D02*
X33520000Y-49520000D01*
X34980000Y-49520000D02*
X34980000Y-52480000D01*
X34980000Y-52480000D02*
X33520000Y-52480000D01*
G04 #@! TO.C,C15*
X79890000Y-42002500D02*
X80810000Y-42002500D01*
X79890000Y-43822500D02*
X79890000Y-42002500D01*
X80810000Y-42002500D02*
X80810000Y-43822500D01*
X80810000Y-43822500D02*
X79890000Y-43822500D01*
G04 #@! TO.C,C6*
X34932500Y-44232500D02*
X36392500Y-44232500D01*
X34932500Y-47192500D02*
X34932500Y-44232500D01*
X36392500Y-44232500D02*
X36392500Y-47192500D01*
X36392500Y-47192500D02*
X34932500Y-47192500D01*
G04 #@! TO.C,C16*
X78020000Y-42852500D02*
X79840000Y-42852500D01*
X78020000Y-43772500D02*
X78020000Y-42852500D01*
X79840000Y-42852500D02*
X79840000Y-43772500D01*
X79840000Y-43772500D02*
X78020000Y-43772500D01*
G04 #@! TO.C,C9*
X66455000Y-49605000D02*
X67375000Y-49605000D01*
X66455000Y-51425000D02*
X66455000Y-49605000D01*
X67375000Y-49605000D02*
X67375000Y-51425000D01*
X67375000Y-51425000D02*
X66455000Y-51425000D01*
G04 #@! TO.C,C5*
X36282500Y-40382500D02*
X39242500Y-40382500D01*
X36282500Y-41842500D02*
X36282500Y-40382500D01*
X39242500Y-40382500D02*
X39242500Y-41842500D01*
X39242500Y-41842500D02*
X36282500Y-41842500D01*
G04 #@! TO.C,C2*
X42020000Y-53770000D02*
X44980000Y-53770000D01*
X42020000Y-55230000D02*
X42020000Y-53770000D01*
X44980000Y-53770000D02*
X44980000Y-55230000D01*
X44980000Y-55230000D02*
X42020000Y-55230000D01*
G04 #@! TO.C,C10*
X72040000Y-39552500D02*
X73860000Y-39552500D01*
X72040000Y-40472500D02*
X72040000Y-39552500D01*
X73860000Y-39552500D02*
X73860000Y-40472500D01*
X73860000Y-40472500D02*
X72040000Y-40472500D01*
G04 #@! TO.C,C13*
X77400000Y-45902500D02*
X79220000Y-45902500D01*
X77400000Y-46822500D02*
X77400000Y-45902500D01*
X79220000Y-45902500D02*
X79220000Y-46822500D01*
X79220000Y-46822500D02*
X77400000Y-46822500D01*
G04 #@! TO.C,R1*
X42820000Y-37370000D02*
X45780000Y-37370000D01*
X42820000Y-38830000D02*
X42820000Y-37370000D01*
X45780000Y-37370000D02*
X45780000Y-38830000D01*
X45780000Y-38830000D02*
X42820000Y-38830000D01*
G04 #@! TO.C,C3*
X42020000Y-55270000D02*
X44980000Y-55270000D01*
X42020000Y-56730000D02*
X42020000Y-55270000D01*
X44980000Y-55270000D02*
X44980000Y-56730000D01*
X44980000Y-56730000D02*
X42020000Y-56730000D01*
G04 #@! TO.C,R7*
X34682500Y-40982500D02*
X36142500Y-40982500D01*
X34682500Y-43942500D02*
X34682500Y-40982500D01*
X36142500Y-40982500D02*
X36142500Y-43942500D01*
X36142500Y-43942500D02*
X34682500Y-43942500D01*
G04 #@! TO.C,R5*
X34182500Y-37032500D02*
X37142500Y-37032500D01*
X34182500Y-38492500D02*
X34182500Y-37032500D01*
X37142500Y-37032500D02*
X37142500Y-38492500D01*
X37142500Y-38492500D02*
X34182500Y-38492500D01*
G04 #@! TO.C,J2*
X98175000Y-39200000D02*
X82025000Y-39200000D01*
X82025000Y-47500000D01*
X98175000Y-47500000D01*
X98175000Y-39200000D01*
G04 #@! TO.C,C14*
X77400000Y-44902500D02*
X79220000Y-44902500D01*
X77400000Y-45822500D02*
X77400000Y-44902500D01*
X79220000Y-44902500D02*
X79220000Y-45822500D01*
X79220000Y-45822500D02*
X77400000Y-45822500D01*
G04 #@! TO.C,R3*
X36820000Y-48482500D02*
X39780000Y-48482500D01*
X36820000Y-49942500D02*
X36820000Y-48482500D01*
X39780000Y-48482500D02*
X39780000Y-49942500D01*
X39780000Y-49942500D02*
X36820000Y-49942500D01*
G04 #@! TO.C,R9*
X72820000Y-46530000D02*
X74680000Y-46530000D01*
X72820000Y-47470000D02*
X72820000Y-46530000D01*
X74680000Y-46530000D02*
X74680000Y-47470000D01*
X74680000Y-47470000D02*
X72820000Y-47470000D01*
G04 #@! TO.C,C7*
X40232500Y-43982500D02*
X41692500Y-43982500D01*
X40232500Y-46942500D02*
X40232500Y-43982500D01*
X41692500Y-43982500D02*
X41692500Y-46942500D01*
X41692500Y-46942500D02*
X40232500Y-46942500D01*
G04 #@! TO.C,R6*
X39682500Y-42182500D02*
X42642500Y-42182500D01*
X39682500Y-43642500D02*
X39682500Y-42182500D01*
X42642500Y-42182500D02*
X42642500Y-43642500D01*
X42642500Y-43642500D02*
X39682500Y-43642500D01*
G04 #@! TO.C,U2*
X35500000Y-53750000D02*
X38000000Y-53750000D01*
X35500000Y-56250000D02*
X35500000Y-53750000D01*
X38000000Y-53750000D02*
X38000000Y-56250000D01*
X38000000Y-56250000D02*
X35500000Y-56250000D01*
G04 #@! TO.C,X1*
X67635000Y-47715000D02*
X67635000Y-53315000D01*
X67635000Y-53315000D02*
X79735000Y-53315000D01*
X79735000Y-47715000D02*
X67635000Y-47715000D01*
X79735000Y-53315000D02*
X79735000Y-47715000D01*
G04 #@! TO.C,L1*
X76340000Y-43917500D02*
X77280000Y-43917500D01*
X76340000Y-45777500D02*
X76340000Y-43917500D01*
X77280000Y-43917500D02*
X77280000Y-45777500D01*
X77280000Y-45777500D02*
X76340000Y-45777500D01*
G04 #@! TO.C,C11*
X72040000Y-38502500D02*
X73860000Y-38502500D01*
X72040000Y-39422500D02*
X72040000Y-38502500D01*
X73860000Y-38502500D02*
X73860000Y-39422500D01*
X73860000Y-39422500D02*
X72040000Y-39422500D01*
G04 #@! TO.C,R8*
X75420000Y-38892500D02*
X76360000Y-38892500D01*
X75420000Y-40752500D02*
X75420000Y-38892500D01*
X76360000Y-38892500D02*
X76360000Y-40752500D01*
X76360000Y-40752500D02*
X75420000Y-40752500D01*
G04 #@! TO.C,C8*
X70140000Y-39552500D02*
X71960000Y-39552500D01*
X70140000Y-40472500D02*
X70140000Y-39552500D01*
X71960000Y-39552500D02*
X71960000Y-40472500D01*
X71960000Y-40472500D02*
X70140000Y-40472500D01*
G04 #@! TO.C,C4*
X42020000Y-52270000D02*
X44980000Y-52270000D01*
X42020000Y-53730000D02*
X42020000Y-52270000D01*
X44980000Y-52270000D02*
X44980000Y-53730000D01*
X44980000Y-53730000D02*
X42020000Y-53730000D01*
G04 #@! TO.C,C12*
X79955000Y-49705000D02*
X80875000Y-49705000D01*
X79955000Y-51525000D02*
X79955000Y-49705000D01*
X80875000Y-49705000D02*
X80875000Y-51525000D01*
X80875000Y-51525000D02*
X79955000Y-51525000D01*
G04 #@! TO.C,U1*
X36550000Y-43712500D02*
X40050000Y-43712500D01*
X40050000Y-46712500D01*
X36550000Y-46712500D01*
X36550000Y-43712500D01*
G04 #@! TO.C,L3*
X75155000Y-42807500D02*
X76095000Y-42807500D01*
X75155000Y-44667500D02*
X75155000Y-42807500D01*
X76095000Y-42807500D02*
X76095000Y-44667500D01*
X76095000Y-44667500D02*
X75155000Y-44667500D01*
G04 #@! TO.C,R4*
X34182500Y-38532500D02*
X37142500Y-38532500D01*
X34182500Y-39992500D02*
X34182500Y-38532500D01*
X37142500Y-38532500D02*
X37142500Y-39992500D01*
X37142500Y-39992500D02*
X34182500Y-39992500D01*
G04 #@! TO.C,R2*
X30420000Y-37370000D02*
X33380000Y-37370000D01*
X30420000Y-38830000D02*
X30420000Y-37370000D01*
X33380000Y-37370000D02*
X33380000Y-38830000D01*
X33380000Y-38830000D02*
X30420000Y-38830000D01*
G04 #@! TO.C,L2*
X76145000Y-42842500D02*
X78005000Y-42842500D01*
X76145000Y-43782500D02*
X76145000Y-42842500D01*
X78005000Y-42842500D02*
X78005000Y-43782500D01*
X78005000Y-43782500D02*
X76145000Y-43782500D01*
G04 #@! TO.C,REF\u002A\u002A*
X31950000Y-33000000D02*
G75*
G02*
X26050000Y-33000000I-2950000J0D01*
G01*
X26050000Y-33000000D02*
G75*
G02*
X31950000Y-33000000I2950000J0D01*
G01*
X89950000Y-33000000D02*
G75*
G02*
X84050000Y-33000000I-2950000J0D01*
G01*
X84050000Y-33000000D02*
G75*
G02*
X89950000Y-33000000I2950000J0D01*
G01*
X89950000Y-56000000D02*
G75*
G02*
X84050000Y-56000000I-2950000J0D01*
G01*
X84050000Y-56000000D02*
G75*
G02*
X89950000Y-56000000I2950000J0D01*
G01*
X31950000Y-56000000D02*
G75*
G02*
X26050000Y-56000000I-2950000J0D01*
G01*
X26050000Y-56000000D02*
G75*
G02*
X31950000Y-56000000I2950000J0D01*
G01*
G04 #@! TD*
M02*
