G04 #@! TF.GenerationSoftware,KiCad,Pcbnew,9.0.5*
G04 #@! TF.CreationDate,2025-11-03T18:46:07+02:00*
G04 #@! TF.ProjectId,elecDeTrimisproiect,656c6563-4465-4547-9269-6d697370726f,rev?*
G04 #@! TF.SameCoordinates,Original*
G04 #@! TF.FileFunction,Copper,L1,Top*
G04 #@! TF.FilePolarity,Positive*
%FSLAX46Y46*%
G04 Gerber Fmt 4.6, Leading zero omitted, Abs format (unit mm)*
G04 Created by KiCad (PCBNEW 9.0.5) date 2025-11-03 18:46:07*
%MOMM*%
%LPD*%
G01*
G04 APERTURE LIST*
G04 Aperture macros list*
%AMRoundRect*
0 Rectangle with rounded corners*
0 $1 Rounding radius*
0 $2 $3 $4 $5 $6 $7 $8 $9 X,Y pos of 4 corners*
0 Add a 4 corners polygon primitive as box body*
4,1,4,$2,$3,$4,$5,$6,$7,$8,$9,$2,$3,0*
0 Add four circle primitives for the rounded corners*
1,1,$1+$1,$2,$3*
1,1,$1+$1,$4,$5*
1,1,$1+$1,$6,$7*
1,1,$1+$1,$8,$9*
0 Add four rect primitives between the rounded corners*
20,1,$1+$1,$2,$3,$4,$5,0*
20,1,$1+$1,$4,$5,$6,$7,0*
20,1,$1+$1,$6,$7,$8,$9,0*
20,1,$1+$1,$8,$9,$2,$3,0*%
G04 Aperture macros list end*
G04 #@! TA.AperFunction,HeatsinkPad*
%ADD10R,2.500000X2.500000*%
G04 #@! TD*
G04 #@! TA.AperFunction,SMDPad,CuDef*
%ADD11RoundRect,0.062500X-0.062500X-0.350000X0.062500X-0.350000X0.062500X0.350000X-0.062500X0.350000X0*%
G04 #@! TD*
G04 #@! TA.AperFunction,SMDPad,CuDef*
%ADD12RoundRect,0.062500X-0.350000X-0.062500X0.350000X-0.062500X0.350000X0.062500X-0.350000X0.062500X0*%
G04 #@! TD*
G04 #@! TA.AperFunction,SMDPad,CuDef*
%ADD13RoundRect,0.087500X0.125000X0.087500X-0.125000X0.087500X-0.125000X-0.087500X0.125000X-0.087500X0*%
G04 #@! TD*
G04 #@! TA.AperFunction,SMDPad,CuDef*
%ADD14RoundRect,0.087500X0.087500X0.125000X-0.087500X0.125000X-0.087500X-0.125000X0.087500X-0.125000X0*%
G04 #@! TD*
G04 #@! TA.AperFunction,SMDPad,CuDef*
%ADD15RoundRect,0.225000X-0.250000X0.225000X-0.250000X-0.225000X0.250000X-0.225000X0.250000X0.225000X0*%
G04 #@! TD*
G04 #@! TA.AperFunction,SMDPad,CuDef*
%ADD16RoundRect,0.140000X0.170000X-0.140000X0.170000X0.140000X-0.170000X0.140000X-0.170000X-0.140000X0*%
G04 #@! TD*
G04 #@! TA.AperFunction,SMDPad,CuDef*
%ADD17RoundRect,0.140000X-0.140000X-0.170000X0.140000X-0.170000X0.140000X0.170000X-0.140000X0.170000X0*%
G04 #@! TD*
G04 #@! TA.AperFunction,SMDPad,CuDef*
%ADD18RoundRect,0.225000X0.225000X0.250000X-0.225000X0.250000X-0.225000X-0.250000X0.225000X-0.250000X0*%
G04 #@! TD*
G04 #@! TA.AperFunction,SMDPad,CuDef*
%ADD19RoundRect,0.225000X-0.225000X-0.250000X0.225000X-0.250000X0.225000X0.250000X-0.225000X0.250000X0*%
G04 #@! TD*
G04 #@! TA.AperFunction,SMDPad,CuDef*
%ADD20RoundRect,0.200000X0.200000X0.275000X-0.200000X0.275000X-0.200000X-0.275000X0.200000X-0.275000X0*%
G04 #@! TD*
G04 #@! TA.AperFunction,SMDPad,CuDef*
%ADD21RoundRect,0.200000X-0.275000X0.200000X-0.275000X-0.200000X0.275000X-0.200000X0.275000X0.200000X0*%
G04 #@! TD*
G04 #@! TA.AperFunction,ComponentPad*
%ADD22RoundRect,0.200100X-0.949900X0.949900X-0.949900X-0.949900X0.949900X-0.949900X0.949900X0.949900X0*%
G04 #@! TD*
G04 #@! TA.AperFunction,ComponentPad*
%ADD23C,2.200000*%
G04 #@! TD*
G04 #@! TA.AperFunction,SMDPad,CuDef*
%ADD24RoundRect,0.200000X-0.200000X-0.275000X0.200000X-0.275000X0.200000X0.275000X-0.200000X0.275000X0*%
G04 #@! TD*
G04 #@! TA.AperFunction,SMDPad,CuDef*
%ADD25RoundRect,0.135000X-0.135000X-0.185000X0.135000X-0.185000X0.135000X0.185000X-0.135000X0.185000X0*%
G04 #@! TD*
G04 #@! TA.AperFunction,SMDPad,CuDef*
%ADD26RoundRect,0.225000X0.250000X-0.225000X0.250000X0.225000X-0.250000X0.225000X-0.250000X-0.225000X0*%
G04 #@! TD*
G04 #@! TA.AperFunction,SMDPad,CuDef*
%ADD27R,0.350000X0.375000*%
G04 #@! TD*
G04 #@! TA.AperFunction,SMDPad,CuDef*
%ADD28R,0.375000X0.350000*%
G04 #@! TD*
G04 #@! TA.AperFunction,ComponentPad*
%ADD29C,1.500000*%
G04 #@! TD*
G04 #@! TA.AperFunction,SMDPad,CuDef*
%ADD30RoundRect,0.147500X0.172500X-0.147500X0.172500X0.147500X-0.172500X0.147500X-0.172500X-0.147500X0*%
G04 #@! TD*
G04 #@! TA.AperFunction,SMDPad,CuDef*
%ADD31RoundRect,0.135000X-0.185000X0.135000X-0.185000X-0.135000X0.185000X-0.135000X0.185000X0.135000X0*%
G04 #@! TD*
G04 #@! TA.AperFunction,SMDPad,CuDef*
%ADD32RoundRect,0.140000X0.140000X0.170000X-0.140000X0.170000X-0.140000X-0.170000X0.140000X-0.170000X0*%
G04 #@! TD*
G04 #@! TA.AperFunction,SMDPad,CuDef*
%ADD33RoundRect,0.087500X-0.225000X-0.087500X0.225000X-0.087500X0.225000X0.087500X-0.225000X0.087500X0*%
G04 #@! TD*
G04 #@! TA.AperFunction,SMDPad,CuDef*
%ADD34RoundRect,0.087500X-0.087500X-0.225000X0.087500X-0.225000X0.087500X0.225000X-0.087500X0.225000X0*%
G04 #@! TD*
G04 #@! TA.AperFunction,SMDPad,CuDef*
%ADD35RoundRect,0.147500X-0.172500X0.147500X-0.172500X-0.147500X0.172500X-0.147500X0.172500X0.147500X0*%
G04 #@! TD*
G04 #@! TA.AperFunction,SMDPad,CuDef*
%ADD36RoundRect,0.147500X-0.147500X-0.172500X0.147500X-0.172500X0.147500X0.172500X-0.147500X0.172500X0*%
G04 #@! TD*
G04 #@! TA.AperFunction,ComponentPad*
%ADD37R,1.700000X1.700000*%
G04 #@! TD*
G04 #@! TA.AperFunction,ComponentPad*
%ADD38C,1.700000*%
G04 #@! TD*
G04 #@! TA.AperFunction,ComponentPad*
%ADD39C,5.400000*%
G04 #@! TD*
G04 #@! TA.AperFunction,ViaPad*
%ADD40C,0.600000*%
G04 #@! TD*
G04 #@! TA.AperFunction,Conductor*
%ADD41C,0.500000*%
G04 #@! TD*
G04 #@! TA.AperFunction,Conductor*
%ADD42C,0.200000*%
G04 #@! TD*
G04 #@! TA.AperFunction,Conductor*
%ADD43C,0.300000*%
G04 #@! TD*
G04 APERTURE END LIST*
D10*
G04 #@! TO.P,U4,21*
G04 #@! TO.N,N/C*
X72500000Y-43500000D03*
D11*
G04 #@! TO.P,U4,20,VSS*
G04 #@! TO.N,GNDREF*
X71500000Y-41562500D03*
G04 #@! TO.P,U4,19,DVDD*
G04 #@! TO.N,Net-(U4-DVDD)*
X72000000Y-41562500D03*
G04 #@! TO.P,U4,18,VDD*
G04 #@! TO.N,+3.3V*
X72500000Y-41562500D03*
G04 #@! TO.P,U4,17,VSS*
G04 #@! TO.N,GNDREF*
X73000000Y-41562500D03*
G04 #@! TO.P,U4,16,IREF*
G04 #@! TO.N,Net-(U4-IREF)*
X73500000Y-41562500D03*
D12*
G04 #@! TO.P,U4,15,VDD*
G04 #@! TO.N,+3.3V*
X74437500Y-42500000D03*
G04 #@! TO.P,U4,14,VSS*
G04 #@! TO.N,GNDREF*
X74437500Y-43000000D03*
G04 #@! TO.P,U4,13,ANT2*
G04 #@! TO.N,Net-(U4-ANT2)*
X74437500Y-43500000D03*
G04 #@! TO.P,U4,12,ANT1*
G04 #@! TO.N,Net-(U4-ANT1)*
X74437500Y-44000000D03*
G04 #@! TO.P,U4,11,VDD_PA*
G04 #@! TO.N,Net-(U4-VDD_PA)*
X74437500Y-44500000D03*
D11*
G04 #@! TO.P,U4,10,XC1*
G04 #@! TO.N,Net-(U4-XC1)*
X73500000Y-45437500D03*
G04 #@! TO.P,U4,9,XC2*
G04 #@! TO.N,Net-(U4-XC2)*
X73000000Y-45437500D03*
G04 #@! TO.P,U4,8,VSS*
G04 #@! TO.N,GNDREF*
X72500000Y-45437500D03*
G04 #@! TO.P,U4,7,VDD*
G04 #@! TO.N,+3.3V*
X72000000Y-45437500D03*
G04 #@! TO.P,U4,6,IRQ*
G04 #@! TO.N,/IRQ*
X71500000Y-45437500D03*
D12*
G04 #@! TO.P,U4,5,MISO*
G04 #@! TO.N,/MISO*
X70562500Y-44500000D03*
G04 #@! TO.P,U4,4,MOSI*
G04 #@! TO.N,/MOSI*
X70562500Y-44000000D03*
G04 #@! TO.P,U4,3,SCK*
G04 #@! TO.N,/SCK*
X70562500Y-43500000D03*
G04 #@! TO.P,U4,2,CSN*
G04 #@! TO.N,/CSN*
X70562500Y-43000000D03*
G04 #@! TO.P,U4,1,CE*
G04 #@! TO.N,/CE*
X70562500Y-42500000D03*
G04 #@! TD*
D13*
G04 #@! TO.P,U3,1,Vdd_IO*
G04 #@! TO.N,+3.3V*
X39162500Y-39362500D03*
G04 #@! TO.P,U3,2,SCL*
G04 #@! TO.N,/SCL*
X39162500Y-38862500D03*
D14*
G04 #@! TO.P,U3,3,GND*
G04 #@! TO.N,GNDREF*
X38900000Y-38350000D03*
G04 #@! TO.P,U3,4,SDA*
G04 #@! TO.N,/SDA*
X38400000Y-38350000D03*
G04 #@! TO.P,U3,5,SA0*
G04 #@! TO.N,Net-(U3-SA0)*
X37900000Y-38350000D03*
D13*
G04 #@! TO.P,U3,6,~{CS}*
G04 #@! TO.N,Net-(U3-~{CS})*
X37637500Y-38862500D03*
G04 #@! TO.P,U3,7,INT_DRDY*
G04 #@! TO.N,unconnected-(U3-INT_DRDY-Pad7)*
X37637500Y-39362500D03*
D14*
G04 #@! TO.P,U3,8,GND*
G04 #@! TO.N,GNDREF*
X37900000Y-39875000D03*
G04 #@! TO.P,U3,9,GND*
X38400000Y-39875000D03*
G04 #@! TO.P,U3,10,VDD*
G04 #@! TO.N,+3.3V*
X38900000Y-39875000D03*
G04 #@! TD*
D15*
G04 #@! TO.P,C1,1*
G04 #@! TO.N,Net-(U2-C1)*
X34250000Y-50225000D03*
G04 #@! TO.P,C1,2*
G04 #@! TO.N,GNDREF*
X34250000Y-51775000D03*
G04 #@! TD*
D16*
G04 #@! TO.P,C15,1*
G04 #@! TO.N,Net-(J2-In)*
X80350000Y-43392500D03*
G04 #@! TO.P,C15,2*
G04 #@! TO.N,GNDREF*
X80350000Y-42432500D03*
G04 #@! TD*
D15*
G04 #@! TO.P,C6,1*
G04 #@! TO.N,+3.3V*
X35662500Y-44937500D03*
G04 #@! TO.P,C6,2*
G04 #@! TO.N,GNDREF*
X35662500Y-46487500D03*
G04 #@! TD*
D17*
G04 #@! TO.P,C16,1*
G04 #@! TO.N,Net-(C16-Pad1)*
X78450000Y-43312500D03*
G04 #@! TO.P,C16,2*
G04 #@! TO.N,Net-(J2-In)*
X79410000Y-43312500D03*
G04 #@! TD*
D16*
G04 #@! TO.P,C9,1*
G04 #@! TO.N,Net-(U4-XC2)*
X66915000Y-50995000D03*
G04 #@! TO.P,C9,2*
G04 #@! TO.N,GNDREF*
X66915000Y-50035000D03*
G04 #@! TD*
D18*
G04 #@! TO.P,C5,1*
G04 #@! TO.N,+3.3V*
X38537500Y-41112500D03*
G04 #@! TO.P,C5,2*
G04 #@! TO.N,GNDREF*
X36987500Y-41112500D03*
G04 #@! TD*
D19*
G04 #@! TO.P,C2,1*
G04 #@! TO.N,+3.3V*
X42725000Y-54500000D03*
G04 #@! TO.P,C2,2*
G04 #@! TO.N,GNDREF*
X44275000Y-54500000D03*
G04 #@! TD*
D17*
G04 #@! TO.P,C10,1*
G04 #@! TO.N,GNDREF*
X72470000Y-40012500D03*
G04 #@! TO.P,C10,2*
G04 #@! TO.N,+3.3V*
X73430000Y-40012500D03*
G04 #@! TD*
G04 #@! TO.P,C13,1*
G04 #@! TO.N,Net-(U4-VDD_PA)*
X77830000Y-46362500D03*
G04 #@! TO.P,C13,2*
G04 #@! TO.N,GNDREF*
X78790000Y-46362500D03*
G04 #@! TD*
D20*
G04 #@! TO.P,R1,1*
G04 #@! TO.N,+3.3V*
X45125000Y-38100000D03*
G04 #@! TO.P,R1,2*
G04 #@! TO.N,/SCL*
X43475000Y-38100000D03*
G04 #@! TD*
D19*
G04 #@! TO.P,C3,1*
G04 #@! TO.N,+3.3V*
X42725000Y-56000000D03*
G04 #@! TO.P,C3,2*
G04 #@! TO.N,GNDREF*
X44275000Y-56000000D03*
G04 #@! TD*
D21*
G04 #@! TO.P,R7,1*
G04 #@! TO.N,+3.3V*
X35412500Y-41637500D03*
G04 #@! TO.P,R7,2*
G04 #@! TO.N,Net-(U1-SDO{slash}SA0)*
X35412500Y-43287500D03*
G04 #@! TD*
D20*
G04 #@! TO.P,R5,1*
G04 #@! TO.N,Net-(U3-SA0)*
X36487500Y-37762500D03*
G04 #@! TO.P,R5,2*
G04 #@! TO.N,+3.3V*
X34837500Y-37762500D03*
G04 #@! TD*
D22*
G04 #@! TO.P,J2,1,In*
G04 #@! TO.N,Net-(J2-In)*
X86175000Y-43350000D03*
D23*
G04 #@! TO.P,J2,2,Ext*
G04 #@! TO.N,GNDREF*
X88725000Y-40800000D03*
X83625000Y-40800000D03*
X88725000Y-45900000D03*
X83625000Y-45900000D03*
G04 #@! TD*
D17*
G04 #@! TO.P,C14,1*
G04 #@! TO.N,Net-(U4-VDD_PA)*
X77830000Y-45362500D03*
G04 #@! TO.P,C14,2*
G04 #@! TO.N,GNDREF*
X78790000Y-45362500D03*
G04 #@! TD*
D24*
G04 #@! TO.P,R3,1*
G04 #@! TO.N,Net-(U2-~{CS})*
X37475000Y-49212500D03*
G04 #@! TO.P,R3,2*
G04 #@! TO.N,+3.3V*
X39125000Y-49212500D03*
G04 #@! TD*
D25*
G04 #@! TO.P,R9,1*
G04 #@! TO.N,Net-(U4-XC2)*
X73240000Y-47000000D03*
G04 #@! TO.P,R9,2*
G04 #@! TO.N,Net-(U4-XC1)*
X74260000Y-47000000D03*
G04 #@! TD*
D26*
G04 #@! TO.P,C7,1*
G04 #@! TO.N,GNDREF*
X40962500Y-46237500D03*
G04 #@! TO.P,C7,2*
G04 #@! TO.N,+3.3V*
X40962500Y-44687500D03*
G04 #@! TD*
D20*
G04 #@! TO.P,R6,1*
G04 #@! TO.N,+3.3V*
X41987500Y-42912500D03*
G04 #@! TO.P,R6,2*
G04 #@! TO.N,Net-(U1-CS)*
X40337500Y-42912500D03*
G04 #@! TD*
D27*
G04 #@! TO.P,U2,1,SCL/SPC*
G04 #@! TO.N,/SCL*
X37500000Y-54237500D03*
G04 #@! TO.P,U2,2,NC*
G04 #@! TO.N,unconnected-(U2-NC-Pad2)*
X37000000Y-54237500D03*
G04 #@! TO.P,U2,3,~{CS}*
G04 #@! TO.N,Net-(U2-~{CS})*
X36500000Y-54237500D03*
G04 #@! TO.P,U2,4,SDA/SDI/SDO*
G04 #@! TO.N,/SDA*
X36000000Y-54237500D03*
D28*
G04 #@! TO.P,U2,5,C1*
G04 #@! TO.N,Net-(U2-C1)*
X35987500Y-54750000D03*
G04 #@! TO.P,U2,6,GND*
G04 #@! TO.N,GNDREF*
X35987500Y-55250000D03*
D27*
G04 #@! TO.P,U2,7,DRDY*
G04 #@! TO.N,unconnected-(U2-DRDY-Pad7)*
X36000000Y-55762500D03*
G04 #@! TO.P,U2,8,GND*
G04 #@! TO.N,GNDREF*
X36500000Y-55762500D03*
G04 #@! TO.P,U2,9,Vdd*
G04 #@! TO.N,+3.3V*
X37000000Y-55762500D03*
G04 #@! TO.P,U2,10,Vdd_IO*
X37500000Y-55762500D03*
D28*
G04 #@! TO.P,U2,11,NC*
G04 #@! TO.N,unconnected-(U2-NC-Pad11)*
X37512500Y-55250000D03*
G04 #@! TO.P,U2,12,NC*
G04 #@! TO.N,unconnected-(U2-NC-Pad12)*
X37512500Y-54750000D03*
G04 #@! TD*
D29*
G04 #@! TO.P,X1,1,1*
G04 #@! TO.N,Net-(U4-XC2)*
X71235000Y-50515000D03*
G04 #@! TO.P,X1,2,2*
G04 #@! TO.N,Net-(U4-XC1)*
X76115000Y-50515000D03*
G04 #@! TD*
D30*
G04 #@! TO.P,L1,1,1*
G04 #@! TO.N,Net-(U4-VDD_PA)*
X76810000Y-45332500D03*
G04 #@! TO.P,L1,2,2*
G04 #@! TO.N,Net-(U4-ANT1)*
X76810000Y-44362500D03*
G04 #@! TD*
D17*
G04 #@! TO.P,C11,1*
G04 #@! TO.N,GNDREF*
X72470000Y-38962500D03*
G04 #@! TO.P,C11,2*
G04 #@! TO.N,+3.3V*
X73430000Y-38962500D03*
G04 #@! TD*
D31*
G04 #@! TO.P,R8,1*
G04 #@! TO.N,GNDREF*
X75890000Y-39312500D03*
G04 #@! TO.P,R8,2*
G04 #@! TO.N,Net-(U4-IREF)*
X75890000Y-40332500D03*
G04 #@! TD*
D32*
G04 #@! TO.P,C8,1*
G04 #@! TO.N,Net-(U4-DVDD)*
X71530000Y-40012500D03*
G04 #@! TO.P,C8,2*
G04 #@! TO.N,GNDREF*
X70570000Y-40012500D03*
G04 #@! TD*
D19*
G04 #@! TO.P,C4,1*
G04 #@! TO.N,+3.3V*
X42725000Y-53000000D03*
G04 #@! TO.P,C4,2*
G04 #@! TO.N,GNDREF*
X44275000Y-53000000D03*
G04 #@! TD*
D16*
G04 #@! TO.P,C12,1*
G04 #@! TO.N,Net-(U4-XC1)*
X80415000Y-51095000D03*
G04 #@! TO.P,C12,2*
G04 #@! TO.N,GNDREF*
X80415000Y-50135000D03*
G04 #@! TD*
D33*
G04 #@! TO.P,U1,1,SDO/SA0*
G04 #@! TO.N,Net-(U1-SDO{slash}SA0)*
X37137500Y-44462500D03*
G04 #@! TO.P,U1,2,SDX*
G04 #@! TO.N,+3.3V*
X37137500Y-44962500D03*
G04 #@! TO.P,U1,3,SCX*
X37137500Y-45462500D03*
G04 #@! TO.P,U1,4,INT1*
G04 #@! TO.N,unconnected-(U1-INT1-Pad4)*
X37137500Y-45962500D03*
D34*
G04 #@! TO.P,U1,5,VDDIO*
G04 #@! TO.N,+3.3V*
X37800000Y-46125000D03*
G04 #@! TO.P,U1,6,GND*
G04 #@! TO.N,GNDREF*
X38300000Y-46125000D03*
G04 #@! TO.P,U1,7,GND*
X38800000Y-46125000D03*
D33*
G04 #@! TO.P,U1,8,VDD*
G04 #@! TO.N,+3.3V*
X39462500Y-45962500D03*
G04 #@! TO.P,U1,9,INT2*
G04 #@! TO.N,unconnected-(U1-INT2-Pad9)*
X39462500Y-45462500D03*
G04 #@! TO.P,U1,10,NC*
G04 #@! TO.N,unconnected-(U1-NC-Pad10)*
X39462500Y-44962500D03*
G04 #@! TO.P,U1,11,NC*
G04 #@! TO.N,unconnected-(U1-NC-Pad11)*
X39462500Y-44462500D03*
D34*
G04 #@! TO.P,U1,12,CS*
G04 #@! TO.N,Net-(U1-CS)*
X38800000Y-44300000D03*
G04 #@! TO.P,U1,13,SCL*
G04 #@! TO.N,/SCL*
X38300000Y-44300000D03*
G04 #@! TO.P,U1,14,SDA*
G04 #@! TO.N,/SDA*
X37800000Y-44300000D03*
G04 #@! TD*
D35*
G04 #@! TO.P,L3,1,1*
G04 #@! TO.N,Net-(U4-ANT2)*
X75625000Y-43252500D03*
G04 #@! TO.P,L3,2,2*
G04 #@! TO.N,Net-(U4-ANT1)*
X75625000Y-44222500D03*
G04 #@! TD*
D20*
G04 #@! TO.P,R4,1*
G04 #@! TO.N,Net-(U3-~{CS})*
X36487500Y-39262500D03*
G04 #@! TO.P,R4,2*
G04 #@! TO.N,+3.3V*
X34837500Y-39262500D03*
G04 #@! TD*
G04 #@! TO.P,R2,1*
G04 #@! TO.N,+3.3V*
X32725000Y-38100000D03*
G04 #@! TO.P,R2,2*
G04 #@! TO.N,/SDA*
X31075000Y-38100000D03*
G04 #@! TD*
D36*
G04 #@! TO.P,L2,1,1*
G04 #@! TO.N,Net-(U4-ANT2)*
X76590000Y-43312500D03*
G04 #@! TO.P,L2,2,2*
G04 #@! TO.N,Net-(C16-Pad1)*
X77560000Y-43312500D03*
G04 #@! TD*
D37*
G04 #@! TO.P,J1,1,Pin_1*
G04 #@! TO.N,+3.3V*
X33900000Y-34290000D03*
D38*
G04 #@! TO.P,J1,2,Pin_2*
G04 #@! TO.N,unconnected-(J1-Pin_2-Pad2)*
X33900000Y-31750000D03*
G04 #@! TO.P,J1,3,Pin_3*
G04 #@! TO.N,/SDA*
X36440000Y-34290000D03*
G04 #@! TO.P,J1,4,Pin_4*
G04 #@! TO.N,unconnected-(J1-Pin_4-Pad4)*
X36440000Y-31750000D03*
G04 #@! TO.P,J1,5,Pin_5*
G04 #@! TO.N,/SCL*
X38980000Y-34290000D03*
G04 #@! TO.P,J1,6,Pin_6*
G04 #@! TO.N,GNDREF*
X38980000Y-31750000D03*
G04 #@! TO.P,J1,7,Pin_7*
G04 #@! TO.N,unconnected-(J1-Pin_7-Pad7)*
X41520000Y-34290000D03*
G04 #@! TO.P,J1,8,Pin_8*
G04 #@! TO.N,unconnected-(J1-Pin_8-Pad8)*
X41520000Y-31750000D03*
G04 #@! TO.P,J1,9,Pin_9*
G04 #@! TO.N,GNDREF*
X44060000Y-34290000D03*
G04 #@! TO.P,J1,10,Pin_10*
G04 #@! TO.N,unconnected-(J1-Pin_10-Pad10)*
X44060000Y-31750000D03*
G04 #@! TO.P,J1,11,Pin_11*
G04 #@! TO.N,/CE*
X46600000Y-34290000D03*
G04 #@! TO.P,J1,12,Pin_12*
G04 #@! TO.N,unconnected-(J1-Pin_12-Pad12)*
X46600000Y-31750000D03*
G04 #@! TO.P,J1,13,Pin_13*
G04 #@! TO.N,unconnected-(J1-Pin_13-Pad13)*
X49140000Y-34290000D03*
G04 #@! TO.P,J1,14,Pin_14*
G04 #@! TO.N,GNDREF*
X49140000Y-31750000D03*
G04 #@! TO.P,J1,15,Pin_15*
G04 #@! TO.N,unconnected-(J1-Pin_15-Pad15)*
X51680000Y-34290000D03*
G04 #@! TO.P,J1,16,Pin_16*
G04 #@! TO.N,unconnected-(J1-Pin_16-Pad16)*
X51680000Y-31750000D03*
G04 #@! TO.P,J1,17,Pin_17*
G04 #@! TO.N,+3.3V*
X54220000Y-34290000D03*
G04 #@! TO.P,J1,18,Pin_18*
G04 #@! TO.N,/IRQ*
X54220000Y-31750000D03*
G04 #@! TO.P,J1,19,Pin_19*
G04 #@! TO.N,/MOSI*
X56760000Y-34290000D03*
G04 #@! TO.P,J1,20,Pin_20*
G04 #@! TO.N,GNDREF*
X56760000Y-31750000D03*
G04 #@! TO.P,J1,21,Pin_21*
G04 #@! TO.N,/MISO*
X59300000Y-34290000D03*
G04 #@! TO.P,J1,22,Pin_22*
G04 #@! TO.N,unconnected-(J1-Pin_22-Pad22)*
X59300000Y-31750000D03*
G04 #@! TO.P,J1,23,Pin_23*
G04 #@! TO.N,/SCK*
X61840000Y-34290000D03*
G04 #@! TO.P,J1,24,Pin_24*
G04 #@! TO.N,/CSN*
X61840000Y-31750000D03*
G04 #@! TO.P,J1,25,Pin_25*
G04 #@! TO.N,GNDREF*
X64380000Y-34290000D03*
G04 #@! TO.P,J1,26,Pin_26*
G04 #@! TO.N,unconnected-(J1-Pin_26-Pad26)*
X64380000Y-31750000D03*
G04 #@! TO.P,J1,27,Pin_27*
G04 #@! TO.N,unconnected-(J1-Pin_27-Pad27)*
X66920000Y-34290000D03*
G04 #@! TO.P,J1,28,Pin_28*
G04 #@! TO.N,unconnected-(J1-Pin_28-Pad28)*
X66920000Y-31750000D03*
G04 #@! TO.P,J1,29,Pin_29*
G04 #@! TO.N,unconnected-(J1-Pin_29-Pad29)*
X69460000Y-34290000D03*
G04 #@! TO.P,J1,30,Pin_30*
G04 #@! TO.N,GNDREF*
X69460000Y-31750000D03*
G04 #@! TO.P,J1,31,Pin_31*
G04 #@! TO.N,unconnected-(J1-Pin_31-Pad31)*
X72000000Y-34290000D03*
G04 #@! TO.P,J1,32,Pin_32*
G04 #@! TO.N,unconnected-(J1-Pin_32-Pad32)*
X72000000Y-31750000D03*
G04 #@! TO.P,J1,33,Pin_33*
G04 #@! TO.N,unconnected-(J1-Pin_33-Pad33)*
X74540000Y-34290000D03*
G04 #@! TO.P,J1,34,Pin_34*
G04 #@! TO.N,GNDREF*
X74540000Y-31750000D03*
G04 #@! TO.P,J1,35,Pin_35*
G04 #@! TO.N,unconnected-(J1-Pin_35-Pad35)*
X77080000Y-34290000D03*
G04 #@! TO.P,J1,36,Pin_36*
G04 #@! TO.N,unconnected-(J1-Pin_36-Pad36)*
X77080000Y-31750000D03*
G04 #@! TO.P,J1,37,Pin_37*
G04 #@! TO.N,unconnected-(J1-Pin_37-Pad37)*
X79620000Y-34290000D03*
G04 #@! TO.P,J1,38,Pin_38*
G04 #@! TO.N,unconnected-(J1-Pin_38-Pad38)*
X79620000Y-31750000D03*
G04 #@! TO.P,J1,39,Pin_39*
G04 #@! TO.N,GNDREF*
X82160000Y-34290000D03*
G04 #@! TO.P,J1,40,Pin_40*
G04 #@! TO.N,unconnected-(J1-Pin_40-Pad40)*
X82160000Y-31750000D03*
G04 #@! TD*
D39*
G04 #@! TO.P,REF\u002A\u002A,1*
G04 #@! TO.N,N/C*
X29000000Y-33000000D03*
G04 #@! TD*
G04 #@! TO.P,REF\u002A\u002A,1*
G04 #@! TO.N,N/C*
X87000000Y-33000000D03*
G04 #@! TD*
G04 #@! TO.P,REF\u002A\u002A,1*
G04 #@! TO.N,N/C*
X87000000Y-56000000D03*
G04 #@! TD*
G04 #@! TO.P,REF\u002A\u002A,1*
G04 #@! TO.N,N/C*
X29000000Y-56000000D03*
G04 #@! TD*
D40*
G04 #@! TO.N,GNDREF*
X71900000Y-37700000D03*
X32500000Y-43750000D03*
X32250000Y-40750000D03*
X39500000Y-57750000D03*
X33750000Y-57000000D03*
X39750000Y-53000000D03*
X53750000Y-39500000D03*
X49250000Y-43750000D03*
X53000000Y-51250000D03*
X28500000Y-46250000D03*
X44250000Y-57500000D03*
X46250000Y-54500000D03*
X44250000Y-51250000D03*
G04 #@! TO.N,+3.3V*
X41462500Y-50262500D03*
G04 #@! TO.N,GNDREF*
X32525000Y-51775000D03*
X63925000Y-47000000D03*
X54000000Y-47600000D03*
X76050000Y-46712500D03*
X89800000Y-47650000D03*
X68600000Y-39262500D03*
X81400000Y-37162500D03*
X77100000Y-39462500D03*
X87950000Y-37150000D03*
X40462500Y-47262500D03*
X67685000Y-53002500D03*
X85750000Y-52600000D03*
X35662500Y-47562500D03*
X88150000Y-52550000D03*
X68385000Y-48165000D03*
X80735000Y-53102500D03*
X80535000Y-48765000D03*
X85700000Y-48150000D03*
X87750000Y-48200000D03*
X46100000Y-39750000D03*
X85250000Y-49950000D03*
X81050000Y-41312500D03*
X76700000Y-37162500D03*
X89700000Y-37150000D03*
X63950000Y-49675000D03*
X79850000Y-45362500D03*
X72200000Y-47162500D03*
X75500000Y-37162500D03*
X77150000Y-41012500D03*
X83050000Y-48150000D03*
X76750000Y-42312500D03*
X79250000Y-39712500D03*
X89750000Y-38450000D03*
X89850000Y-49550000D03*
X66985000Y-48565000D03*
X83200000Y-49850000D03*
X28250000Y-40800000D03*
X79050000Y-37162500D03*
X54200000Y-37300000D03*
X89700000Y-43550000D03*
X39362500Y-37062500D03*
X73735000Y-51865000D03*
X89700000Y-42100000D03*
X79950000Y-46962500D03*
X54050000Y-43400000D03*
X83650000Y-52650000D03*
X67600000Y-37212500D03*
X87750000Y-49950000D03*
X64025000Y-52400000D03*
X64050000Y-42000000D03*
X66075000Y-43975000D03*
X36162500Y-40312500D03*
X45050000Y-49700000D03*
X89850000Y-51500000D03*
X53800000Y-55900000D03*
X81050000Y-39762500D03*
X28350000Y-51000000D03*
X86000000Y-37150000D03*
X69800000Y-37212500D03*
X84050000Y-37200000D03*
G04 #@! TO.N,+3.3V*
X75393750Y-41406250D03*
X34162500Y-41637500D03*
X39200000Y-48000000D03*
X37962500Y-42162500D03*
X74800000Y-38612500D03*
G04 #@! TD*
D41*
G04 #@! TO.N,Net-(J2-In)*
X80350000Y-43392500D02*
X86132500Y-43392500D01*
X86132500Y-43392500D02*
X86175000Y-43350000D01*
D42*
G04 #@! TO.N,Net-(U4-VDD_PA)*
X76810000Y-45332500D02*
X75582500Y-45332500D01*
X75582500Y-45332500D02*
X74750000Y-44500000D01*
X74750000Y-44500000D02*
X74437500Y-44500000D01*
D43*
G04 #@! TO.N,+3.3V*
X75094037Y-42344037D02*
X75094037Y-41705963D01*
X75094037Y-41705963D02*
X75393750Y-41406250D01*
D42*
X74938074Y-42500000D02*
X75094037Y-42344037D01*
X74437500Y-42500000D02*
X74938074Y-42500000D01*
G04 #@! TO.N,Net-(U4-IREF)*
X73500000Y-41562500D02*
X74730000Y-40332500D01*
X74730000Y-40332500D02*
X75890000Y-40332500D01*
G04 #@! TO.N,+3.3V*
X73430000Y-40012500D02*
X73430000Y-38962500D01*
X72500000Y-40942500D02*
X73430000Y-40012500D01*
G04 #@! TO.N,GNDREF*
X70570000Y-40012500D02*
X70570000Y-40070000D01*
X70570000Y-40070000D02*
X71500000Y-41000000D01*
X71500000Y-41000000D02*
X71500000Y-41562500D01*
X73000000Y-41000000D02*
X73250000Y-40750000D01*
X73000000Y-41562500D02*
X73000000Y-41000000D01*
X73250000Y-40750000D02*
X73628404Y-40750000D01*
X73628404Y-40750000D02*
X75065904Y-39312500D01*
X75065904Y-39312500D02*
X75890000Y-39312500D01*
G04 #@! TO.N,Net-(U4-XC2)*
X73240000Y-47000000D02*
X73240000Y-46722500D01*
X73240000Y-46722500D02*
X73000000Y-46482500D01*
X73000000Y-46482500D02*
X73000000Y-45437500D01*
G04 #@! TO.N,GNDREF*
X72500000Y-45437500D02*
X72500000Y-46153298D01*
X72500000Y-46153298D02*
X68618298Y-50035000D01*
X68618298Y-50035000D02*
X66915000Y-50035000D01*
G04 #@! TO.N,Net-(U4-XC1)*
X74350000Y-46812500D02*
X74312500Y-46812500D01*
X74312500Y-46812500D02*
X73500000Y-46000000D01*
X73500000Y-46000000D02*
X73500000Y-45437500D01*
G04 #@! TO.N,/IRQ*
X71500000Y-45437500D02*
X71500000Y-45775000D01*
X71500000Y-45775000D02*
X71175000Y-46100000D01*
X71175000Y-46100000D02*
X66192240Y-46100000D01*
X66192240Y-46100000D02*
X55525000Y-35432760D01*
X55525000Y-35432760D02*
X55525000Y-34882760D01*
G04 #@! TO.N,/SCK*
X70562500Y-43500000D02*
X69575000Y-43500000D01*
X69575000Y-43500000D02*
X61840000Y-35765000D01*
X61840000Y-35765000D02*
X61840000Y-34290000D01*
G04 #@! TO.N,/MISO*
X70562500Y-44500000D02*
X68497500Y-44500000D01*
X68497500Y-44500000D02*
X59300000Y-35302500D01*
X59300000Y-35302500D02*
X59300000Y-34290000D01*
G04 #@! TO.N,/MOSI*
X70562500Y-44000000D02*
X68934240Y-44000000D01*
X68934240Y-44000000D02*
X60451000Y-35516760D01*
X60451000Y-35516760D02*
X60451000Y-34966760D01*
G04 #@! TO.N,/CSN*
X70562500Y-43000000D02*
X70134202Y-43000000D01*
X70134202Y-43000000D02*
X63229000Y-36094798D01*
X63229000Y-36094798D02*
X63229000Y-35250000D01*
G04 #@! TO.N,/CE*
X70562500Y-42500000D02*
X70098064Y-42500000D01*
X70098064Y-42500000D02*
X65531000Y-37932936D01*
X65531000Y-37932936D02*
X65531000Y-37382936D01*
G04 #@! TO.N,GNDREF*
X44275000Y-57475000D02*
X44250000Y-57500000D01*
X44275000Y-56000000D02*
X44275000Y-57475000D01*
X44275000Y-54500000D02*
X46250000Y-54500000D01*
X44275000Y-51275000D02*
X44250000Y-51250000D01*
X44275000Y-53000000D02*
X44275000Y-51275000D01*
D43*
G04 #@! TO.N,+3.3V*
X41012500Y-55750000D02*
X41500000Y-55750000D01*
X41500000Y-55750000D02*
X41750000Y-56000000D01*
X41750000Y-56000000D02*
X42725000Y-56000000D01*
D42*
G04 #@! TO.N,/SCL*
X37500000Y-54237500D02*
X37500000Y-51000000D01*
X43275000Y-38300000D02*
X43475000Y-38100000D01*
X37500000Y-51000000D02*
X38000000Y-50500000D01*
X38000000Y-50500000D02*
X40000000Y-50500000D01*
X40000000Y-50500000D02*
X43275000Y-47225000D01*
X43275000Y-47225000D02*
X43275000Y-38300000D01*
G04 #@! TO.N,Net-(U2-~{CS})*
X36500000Y-54237500D02*
X36500000Y-50187500D01*
X36500000Y-50187500D02*
X37475000Y-49212500D01*
G04 #@! TO.N,/SDA*
X35993750Y-49093750D02*
X35993750Y-49581250D01*
X35993750Y-49581250D02*
X36000000Y-49587500D01*
X35993750Y-49093750D02*
X31075000Y-44175000D01*
X31075000Y-44175000D02*
X31075000Y-36525000D01*
X31075000Y-36525000D02*
X32749000Y-34851000D01*
X32749000Y-34851000D02*
X32749000Y-33139000D01*
X32749000Y-33139000D02*
X35289000Y-33139000D01*
X35289000Y-33139000D02*
X36440000Y-34290000D01*
G04 #@! TO.N,Net-(U2-C1)*
X34250000Y-50225000D02*
X35276000Y-51251000D01*
G04 #@! TO.N,GNDREF*
X34250000Y-51775000D02*
X34500000Y-52025000D01*
X34500000Y-52025000D02*
X34500000Y-54237500D01*
G04 #@! TO.N,Net-(U2-C1)*
X35987500Y-54750000D02*
X35548000Y-54750000D01*
X35548000Y-54750000D02*
X35276000Y-54478000D01*
X35276000Y-54478000D02*
X35276000Y-51251000D01*
G04 #@! TO.N,GNDREF*
X34500000Y-54237500D02*
X35512500Y-55250000D01*
X35512500Y-55250000D02*
X35987500Y-55250000D01*
X34500000Y-54237500D02*
X34506250Y-54243750D01*
G04 #@! TO.N,/SCL*
X37500000Y-53625000D02*
X37500000Y-53637500D01*
D43*
G04 #@! TO.N,+3.3V*
X42725000Y-50925000D02*
X42725000Y-50500000D01*
X42725000Y-50500000D02*
X42725000Y-49675000D01*
X44925000Y-38100000D02*
X50410000Y-38100000D01*
X42725000Y-49675000D02*
X44925000Y-47475000D01*
X44925000Y-47475000D02*
X44925000Y-38100000D01*
X50410000Y-38100000D02*
X54220000Y-34290000D01*
X37500000Y-55762500D02*
X37525000Y-55762500D01*
X37525000Y-55762500D02*
X37537500Y-55750000D01*
X37537500Y-55750000D02*
X41012500Y-55750000D01*
D42*
X37000000Y-55762500D02*
X37500000Y-55762500D01*
G04 #@! TO.N,GNDREF*
X32525000Y-51775000D02*
X34250000Y-51775000D01*
X36500000Y-55762500D02*
X36500000Y-55298000D01*
X36500000Y-55298000D02*
X36452000Y-55250000D01*
X36452000Y-55250000D02*
X35987500Y-55250000D01*
G04 #@! TO.N,/SDA*
X36000000Y-54237500D02*
X36000000Y-49587500D01*
G04 #@! TO.N,GNDREF*
X38801001Y-46438500D02*
X38800000Y-46437499D01*
X78790000Y-46362500D02*
X78790000Y-45362500D01*
X38900000Y-37525000D02*
X39362500Y-37062500D01*
X40962500Y-46762500D02*
X40462500Y-47262500D01*
X75589436Y-42312500D02*
X76750000Y-42312500D01*
X74437500Y-43000000D02*
X74901936Y-43000000D01*
X38800000Y-46437499D02*
X38800000Y-46125000D01*
X40962500Y-46237500D02*
X40962500Y-46762500D01*
X74901936Y-43000000D02*
X75589436Y-42312500D01*
X40962500Y-46237500D02*
X40761500Y-46438500D01*
X37900000Y-40200000D02*
X36987500Y-41112500D01*
X72470000Y-38962500D02*
X72470000Y-40012500D01*
X36362500Y-40512500D02*
X36162500Y-40312500D01*
X37900000Y-39875000D02*
X37900000Y-40200000D01*
X38900000Y-38350000D02*
X38900000Y-37525000D01*
X35662500Y-46362500D02*
X35662500Y-47562500D01*
X36437500Y-40587500D02*
X36362500Y-40512500D01*
X37112500Y-41262500D02*
X36437500Y-40587500D01*
X40761500Y-46438500D02*
X38801001Y-46438500D01*
X38300000Y-46125000D02*
X38800000Y-46125000D01*
X37900000Y-39875000D02*
X38400000Y-39875000D01*
X71530000Y-41532500D02*
X71500000Y-41562500D01*
G04 #@! TO.N,+3.3V*
X35437500Y-44962500D02*
X37137500Y-44962500D01*
D43*
X34162500Y-41637500D02*
X34162500Y-44162500D01*
X34937500Y-44937500D02*
X35662500Y-44937500D01*
D42*
X39162500Y-39612500D02*
X38900000Y-39875000D01*
D43*
X71167726Y-46663500D02*
X65843500Y-46663500D01*
D42*
X37800000Y-46125000D02*
X37800000Y-45760652D01*
X37800000Y-45760652D02*
X37501848Y-45462500D01*
X72000000Y-45865798D02*
X71202298Y-46663500D01*
D43*
X39200000Y-48000000D02*
X37912500Y-48000000D01*
D42*
X34787500Y-37662500D02*
X34787500Y-39162500D01*
D43*
X38537500Y-41587500D02*
X37962500Y-42162500D01*
X34162500Y-41637500D02*
X34787500Y-41012500D01*
X32725000Y-38100000D02*
X32725000Y-35465000D01*
X37912500Y-48000000D02*
X37800000Y-47887500D01*
D42*
X39462500Y-45962500D02*
X39826848Y-45962500D01*
X39826848Y-45962500D02*
X40962500Y-44826848D01*
D43*
X38537500Y-41112500D02*
X38537500Y-41587500D01*
D42*
X35262500Y-44787500D02*
X35437500Y-44962500D01*
D43*
X39200000Y-48000000D02*
X40737500Y-48000000D01*
D42*
X37137500Y-45462500D02*
X37137500Y-44962500D01*
X74800000Y-38612500D02*
X74450000Y-38962500D01*
X37501848Y-45462500D02*
X37137500Y-45462500D01*
X40962500Y-44826848D02*
X40962500Y-44687500D01*
X72500000Y-40942500D02*
X72500000Y-41562500D01*
X71202298Y-46663500D02*
X70500000Y-46663500D01*
X38537500Y-41112500D02*
X38900000Y-40750000D01*
D43*
X37800000Y-47887500D02*
X37800000Y-47062500D01*
X34162500Y-44162500D02*
X34937500Y-44937500D01*
D42*
X38900000Y-40750000D02*
X38900000Y-39875000D01*
D43*
X71600000Y-46231226D02*
X71167726Y-46663500D01*
X42725000Y-56000000D02*
X42725000Y-53000000D01*
X33900000Y-36700000D02*
X33900000Y-34290000D01*
X34787500Y-41012500D02*
X34787500Y-39162500D01*
X54220000Y-34490000D02*
X54220000Y-34290000D01*
D42*
X74800000Y-38612500D02*
X74800000Y-38642500D01*
X72000000Y-45437500D02*
X72000000Y-45865798D01*
D43*
X34787500Y-37587500D02*
X33900000Y-36700000D01*
D42*
X37800000Y-47062500D02*
X37800000Y-46125000D01*
D43*
X65843500Y-46663500D02*
X54120000Y-34940000D01*
X34787500Y-37662500D02*
X34787500Y-37587500D01*
X41788500Y-46949000D02*
X41788500Y-45513500D01*
X32725000Y-35465000D02*
X33900000Y-34290000D01*
X40737500Y-48000000D02*
X41788500Y-46949000D01*
X40962500Y-44687500D02*
X40962500Y-43937500D01*
X39200000Y-48000000D02*
X39200000Y-49137500D01*
D42*
X74450000Y-38962500D02*
X73430000Y-38962500D01*
D43*
X42725000Y-53000000D02*
X42725000Y-50925000D01*
X41788500Y-45513500D02*
X40962500Y-44687500D01*
D42*
X39162500Y-39362500D02*
X39162500Y-39612500D01*
D43*
X40962500Y-43937500D02*
X41987500Y-42912500D01*
X39200000Y-49137500D02*
X39125000Y-49212500D01*
D42*
G04 #@! TO.N,Net-(U4-DVDD)*
X72000000Y-40482500D02*
X72000000Y-41562500D01*
X71530000Y-40012500D02*
X72000000Y-40482500D01*
G04 #@! TO.N,Net-(U4-XC2)*
X67395000Y-50515000D02*
X66915000Y-50995000D01*
X71235000Y-50515000D02*
X73265000Y-48485000D01*
X73265000Y-48485000D02*
X73265000Y-47165000D01*
X71235000Y-50515000D02*
X67395000Y-50515000D01*
G04 #@! TO.N,Net-(U4-XC1)*
X74285000Y-47165000D02*
X74285000Y-48685000D01*
X76695000Y-51095000D02*
X76115000Y-50515000D01*
X74285000Y-48685000D02*
X76115000Y-50515000D01*
X80415000Y-51095000D02*
X76695000Y-51095000D01*
G04 #@! TO.N,Net-(U4-VDD_PA)*
X76840000Y-45362500D02*
X76810000Y-45332500D01*
X77830000Y-46362500D02*
X77830000Y-45362500D01*
X77830000Y-45362500D02*
X76840000Y-45362500D01*
D41*
G04 #@! TO.N,Net-(J2-In)*
X86175000Y-43350000D02*
X86112500Y-43412500D01*
D42*
X79610000Y-43412500D02*
X79690000Y-43492500D01*
D41*
X86112500Y-43412500D02*
X85987500Y-43412500D01*
D42*
X80330000Y-43412500D02*
X79610000Y-43412500D01*
D41*
X86150000Y-43450000D02*
X86225000Y-43375000D01*
X86187500Y-43412500D02*
X86225000Y-43375000D01*
D42*
X80350000Y-43392500D02*
X80330000Y-43412500D01*
G04 #@! TO.N,Net-(C16-Pad1)*
X78650000Y-43412500D02*
X77730000Y-43412500D01*
G04 #@! TO.N,/CE*
X64856760Y-33139000D02*
X63903240Y-33139000D01*
X47989000Y-32901000D02*
X46600000Y-34290000D01*
X63903240Y-33139000D02*
X62991000Y-32226760D01*
X65531000Y-37382936D02*
X65531000Y-33813240D01*
X53743240Y-30599000D02*
X53069000Y-31273240D01*
X53069000Y-32226760D02*
X52394760Y-32901000D01*
X52394760Y-32901000D02*
X47989000Y-32901000D01*
X62316760Y-30599000D02*
X53743240Y-30599000D01*
X53069000Y-31273240D02*
X53069000Y-32226760D01*
X65531000Y-33813240D02*
X64856760Y-33139000D01*
X62991000Y-32226760D02*
X62991000Y-31273240D01*
X62991000Y-31273240D02*
X62316760Y-30599000D01*
G04 #@! TO.N,/MISO*
X59300000Y-34752500D02*
X59300000Y-34290000D01*
G04 #@! TO.N,/SCK*
X61840000Y-34455798D02*
X61840000Y-34290000D01*
X61640000Y-35015000D02*
X61640000Y-34455798D01*
G04 #@! TO.N,/MOSI*
X59776760Y-33139000D02*
X57911000Y-33139000D01*
X60451000Y-34966760D02*
X60451000Y-33813240D01*
X57911000Y-33139000D02*
X56760000Y-34290000D01*
X60451000Y-33813240D02*
X59776760Y-33139000D01*
G04 #@! TO.N,/SDA*
X36188500Y-41224436D02*
X35561500Y-40597436D01*
X38400000Y-38350000D02*
X38400000Y-36250000D01*
X37800000Y-44200000D02*
X36188500Y-42588500D01*
X35561500Y-35168500D02*
X36440000Y-34290000D01*
X37800000Y-44300000D02*
X37800000Y-44200000D01*
X35561500Y-40597436D02*
X35561500Y-35168500D01*
X36188500Y-42588500D02*
X36188500Y-41224436D01*
X38400000Y-36250000D02*
X36440000Y-34290000D01*
G04 #@! TO.N,/SCL*
X39162500Y-38862500D02*
X39362500Y-38862500D01*
X38300000Y-44300000D02*
X38300000Y-43300000D01*
X39042500Y-34852500D02*
X42452500Y-38262500D01*
X38300000Y-43300000D02*
X43337500Y-38262500D01*
X39962500Y-38262500D02*
X43337500Y-38262500D01*
X39362500Y-38862500D02*
X39962500Y-38262500D01*
G04 #@! TO.N,/CSN*
X63229000Y-35544798D02*
X63229000Y-33139000D01*
X63229000Y-33139000D02*
X61840000Y-31750000D01*
G04 #@! TO.N,Net-(U4-ANT1)*
X76670000Y-44222500D02*
X76810000Y-44362500D01*
X74437500Y-44000000D02*
X75402500Y-44000000D01*
X75402500Y-44000000D02*
X75625000Y-44222500D01*
X75625000Y-44222500D02*
X76670000Y-44222500D01*
G04 #@! TO.N,Net-(U4-ANT2)*
X76760000Y-43412500D02*
X75845000Y-43412500D01*
X74511500Y-43426000D02*
X74437500Y-43500000D01*
X75660000Y-43227500D02*
X75138298Y-43227500D01*
X75845000Y-43412500D02*
X75660000Y-43227500D01*
X74939798Y-43426000D02*
X74511500Y-43426000D01*
X75138298Y-43227500D02*
X74939798Y-43426000D01*
G04 #@! TO.N,Net-(U3-~{CS})*
X36737500Y-38862500D02*
X37637500Y-38862500D01*
X36437500Y-39162500D02*
X36737500Y-38862500D01*
G04 #@! TO.N,Net-(U3-SA0)*
X37212500Y-37662500D02*
X37900000Y-38350000D01*
X36437500Y-37662500D02*
X37212500Y-37662500D01*
G04 #@! TO.N,Net-(U1-CS)*
X38800000Y-43987501D02*
X39875001Y-42912500D01*
X38800000Y-44300000D02*
X38800000Y-43987501D01*
X39875001Y-42912500D02*
X40337500Y-42912500D01*
G04 #@! TO.N,Net-(U1-SDO{slash}SA0)*
X37137500Y-44462500D02*
X36862500Y-44462500D01*
X36862500Y-44462500D02*
X35762500Y-43362500D01*
G04 #@! TO.N,/IRQ*
X55525000Y-34882760D02*
X55525000Y-33055000D01*
X55525000Y-33055000D02*
X54220000Y-31750000D01*
D43*
G04 #@! TO.N,+3.3V*
X41462500Y-50262500D02*
X42487500Y-50262500D01*
X42487500Y-50262500D02*
X42725000Y-50500000D01*
G04 #@! TD*
G04 #@! TA.AperFunction,Conductor*
G04 #@! TO.N,GNDREF*
G36*
X40772026Y-50698379D02*
G01*
X40803413Y-50721182D01*
X40812669Y-50731540D01*
X40864673Y-50796751D01*
X40928249Y-50860327D01*
X40998544Y-50916385D01*
X40998548Y-50916387D01*
X40998550Y-50916389D01*
X41055941Y-50952450D01*
X41074673Y-50964220D01*
X41149736Y-51000369D01*
X41155681Y-51003232D01*
X41182488Y-51012611D01*
X41240544Y-51032926D01*
X41328200Y-51052933D01*
X41417540Y-51062999D01*
X41417541Y-51063000D01*
X41417545Y-51063000D01*
X41507459Y-51063000D01*
X41507459Y-51062999D01*
X41596800Y-51052933D01*
X41684456Y-51032926D01*
X41769321Y-51003231D01*
X41850327Y-50964220D01*
X41901595Y-50932005D01*
X41915640Y-50926003D01*
X41929249Y-50919069D01*
X41933403Y-50918410D01*
X41937269Y-50916759D01*
X41967567Y-50913000D01*
X41998682Y-50913000D01*
X41992677Y-52231309D01*
X41954058Y-52269929D01*
X41897149Y-52343686D01*
X41897146Y-52343689D01*
X41850142Y-52424107D01*
X41813800Y-52509894D01*
X41813799Y-52509895D01*
X41788731Y-52599605D01*
X41775338Y-52691805D01*
X41775338Y-52691807D01*
X41774500Y-52712717D01*
X41774500Y-53287259D01*
X41774879Y-53296718D01*
X41775339Y-53308201D01*
X41775339Y-53308207D01*
X41775340Y-53308209D01*
X41788732Y-53400395D01*
X41813799Y-53490104D01*
X41813800Y-53490105D01*
X41813802Y-53490111D01*
X41838028Y-53547296D01*
X41850142Y-53575892D01*
X41897146Y-53656310D01*
X41897148Y-53656312D01*
X41897150Y-53656315D01*
X41909071Y-53671765D01*
X41910989Y-53674251D01*
X41929592Y-53708296D01*
X41936763Y-53746423D01*
X41931802Y-53784900D01*
X41915194Y-53819961D01*
X41910989Y-53825749D01*
X41897149Y-53843686D01*
X41897146Y-53843689D01*
X41850142Y-53924107D01*
X41813800Y-54009894D01*
X41813799Y-54009895D01*
X41788731Y-54099605D01*
X41775338Y-54191805D01*
X41775338Y-54191807D01*
X41774500Y-54212717D01*
X41774500Y-54787259D01*
X41774879Y-54796718D01*
X41775339Y-54808201D01*
X41775339Y-54808207D01*
X41775340Y-54808209D01*
X41788731Y-54900390D01*
X41806788Y-54965012D01*
X41811254Y-55003550D01*
X41803594Y-55041582D01*
X41784555Y-55075385D01*
X41756003Y-55101651D01*
X41720732Y-55117808D01*
X41682194Y-55122274D01*
X41655271Y-55118157D01*
X41644836Y-55115361D01*
X41627177Y-55110629D01*
X41542637Y-55099500D01*
X41542636Y-55099500D01*
X41055136Y-55099500D01*
X38323695Y-55099500D01*
X38285377Y-55093431D01*
X38250810Y-55075818D01*
X38223377Y-55048385D01*
X38205764Y-55013818D01*
X38199695Y-54975500D01*
X38199837Y-54969564D01*
X38200499Y-54955744D01*
X38200500Y-54955731D01*
X38200499Y-54544270D01*
X38199672Y-54526994D01*
X38186488Y-54451282D01*
X38182017Y-54438041D01*
X38175507Y-54399795D01*
X38175499Y-54398368D01*
X38175499Y-54019270D01*
X38175050Y-54009894D01*
X38174672Y-54001994D01*
X38161488Y-53926282D01*
X38136901Y-53853470D01*
X38114447Y-53810225D01*
X38102179Y-53773425D01*
X38100500Y-53753090D01*
X38100500Y-51300097D01*
X38102027Y-51290455D01*
X38102027Y-51280699D01*
X38105042Y-51271418D01*
X38106569Y-51261779D01*
X38110998Y-51253084D01*
X38114015Y-51243802D01*
X38119752Y-51235905D01*
X38124182Y-51227212D01*
X38136819Y-51212416D01*
X38212416Y-51136819D01*
X38243802Y-51114015D01*
X38280699Y-51102027D01*
X38300097Y-51100500D01*
X40039352Y-51100500D01*
X40039359Y-51100500D01*
X40117403Y-51090225D01*
X40193438Y-51069851D01*
X40266164Y-51039727D01*
X40274789Y-51034747D01*
X40277946Y-51032925D01*
X40287781Y-51027246D01*
X40334336Y-51000369D01*
X40396787Y-50952449D01*
X40628058Y-50721176D01*
X40659436Y-50698380D01*
X40696333Y-50686391D01*
X40735129Y-50686391D01*
X40772026Y-50698379D01*
G37*
G04 #@! TD.AperFunction*
G04 #@! TD*
G04 #@! TA.AperFunction,Conductor*
G04 #@! TO.N,GNDREF*
G36*
X78952735Y-44045457D02*
G01*
X78983252Y-44055372D01*
X79034481Y-44079736D01*
X79034486Y-44079737D01*
X79034487Y-44079738D01*
X79034488Y-44079739D01*
X79081074Y-44094524D01*
X79117998Y-44106243D01*
X79195263Y-44119564D01*
X79204352Y-44121132D01*
X79204351Y-44121132D01*
X79240768Y-44122999D01*
X79240781Y-44122999D01*
X79240801Y-44123000D01*
X79579198Y-44122999D01*
X79615653Y-44121131D01*
X79702002Y-44106243D01*
X79743470Y-44093080D01*
X79764785Y-44088334D01*
X79801005Y-44083566D01*
X79839784Y-44084582D01*
X79870441Y-44094524D01*
X79944481Y-44129736D01*
X79944488Y-44129739D01*
X79999040Y-44147052D01*
X80027998Y-44156243D01*
X80105263Y-44169564D01*
X80114352Y-44171132D01*
X80114351Y-44171132D01*
X80150768Y-44172999D01*
X80150781Y-44172999D01*
X80150801Y-44173000D01*
X80549198Y-44172999D01*
X80585653Y-44171131D01*
X80672002Y-44156243D01*
X80695425Y-44148808D01*
X80732933Y-44143000D01*
X83071877Y-44143000D01*
X83110195Y-44149069D01*
X83144762Y-44166682D01*
X83172195Y-44194115D01*
X83189808Y-44228682D01*
X83195877Y-44267000D01*
X83189808Y-44305318D01*
X83172195Y-44339885D01*
X83144762Y-44367318D01*
X83110195Y-44384931D01*
X83110194Y-44384931D01*
X83070795Y-44397732D01*
X82954630Y-44445849D01*
X82842597Y-44502933D01*
X82842586Y-44502939D01*
X82735408Y-44568618D01*
X82735403Y-44568622D01*
X82684302Y-44605747D01*
X82684302Y-44605748D01*
X83339243Y-45260689D01*
X83314734Y-45270842D01*
X83235266Y-45316722D01*
X83162468Y-45372583D01*
X83097583Y-45437468D01*
X83041722Y-45510266D01*
X82995842Y-45589734D01*
X82985689Y-45614243D01*
X82330748Y-44959302D01*
X82330747Y-44959302D01*
X82293622Y-45010403D01*
X82293618Y-45010408D01*
X82227939Y-45117586D01*
X82227933Y-45117597D01*
X82170849Y-45229630D01*
X82122732Y-45345795D01*
X82083890Y-45465340D01*
X82083883Y-45465366D01*
X82054532Y-45587620D01*
X82034866Y-45711785D01*
X82034864Y-45711804D01*
X82025000Y-45837130D01*
X82025000Y-45962869D01*
X82034864Y-46088195D01*
X82034866Y-46088214D01*
X82054532Y-46212379D01*
X82083883Y-46334633D01*
X82083890Y-46334659D01*
X82122732Y-46454204D01*
X82170849Y-46570369D01*
X82227933Y-46682402D01*
X82227939Y-46682413D01*
X82293615Y-46789585D01*
X82293637Y-46789618D01*
X82330747Y-46840696D01*
X82330748Y-46840696D01*
X82985689Y-46185755D01*
X82995842Y-46210266D01*
X83041722Y-46289734D01*
X83097583Y-46362532D01*
X83162468Y-46427417D01*
X83235266Y-46483278D01*
X83314734Y-46529158D01*
X83339243Y-46539309D01*
X82684301Y-47194250D01*
X82684302Y-47194251D01*
X82735381Y-47231362D01*
X82735414Y-47231384D01*
X82842586Y-47297060D01*
X82842597Y-47297066D01*
X82954630Y-47354150D01*
X83070795Y-47402267D01*
X83190340Y-47441109D01*
X83190366Y-47441116D01*
X83312620Y-47470467D01*
X83436785Y-47490133D01*
X83436804Y-47490135D01*
X83562130Y-47499999D01*
X83562142Y-47500000D01*
X83687858Y-47500000D01*
X83687869Y-47499999D01*
X83813195Y-47490135D01*
X83813214Y-47490133D01*
X83937379Y-47470467D01*
X84059633Y-47441116D01*
X84059659Y-47441109D01*
X84179204Y-47402267D01*
X84295369Y-47354150D01*
X84407402Y-47297066D01*
X84407413Y-47297060D01*
X84514582Y-47231386D01*
X84514604Y-47231372D01*
X84565696Y-47194250D01*
X84565697Y-47194250D01*
X83910756Y-46539310D01*
X83935266Y-46529158D01*
X84014734Y-46483278D01*
X84087532Y-46427417D01*
X84152417Y-46362532D01*
X84208278Y-46289734D01*
X84254158Y-46210266D01*
X84264310Y-46185756D01*
X84919250Y-46840697D01*
X84919250Y-46840696D01*
X84956372Y-46789604D01*
X84956386Y-46789582D01*
X85022060Y-46682413D01*
X85022066Y-46682402D01*
X85079150Y-46570369D01*
X85127267Y-46454204D01*
X85166109Y-46334659D01*
X85166116Y-46334633D01*
X85195467Y-46212379D01*
X85215133Y-46088214D01*
X85215135Y-46088195D01*
X85224999Y-45962869D01*
X85225000Y-45962857D01*
X85225000Y-45837142D01*
X85224999Y-45837130D01*
X85215135Y-45711804D01*
X85215133Y-45711785D01*
X85195467Y-45587620D01*
X85166116Y-45465366D01*
X85166109Y-45465340D01*
X85127267Y-45345795D01*
X85079148Y-45229625D01*
X85053115Y-45178531D01*
X85041127Y-45141634D01*
X85041127Y-45102838D01*
X85053116Y-45065942D01*
X85075919Y-45034555D01*
X85107306Y-45011752D01*
X85144203Y-44999764D01*
X85171707Y-44998503D01*
X85199189Y-45000304D01*
X85202169Y-45000500D01*
X85202170Y-45000500D01*
X87147830Y-45000500D01*
X87178289Y-44998503D01*
X87216919Y-45002051D01*
X87252564Y-45017365D01*
X87281733Y-45042944D01*
X87301570Y-45076285D01*
X87310133Y-45114123D01*
X87306585Y-45152757D01*
X87296885Y-45178530D01*
X87270849Y-45229629D01*
X87222732Y-45345795D01*
X87183890Y-45465340D01*
X87183883Y-45465366D01*
X87154532Y-45587620D01*
X87134866Y-45711785D01*
X87134864Y-45711804D01*
X87125000Y-45837130D01*
X87125000Y-45962869D01*
X87134864Y-46088195D01*
X87134866Y-46088214D01*
X87154532Y-46212379D01*
X87183883Y-46334633D01*
X87183890Y-46334659D01*
X87222732Y-46454204D01*
X87270849Y-46570369D01*
X87327933Y-46682402D01*
X87327939Y-46682413D01*
X87393615Y-46789585D01*
X87393637Y-46789618D01*
X87430747Y-46840696D01*
X87430748Y-46840696D01*
X88085689Y-46185755D01*
X88095842Y-46210266D01*
X88141722Y-46289734D01*
X88197583Y-46362532D01*
X88262468Y-46427417D01*
X88335266Y-46483278D01*
X88414734Y-46529158D01*
X88439243Y-46539309D01*
X87784301Y-47194250D01*
X87784302Y-47194251D01*
X87835381Y-47231362D01*
X87835414Y-47231384D01*
X87942586Y-47297060D01*
X87942597Y-47297066D01*
X88054630Y-47354150D01*
X88170795Y-47402267D01*
X88290340Y-47441109D01*
X88290366Y-47441116D01*
X88412620Y-47470467D01*
X88536785Y-47490133D01*
X88536804Y-47490135D01*
X88662130Y-47499999D01*
X88662142Y-47500000D01*
X88787858Y-47500000D01*
X88787869Y-47499999D01*
X88913195Y-47490135D01*
X88913214Y-47490133D01*
X89037379Y-47470467D01*
X89159633Y-47441116D01*
X89159659Y-47441109D01*
X89279204Y-47402267D01*
X89395369Y-47354150D01*
X89507402Y-47297066D01*
X89507413Y-47297060D01*
X89614582Y-47231386D01*
X89614604Y-47231372D01*
X89665696Y-47194250D01*
X89665697Y-47194250D01*
X89010756Y-46539310D01*
X89035266Y-46529158D01*
X89114734Y-46483278D01*
X89187532Y-46427417D01*
X89252417Y-46362532D01*
X89308278Y-46289734D01*
X89354158Y-46210266D01*
X89364309Y-46185756D01*
X90024467Y-46845914D01*
X90027384Y-46846144D01*
X90063227Y-46860989D01*
X90092728Y-46886185D01*
X90112999Y-46919263D01*
X90122057Y-46956987D01*
X90122437Y-46966100D01*
X90156739Y-53853041D01*
X90150861Y-53891389D01*
X90133421Y-53926044D01*
X90106125Y-53953613D01*
X90071646Y-53971398D01*
X90033359Y-53977657D01*
X90033281Y-53977658D01*
X89542426Y-53979794D01*
X89504081Y-53973892D01*
X89469438Y-53956429D01*
X89449073Y-53938024D01*
X89331479Y-53805288D01*
X89331471Y-53805280D01*
X89331454Y-53805262D01*
X89194737Y-53668545D01*
X89194701Y-53668511D01*
X89151402Y-53630151D01*
X89049937Y-53540261D01*
X88897681Y-53420977D01*
X88871151Y-53402664D01*
X88738516Y-53311113D01*
X88738508Y-53311108D01*
X88738501Y-53311103D01*
X88572978Y-53211041D01*
X88572967Y-53211035D01*
X88401722Y-53121158D01*
X88225326Y-53041769D01*
X88044485Y-52973185D01*
X87859831Y-52915644D01*
X87672039Y-52869359D01*
X87672033Y-52869357D01*
X87588277Y-52854008D01*
X87481781Y-52834492D01*
X87481773Y-52834491D01*
X87289775Y-52811178D01*
X87096717Y-52799500D01*
X87096709Y-52799500D01*
X86903291Y-52799500D01*
X86903282Y-52799500D01*
X86710224Y-52811178D01*
X86518226Y-52834491D01*
X86518223Y-52834491D01*
X86518219Y-52834492D01*
X86453598Y-52846334D01*
X86327966Y-52869357D01*
X86327960Y-52869359D01*
X86140168Y-52915644D01*
X85955514Y-52973185D01*
X85774673Y-53041769D01*
X85598277Y-53121158D01*
X85427032Y-53211035D01*
X85427018Y-53211043D01*
X85261508Y-53311097D01*
X85261483Y-53311113D01*
X85102321Y-53420975D01*
X84950075Y-53540251D01*
X84950048Y-53540274D01*
X84805298Y-53668511D01*
X84805262Y-53668545D01*
X84668545Y-53805262D01*
X84668526Y-53805282D01*
X84540257Y-53950067D01*
X84540254Y-53950070D01*
X84536790Y-53954492D01*
X84508379Y-53980910D01*
X84473195Y-53997256D01*
X84439726Y-54002010D01*
X63024540Y-54095244D01*
X62986196Y-54089342D01*
X62951552Y-54071879D01*
X62924000Y-54044566D01*
X62906237Y-54010076D01*
X62900001Y-53971785D01*
X62900000Y-53971245D01*
X62900000Y-49785000D01*
X66114523Y-49785000D01*
X66665000Y-49785000D01*
X66665000Y-49259350D01*
X66593114Y-49271745D01*
X66593112Y-49271746D01*
X66509675Y-49298226D01*
X66509659Y-49298232D01*
X66430596Y-49335833D01*
X66357384Y-49383855D01*
X66291395Y-49441395D01*
X66233855Y-49507384D01*
X66185833Y-49580596D01*
X66148232Y-49659659D01*
X66148226Y-49659675D01*
X66121746Y-49743112D01*
X66121745Y-49743114D01*
X66114523Y-49785000D01*
X62900000Y-49785000D01*
X62900000Y-44939308D01*
X62906069Y-44900990D01*
X62923682Y-44866423D01*
X62951115Y-44838990D01*
X62985682Y-44821377D01*
X63024000Y-44815308D01*
X63062318Y-44821377D01*
X63096885Y-44838990D01*
X63111681Y-44851627D01*
X65353379Y-47093325D01*
X65413675Y-47153621D01*
X65417091Y-47156242D01*
X65481315Y-47205524D01*
X65481318Y-47205526D01*
X65481326Y-47205532D01*
X65495983Y-47213994D01*
X65555170Y-47248166D01*
X65555171Y-47248166D01*
X65555174Y-47248168D01*
X65607694Y-47269922D01*
X65633952Y-47280799D01*
X65633953Y-47280799D01*
X65633955Y-47280800D01*
X65716321Y-47302870D01*
X65758592Y-47308435D01*
X65800863Y-47314000D01*
X65800864Y-47314000D01*
X71210363Y-47314000D01*
X71238543Y-47310290D01*
X71294905Y-47302870D01*
X71377271Y-47280800D01*
X71456052Y-47248168D01*
X71529900Y-47205532D01*
X71597551Y-47153621D01*
X71597555Y-47153616D01*
X71597560Y-47153613D01*
X72090113Y-46661060D01*
X72090116Y-46661055D01*
X72090121Y-46661051D01*
X72142032Y-46593400D01*
X72161735Y-46559270D01*
X72181435Y-46533597D01*
X72197701Y-46517332D01*
X72229083Y-46494531D01*
X72265980Y-46482543D01*
X72304776Y-46482543D01*
X72341673Y-46494531D01*
X72373059Y-46517335D01*
X72395863Y-46548721D01*
X72407851Y-46585618D01*
X72408314Y-46588810D01*
X72409240Y-46595842D01*
X72409775Y-46599904D01*
X72428516Y-46669844D01*
X72430148Y-46675935D01*
X72430152Y-46675947D01*
X72460061Y-46748152D01*
X72469118Y-46785876D01*
X72469500Y-46795605D01*
X72469500Y-47213994D01*
X72471353Y-47250131D01*
X72471354Y-47250141D01*
X72479444Y-47297060D01*
X72486126Y-47335815D01*
X72505979Y-47398368D01*
X72512429Y-47418688D01*
X72546407Y-47490133D01*
X72549765Y-47497193D01*
X72597447Y-47569890D01*
X72633960Y-47611764D01*
X72654568Y-47644631D01*
X72664011Y-47682260D01*
X72664500Y-47693257D01*
X72664500Y-48184902D01*
X72658431Y-48223220D01*
X72640818Y-48257787D01*
X72628181Y-48272583D01*
X71636991Y-49263772D01*
X71605605Y-49286576D01*
X71568708Y-49298564D01*
X71529912Y-49298564D01*
X71525120Y-49297709D01*
X71418698Y-49276541D01*
X71316301Y-49266456D01*
X71296433Y-49264500D01*
X71173567Y-49264500D01*
X71149483Y-49266872D01*
X71051294Y-49276542D01*
X71051292Y-49276542D01*
X70930807Y-49300507D01*
X70930796Y-49300510D01*
X70813205Y-49336180D01*
X70699695Y-49383199D01*
X70699690Y-49383201D01*
X70591350Y-49441110D01*
X70591332Y-49441121D01*
X70489174Y-49509381D01*
X70394197Y-49587327D01*
X70307327Y-49674197D01*
X70229381Y-49769174D01*
X70190079Y-49827993D01*
X70169099Y-49859393D01*
X70142767Y-49887879D01*
X70108918Y-49906836D01*
X70070867Y-49914404D01*
X70065999Y-49914500D01*
X67842255Y-49914500D01*
X67803937Y-49908431D01*
X67769370Y-49890818D01*
X67741937Y-49863385D01*
X67724324Y-49828818D01*
X67720058Y-49811570D01*
X67708254Y-49743116D01*
X67708253Y-49743112D01*
X67681773Y-49659675D01*
X67681767Y-49659659D01*
X67644166Y-49580596D01*
X67596144Y-49507384D01*
X67538604Y-49441395D01*
X67472615Y-49383855D01*
X67399403Y-49335833D01*
X67320340Y-49298232D01*
X67320324Y-49298226D01*
X67236887Y-49271746D01*
X67236885Y-49271745D01*
X67165000Y-49259350D01*
X67165000Y-49882802D01*
X67164014Y-49889025D01*
X67164367Y-49895317D01*
X67160996Y-49908080D01*
X67158931Y-49921120D01*
X67156069Y-49926735D01*
X67154461Y-49932827D01*
X67147312Y-49943922D01*
X67141318Y-49955687D01*
X67136861Y-49960143D01*
X67133449Y-49965440D01*
X67123384Y-49973620D01*
X67113885Y-49983120D01*
X67103388Y-49989964D01*
X67103138Y-49990109D01*
X67060665Y-50014631D01*
X67059554Y-50015483D01*
X67054953Y-50018162D01*
X67040403Y-50023807D01*
X67026216Y-50030347D01*
X67022074Y-50030919D01*
X67018785Y-50032196D01*
X67008794Y-50032755D01*
X66992565Y-50035000D01*
X66915000Y-50035000D01*
X66915000Y-50090500D01*
X66908931Y-50128818D01*
X66891318Y-50163385D01*
X66863885Y-50190818D01*
X66829318Y-50208431D01*
X66791002Y-50214500D01*
X66715811Y-50214500D01*
X66715801Y-50214501D01*
X66679343Y-50216369D01*
X66593002Y-50231256D01*
X66592997Y-50231257D01*
X66551239Y-50244510D01*
X66509481Y-50257764D01*
X66509479Y-50257764D01*
X66509478Y-50257765D01*
X66489235Y-50267392D01*
X66477481Y-50272982D01*
X66440273Y-50283958D01*
X66424228Y-50285000D01*
X66114523Y-50285000D01*
X66121745Y-50326885D01*
X66121746Y-50326887D01*
X66148226Y-50410324D01*
X66148230Y-50410334D01*
X66172403Y-50461162D01*
X66183379Y-50498372D01*
X66182319Y-50537154D01*
X66172403Y-50567671D01*
X66147763Y-50619481D01*
X66147760Y-50619488D01*
X66121258Y-50702993D01*
X66121257Y-50702999D01*
X66106367Y-50789352D01*
X66104500Y-50825768D01*
X66104500Y-51164189D01*
X66104501Y-51164197D01*
X66106369Y-51200656D01*
X66121256Y-51286997D01*
X66121258Y-51287006D01*
X66147760Y-51370511D01*
X66147763Y-51370518D01*
X66185392Y-51449641D01*
X66185402Y-51449658D01*
X66233451Y-51522915D01*
X66233453Y-51522917D01*
X66233454Y-51522918D01*
X66291040Y-51588960D01*
X66357082Y-51646546D01*
X66357084Y-51646548D01*
X66430341Y-51694597D01*
X66430358Y-51694607D01*
X66509481Y-51732236D01*
X66509488Y-51732239D01*
X66564040Y-51749552D01*
X66592998Y-51758743D01*
X66670263Y-51772064D01*
X66679352Y-51773632D01*
X66679351Y-51773632D01*
X66715768Y-51775499D01*
X66715781Y-51775499D01*
X66715801Y-51775500D01*
X67114198Y-51775499D01*
X67150653Y-51773631D01*
X67237002Y-51758743D01*
X67288204Y-51742492D01*
X67320511Y-51732239D01*
X67320515Y-51732237D01*
X67320519Y-51732236D01*
X67399649Y-51694603D01*
X67472918Y-51646546D01*
X67538960Y-51588960D01*
X67596546Y-51522918D01*
X67644603Y-51449649D01*
X67682236Y-51370519D01*
X67708743Y-51287002D01*
X67720566Y-51218430D01*
X67733058Y-51181701D01*
X67756288Y-51150629D01*
X67787983Y-51128256D01*
X67825041Y-51116773D01*
X67842763Y-51115500D01*
X70065999Y-51115500D01*
X70104317Y-51121569D01*
X70138884Y-51139182D01*
X70166317Y-51166615D01*
X70169087Y-51170590D01*
X70201054Y-51218430D01*
X70229381Y-51260825D01*
X70307327Y-51355802D01*
X70394197Y-51442672D01*
X70489174Y-51520618D01*
X70489180Y-51520622D01*
X70591339Y-51588883D01*
X70591348Y-51588888D01*
X70591350Y-51588889D01*
X70699690Y-51646798D01*
X70699692Y-51646798D01*
X70699698Y-51646802D01*
X70768875Y-51675456D01*
X70813205Y-51693819D01*
X70813209Y-51693820D01*
X70813211Y-51693821D01*
X70930787Y-51729487D01*
X70930793Y-51729488D01*
X70930796Y-51729489D01*
X70930807Y-51729492D01*
X71031659Y-51749551D01*
X71051292Y-51753457D01*
X71173567Y-51765500D01*
X71173569Y-51765500D01*
X71296431Y-51765500D01*
X71296433Y-51765500D01*
X71418708Y-51753457D01*
X71453482Y-51746540D01*
X71539192Y-51729492D01*
X71539203Y-51729489D01*
X71539203Y-51729488D01*
X71539213Y-51729487D01*
X71656789Y-51693821D01*
X71657089Y-51693697D01*
X71668527Y-51688959D01*
X71770302Y-51646802D01*
X71878661Y-51588883D01*
X71980820Y-51520622D01*
X72075797Y-51442677D01*
X72162677Y-51355797D01*
X72240622Y-51260820D01*
X72308883Y-51158661D01*
X72366802Y-51050302D01*
X72413821Y-50936789D01*
X72449487Y-50819213D01*
X72449489Y-50819203D01*
X72449492Y-50819192D01*
X72472604Y-50702998D01*
X72473457Y-50698708D01*
X72485500Y-50576433D01*
X72485500Y-50453567D01*
X72473457Y-50331292D01*
X72452289Y-50224878D01*
X72450766Y-50186114D01*
X72461297Y-50148775D01*
X72482851Y-50116517D01*
X72486201Y-50113033D01*
X73595789Y-49003444D01*
X73627172Y-48980643D01*
X73664069Y-48968655D01*
X73702865Y-48968655D01*
X73739762Y-48980643D01*
X73771148Y-49003447D01*
X73781792Y-49016398D01*
X73782161Y-49016116D01*
X73784628Y-49019332D01*
X73784631Y-49019336D01*
X73807489Y-49049125D01*
X73832551Y-49081788D01*
X73832555Y-49081792D01*
X74863773Y-50113008D01*
X74886577Y-50144394D01*
X74898565Y-50181291D01*
X74898565Y-50220087D01*
X74897709Y-50224880D01*
X74876542Y-50331292D01*
X74876542Y-50331294D01*
X74864500Y-50453569D01*
X74864500Y-50576430D01*
X74876542Y-50698705D01*
X74876542Y-50698707D01*
X74900507Y-50819192D01*
X74900510Y-50819203D01*
X74936180Y-50936794D01*
X74983199Y-51050304D01*
X74983201Y-51050309D01*
X75041110Y-51158649D01*
X75041121Y-51158667D01*
X75109381Y-51260825D01*
X75187327Y-51355802D01*
X75274197Y-51442672D01*
X75369174Y-51520618D01*
X75369180Y-51520622D01*
X75471339Y-51588883D01*
X75471348Y-51588888D01*
X75471350Y-51588889D01*
X75579690Y-51646798D01*
X75579692Y-51646798D01*
X75579698Y-51646802D01*
X75648875Y-51675456D01*
X75693205Y-51693819D01*
X75693209Y-51693820D01*
X75693211Y-51693821D01*
X75810787Y-51729487D01*
X75810793Y-51729488D01*
X75810796Y-51729489D01*
X75810807Y-51729492D01*
X75911659Y-51749551D01*
X75931292Y-51753457D01*
X76053567Y-51765500D01*
X76053569Y-51765500D01*
X76176431Y-51765500D01*
X76176433Y-51765500D01*
X76298708Y-51753457D01*
X76333482Y-51746540D01*
X76419192Y-51729492D01*
X76419203Y-51729489D01*
X76419203Y-51729488D01*
X76419213Y-51729487D01*
X76536789Y-51693821D01*
X76536807Y-51693813D01*
X76537062Y-51693723D01*
X76537194Y-51693697D01*
X76539703Y-51692937D01*
X76539785Y-51693208D01*
X76575182Y-51686517D01*
X76595048Y-51687522D01*
X76655641Y-51695500D01*
X79752071Y-51695500D01*
X79790389Y-51701569D01*
X79824956Y-51719182D01*
X79833564Y-51726040D01*
X79857074Y-51746540D01*
X79857084Y-51746548D01*
X79930341Y-51794597D01*
X79930358Y-51794607D01*
X80009481Y-51832236D01*
X80009488Y-51832239D01*
X80064040Y-51849552D01*
X80092998Y-51858743D01*
X80170263Y-51872064D01*
X80179352Y-51873632D01*
X80179351Y-51873632D01*
X80215768Y-51875499D01*
X80215781Y-51875499D01*
X80215801Y-51875500D01*
X80614198Y-51875499D01*
X80650653Y-51873631D01*
X80737002Y-51858743D01*
X80788204Y-51842492D01*
X80820511Y-51832239D01*
X80820515Y-51832237D01*
X80820519Y-51832236D01*
X80899649Y-51794603D01*
X80972918Y-51746546D01*
X81038960Y-51688960D01*
X81096546Y-51622918D01*
X81144603Y-51549649D01*
X81182236Y-51470519D01*
X81188863Y-51449641D01*
X81192492Y-51438204D01*
X81208743Y-51387002D01*
X81223631Y-51300653D01*
X81223631Y-51300652D01*
X81223632Y-51300647D01*
X81225499Y-51264231D01*
X81225499Y-51264218D01*
X81225500Y-51264199D01*
X81225499Y-50925802D01*
X81223631Y-50889347D01*
X81208743Y-50802998D01*
X81199552Y-50774040D01*
X81182239Y-50719488D01*
X81182236Y-50719481D01*
X81157597Y-50667673D01*
X81146621Y-50630462D01*
X81147680Y-50591681D01*
X81157597Y-50561160D01*
X81181769Y-50510333D01*
X81181773Y-50510324D01*
X81208253Y-50426887D01*
X81208254Y-50426885D01*
X81215477Y-50385000D01*
X80905772Y-50385000D01*
X80867454Y-50378931D01*
X80852520Y-50372983D01*
X80820519Y-50357764D01*
X80737002Y-50331257D01*
X80723916Y-50329000D01*
X80650647Y-50316367D01*
X80650648Y-50316367D01*
X80614231Y-50314500D01*
X80215811Y-50314500D01*
X80215801Y-50314501D01*
X80179343Y-50316369D01*
X80093002Y-50331256D01*
X80092997Y-50331257D01*
X80054568Y-50343454D01*
X80009481Y-50357764D01*
X80009479Y-50357764D01*
X80009478Y-50357765D01*
X79989235Y-50367392D01*
X79977481Y-50372982D01*
X79940273Y-50383958D01*
X79924228Y-50385000D01*
X79614523Y-50385000D01*
X79607237Y-50393649D01*
X79597438Y-50425277D01*
X79575066Y-50456973D01*
X79543995Y-50480204D01*
X79507266Y-50492696D01*
X79486193Y-50494500D01*
X77481919Y-50494500D01*
X77443601Y-50488431D01*
X77409034Y-50470818D01*
X77381601Y-50443385D01*
X77363988Y-50408818D01*
X77358516Y-50382654D01*
X77353457Y-50331292D01*
X77329492Y-50210807D01*
X77329489Y-50210796D01*
X77329488Y-50210793D01*
X77329487Y-50210787D01*
X77293821Y-50093211D01*
X77292698Y-50090500D01*
X77246801Y-49979696D01*
X77246555Y-49979236D01*
X77246553Y-49979231D01*
X77246548Y-49979223D01*
X77196185Y-49885000D01*
X79614523Y-49885000D01*
X80165000Y-49885000D01*
X80665000Y-49885000D01*
X81215476Y-49885000D01*
X81208254Y-49843114D01*
X81208253Y-49843112D01*
X81181773Y-49759675D01*
X81181767Y-49759659D01*
X81144166Y-49680596D01*
X81096144Y-49607384D01*
X81038604Y-49541395D01*
X80972615Y-49483855D01*
X80899403Y-49435833D01*
X80820340Y-49398232D01*
X80820324Y-49398226D01*
X80736887Y-49371746D01*
X80736885Y-49371745D01*
X80665000Y-49359350D01*
X80665000Y-49885000D01*
X80165000Y-49885000D01*
X80165000Y-49359350D01*
X80093114Y-49371745D01*
X80093112Y-49371746D01*
X80009675Y-49398226D01*
X80009659Y-49398232D01*
X79930596Y-49435833D01*
X79857384Y-49483855D01*
X79791395Y-49541395D01*
X79733855Y-49607384D01*
X79685833Y-49680596D01*
X79648232Y-49759659D01*
X79648226Y-49759675D01*
X79621746Y-49843112D01*
X79621745Y-49843114D01*
X79614523Y-49885000D01*
X77196185Y-49885000D01*
X77188889Y-49871350D01*
X77188888Y-49871348D01*
X77188883Y-49871339D01*
X77120622Y-49769180D01*
X77120618Y-49769174D01*
X77042672Y-49674197D01*
X76955802Y-49587327D01*
X76860825Y-49509381D01*
X76758667Y-49441121D01*
X76758666Y-49441120D01*
X76758661Y-49441117D01*
X76758656Y-49441114D01*
X76758649Y-49441110D01*
X76650309Y-49383201D01*
X76650304Y-49383199D01*
X76536794Y-49336180D01*
X76419203Y-49300510D01*
X76419192Y-49300507D01*
X76298706Y-49276542D01*
X76200517Y-49266872D01*
X76176433Y-49264500D01*
X76053567Y-49264500D01*
X76029483Y-49266872D01*
X75931294Y-49276542D01*
X75931292Y-49276542D01*
X75824880Y-49297709D01*
X75786114Y-49299232D01*
X75748775Y-49288702D01*
X75716517Y-49267148D01*
X75713008Y-49263773D01*
X74921819Y-48472583D01*
X74899015Y-48441197D01*
X74887027Y-48404300D01*
X74885500Y-48384902D01*
X74885500Y-47632927D01*
X74891569Y-47594609D01*
X74905814Y-47564919D01*
X74950233Y-47497196D01*
X74950232Y-47497196D01*
X74950235Y-47497193D01*
X74987573Y-47418681D01*
X75013874Y-47335815D01*
X75028645Y-47250141D01*
X75028646Y-47250131D01*
X75030499Y-47213994D01*
X75030500Y-47213955D01*
X75030500Y-46786044D01*
X75030499Y-46786005D01*
X75028646Y-46749868D01*
X75028645Y-46749858D01*
X75026183Y-46735580D01*
X75013874Y-46664185D01*
X74987573Y-46581319D01*
X74987571Y-46581316D01*
X74987570Y-46581311D01*
X74962767Y-46529158D01*
X74950235Y-46502807D01*
X74902553Y-46430110D01*
X74845416Y-46364584D01*
X74779890Y-46307447D01*
X74707193Y-46259765D01*
X74694133Y-46253554D01*
X74628688Y-46222429D01*
X74628674Y-46222424D01*
X74573950Y-46205055D01*
X74539263Y-46187679D01*
X74523782Y-46174547D01*
X74161819Y-45812583D01*
X74139015Y-45781197D01*
X74127027Y-45744300D01*
X74125500Y-45724902D01*
X74125500Y-45249500D01*
X74131569Y-45211182D01*
X74149182Y-45176615D01*
X74176615Y-45149182D01*
X74211182Y-45131569D01*
X74249500Y-45125500D01*
X74474902Y-45125500D01*
X74513220Y-45131569D01*
X74547787Y-45149182D01*
X74562583Y-45161819D01*
X75185712Y-45784948D01*
X75201848Y-45797329D01*
X75248165Y-45832869D01*
X75294256Y-45859479D01*
X75316336Y-45872227D01*
X75389062Y-45902351D01*
X75465097Y-45922725D01*
X75543141Y-45933000D01*
X76124558Y-45933000D01*
X76162876Y-45939069D01*
X76197443Y-45956682D01*
X76206044Y-45963534D01*
X76245040Y-45997536D01*
X76289804Y-46026897D01*
X76319166Y-46046156D01*
X76399218Y-46084227D01*
X76399233Y-46084233D01*
X76455553Y-46102107D01*
X76483718Y-46111046D01*
X76558606Y-46123958D01*
X76571083Y-46126110D01*
X76601591Y-46127673D01*
X76607966Y-46128000D01*
X76607972Y-46128000D01*
X76925500Y-46128000D01*
X76963818Y-46134069D01*
X76998385Y-46151682D01*
X77025818Y-46179115D01*
X77043431Y-46213682D01*
X77049500Y-46252000D01*
X77049500Y-46561689D01*
X77049501Y-46561697D01*
X77051369Y-46598156D01*
X77066256Y-46684497D01*
X77066258Y-46684506D01*
X77092760Y-46768011D01*
X77092763Y-46768018D01*
X77130392Y-46847141D01*
X77130402Y-46847158D01*
X77178451Y-46920415D01*
X77178453Y-46920417D01*
X77178454Y-46920418D01*
X77236040Y-46986460D01*
X77301621Y-47043644D01*
X77302082Y-47044046D01*
X77302084Y-47044048D01*
X77375341Y-47092097D01*
X77375358Y-47092107D01*
X77454481Y-47129736D01*
X77454488Y-47129739D01*
X77509040Y-47147052D01*
X77537998Y-47156243D01*
X77615263Y-47169564D01*
X77624352Y-47171132D01*
X77624351Y-47171132D01*
X77660768Y-47172999D01*
X77660781Y-47172999D01*
X77660801Y-47173000D01*
X77999198Y-47172999D01*
X78035653Y-47171131D01*
X78122002Y-47156243D01*
X78173204Y-47139992D01*
X78205511Y-47129739D01*
X78205511Y-47129738D01*
X78205519Y-47129736D01*
X78257329Y-47105095D01*
X78294536Y-47094121D01*
X78333317Y-47095180D01*
X78363838Y-47105097D01*
X78414659Y-47129267D01*
X78414672Y-47129271D01*
X78498105Y-47155752D01*
X78498111Y-47155753D01*
X78540000Y-47162975D01*
X79040000Y-47162975D01*
X79081888Y-47155753D01*
X79081894Y-47155752D01*
X79165327Y-47129271D01*
X79165340Y-47129267D01*
X79244402Y-47091666D01*
X79317616Y-47043644D01*
X79383604Y-46986104D01*
X79441144Y-46920115D01*
X79489166Y-46846903D01*
X79526767Y-46767840D01*
X79526771Y-46767827D01*
X79553253Y-46684390D01*
X79565649Y-46612500D01*
X79040000Y-46612500D01*
X79040000Y-47162975D01*
X78540000Y-47162975D01*
X78540000Y-46853271D01*
X78546069Y-46814953D01*
X78552015Y-46800022D01*
X78567236Y-46768019D01*
X78593743Y-46684502D01*
X78608631Y-46598153D01*
X78608631Y-46598152D01*
X78608632Y-46598147D01*
X78610499Y-46561731D01*
X78610500Y-46561692D01*
X78610500Y-46561138D01*
X78610500Y-46482543D01*
X78610499Y-46163302D01*
X78608631Y-46126847D01*
X78606157Y-46112500D01*
X79040000Y-46112500D01*
X79565648Y-46112500D01*
X79553253Y-46040609D01*
X79526771Y-45957172D01*
X79526767Y-45957160D01*
X79507076Y-45915758D01*
X79502535Y-45900366D01*
X79497158Y-45885235D01*
X79497064Y-45881821D01*
X79496099Y-45878548D01*
X79496537Y-45862500D01*
X79496099Y-45846453D01*
X79497064Y-45843178D01*
X79497158Y-45839767D01*
X79507075Y-45809243D01*
X79520296Y-45781444D01*
X79520297Y-45781441D01*
X79526767Y-45767839D01*
X79526771Y-45767827D01*
X79553253Y-45684390D01*
X79565649Y-45612500D01*
X79040000Y-45612500D01*
X79040000Y-46112500D01*
X78606157Y-46112500D01*
X78593743Y-46040498D01*
X78569105Y-45962869D01*
X78567238Y-45956985D01*
X78567235Y-45956978D01*
X78552019Y-45924984D01*
X78549734Y-45917238D01*
X78546069Y-45910045D01*
X78544279Y-45898744D01*
X78541043Y-45887773D01*
X78540000Y-45871727D01*
X78540000Y-45853271D01*
X78546069Y-45814953D01*
X78552015Y-45800022D01*
X78567236Y-45768019D01*
X78593743Y-45684502D01*
X78608631Y-45598153D01*
X78608631Y-45598152D01*
X78608632Y-45598147D01*
X78610499Y-45561731D01*
X78610500Y-45561692D01*
X78610500Y-45561138D01*
X78610500Y-45463181D01*
X78610499Y-45163302D01*
X78608631Y-45126847D01*
X78606157Y-45112500D01*
X79040000Y-45112500D01*
X79565648Y-45112500D01*
X79553253Y-45040609D01*
X79526771Y-44957172D01*
X79526767Y-44957159D01*
X79489166Y-44878096D01*
X79441144Y-44804884D01*
X79383604Y-44738895D01*
X79317615Y-44681355D01*
X79244403Y-44633333D01*
X79165340Y-44595732D01*
X79165324Y-44595726D01*
X79081887Y-44569246D01*
X79081885Y-44569245D01*
X79040000Y-44562023D01*
X79040000Y-45112500D01*
X78606157Y-45112500D01*
X78593743Y-45040498D01*
X78580815Y-44999764D01*
X78567238Y-44956985D01*
X78567235Y-44956978D01*
X78552019Y-44924984D01*
X78541043Y-44887773D01*
X78540000Y-44871727D01*
X78540000Y-44562023D01*
X78498114Y-44569245D01*
X78498112Y-44569246D01*
X78414675Y-44595726D01*
X78414665Y-44595730D01*
X78363837Y-44619903D01*
X78326626Y-44630879D01*
X78287845Y-44629819D01*
X78257327Y-44619903D01*
X78227561Y-44605747D01*
X78205519Y-44595264D01*
X78205516Y-44595263D01*
X78205512Y-44595261D01*
X78205511Y-44595260D01*
X78122006Y-44568758D01*
X78122004Y-44568757D01*
X78122002Y-44568757D01*
X78099274Y-44564838D01*
X78035647Y-44553867D01*
X78035648Y-44553867D01*
X77999231Y-44552000D01*
X77754500Y-44552000D01*
X77716182Y-44545931D01*
X77681615Y-44528318D01*
X77654182Y-44500885D01*
X77636569Y-44466318D01*
X77630500Y-44428000D01*
X77630500Y-44256267D01*
X77636569Y-44217949D01*
X77654182Y-44183382D01*
X77681615Y-44155949D01*
X77716182Y-44138336D01*
X77748148Y-44132430D01*
X77773922Y-44131109D01*
X77861282Y-44116046D01*
X77945777Y-44089229D01*
X77966850Y-44079206D01*
X78004059Y-44068229D01*
X78042841Y-44069287D01*
X78070498Y-44078274D01*
X78070536Y-44078180D01*
X78072075Y-44078787D01*
X78073370Y-44079207D01*
X78074481Y-44079736D01*
X78157998Y-44106243D01*
X78235263Y-44119564D01*
X78244352Y-44121132D01*
X78244351Y-44121132D01*
X78280768Y-44122999D01*
X78280781Y-44122999D01*
X78280801Y-44123000D01*
X78619198Y-44122999D01*
X78655653Y-44121131D01*
X78742002Y-44106243D01*
X78793920Y-44089765D01*
X78825511Y-44079739D01*
X78825511Y-44079738D01*
X78825519Y-44079736D01*
X78876746Y-44055372D01*
X78913954Y-44044398D01*
X78952735Y-44045457D01*
G37*
G04 #@! TD.AperFunction*
G04 #@! TA.AperFunction,Conductor*
G36*
X90059672Y-41781119D02*
G01*
X90059397Y-41781393D01*
X90067270Y-41788105D01*
X90087568Y-41821167D01*
X90096657Y-41858883D01*
X90097045Y-41868098D01*
X90111806Y-44831825D01*
X90105928Y-44870173D01*
X90088488Y-44904828D01*
X90061192Y-44932397D01*
X90030135Y-44948416D01*
X89364309Y-45614242D01*
X89354158Y-45589734D01*
X89308278Y-45510266D01*
X89252417Y-45437468D01*
X89187532Y-45372583D01*
X89114734Y-45316722D01*
X89035266Y-45270842D01*
X89010755Y-45260689D01*
X89665696Y-44605748D01*
X89665696Y-44605747D01*
X89614618Y-44568637D01*
X89614585Y-44568615D01*
X89507413Y-44502939D01*
X89507402Y-44502933D01*
X89395369Y-44445849D01*
X89279204Y-44397732D01*
X89159659Y-44358890D01*
X89159633Y-44358883D01*
X89037379Y-44329532D01*
X88913214Y-44309866D01*
X88913195Y-44309864D01*
X88787869Y-44300000D01*
X88662130Y-44300000D01*
X88536804Y-44309864D01*
X88536785Y-44309866D01*
X88412620Y-44329532D01*
X88290366Y-44358883D01*
X88290340Y-44358890D01*
X88170795Y-44397732D01*
X88054629Y-44445849D01*
X88003530Y-44471885D01*
X87966632Y-44483873D01*
X87927837Y-44483872D01*
X87890940Y-44471883D01*
X87859554Y-44449078D01*
X87836751Y-44417692D01*
X87824763Y-44380794D01*
X87823503Y-44353291D01*
X87825500Y-44322830D01*
X87825500Y-42377170D01*
X87823503Y-42346709D01*
X87827052Y-42308080D01*
X87842365Y-42272435D01*
X87867944Y-42243266D01*
X87901285Y-42223429D01*
X87939124Y-42214866D01*
X87977757Y-42218415D01*
X88003531Y-42228115D01*
X88054625Y-42254148D01*
X88054624Y-42254148D01*
X88170795Y-42302267D01*
X88290340Y-42341109D01*
X88290366Y-42341116D01*
X88412620Y-42370467D01*
X88536785Y-42390133D01*
X88536804Y-42390135D01*
X88662130Y-42399999D01*
X88662142Y-42400000D01*
X88787858Y-42400000D01*
X88787869Y-42399999D01*
X88913195Y-42390135D01*
X88913214Y-42390133D01*
X89037379Y-42370467D01*
X89159633Y-42341116D01*
X89159659Y-42341109D01*
X89279204Y-42302267D01*
X89395369Y-42254150D01*
X89507402Y-42197066D01*
X89507413Y-42197060D01*
X89614582Y-42131386D01*
X89614604Y-42131372D01*
X89665696Y-42094250D01*
X89665697Y-42094250D01*
X89010756Y-41439310D01*
X89035266Y-41429158D01*
X89114734Y-41383278D01*
X89187532Y-41327417D01*
X89252417Y-41262532D01*
X89308278Y-41189734D01*
X89354158Y-41110266D01*
X89364309Y-41085756D01*
X90059672Y-41781119D01*
G37*
G04 #@! TD.AperFunction*
G04 #@! TA.AperFunction,Conductor*
G36*
X63062318Y-39933166D02*
G01*
X63096885Y-39950779D01*
X63111677Y-39963412D01*
X63482655Y-40334390D01*
X68100707Y-44952443D01*
X68100714Y-44952449D01*
X68106869Y-44957172D01*
X68163164Y-45000368D01*
X68211310Y-45028165D01*
X68231336Y-45039727D01*
X68304062Y-45069851D01*
X68380097Y-45090225D01*
X68458141Y-45100500D01*
X70023277Y-45100500D01*
X70056824Y-45105124D01*
X70059755Y-45105947D01*
X70059766Y-45105951D01*
X70140521Y-45122398D01*
X70188976Y-45125500D01*
X70750500Y-45125500D01*
X70788818Y-45131569D01*
X70823385Y-45149182D01*
X70850818Y-45176615D01*
X70868431Y-45211182D01*
X70874500Y-45249500D01*
X70874500Y-45375500D01*
X70868431Y-45413818D01*
X70850818Y-45448385D01*
X70823385Y-45475818D01*
X70788818Y-45493431D01*
X70750500Y-45499500D01*
X66492337Y-45499500D01*
X66454019Y-45493431D01*
X66419452Y-45475818D01*
X66404656Y-45463181D01*
X62936319Y-41994843D01*
X62913515Y-41963457D01*
X62901527Y-41926560D01*
X62900000Y-41907162D01*
X62900000Y-40051097D01*
X62906069Y-40012779D01*
X62923682Y-39978212D01*
X62951115Y-39950779D01*
X62985682Y-39933166D01*
X63024000Y-39927097D01*
X63062318Y-39933166D01*
G37*
G04 #@! TD.AperFunction*
G04 #@! TA.AperFunction,Conductor*
G36*
X89986001Y-36784831D02*
G01*
X90020663Y-36802258D01*
X90048242Y-36829544D01*
X90066039Y-36864016D01*
X90072313Y-36902301D01*
X90072313Y-36902347D01*
X90086446Y-39740123D01*
X90080568Y-39778471D01*
X90063128Y-39813126D01*
X90050129Y-39828422D01*
X89364309Y-40514242D01*
X89354158Y-40489734D01*
X89308278Y-40410266D01*
X89252417Y-40337468D01*
X89187532Y-40272583D01*
X89114734Y-40216722D01*
X89035266Y-40170842D01*
X89010756Y-40160689D01*
X89665696Y-39505748D01*
X89665696Y-39505747D01*
X89614618Y-39468637D01*
X89614585Y-39468615D01*
X89507413Y-39402939D01*
X89507402Y-39402933D01*
X89395369Y-39345849D01*
X89279204Y-39297732D01*
X89159659Y-39258890D01*
X89159633Y-39258883D01*
X89037379Y-39229532D01*
X88913214Y-39209866D01*
X88913195Y-39209864D01*
X88787869Y-39200000D01*
X88662130Y-39200000D01*
X88536804Y-39209864D01*
X88536785Y-39209866D01*
X88412620Y-39229532D01*
X88290366Y-39258883D01*
X88290340Y-39258890D01*
X88170795Y-39297732D01*
X88054630Y-39345849D01*
X87942597Y-39402933D01*
X87942586Y-39402939D01*
X87835408Y-39468618D01*
X87835403Y-39468622D01*
X87784302Y-39505747D01*
X87784302Y-39505748D01*
X88439243Y-40160689D01*
X88414734Y-40170842D01*
X88335266Y-40216722D01*
X88262468Y-40272583D01*
X88197583Y-40337468D01*
X88141722Y-40410266D01*
X88095842Y-40489734D01*
X88085689Y-40514243D01*
X87430748Y-39859302D01*
X87430747Y-39859302D01*
X87393622Y-39910403D01*
X87393618Y-39910408D01*
X87327939Y-40017586D01*
X87327933Y-40017597D01*
X87270849Y-40129630D01*
X87222732Y-40245795D01*
X87183890Y-40365340D01*
X87183883Y-40365366D01*
X87154532Y-40487620D01*
X87134866Y-40611785D01*
X87134864Y-40611804D01*
X87125000Y-40737130D01*
X87125000Y-40862869D01*
X87134864Y-40988195D01*
X87134866Y-40988214D01*
X87154532Y-41112379D01*
X87183883Y-41234633D01*
X87183890Y-41234659D01*
X87222732Y-41354204D01*
X87270849Y-41470370D01*
X87296885Y-41521469D01*
X87308873Y-41558366D01*
X87308872Y-41597161D01*
X87296883Y-41634058D01*
X87274079Y-41665444D01*
X87242692Y-41688248D01*
X87205795Y-41700236D01*
X87178293Y-41701496D01*
X87147830Y-41699500D01*
X85202170Y-41699500D01*
X85171707Y-41701496D01*
X85133077Y-41697947D01*
X85097431Y-41682632D01*
X85068263Y-41657052D01*
X85048427Y-41623711D01*
X85039865Y-41585872D01*
X85043415Y-41547239D01*
X85053115Y-41521467D01*
X85079150Y-41470369D01*
X85127267Y-41354204D01*
X85166109Y-41234659D01*
X85166116Y-41234633D01*
X85195467Y-41112379D01*
X85215133Y-40988214D01*
X85215135Y-40988195D01*
X85224999Y-40862869D01*
X85225000Y-40862857D01*
X85225000Y-40737142D01*
X85224999Y-40737130D01*
X85215135Y-40611804D01*
X85215133Y-40611785D01*
X85195467Y-40487620D01*
X85166116Y-40365366D01*
X85166109Y-40365340D01*
X85127267Y-40245795D01*
X85079150Y-40129630D01*
X85022066Y-40017597D01*
X85022060Y-40017586D01*
X84956384Y-39910414D01*
X84956362Y-39910381D01*
X84919251Y-39859302D01*
X84919250Y-39859301D01*
X84264309Y-40514242D01*
X84254158Y-40489734D01*
X84208278Y-40410266D01*
X84152417Y-40337468D01*
X84087532Y-40272583D01*
X84014734Y-40216722D01*
X83935266Y-40170842D01*
X83910756Y-40160689D01*
X84565696Y-39505748D01*
X84565696Y-39505747D01*
X84514618Y-39468637D01*
X84514585Y-39468615D01*
X84407413Y-39402939D01*
X84407402Y-39402933D01*
X84295369Y-39345849D01*
X84179204Y-39297732D01*
X84059659Y-39258890D01*
X84059633Y-39258883D01*
X83937379Y-39229532D01*
X83813214Y-39209866D01*
X83813195Y-39209864D01*
X83687869Y-39200000D01*
X83562130Y-39200000D01*
X83436804Y-39209864D01*
X83436785Y-39209866D01*
X83312620Y-39229532D01*
X83190366Y-39258883D01*
X83190340Y-39258890D01*
X83070795Y-39297732D01*
X82954630Y-39345849D01*
X82842597Y-39402933D01*
X82842586Y-39402939D01*
X82735408Y-39468618D01*
X82735403Y-39468622D01*
X82684302Y-39505747D01*
X82684302Y-39505748D01*
X83339243Y-40160689D01*
X83314734Y-40170842D01*
X83235266Y-40216722D01*
X83162468Y-40272583D01*
X83097583Y-40337468D01*
X83041722Y-40410266D01*
X82995842Y-40489734D01*
X82985689Y-40514243D01*
X82330748Y-39859302D01*
X82330747Y-39859302D01*
X82293622Y-39910403D01*
X82293618Y-39910408D01*
X82227939Y-40017586D01*
X82227933Y-40017597D01*
X82170849Y-40129630D01*
X82122732Y-40245795D01*
X82083890Y-40365340D01*
X82083883Y-40365366D01*
X82054532Y-40487620D01*
X82034866Y-40611785D01*
X82034864Y-40611804D01*
X82025000Y-40737130D01*
X82025000Y-40862869D01*
X82034864Y-40988195D01*
X82034866Y-40988214D01*
X82054532Y-41112379D01*
X82083883Y-41234633D01*
X82083890Y-41234659D01*
X82122732Y-41354204D01*
X82170849Y-41470369D01*
X82227933Y-41582402D01*
X82227939Y-41582413D01*
X82293615Y-41689585D01*
X82293637Y-41689618D01*
X82330747Y-41740696D01*
X82330748Y-41740696D01*
X82985689Y-41085755D01*
X82995842Y-41110266D01*
X83041722Y-41189734D01*
X83097583Y-41262532D01*
X83162468Y-41327417D01*
X83235266Y-41383278D01*
X83314734Y-41429158D01*
X83339242Y-41439309D01*
X82684301Y-42094250D01*
X82684302Y-42094251D01*
X82735381Y-42131362D01*
X82735414Y-42131384D01*
X82842586Y-42197060D01*
X82842597Y-42197066D01*
X82954630Y-42254150D01*
X83070795Y-42302267D01*
X83190340Y-42341109D01*
X83190366Y-42341116D01*
X83312620Y-42370467D01*
X83436785Y-42390133D01*
X83436804Y-42390135D01*
X83490755Y-42394382D01*
X83528479Y-42403439D01*
X83561558Y-42423710D01*
X83586754Y-42453210D01*
X83601600Y-42489053D01*
X83604644Y-42527729D01*
X83595587Y-42565453D01*
X83575316Y-42598532D01*
X83545816Y-42623728D01*
X83509973Y-42638574D01*
X83481026Y-42642000D01*
X80732933Y-42642000D01*
X80695425Y-42636191D01*
X80672002Y-42628757D01*
X80671999Y-42628756D01*
X80585647Y-42613867D01*
X80585648Y-42613867D01*
X80549231Y-42612000D01*
X80150811Y-42612000D01*
X80150801Y-42612001D01*
X80114343Y-42613869D01*
X80027994Y-42628757D01*
X80021238Y-42630902D01*
X79982879Y-42636707D01*
X79944604Y-42630375D01*
X79915724Y-42616397D01*
X79864648Y-42582896D01*
X79864641Y-42582892D01*
X79785518Y-42545263D01*
X79785511Y-42545260D01*
X79702006Y-42518758D01*
X79702004Y-42518757D01*
X79702002Y-42518757D01*
X79679274Y-42514838D01*
X79615647Y-42503867D01*
X79615648Y-42503867D01*
X79579212Y-42502000D01*
X79240810Y-42502000D01*
X79240802Y-42502001D01*
X79204343Y-42503869D01*
X79118002Y-42518756D01*
X79117993Y-42518758D01*
X79034488Y-42545260D01*
X79034487Y-42545261D01*
X78983255Y-42569626D01*
X78946044Y-42580602D01*
X78907263Y-42579542D01*
X78876745Y-42569626D01*
X78848762Y-42556318D01*
X78825519Y-42545264D01*
X78825516Y-42545263D01*
X78825512Y-42545261D01*
X78825511Y-42545260D01*
X78742006Y-42518758D01*
X78742004Y-42518757D01*
X78742002Y-42518757D01*
X78719274Y-42514838D01*
X78655647Y-42503867D01*
X78655648Y-42503867D01*
X78619212Y-42502000D01*
X78280810Y-42502000D01*
X78280802Y-42502001D01*
X78244343Y-42503869D01*
X78158002Y-42518756D01*
X78157993Y-42518758D01*
X78074488Y-42545261D01*
X78074474Y-42545266D01*
X78073359Y-42545797D01*
X78072448Y-42546065D01*
X78070543Y-42546817D01*
X78070476Y-42546647D01*
X78036148Y-42556771D01*
X77997367Y-42555710D01*
X77966851Y-42545793D01*
X77945785Y-42535774D01*
X77945768Y-42535767D01*
X77861286Y-42508955D01*
X77861282Y-42508954D01*
X77773916Y-42493889D01*
X77737069Y-42492001D01*
X77737039Y-42492000D01*
X77737034Y-42492000D01*
X77382966Y-42492000D01*
X77382960Y-42492000D01*
X77382930Y-42492001D01*
X77346083Y-42493889D01*
X77258717Y-42508954D01*
X77258713Y-42508955D01*
X77174233Y-42535766D01*
X77174223Y-42535770D01*
X77128255Y-42557632D01*
X77091044Y-42568608D01*
X77052263Y-42567548D01*
X77021745Y-42557632D01*
X76975776Y-42535770D01*
X76975766Y-42535766D01*
X76891286Y-42508955D01*
X76891282Y-42508954D01*
X76803916Y-42493889D01*
X76767069Y-42492001D01*
X76767039Y-42492000D01*
X76767034Y-42492000D01*
X76412966Y-42492000D01*
X76412960Y-42492000D01*
X76412930Y-42492001D01*
X76376083Y-42493889D01*
X76288717Y-42508954D01*
X76204223Y-42535770D01*
X76202470Y-42536462D01*
X76201054Y-42536776D01*
X76200186Y-42537052D01*
X76200161Y-42536974D01*
X76164596Y-42544872D01*
X76125978Y-42541167D01*
X76103728Y-42533087D01*
X76035781Y-42500772D01*
X76035766Y-42500766D01*
X75951286Y-42473955D01*
X75951282Y-42473954D01*
X75863918Y-42458890D01*
X75862180Y-42458801D01*
X75861134Y-42458579D01*
X75860238Y-42458480D01*
X75860247Y-42458392D01*
X75846277Y-42455438D01*
X75830219Y-42452895D01*
X75827360Y-42451438D01*
X75824223Y-42450775D01*
X75810134Y-42442661D01*
X75795652Y-42435282D01*
X75793385Y-42433015D01*
X75790605Y-42431414D01*
X75779707Y-42419337D01*
X75768219Y-42407849D01*
X75766764Y-42404993D01*
X75764614Y-42402611D01*
X75757984Y-42387762D01*
X75750606Y-42373282D01*
X75750104Y-42370113D01*
X75748797Y-42367186D01*
X75744537Y-42334964D01*
X75744537Y-42199776D01*
X75747273Y-42182500D01*
X79549523Y-42182500D01*
X80100000Y-42182500D01*
X80600000Y-42182500D01*
X81150476Y-42182500D01*
X81143254Y-42140614D01*
X81143253Y-42140612D01*
X81116773Y-42057175D01*
X81116767Y-42057159D01*
X81079166Y-41978096D01*
X81031144Y-41904884D01*
X80973604Y-41838895D01*
X80907615Y-41781355D01*
X80834403Y-41733333D01*
X80755340Y-41695732D01*
X80755324Y-41695726D01*
X80671887Y-41669246D01*
X80671885Y-41669245D01*
X80600000Y-41656850D01*
X80600000Y-42182500D01*
X80100000Y-42182500D01*
X80100000Y-41656850D01*
X80028114Y-41669245D01*
X80028112Y-41669246D01*
X79944675Y-41695726D01*
X79944659Y-41695732D01*
X79865596Y-41733333D01*
X79792384Y-41781355D01*
X79726395Y-41838895D01*
X79668855Y-41904884D01*
X79620833Y-41978096D01*
X79583232Y-42057159D01*
X79583226Y-42057175D01*
X79556746Y-42140612D01*
X79556745Y-42140614D01*
X79549523Y-42182500D01*
X75747273Y-42182500D01*
X75750606Y-42161458D01*
X75768219Y-42126891D01*
X75795652Y-42099458D01*
X75802566Y-42094782D01*
X75857695Y-42060142D01*
X75857695Y-42060141D01*
X75857706Y-42060135D01*
X75928001Y-42004077D01*
X75991577Y-41940501D01*
X76047635Y-41870206D01*
X76095470Y-41794077D01*
X76134481Y-41713071D01*
X76164176Y-41628206D01*
X76184183Y-41540550D01*
X76194250Y-41451205D01*
X76194250Y-41361295D01*
X76184183Y-41271950D01*
X76172892Y-41222483D01*
X76170283Y-41183782D01*
X76179762Y-41146162D01*
X76200402Y-41113313D01*
X76230183Y-41088449D01*
X76256266Y-41076708D01*
X76308681Y-41060073D01*
X76308686Y-41060070D01*
X76308688Y-41060070D01*
X76341019Y-41044694D01*
X76387193Y-41022735D01*
X76459890Y-40975053D01*
X76525416Y-40917916D01*
X76582553Y-40852390D01*
X76630235Y-40779693D01*
X76667573Y-40701181D01*
X76669966Y-40693644D01*
X76675343Y-40676700D01*
X76693874Y-40618315D01*
X76708645Y-40532641D01*
X76710465Y-40497149D01*
X76710499Y-40496494D01*
X76710500Y-40496455D01*
X76710500Y-40168544D01*
X76710499Y-40168505D01*
X76708646Y-40132368D01*
X76708645Y-40132358D01*
X76703066Y-40100000D01*
X76693874Y-40046685D01*
X76667573Y-39963819D01*
X76667571Y-39963816D01*
X76667570Y-39963811D01*
X76630234Y-39885305D01*
X76628801Y-39882756D01*
X76615313Y-39846380D01*
X76613726Y-39807617D01*
X76624195Y-39770260D01*
X76628804Y-39761214D01*
X76629798Y-39759445D01*
X76667105Y-39681001D01*
X76693386Y-39598197D01*
X76693387Y-39598194D01*
X76699542Y-39562500D01*
X76116888Y-39562500D01*
X76116285Y-39562499D01*
X76113422Y-39562485D01*
X76103962Y-39562000D01*
X76013603Y-39562000D01*
X76013397Y-39561999D01*
X75994526Y-39558915D01*
X75975682Y-39555931D01*
X75975409Y-39555792D01*
X75975109Y-39555743D01*
X75958105Y-39546975D01*
X75941115Y-39538318D01*
X75940900Y-39538103D01*
X75940628Y-39537963D01*
X75927131Y-39524334D01*
X75913682Y-39510885D01*
X75913543Y-39510614D01*
X75913329Y-39510397D01*
X75904714Y-39493285D01*
X75896069Y-39476318D01*
X75896021Y-39476018D01*
X75895884Y-39475745D01*
X75892977Y-39456798D01*
X75890000Y-39438000D01*
X75890000Y-39312500D01*
X75764000Y-39312500D01*
X75725682Y-39306431D01*
X75691115Y-39288818D01*
X75663682Y-39261385D01*
X75646069Y-39226818D01*
X75640000Y-39188500D01*
X75640000Y-39062500D01*
X76140000Y-39062500D01*
X76699541Y-39062500D01*
X76693387Y-39026806D01*
X76693386Y-39026802D01*
X76667105Y-38943998D01*
X76629799Y-38865557D01*
X76582153Y-38792912D01*
X76525061Y-38727438D01*
X76459587Y-38670346D01*
X76386942Y-38622700D01*
X76386943Y-38622700D01*
X76308501Y-38585394D01*
X76225703Y-38559115D01*
X76225690Y-38559112D01*
X76140095Y-38544354D01*
X76140000Y-38544348D01*
X76140000Y-39062500D01*
X75640000Y-39062500D01*
X75640000Y-38544348D01*
X75623380Y-38528636D01*
X75599705Y-38497902D01*
X75587676Y-38466121D01*
X75570427Y-38390549D01*
X75570426Y-38390544D01*
X75540731Y-38305679D01*
X75501720Y-38224673D01*
X75483534Y-38195730D01*
X75453889Y-38148550D01*
X75453887Y-38148548D01*
X75453885Y-38148544D01*
X75397827Y-38078249D01*
X75334251Y-38014673D01*
X75263956Y-37958615D01*
X75263952Y-37958612D01*
X75263949Y-37958610D01*
X75187831Y-37910782D01*
X75106818Y-37871767D01*
X75021956Y-37842074D01*
X75021950Y-37842072D01*
X74934303Y-37822067D01*
X74934287Y-37822065D01*
X74844959Y-37812000D01*
X74844955Y-37812000D01*
X74755045Y-37812000D01*
X74755041Y-37812000D01*
X74665712Y-37822065D01*
X74665696Y-37822067D01*
X74578049Y-37842072D01*
X74578043Y-37842074D01*
X74493181Y-37871767D01*
X74412168Y-37910782D01*
X74336050Y-37958610D01*
X74265748Y-38014673D01*
X74202173Y-38078248D01*
X74146108Y-38148553D01*
X74099543Y-38222661D01*
X74074018Y-38251876D01*
X74040714Y-38271775D01*
X74002891Y-38280407D01*
X73964251Y-38276929D01*
X73928577Y-38261681D01*
X73926542Y-38260374D01*
X73884658Y-38232902D01*
X73884641Y-38232892D01*
X73805518Y-38195263D01*
X73805511Y-38195260D01*
X73722006Y-38168758D01*
X73722004Y-38168757D01*
X73722002Y-38168757D01*
X73699274Y-38164838D01*
X73635647Y-38153867D01*
X73635648Y-38153867D01*
X73599212Y-38152000D01*
X73260810Y-38152000D01*
X73260802Y-38152001D01*
X73224343Y-38153869D01*
X73138002Y-38168756D01*
X73137993Y-38168758D01*
X73054488Y-38195260D01*
X73054481Y-38195263D01*
X73002671Y-38219903D01*
X72965461Y-38230879D01*
X72926679Y-38229819D01*
X72896162Y-38219903D01*
X72845334Y-38195730D01*
X72845324Y-38195726D01*
X72761887Y-38169246D01*
X72761885Y-38169245D01*
X72720000Y-38162023D01*
X72720000Y-38471727D01*
X72713931Y-38510045D01*
X72707981Y-38524984D01*
X72692764Y-38556978D01*
X72692761Y-38556985D01*
X72666258Y-38640493D01*
X72666257Y-38640499D01*
X72651367Y-38726852D01*
X72649500Y-38763268D01*
X72649500Y-38763301D01*
X72649500Y-38943998D01*
X72649501Y-38962500D01*
X72649501Y-39161697D01*
X72651369Y-39198156D01*
X72665632Y-39280879D01*
X72666257Y-39284502D01*
X72692764Y-39368019D01*
X72707982Y-39400017D01*
X72710265Y-39407759D01*
X72713931Y-39414953D01*
X72715720Y-39426253D01*
X72718957Y-39437225D01*
X72720000Y-39453271D01*
X72720000Y-39521727D01*
X72713931Y-39560045D01*
X72707981Y-39574984D01*
X72692764Y-39606978D01*
X72692761Y-39606985D01*
X72666258Y-39690493D01*
X72666257Y-39690499D01*
X72651367Y-39776852D01*
X72649500Y-39813268D01*
X72649500Y-39888500D01*
X72643431Y-39926818D01*
X72625818Y-39961385D01*
X72598385Y-39988818D01*
X72563818Y-40006431D01*
X72525500Y-40012500D01*
X72434499Y-40012500D01*
X72396181Y-40006431D01*
X72361614Y-39988818D01*
X72334181Y-39961385D01*
X72316568Y-39926818D01*
X72310499Y-39888500D01*
X72310499Y-39813312D01*
X72310499Y-39813302D01*
X72308631Y-39776847D01*
X72293743Y-39690498D01*
X72267297Y-39607172D01*
X72267239Y-39606988D01*
X72267238Y-39606987D01*
X72267237Y-39606985D01*
X72267236Y-39606981D01*
X72232018Y-39532928D01*
X72221042Y-39495717D01*
X72220000Y-39479673D01*
X72220000Y-39212500D01*
X71796324Y-39212500D01*
X71775255Y-39210697D01*
X71770423Y-39209864D01*
X71735647Y-39203867D01*
X71735648Y-39203867D01*
X71699212Y-39202000D01*
X71360810Y-39202000D01*
X71360802Y-39202001D01*
X71324343Y-39203869D01*
X71238002Y-39218756D01*
X71237993Y-39218758D01*
X71154488Y-39245260D01*
X71154481Y-39245263D01*
X71102671Y-39269903D01*
X71065461Y-39280879D01*
X71026679Y-39279819D01*
X70996162Y-39269903D01*
X70945334Y-39245730D01*
X70945324Y-39245726D01*
X70861887Y-39219246D01*
X70861885Y-39219245D01*
X70820000Y-39212023D01*
X70820000Y-39521727D01*
X70813931Y-39560045D01*
X70807981Y-39574984D01*
X70792764Y-39606978D01*
X70792761Y-39606985D01*
X70766258Y-39690493D01*
X70766257Y-39690499D01*
X70751367Y-39776852D01*
X70749500Y-39813268D01*
X70749500Y-39813301D01*
X70749500Y-40006431D01*
X70749501Y-40012500D01*
X70749501Y-40211697D01*
X70751369Y-40248156D01*
X70755581Y-40272583D01*
X70766257Y-40334502D01*
X70792764Y-40418019D01*
X70807982Y-40450017D01*
X70818957Y-40487225D01*
X70820000Y-40503271D01*
X70820000Y-40812976D01*
X70828584Y-40820207D01*
X70860345Y-40830048D01*
X70892041Y-40852420D01*
X70915272Y-40883491D01*
X70927764Y-40920221D01*
X70928295Y-40959013D01*
X70922176Y-40983467D01*
X70894533Y-41059896D01*
X70894531Y-41059902D01*
X70878099Y-41140586D01*
X70875000Y-41189001D01*
X70875000Y-41437500D01*
X71250500Y-41437500D01*
X71288818Y-41443569D01*
X71323385Y-41461182D01*
X71350818Y-41488615D01*
X71368431Y-41523182D01*
X71374500Y-41561500D01*
X71374500Y-41563500D01*
X71368431Y-41601818D01*
X71350818Y-41636385D01*
X71323385Y-41663818D01*
X71288818Y-41681431D01*
X71250500Y-41687500D01*
X70875000Y-41687500D01*
X70875000Y-41750500D01*
X70868931Y-41788818D01*
X70851318Y-41823385D01*
X70823885Y-41850818D01*
X70789318Y-41868431D01*
X70751000Y-41874500D01*
X70373161Y-41874500D01*
X70334843Y-41868431D01*
X70300276Y-41850818D01*
X70285480Y-41838181D01*
X68709799Y-40262500D01*
X69794351Y-40262500D01*
X69806746Y-40334390D01*
X69833228Y-40417827D01*
X69833232Y-40417840D01*
X69870833Y-40496903D01*
X69918855Y-40570115D01*
X69976395Y-40636104D01*
X70042384Y-40693644D01*
X70115596Y-40741666D01*
X70194659Y-40779267D01*
X70194672Y-40779271D01*
X70278105Y-40805752D01*
X70278111Y-40805753D01*
X70320000Y-40812975D01*
X70320000Y-40262500D01*
X69794351Y-40262500D01*
X68709799Y-40262500D01*
X68240072Y-39792773D01*
X68209799Y-39762500D01*
X69794351Y-39762500D01*
X70320000Y-39762500D01*
X70320000Y-39212023D01*
X70278114Y-39219245D01*
X70278112Y-39219246D01*
X70194675Y-39245726D01*
X70194659Y-39245732D01*
X70115596Y-39283333D01*
X70042384Y-39331355D01*
X69976395Y-39388895D01*
X69918855Y-39454884D01*
X69870833Y-39528096D01*
X69833232Y-39607159D01*
X69833228Y-39607172D01*
X69806746Y-39690609D01*
X69794351Y-39762500D01*
X68209799Y-39762500D01*
X67159800Y-38712500D01*
X71694351Y-38712500D01*
X72220000Y-38712500D01*
X72220000Y-38162023D01*
X72178114Y-38169245D01*
X72178112Y-38169246D01*
X72094675Y-38195726D01*
X72094659Y-38195732D01*
X72015596Y-38233333D01*
X71942384Y-38281355D01*
X71876395Y-38338895D01*
X71818855Y-38404884D01*
X71770833Y-38478096D01*
X71733232Y-38557159D01*
X71733228Y-38557172D01*
X71706746Y-38640609D01*
X71694351Y-38712500D01*
X67159800Y-38712500D01*
X66167819Y-37720519D01*
X66145015Y-37689133D01*
X66133027Y-37652236D01*
X66131500Y-37632838D01*
X66131500Y-37029753D01*
X66137569Y-36991435D01*
X66155182Y-36956868D01*
X66182615Y-36929435D01*
X66217182Y-36911822D01*
X66254828Y-36905756D01*
X89947656Y-36778967D01*
X89986001Y-36784831D01*
G37*
G04 #@! TD.AperFunction*
G04 #@! TD*
G04 #@! TA.AperFunction,Conductor*
G04 #@! TO.N,GNDREF*
G36*
X26661558Y-35206835D02*
G01*
X26696119Y-35224460D01*
X26710880Y-35237072D01*
X26805262Y-35331454D01*
X26805280Y-35331471D01*
X26805288Y-35331479D01*
X26950063Y-35459739D01*
X27102319Y-35579023D01*
X27261499Y-35688897D01*
X27427022Y-35788959D01*
X27502759Y-35828709D01*
X27595131Y-35877190D01*
X27598285Y-35878845D01*
X27774663Y-35958226D01*
X27774670Y-35958228D01*
X27774673Y-35958230D01*
X27842193Y-35983837D01*
X27955511Y-36026813D01*
X28140171Y-36084356D01*
X28327969Y-36130643D01*
X28518219Y-36165508D01*
X28710226Y-36188822D01*
X28903291Y-36200500D01*
X28903304Y-36200500D01*
X29096696Y-36200500D01*
X29096709Y-36200500D01*
X29289774Y-36188822D01*
X29481781Y-36165508D01*
X29672031Y-36130643D01*
X29859829Y-36084356D01*
X30044489Y-36026813D01*
X30225337Y-35958226D01*
X30401715Y-35878845D01*
X30572978Y-35788959D01*
X30682207Y-35722927D01*
X30718135Y-35708300D01*
X30756829Y-35705489D01*
X30794498Y-35714774D01*
X30827453Y-35735244D01*
X30852471Y-35764896D01*
X30867100Y-35800827D01*
X30869911Y-35839521D01*
X30860626Y-35877190D01*
X30840156Y-35910145D01*
X30834035Y-35916727D01*
X30622551Y-36128211D01*
X30582508Y-36180398D01*
X30576045Y-36188822D01*
X30574629Y-36190667D01*
X30535274Y-36258834D01*
X30535270Y-36258842D01*
X30505148Y-36331565D01*
X30484774Y-36407600D01*
X30474500Y-36485633D01*
X30474500Y-37188331D01*
X30468431Y-37226649D01*
X30450818Y-37261216D01*
X30432259Y-37281559D01*
X30378609Y-37328608D01*
X30318064Y-37397646D01*
X30267045Y-37474001D01*
X30226435Y-37556351D01*
X30200161Y-37633751D01*
X30196917Y-37643308D01*
X30179003Y-37733370D01*
X30174500Y-37802070D01*
X30174500Y-38397930D01*
X30179003Y-38466630D01*
X30196664Y-38555419D01*
X30196917Y-38556692D01*
X30226435Y-38643648D01*
X30267045Y-38725998D01*
X30318064Y-38802353D01*
X30378608Y-38871391D01*
X30396045Y-38886682D01*
X30432259Y-38918440D01*
X30457066Y-38948266D01*
X30471442Y-38984300D01*
X30474500Y-39011668D01*
X30474500Y-44214366D01*
X30484775Y-44292405D01*
X30484775Y-44292406D01*
X30498894Y-44345094D01*
X30498894Y-44345096D01*
X30498895Y-44345096D01*
X30505150Y-44368440D01*
X30505152Y-44368447D01*
X30535268Y-44441154D01*
X30535271Y-44441160D01*
X30535273Y-44441164D01*
X30574631Y-44509336D01*
X30586408Y-44524684D01*
X30622551Y-44571788D01*
X30622555Y-44571792D01*
X35356931Y-49306167D01*
X35379735Y-49337553D01*
X35391723Y-49374450D01*
X35393250Y-49393848D01*
X35393250Y-49620602D01*
X35393251Y-49620624D01*
X35393968Y-49626070D01*
X35392950Y-49664853D01*
X35379997Y-49701422D01*
X35356378Y-49732199D01*
X35324404Y-49754171D01*
X35287205Y-49765187D01*
X35248422Y-49764169D01*
X35211853Y-49751216D01*
X35181076Y-49727597D01*
X35159104Y-49695623D01*
X35156850Y-49690614D01*
X35149858Y-49674109D01*
X35102853Y-49593689D01*
X35102851Y-49593687D01*
X35102850Y-49593685D01*
X35045942Y-49519930D01*
X34980070Y-49454058D01*
X34906315Y-49397150D01*
X34906312Y-49397148D01*
X34906310Y-49397146D01*
X34825892Y-49350142D01*
X34796175Y-49337553D01*
X34740111Y-49313802D01*
X34740107Y-49313800D01*
X34740105Y-49313800D01*
X34740104Y-49313799D01*
X34650394Y-49288731D01*
X34583192Y-49278969D01*
X34558201Y-49275339D01*
X34558199Y-49275338D01*
X34558193Y-49275338D01*
X34537282Y-49274500D01*
X33962740Y-49274500D01*
X33952603Y-49274906D01*
X33941799Y-49275339D01*
X33941792Y-49275339D01*
X33941790Y-49275340D01*
X33893022Y-49282424D01*
X33849609Y-49288731D01*
X33849606Y-49288731D01*
X33849604Y-49288732D01*
X33759895Y-49313799D01*
X33759894Y-49313800D01*
X33674107Y-49350142D01*
X33593689Y-49397146D01*
X33593686Y-49397149D01*
X33519929Y-49454058D01*
X33454058Y-49519929D01*
X33397149Y-49593686D01*
X33397146Y-49593689D01*
X33350142Y-49674107D01*
X33313800Y-49759894D01*
X33313799Y-49759895D01*
X33288731Y-49849605D01*
X33275338Y-49941805D01*
X33275338Y-49941807D01*
X33274500Y-49962717D01*
X33274500Y-50487259D01*
X33274879Y-50496718D01*
X33275339Y-50508201D01*
X33275339Y-50508207D01*
X33275340Y-50508209D01*
X33288732Y-50600395D01*
X33313799Y-50690104D01*
X33313800Y-50690105D01*
X33313802Y-50690111D01*
X33329199Y-50726456D01*
X33350142Y-50775892D01*
X33397146Y-50856310D01*
X33397148Y-50856312D01*
X33397150Y-50856315D01*
X33400245Y-50860326D01*
X33449884Y-50924660D01*
X33468486Y-50958704D01*
X33475658Y-50996831D01*
X33470697Y-51035309D01*
X33454089Y-51070370D01*
X33449883Y-51076158D01*
X33397570Y-51143955D01*
X33397565Y-51143964D01*
X33350589Y-51224335D01*
X33314275Y-51310054D01*
X33314271Y-51310067D01*
X33289224Y-51399704D01*
X33289222Y-51399714D01*
X33275838Y-51491843D01*
X33275838Y-51491850D01*
X33275000Y-51512752D01*
X33275000Y-51525000D01*
X34126000Y-51525000D01*
X34164318Y-51531069D01*
X34198885Y-51548682D01*
X34226318Y-51576115D01*
X34243931Y-51610682D01*
X34250000Y-51649000D01*
X34250000Y-51775000D01*
X34376000Y-51775000D01*
X34414318Y-51781069D01*
X34448885Y-51798682D01*
X34476318Y-51826115D01*
X34493931Y-51860682D01*
X34500000Y-51899000D01*
X34500000Y-52725000D01*
X34537236Y-52725000D01*
X34546525Y-52724627D01*
X34585055Y-52729153D01*
X34620302Y-52745365D01*
X34648813Y-52771675D01*
X34667799Y-52805508D01*
X34675400Y-52843552D01*
X34675500Y-52848527D01*
X34675500Y-54517366D01*
X34685775Y-54595404D01*
X34696193Y-54634285D01*
X34706146Y-54671431D01*
X34706149Y-54671438D01*
X34736273Y-54744164D01*
X34775631Y-54812336D01*
X34803529Y-54848694D01*
X34823551Y-54874788D01*
X35151205Y-55202442D01*
X35151210Y-55202446D01*
X35151213Y-55202449D01*
X35178389Y-55223301D01*
X35213655Y-55250362D01*
X35213672Y-55250373D01*
X35239160Y-55265088D01*
X35269311Y-55289502D01*
X35290441Y-55322039D01*
X35300482Y-55359512D01*
X35300515Y-55359827D01*
X35323853Y-55587416D01*
X35323542Y-55593063D01*
X35324492Y-55598641D01*
X35324500Y-55600065D01*
X35324500Y-55980729D01*
X35325219Y-55995739D01*
X35325328Y-55998006D01*
X35338512Y-56073718D01*
X35363099Y-56146530D01*
X35398512Y-56214735D01*
X35398514Y-56214738D01*
X35398516Y-56214741D01*
X35443919Y-56276733D01*
X35498266Y-56331080D01*
X35560258Y-56376483D01*
X35560265Y-56376488D01*
X35628470Y-56411901D01*
X35701282Y-56436488D01*
X35776994Y-56449672D01*
X35794269Y-56450500D01*
X36205730Y-56450499D01*
X36223006Y-56449672D01*
X36298718Y-56436488D01*
X36371530Y-56411901D01*
X36439735Y-56376488D01*
X36439739Y-56376484D01*
X36442861Y-56374864D01*
X36479665Y-56362594D01*
X36518460Y-56362297D01*
X36555447Y-56374002D01*
X36557139Y-56374864D01*
X36560260Y-56376484D01*
X36560265Y-56376488D01*
X36628470Y-56411901D01*
X36628477Y-56411903D01*
X36629008Y-56412179D01*
X36659550Y-56434549D01*
X36675000Y-56449999D01*
X36705705Y-56449999D01*
X36722946Y-56449174D01*
X36722957Y-56449173D01*
X36727257Y-56448424D01*
X36766048Y-56447825D01*
X36769784Y-56448416D01*
X36776994Y-56449672D01*
X36794269Y-56450500D01*
X37205730Y-56450499D01*
X37223006Y-56449672D01*
X37228725Y-56448675D01*
X37267513Y-56448080D01*
X37271262Y-56448673D01*
X37276994Y-56449672D01*
X37294269Y-56450500D01*
X37705730Y-56450499D01*
X37723006Y-56449672D01*
X37798718Y-56436488D01*
X37871530Y-56411901D01*
X37871536Y-56411897D01*
X37875055Y-56410401D01*
X37912690Y-56400982D01*
X37923608Y-56400500D01*
X40969864Y-56400500D01*
X41179192Y-56400500D01*
X41217510Y-56406569D01*
X41252077Y-56424182D01*
X41266874Y-56436820D01*
X41320166Y-56490113D01*
X41320174Y-56490120D01*
X41387815Y-56542024D01*
X41387818Y-56542026D01*
X41387826Y-56542032D01*
X41432134Y-56567613D01*
X41461670Y-56584666D01*
X41461672Y-56584666D01*
X41461674Y-56584668D01*
X41507823Y-56603783D01*
X41507826Y-56603785D01*
X41524138Y-56610541D01*
X41540454Y-56617300D01*
X41622821Y-56639370D01*
X41692254Y-56648510D01*
X41707363Y-56650500D01*
X41707364Y-56650500D01*
X41831719Y-56650500D01*
X41870037Y-56656569D01*
X41904604Y-56674182D01*
X41929892Y-56698750D01*
X41954058Y-56730070D01*
X42019930Y-56795942D01*
X42093685Y-56852850D01*
X42093687Y-56852851D01*
X42093689Y-56852853D01*
X42174107Y-56899857D01*
X42174109Y-56899857D01*
X42174111Y-56899859D01*
X42259889Y-56936198D01*
X42259894Y-56936199D01*
X42259895Y-56936200D01*
X42349605Y-56961268D01*
X42349609Y-56961269D01*
X42441799Y-56974661D01*
X42462729Y-56975500D01*
X42987270Y-56975499D01*
X43008201Y-56974661D01*
X43100391Y-56961269D01*
X43190111Y-56936198D01*
X43275889Y-56899859D01*
X43337074Y-56864096D01*
X43356310Y-56852853D01*
X43356310Y-56852852D01*
X43356315Y-56852850D01*
X43424663Y-56800113D01*
X43458703Y-56781513D01*
X43496830Y-56774341D01*
X43535308Y-56779301D01*
X43570369Y-56795909D01*
X43576159Y-56800116D01*
X43643964Y-56852434D01*
X43724335Y-56899410D01*
X43810054Y-56935724D01*
X43810067Y-56935728D01*
X43899704Y-56960775D01*
X43899714Y-56960777D01*
X43991847Y-56974161D01*
X44012753Y-56975000D01*
X44025000Y-56975000D01*
X44525000Y-56975000D01*
X44537247Y-56975000D01*
X44558149Y-56974161D01*
X44558156Y-56974161D01*
X44650285Y-56960777D01*
X44650295Y-56960775D01*
X44739932Y-56935728D01*
X44739945Y-56935724D01*
X44825664Y-56899410D01*
X44906035Y-56852434D01*
X44979742Y-56795562D01*
X44979750Y-56795555D01*
X45045555Y-56729750D01*
X45045562Y-56729742D01*
X45102434Y-56656035D01*
X45149410Y-56575664D01*
X45185724Y-56489945D01*
X45185728Y-56489932D01*
X45210775Y-56400295D01*
X45210777Y-56400285D01*
X45224161Y-56308156D01*
X45224161Y-56308149D01*
X45225000Y-56287247D01*
X45225000Y-56250000D01*
X44525000Y-56250000D01*
X44525000Y-56975000D01*
X44025000Y-56975000D01*
X44025000Y-55750000D01*
X44525000Y-55750000D01*
X45225000Y-55750000D01*
X45225000Y-55712752D01*
X45224161Y-55691850D01*
X45224161Y-55691843D01*
X45210777Y-55599714D01*
X45210775Y-55599704D01*
X45185728Y-55510067D01*
X45185724Y-55510054D01*
X45149410Y-55424335D01*
X45102436Y-55343967D01*
X45088381Y-55325752D01*
X45069778Y-55291707D01*
X45062605Y-55253581D01*
X45067565Y-55215103D01*
X45084172Y-55180042D01*
X45088381Y-55174248D01*
X45102436Y-55156032D01*
X45149410Y-55075664D01*
X45185724Y-54989945D01*
X45185728Y-54989932D01*
X45210775Y-54900295D01*
X45210777Y-54900285D01*
X45224161Y-54808156D01*
X45224161Y-54808149D01*
X45225000Y-54787247D01*
X45225000Y-54750000D01*
X44525000Y-54750000D01*
X44525000Y-55750000D01*
X44025000Y-55750000D01*
X44025000Y-54250000D01*
X44525000Y-54250000D01*
X45225000Y-54250000D01*
X45225000Y-54212752D01*
X45224161Y-54191850D01*
X45224161Y-54191843D01*
X45210777Y-54099714D01*
X45210775Y-54099704D01*
X45185728Y-54010067D01*
X45185724Y-54010054D01*
X45149410Y-53924335D01*
X45102436Y-53843967D01*
X45088381Y-53825752D01*
X45069778Y-53791707D01*
X45062605Y-53753581D01*
X45067565Y-53715103D01*
X45084172Y-53680042D01*
X45088381Y-53674248D01*
X45102436Y-53656032D01*
X45149410Y-53575664D01*
X45185724Y-53489945D01*
X45185728Y-53489932D01*
X45210775Y-53400295D01*
X45210777Y-53400285D01*
X45224161Y-53308156D01*
X45224161Y-53308149D01*
X45225000Y-53287247D01*
X45225000Y-53250000D01*
X44525000Y-53250000D01*
X44525000Y-54250000D01*
X44025000Y-54250000D01*
X44025000Y-52750000D01*
X44525000Y-52750000D01*
X45225000Y-52750000D01*
X45225000Y-52712752D01*
X45224161Y-52691850D01*
X45224161Y-52691843D01*
X45210777Y-52599714D01*
X45210775Y-52599704D01*
X45185728Y-52510067D01*
X45185724Y-52510054D01*
X45149410Y-52424335D01*
X45102434Y-52343964D01*
X45045562Y-52270257D01*
X45045555Y-52270249D01*
X44979750Y-52204444D01*
X44979742Y-52204437D01*
X44906035Y-52147565D01*
X44825664Y-52100589D01*
X44739945Y-52064275D01*
X44739932Y-52064271D01*
X44650295Y-52039224D01*
X44650285Y-52039222D01*
X44558152Y-52025838D01*
X44537247Y-52025000D01*
X44525000Y-52025000D01*
X44525000Y-52750000D01*
X44025000Y-52750000D01*
X44025000Y-52025000D01*
X44012753Y-52025000D01*
X43991850Y-52025838D01*
X43991843Y-52025838D01*
X43899714Y-52039222D01*
X43899704Y-52039224D01*
X43810067Y-52064271D01*
X43810054Y-52064275D01*
X43724335Y-52100589D01*
X43643964Y-52147565D01*
X43643955Y-52147570D01*
X43576158Y-52199883D01*
X43572969Y-52201625D01*
X43570325Y-52204119D01*
X43556008Y-52210893D01*
X43542114Y-52218486D01*
X43538544Y-52219157D01*
X43535257Y-52220713D01*
X43519539Y-52222732D01*
X43503987Y-52225658D01*
X43500384Y-52225193D01*
X43496778Y-52225657D01*
X43481209Y-52222721D01*
X43465509Y-52220697D01*
X43462224Y-52219141D01*
X43458654Y-52218468D01*
X43444759Y-52210868D01*
X43430448Y-52204089D01*
X43424628Y-52199859D01*
X43423862Y-52199268D01*
X43423708Y-52199149D01*
X43397091Y-52170924D01*
X43380497Y-52135856D01*
X43375500Y-52101008D01*
X43375500Y-49995808D01*
X43381569Y-49957490D01*
X43399182Y-49922923D01*
X43411819Y-49908127D01*
X45415113Y-47904833D01*
X45415121Y-47904825D01*
X45467032Y-47837174D01*
X45509668Y-47763326D01*
X45542300Y-47684545D01*
X45564370Y-47602179D01*
X45575500Y-47517636D01*
X45575500Y-47432364D01*
X45575500Y-39109622D01*
X45581569Y-39071304D01*
X45599182Y-39036737D01*
X45626615Y-39009304D01*
X45644658Y-38998409D01*
X45675998Y-38982954D01*
X45675998Y-38982953D01*
X45676002Y-38982952D01*
X45752352Y-38931936D01*
X45821391Y-38871391D01*
X45881936Y-38802352D01*
X45881938Y-38802348D01*
X45884405Y-38799135D01*
X45885180Y-38799729D01*
X45906183Y-38777051D01*
X45940049Y-38758125D01*
X45978106Y-38750591D01*
X45982862Y-38750500D01*
X50452637Y-38750500D01*
X50480817Y-38746790D01*
X50537179Y-38739370D01*
X50619545Y-38717300D01*
X50698326Y-38684668D01*
X50772174Y-38642032D01*
X50839825Y-38590121D01*
X53757321Y-35672623D01*
X53788704Y-35649822D01*
X53825601Y-35637834D01*
X53864397Y-35637834D01*
X53901294Y-35649822D01*
X53932680Y-35672626D01*
X55047559Y-36787505D01*
X55070363Y-36818891D01*
X55082351Y-36855788D01*
X55083877Y-36875695D01*
X54996394Y-58177971D01*
X54990168Y-58216264D01*
X54972413Y-58250759D01*
X54944868Y-58278079D01*
X54910228Y-58295549D01*
X54873825Y-58301454D01*
X31249517Y-58573845D01*
X31211131Y-58568218D01*
X31176363Y-58551005D01*
X31148616Y-58523890D01*
X31130606Y-58489528D01*
X31124095Y-58451283D01*
X31129722Y-58412897D01*
X31146935Y-58378129D01*
X31165853Y-58357045D01*
X31194712Y-58331479D01*
X31331479Y-58194712D01*
X31459739Y-58049937D01*
X31579023Y-57897681D01*
X31688897Y-57738501D01*
X31788959Y-57572978D01*
X31878845Y-57401715D01*
X31958226Y-57225337D01*
X32026813Y-57044489D01*
X32084356Y-56859829D01*
X32130643Y-56672031D01*
X32165508Y-56481781D01*
X32188822Y-56289774D01*
X32200500Y-56096709D01*
X32200500Y-55903291D01*
X32188822Y-55710226D01*
X32165508Y-55518219D01*
X32130643Y-55327969D01*
X32084356Y-55140171D01*
X32041783Y-55003550D01*
X32026814Y-54955514D01*
X31958230Y-54774673D01*
X31958228Y-54774670D01*
X31958226Y-54774663D01*
X31878845Y-54598285D01*
X31877332Y-54595403D01*
X31836372Y-54517359D01*
X31788959Y-54427022D01*
X31688897Y-54261499D01*
X31579023Y-54102319D01*
X31459739Y-53950063D01*
X31331479Y-53805288D01*
X31331471Y-53805280D01*
X31331454Y-53805262D01*
X31194737Y-53668545D01*
X31194701Y-53668511D01*
X31090156Y-53575892D01*
X31049937Y-53540261D01*
X30897681Y-53420977D01*
X30867703Y-53400285D01*
X30738516Y-53311113D01*
X30738508Y-53311108D01*
X30738501Y-53311103D01*
X30572978Y-53211041D01*
X30572967Y-53211035D01*
X30401722Y-53121158D01*
X30225326Y-53041769D01*
X30044485Y-52973185D01*
X29859831Y-52915644D01*
X29672039Y-52869359D01*
X29672033Y-52869357D01*
X29588277Y-52854008D01*
X29481781Y-52834492D01*
X29481773Y-52834491D01*
X29289775Y-52811178D01*
X29096717Y-52799500D01*
X29096709Y-52799500D01*
X28903291Y-52799500D01*
X28903282Y-52799500D01*
X28710224Y-52811178D01*
X28518226Y-52834491D01*
X28518223Y-52834491D01*
X28518219Y-52834492D01*
X28468781Y-52843552D01*
X28327966Y-52869357D01*
X28327960Y-52869359D01*
X28140168Y-52915644D01*
X27955514Y-52973185D01*
X27774673Y-53041769D01*
X27598277Y-53121158D01*
X27427032Y-53211035D01*
X27427018Y-53211043D01*
X27261508Y-53311097D01*
X27261483Y-53311113D01*
X27102321Y-53420975D01*
X26950075Y-53540251D01*
X26950048Y-53540274D01*
X26805298Y-53668511D01*
X26805279Y-53668529D01*
X26704559Y-53769249D01*
X26673172Y-53792052D01*
X26636275Y-53804040D01*
X26597480Y-53804040D01*
X26560583Y-53792052D01*
X26529196Y-53769248D01*
X26506393Y-53737861D01*
X26494405Y-53700964D01*
X26492879Y-53681540D01*
X26493445Y-52037247D01*
X33275000Y-52037247D01*
X33275838Y-52058149D01*
X33275838Y-52058156D01*
X33289222Y-52150285D01*
X33289224Y-52150295D01*
X33314271Y-52239932D01*
X33314275Y-52239945D01*
X33350589Y-52325664D01*
X33397565Y-52406035D01*
X33454437Y-52479742D01*
X33454444Y-52479750D01*
X33520249Y-52545555D01*
X33520257Y-52545562D01*
X33593964Y-52602434D01*
X33674335Y-52649410D01*
X33760054Y-52685724D01*
X33760067Y-52685728D01*
X33849704Y-52710775D01*
X33849714Y-52710777D01*
X33941847Y-52724161D01*
X33962753Y-52725000D01*
X34000000Y-52725000D01*
X34000000Y-52025000D01*
X33275000Y-52025000D01*
X33275000Y-52037247D01*
X26493445Y-52037247D01*
X26499199Y-35324707D01*
X26505281Y-35286394D01*
X26522906Y-35251833D01*
X26550348Y-35224410D01*
X26584922Y-35206809D01*
X26623242Y-35200753D01*
X26661558Y-35206835D01*
G37*
G04 #@! TD.AperFunction*
G04 #@! TA.AperFunction,Conductor*
G36*
X42029967Y-50952534D02*
G01*
X42055493Y-50981749D01*
X42070741Y-51017422D01*
X42074500Y-51047723D01*
X42074500Y-52101008D01*
X42068431Y-52139326D01*
X42050818Y-52173893D01*
X42026253Y-52199178D01*
X42019937Y-52204051D01*
X42019930Y-52204057D01*
X41992677Y-52231310D01*
X41998587Y-50933786D01*
X42029967Y-50952534D01*
G37*
G04 #@! TD.AperFunction*
G04 #@! TA.AperFunction,Conductor*
G36*
X33776837Y-37507620D02*
G01*
X33809095Y-37529174D01*
X33812603Y-37532548D01*
X33900681Y-37620626D01*
X33923485Y-37652012D01*
X33935473Y-37688909D01*
X33937000Y-37708307D01*
X33937000Y-38060430D01*
X33941503Y-38129130D01*
X33943885Y-38141105D01*
X33959417Y-38219192D01*
X33988935Y-38306148D01*
X34029544Y-38388496D01*
X34066370Y-38443610D01*
X34082612Y-38478842D01*
X34087171Y-38517369D01*
X34079603Y-38555419D01*
X34066370Y-38581390D01*
X34029544Y-38636503D01*
X33988935Y-38718851D01*
X33959417Y-38805807D01*
X33955640Y-38824798D01*
X33941503Y-38895870D01*
X33937000Y-38964570D01*
X33937000Y-39560430D01*
X33941503Y-39629130D01*
X33954583Y-39694888D01*
X33959417Y-39719192D01*
X33988935Y-39806148D01*
X34029545Y-39888498D01*
X34054878Y-39926411D01*
X34080564Y-39964852D01*
X34099312Y-39986230D01*
X34106227Y-39994115D01*
X34126930Y-40026926D01*
X34136480Y-40064527D01*
X34137000Y-40075875D01*
X34137000Y-40691690D01*
X34135473Y-40701329D01*
X34135473Y-40711089D01*
X34132457Y-40720368D01*
X34130931Y-40730008D01*
X34126499Y-40738704D01*
X34123484Y-40747986D01*
X34117748Y-40755880D01*
X34113318Y-40764575D01*
X34100680Y-40779372D01*
X34059660Y-40820391D01*
X34028273Y-40843194D01*
X33999575Y-40853600D01*
X33963401Y-40861856D01*
X33940544Y-40867074D01*
X33940541Y-40867074D01*
X33940541Y-40867075D01*
X33855681Y-40896767D01*
X33774668Y-40935782D01*
X33698550Y-40983610D01*
X33628248Y-41039673D01*
X33564673Y-41103248D01*
X33508610Y-41173550D01*
X33460782Y-41249668D01*
X33421767Y-41330681D01*
X33392074Y-41415543D01*
X33392072Y-41415549D01*
X33372067Y-41503196D01*
X33372065Y-41503212D01*
X33362000Y-41592540D01*
X33362000Y-41682459D01*
X33372065Y-41771787D01*
X33372067Y-41771803D01*
X33392072Y-41859450D01*
X33392074Y-41859456D01*
X33421767Y-41944318D01*
X33460782Y-42025331D01*
X33492994Y-42076595D01*
X33508241Y-42112269D01*
X33512000Y-42142567D01*
X33512000Y-44205136D01*
X33523129Y-44289677D01*
X33545200Y-44372047D01*
X33577829Y-44450819D01*
X33577833Y-44450829D01*
X33611610Y-44509332D01*
X33620468Y-44524674D01*
X33620471Y-44524678D01*
X33620475Y-44524684D01*
X33672379Y-44592325D01*
X33672386Y-44592333D01*
X34447379Y-45367325D01*
X34486161Y-45406107D01*
X34507674Y-45427620D01*
X34564029Y-45470864D01*
X34575326Y-45479532D01*
X34634954Y-45513958D01*
X34649174Y-45522168D01*
X34727955Y-45554800D01*
X34783227Y-45569610D01*
X34789400Y-45571994D01*
X34800524Y-45578445D01*
X34812272Y-45583676D01*
X34817209Y-45588121D01*
X34822961Y-45591457D01*
X34831549Y-45601032D01*
X34841103Y-45609635D01*
X34842885Y-45611889D01*
X34862384Y-45637160D01*
X34880987Y-45671205D01*
X34888158Y-45709332D01*
X34883197Y-45747810D01*
X34866589Y-45782870D01*
X34862383Y-45788658D01*
X34810070Y-45856455D01*
X34810065Y-45856464D01*
X34763089Y-45936835D01*
X34726775Y-46022554D01*
X34726771Y-46022567D01*
X34701724Y-46112204D01*
X34701722Y-46112214D01*
X34688338Y-46204343D01*
X34688338Y-46204350D01*
X34687500Y-46225252D01*
X34687500Y-46237500D01*
X35538500Y-46237500D01*
X35576818Y-46243569D01*
X35611385Y-46261182D01*
X35638818Y-46288615D01*
X35656431Y-46323182D01*
X35662500Y-46361500D01*
X35662500Y-46487500D01*
X35788500Y-46487500D01*
X35826818Y-46493569D01*
X35861385Y-46511182D01*
X35888818Y-46538615D01*
X35906431Y-46573182D01*
X35912500Y-46611500D01*
X35912500Y-47437500D01*
X35949747Y-47437500D01*
X35970649Y-47436661D01*
X35970656Y-47436661D01*
X36062785Y-47423277D01*
X36062795Y-47423275D01*
X36152432Y-47398228D01*
X36152445Y-47398224D01*
X36238164Y-47361910D01*
X36318535Y-47314934D01*
X36392242Y-47258062D01*
X36392250Y-47258055D01*
X36458055Y-47192250D01*
X36458062Y-47192242D01*
X36514934Y-47118535D01*
X36561910Y-47038164D01*
X36598224Y-46952445D01*
X36598228Y-46952432D01*
X36623275Y-46862795D01*
X36623277Y-46862785D01*
X36636661Y-46770656D01*
X36636661Y-46770649D01*
X36637500Y-46749747D01*
X36637500Y-46745804D01*
X36643569Y-46707486D01*
X36661182Y-46672919D01*
X36688615Y-46645486D01*
X36723182Y-46627873D01*
X36761500Y-46621804D01*
X36787857Y-46624637D01*
X36828605Y-46633502D01*
X36891498Y-46638000D01*
X37075500Y-46638000D01*
X37113818Y-46644069D01*
X37148385Y-46661682D01*
X37175818Y-46689115D01*
X37193431Y-46723682D01*
X37199500Y-46762000D01*
X37199500Y-46787730D01*
X37193431Y-46826048D01*
X37190061Y-46835182D01*
X37182701Y-46852949D01*
X37160629Y-46935322D01*
X37149500Y-47019863D01*
X37149500Y-47930136D01*
X37160629Y-48014677D01*
X37182704Y-48097060D01*
X37183233Y-48098619D01*
X37183431Y-48099773D01*
X37183751Y-48100967D01*
X37183641Y-48100996D01*
X37189797Y-48136855D01*
X37184223Y-48175249D01*
X37167058Y-48210040D01*
X37139982Y-48237825D01*
X37105645Y-48255883D01*
X37097179Y-48258154D01*
X37097236Y-48258364D01*
X37093310Y-48259416D01*
X37006351Y-48288935D01*
X36924001Y-48329545D01*
X36847646Y-48380564D01*
X36778608Y-48441108D01*
X36718064Y-48510146D01*
X36667045Y-48586501D01*
X36634158Y-48653191D01*
X36611767Y-48684873D01*
X36580682Y-48708086D01*
X36543945Y-48720556D01*
X36505153Y-48721064D01*
X36468102Y-48709559D01*
X36436420Y-48687168D01*
X36435265Y-48686028D01*
X35387299Y-47638062D01*
X35364495Y-47606676D01*
X35352507Y-47569779D01*
X35352507Y-47530983D01*
X35364495Y-47494086D01*
X35387299Y-47462700D01*
X35387299Y-47462699D01*
X35412500Y-47437498D01*
X35412500Y-46737500D01*
X34687500Y-46737500D01*
X34674799Y-46750201D01*
X34643413Y-46773005D01*
X34606516Y-46784993D01*
X34567720Y-46784993D01*
X34530823Y-46773005D01*
X34499437Y-46750201D01*
X31711819Y-43962583D01*
X31689015Y-43931197D01*
X31677027Y-43894300D01*
X31675500Y-43874902D01*
X31675500Y-39011668D01*
X31677105Y-39001528D01*
X31677190Y-38991265D01*
X31680121Y-38982488D01*
X31681569Y-38973350D01*
X31686228Y-38964205D01*
X31689481Y-38954468D01*
X31694358Y-38948250D01*
X31699182Y-38938783D01*
X31712542Y-38923270D01*
X31715074Y-38920778D01*
X31771391Y-38871391D01*
X31809782Y-38827613D01*
X31813042Y-38824407D01*
X31825156Y-38815756D01*
X31836598Y-38806240D01*
X31840869Y-38804535D01*
X31844614Y-38801862D01*
X31858806Y-38797379D01*
X31872632Y-38791863D01*
X31877223Y-38791561D01*
X31881608Y-38790177D01*
X31896488Y-38790298D01*
X31911344Y-38789325D01*
X31915802Y-38790457D01*
X31920403Y-38790495D01*
X31934519Y-38795210D01*
X31948947Y-38798874D01*
X31952837Y-38801328D01*
X31957200Y-38802786D01*
X31969170Y-38811634D01*
X31981757Y-38819576D01*
X31986979Y-38824798D01*
X31988398Y-38825847D01*
X31989322Y-38827141D01*
X31993229Y-38831048D01*
X32028605Y-38871388D01*
X32097646Y-38931935D01*
X32107895Y-38938783D01*
X32173998Y-38982952D01*
X32174002Y-38982954D01*
X32174001Y-38982954D01*
X32249617Y-39020243D01*
X32256355Y-39023566D01*
X32343308Y-39053083D01*
X32433370Y-39070997D01*
X32502070Y-39075500D01*
X32502081Y-39075500D01*
X32947919Y-39075500D01*
X32947930Y-39075500D01*
X33016630Y-39070997D01*
X33106692Y-39053083D01*
X33193645Y-39023566D01*
X33276002Y-38982952D01*
X33352352Y-38931936D01*
X33421391Y-38871391D01*
X33481936Y-38802352D01*
X33532952Y-38726002D01*
X33573566Y-38643645D01*
X33603083Y-38556692D01*
X33620997Y-38466630D01*
X33625500Y-38397930D01*
X33625500Y-37802070D01*
X33620997Y-37733370D01*
X33603304Y-37644419D01*
X33601782Y-37605653D01*
X33612313Y-37568314D01*
X33633867Y-37536056D01*
X33664334Y-37512039D01*
X33700732Y-37498611D01*
X33739498Y-37497089D01*
X33776837Y-37507620D01*
G37*
G04 #@! TD.AperFunction*
G04 #@! TA.AperFunction,Conductor*
G36*
X38751771Y-46444859D02*
G01*
X38754556Y-46444546D01*
X38770866Y-46447884D01*
X38787318Y-46450490D01*
X38789815Y-46451762D01*
X38792563Y-46452325D01*
X38807052Y-46460545D01*
X38821885Y-46468103D01*
X38824874Y-46470656D01*
X38826307Y-46471469D01*
X38831755Y-46475813D01*
X38851458Y-46495516D01*
X38918791Y-46545921D01*
X38921607Y-46547458D01*
X38928307Y-46552801D01*
X38937178Y-46562505D01*
X38946988Y-46571253D01*
X38950191Y-46576741D01*
X38954483Y-46581435D01*
X38959921Y-46593405D01*
X38966548Y-46604757D01*
X38967899Y-46610969D01*
X38970529Y-46616757D01*
X38972789Y-46633441D01*
X38974797Y-46642666D01*
X38974475Y-46645878D01*
X38975000Y-46649753D01*
X38975000Y-46932206D01*
X39053434Y-46915143D01*
X39132181Y-46885773D01*
X39132185Y-46885771D01*
X39205932Y-46845502D01*
X39205940Y-46845497D01*
X39273206Y-46795143D01*
X39273224Y-46795127D01*
X39332627Y-46735724D01*
X39332637Y-46735712D01*
X39368588Y-46687689D01*
X39396410Y-46660651D01*
X39431225Y-46643534D01*
X39467855Y-46638000D01*
X39708502Y-46638000D01*
X39771395Y-46633502D01*
X39853582Y-46615623D01*
X39862014Y-46612477D01*
X39900032Y-46604772D01*
X39938575Y-46609192D01*
X39973866Y-46625307D01*
X40002449Y-46651538D01*
X40021528Y-46685318D01*
X40024772Y-46695281D01*
X40026769Y-46702428D01*
X40026775Y-46702445D01*
X40063089Y-46788164D01*
X40110065Y-46868535D01*
X40166937Y-46942242D01*
X40166944Y-46942250D01*
X40232749Y-47008055D01*
X40232757Y-47008062D01*
X40306464Y-47064934D01*
X40386844Y-47111916D01*
X40390390Y-47113694D01*
X40390118Y-47114236D01*
X40418365Y-47131860D01*
X40443323Y-47161563D01*
X40457881Y-47197524D01*
X40460613Y-47236223D01*
X40451254Y-47273873D01*
X40430718Y-47306787D01*
X40401015Y-47331745D01*
X40365054Y-47346303D01*
X40337078Y-47349500D01*
X39705067Y-47349500D01*
X39666749Y-47343431D01*
X39639095Y-47330494D01*
X39587831Y-47298282D01*
X39506818Y-47259267D01*
X39421956Y-47229574D01*
X39421950Y-47229572D01*
X39334303Y-47209567D01*
X39334287Y-47209565D01*
X39244959Y-47199500D01*
X39244955Y-47199500D01*
X39155045Y-47199500D01*
X39155041Y-47199500D01*
X39065712Y-47209565D01*
X39065696Y-47209567D01*
X38978049Y-47229572D01*
X38978043Y-47229574D01*
X38893181Y-47259267D01*
X38812168Y-47298282D01*
X38760905Y-47330494D01*
X38746859Y-47336496D01*
X38733251Y-47343431D01*
X38729096Y-47344089D01*
X38725231Y-47345741D01*
X38694933Y-47349500D01*
X38574500Y-47349500D01*
X38536182Y-47343431D01*
X38501615Y-47325818D01*
X38474182Y-47298385D01*
X38456569Y-47263818D01*
X38450500Y-47225500D01*
X38450500Y-47048120D01*
X38456569Y-47009802D01*
X38474182Y-46975235D01*
X38501615Y-46947802D01*
X38536182Y-46930189D01*
X38574500Y-46924120D01*
X38600859Y-46926954D01*
X38625000Y-46932205D01*
X38625000Y-46568421D01*
X38625438Y-46565649D01*
X38625125Y-46562865D01*
X38628463Y-46546554D01*
X38631069Y-46530103D01*
X38632341Y-46527605D01*
X38632904Y-46524858D01*
X38641124Y-46510368D01*
X38648682Y-46495536D01*
X38650663Y-46493554D01*
X38652048Y-46491114D01*
X38664349Y-46479868D01*
X38676115Y-46468103D01*
X38678611Y-46466831D01*
X38680682Y-46464938D01*
X38695847Y-46458048D01*
X38710682Y-46450490D01*
X38713452Y-46450051D01*
X38716004Y-46448892D01*
X38732542Y-46447027D01*
X38749000Y-46444421D01*
X38751771Y-46444859D01*
G37*
G04 #@! TD.AperFunction*
G04 #@! TA.AperFunction,Conductor*
G36*
X37151818Y-41118569D02*
G01*
X37186385Y-41136182D01*
X37213818Y-41163615D01*
X37231431Y-41198182D01*
X37237500Y-41236500D01*
X37237500Y-41794710D01*
X37231431Y-41833028D01*
X37225221Y-41848510D01*
X37221769Y-41855677D01*
X37192074Y-41940543D01*
X37192072Y-41940549D01*
X37172067Y-42028196D01*
X37172065Y-42028212D01*
X37162000Y-42117540D01*
X37162000Y-42207459D01*
X37172065Y-42296787D01*
X37172067Y-42296803D01*
X37192072Y-42384450D01*
X37192074Y-42384456D01*
X37205543Y-42422949D01*
X37212470Y-42461122D01*
X37207262Y-42499566D01*
X37190429Y-42534520D01*
X37163618Y-42562561D01*
X37129455Y-42580945D01*
X37091282Y-42587872D01*
X37052838Y-42582664D01*
X37017884Y-42565831D01*
X37000820Y-42551584D01*
X36825319Y-42376083D01*
X36802515Y-42344697D01*
X36790527Y-42307800D01*
X36789000Y-42288402D01*
X36789000Y-41236500D01*
X36795069Y-41198182D01*
X36812682Y-41163615D01*
X36840115Y-41136182D01*
X36874682Y-41118569D01*
X36913000Y-41112500D01*
X37113500Y-41112500D01*
X37151818Y-41118569D01*
G37*
G04 #@! TD.AperFunction*
G04 #@! TA.AperFunction,Conductor*
G36*
X38977488Y-35687437D02*
G01*
X38982030Y-35686936D01*
X38996633Y-35689958D01*
X39011420Y-35691906D01*
X39015544Y-35693873D01*
X39020021Y-35694800D01*
X39032975Y-35702187D01*
X39046437Y-35708608D01*
X39051238Y-35712602D01*
X39053722Y-35714018D01*
X39056153Y-35716689D01*
X39063882Y-35723118D01*
X39987203Y-36646439D01*
X40791084Y-37450319D01*
X40813888Y-37481705D01*
X40825876Y-37518602D01*
X40825876Y-37557398D01*
X40813888Y-37594295D01*
X40791084Y-37625681D01*
X40759698Y-37648485D01*
X40722801Y-37660473D01*
X40703403Y-37662000D01*
X39923133Y-37662000D01*
X39845100Y-37672274D01*
X39769065Y-37692648D01*
X39769063Y-37692648D01*
X39769062Y-37692649D01*
X39751419Y-37699956D01*
X39696339Y-37722771D01*
X39696325Y-37722778D01*
X39628178Y-37762122D01*
X39628157Y-37762136D01*
X39562492Y-37812522D01*
X39562158Y-37812086D01*
X39533742Y-37830015D01*
X39496139Y-37839563D01*
X39457427Y-37837025D01*
X39421393Y-37822647D01*
X39397116Y-37803764D01*
X39373224Y-37779872D01*
X39373206Y-37779856D01*
X39305940Y-37729502D01*
X39305932Y-37729497D01*
X39232185Y-37689228D01*
X39232181Y-37689226D01*
X39153437Y-37659857D01*
X39098140Y-37647827D01*
X39061988Y-37633751D01*
X39031955Y-37609192D01*
X39010981Y-37576555D01*
X39001119Y-37539034D01*
X39000500Y-37526661D01*
X39000500Y-36210647D01*
X39000499Y-36210633D01*
X38990225Y-36132600D01*
X38990225Y-36132597D01*
X38969851Y-36056562D01*
X38939727Y-35983836D01*
X38924941Y-35958226D01*
X38900369Y-35915665D01*
X38875062Y-35882684D01*
X38872568Y-35878888D01*
X38866431Y-35865300D01*
X38859313Y-35852190D01*
X38858480Y-35847695D01*
X38856599Y-35843531D01*
X38854961Y-35828709D01*
X38852243Y-35814043D01*
X38852839Y-35809511D01*
X38852338Y-35804970D01*
X38855360Y-35790366D01*
X38857308Y-35775580D01*
X38859275Y-35771455D01*
X38860202Y-35766979D01*
X38867589Y-35754024D01*
X38874010Y-35740563D01*
X38877156Y-35737247D01*
X38879420Y-35733278D01*
X38890448Y-35723241D01*
X38900716Y-35712422D01*
X38904733Y-35710240D01*
X38908112Y-35707166D01*
X38921699Y-35701029D01*
X38934810Y-35693911D01*
X38939304Y-35693078D01*
X38943469Y-35691197D01*
X38958290Y-35689559D01*
X38972957Y-35686841D01*
X38977488Y-35687437D01*
G37*
G04 #@! TD.AperFunction*
G04 #@! TA.AperFunction,Conductor*
G36*
X50461514Y-34944514D02*
G01*
X50496113Y-34962066D01*
X50523593Y-34989451D01*
X50530789Y-35000510D01*
X50539910Y-35016308D01*
X50539918Y-35016321D01*
X50607559Y-35112922D01*
X50683344Y-35203238D01*
X50683350Y-35203245D01*
X50683358Y-35203254D01*
X50766746Y-35286642D01*
X50766755Y-35286650D01*
X50766761Y-35286655D01*
X50857077Y-35362440D01*
X50857083Y-35362444D01*
X50857084Y-35362445D01*
X50953685Y-35430086D01*
X51055814Y-35489050D01*
X51098647Y-35509023D01*
X51162680Y-35538882D01*
X51162685Y-35538883D01*
X51162694Y-35538888D01*
X51273510Y-35579222D01*
X51273516Y-35579223D01*
X51273520Y-35579225D01*
X51302859Y-35587086D01*
X51387420Y-35609744D01*
X51503556Y-35630222D01*
X51621034Y-35640499D01*
X51621035Y-35640500D01*
X51650191Y-35640500D01*
X51688509Y-35646569D01*
X51723076Y-35664182D01*
X51750509Y-35691615D01*
X51768122Y-35726182D01*
X51774191Y-35764500D01*
X51768122Y-35802818D01*
X51750509Y-35837385D01*
X51737872Y-35852181D01*
X50176873Y-37413181D01*
X50145487Y-37435985D01*
X50108590Y-37447973D01*
X50089192Y-37449500D01*
X45982862Y-37449500D01*
X45944544Y-37443431D01*
X45909977Y-37425818D01*
X45884755Y-37400596D01*
X45884405Y-37400865D01*
X45881938Y-37397650D01*
X45821391Y-37328608D01*
X45752353Y-37268064D01*
X45684146Y-37222490D01*
X45676002Y-37217048D01*
X45676000Y-37217047D01*
X45675997Y-37217045D01*
X45675998Y-37217045D01*
X45593648Y-37176435D01*
X45506692Y-37146917D01*
X45416630Y-37129003D01*
X45347930Y-37124500D01*
X44902070Y-37124500D01*
X44833370Y-37129003D01*
X44773328Y-37140945D01*
X44743307Y-37146917D01*
X44656351Y-37176435D01*
X44574001Y-37217045D01*
X44497646Y-37268064D01*
X44428608Y-37328609D01*
X44393228Y-37368953D01*
X44363401Y-37393760D01*
X44327367Y-37408136D01*
X44288654Y-37410674D01*
X44251052Y-37401124D01*
X44218241Y-37380422D01*
X44206772Y-37368953D01*
X44171391Y-37328609D01*
X44102353Y-37268064D01*
X44034146Y-37222490D01*
X44026002Y-37217048D01*
X44026000Y-37217047D01*
X44025997Y-37217045D01*
X44025998Y-37217045D01*
X43943648Y-37176435D01*
X43856692Y-37146917D01*
X43766630Y-37129003D01*
X43697930Y-37124500D01*
X43252070Y-37124500D01*
X43183370Y-37129003D01*
X43123328Y-37140945D01*
X43093307Y-37146917D01*
X43006351Y-37176435D01*
X42924001Y-37217045D01*
X42847646Y-37268064D01*
X42778608Y-37328608D01*
X42718065Y-37397645D01*
X42689380Y-37440575D01*
X42663045Y-37469063D01*
X42629195Y-37488019D01*
X42591145Y-37495586D01*
X42552618Y-37491026D01*
X42517386Y-37474783D01*
X42498598Y-37459363D01*
X40692234Y-35652999D01*
X40669430Y-35621613D01*
X40657442Y-35584716D01*
X40657442Y-35545920D01*
X40669430Y-35509023D01*
X40692234Y-35477637D01*
X40723620Y-35454833D01*
X40760517Y-35442845D01*
X40799313Y-35442845D01*
X40836210Y-35454833D01*
X40841900Y-35457922D01*
X40895814Y-35489050D01*
X40938647Y-35509023D01*
X41002680Y-35538882D01*
X41002685Y-35538883D01*
X41002694Y-35538888D01*
X41113510Y-35579222D01*
X41113516Y-35579223D01*
X41113520Y-35579225D01*
X41142859Y-35587086D01*
X41227420Y-35609744D01*
X41343556Y-35630222D01*
X41461034Y-35640499D01*
X41461035Y-35640500D01*
X41461036Y-35640500D01*
X41578965Y-35640500D01*
X41578965Y-35640499D01*
X41696444Y-35630222D01*
X41812580Y-35609744D01*
X41926490Y-35579222D01*
X42037306Y-35538888D01*
X42144186Y-35489050D01*
X42246315Y-35430086D01*
X42342916Y-35362445D01*
X42433254Y-35286642D01*
X42516642Y-35203254D01*
X42592445Y-35112916D01*
X42660086Y-35016315D01*
X42661474Y-35013911D01*
X42665516Y-35008917D01*
X42668424Y-35003186D01*
X42677653Y-34993923D01*
X42685884Y-34983757D01*
X42691274Y-34980255D01*
X42695809Y-34975705D01*
X42707450Y-34969747D01*
X42718418Y-34962623D01*
X42724622Y-34960959D01*
X42730345Y-34958031D01*
X42743261Y-34955962D01*
X42755891Y-34952576D01*
X42768642Y-34951895D01*
X42811452Y-34951820D01*
X42849776Y-34957822D01*
X42884374Y-34975374D01*
X42911855Y-35002759D01*
X42919051Y-35013818D01*
X42920336Y-35016044D01*
X42920338Y-35016047D01*
X42945072Y-35051371D01*
X42945073Y-35051372D01*
X43045032Y-34951412D01*
X43753378Y-34950173D01*
X43298626Y-35404925D01*
X43333948Y-35429658D01*
X43333963Y-35429667D01*
X43436039Y-35488601D01*
X43436055Y-35488609D01*
X43542867Y-35538417D01*
X43542875Y-35538420D01*
X43653657Y-35578742D01*
X43767526Y-35609254D01*
X43767533Y-35609255D01*
X43883620Y-35629725D01*
X43883619Y-35629725D01*
X44001054Y-35639999D01*
X44001057Y-35640000D01*
X44118943Y-35640000D01*
X44118945Y-35639999D01*
X44236380Y-35629725D01*
X44352466Y-35609255D01*
X44352473Y-35609254D01*
X44466341Y-35578742D01*
X44466343Y-35578742D01*
X44577124Y-35538420D01*
X44577132Y-35538417D01*
X44683944Y-35488609D01*
X44683960Y-35488601D01*
X44786043Y-35429663D01*
X44821371Y-35404925D01*
X44365549Y-34949103D01*
X45071423Y-34947869D01*
X45174925Y-35051371D01*
X45199660Y-35016047D01*
X45203462Y-35009462D01*
X45207503Y-35004469D01*
X45210410Y-34998741D01*
X45219639Y-34989478D01*
X45227873Y-34979309D01*
X45233262Y-34975808D01*
X45237795Y-34971260D01*
X45249437Y-34965301D01*
X45260408Y-34958176D01*
X45266611Y-34956513D01*
X45272331Y-34953586D01*
X45285249Y-34951516D01*
X45297880Y-34948131D01*
X45310611Y-34947451D01*
X45348317Y-34947385D01*
X45386636Y-34953386D01*
X45421234Y-34970938D01*
X45448715Y-34998323D01*
X45455914Y-35009387D01*
X45459914Y-35016315D01*
X45486492Y-35054272D01*
X45527559Y-35112922D01*
X45603344Y-35203238D01*
X45603350Y-35203245D01*
X45603358Y-35203254D01*
X45686746Y-35286642D01*
X45686755Y-35286650D01*
X45686761Y-35286655D01*
X45777077Y-35362440D01*
X45777083Y-35362444D01*
X45777084Y-35362445D01*
X45873685Y-35430086D01*
X45975814Y-35489050D01*
X46018647Y-35509023D01*
X46082680Y-35538882D01*
X46082685Y-35538883D01*
X46082694Y-35538888D01*
X46193510Y-35579222D01*
X46193516Y-35579223D01*
X46193520Y-35579225D01*
X46222859Y-35587086D01*
X46307420Y-35609744D01*
X46423556Y-35630222D01*
X46541034Y-35640499D01*
X46541035Y-35640500D01*
X46541036Y-35640500D01*
X46658965Y-35640500D01*
X46658965Y-35640499D01*
X46776444Y-35630222D01*
X46892580Y-35609744D01*
X47006490Y-35579222D01*
X47117306Y-35538888D01*
X47224186Y-35489050D01*
X47326315Y-35430086D01*
X47422916Y-35362445D01*
X47513254Y-35286642D01*
X47596642Y-35203254D01*
X47672445Y-35112916D01*
X47740086Y-35016315D01*
X47746616Y-35005004D01*
X47750653Y-35000018D01*
X47753557Y-34994295D01*
X47762793Y-34985025D01*
X47771028Y-34974857D01*
X47776410Y-34971361D01*
X47780942Y-34966814D01*
X47792591Y-34960852D01*
X47803564Y-34953726D01*
X47809762Y-34952065D01*
X47815478Y-34949140D01*
X47828403Y-34947069D01*
X47841038Y-34943684D01*
X47853761Y-34943005D01*
X47885755Y-34942949D01*
X47924075Y-34948950D01*
X47958673Y-34966502D01*
X47986154Y-34993887D01*
X47993351Y-35004948D01*
X47999910Y-35016309D01*
X47999913Y-35016313D01*
X47999914Y-35016315D01*
X48024461Y-35051371D01*
X48067559Y-35112922D01*
X48143344Y-35203238D01*
X48143350Y-35203245D01*
X48143358Y-35203254D01*
X48226746Y-35286642D01*
X48226755Y-35286650D01*
X48226761Y-35286655D01*
X48317077Y-35362440D01*
X48317083Y-35362444D01*
X48317084Y-35362445D01*
X48413685Y-35430086D01*
X48515814Y-35489050D01*
X48558647Y-35509023D01*
X48622680Y-35538882D01*
X48622685Y-35538883D01*
X48622694Y-35538888D01*
X48733510Y-35579222D01*
X48733516Y-35579223D01*
X48733520Y-35579225D01*
X48762859Y-35587086D01*
X48847420Y-35609744D01*
X48963556Y-35630222D01*
X49081034Y-35640499D01*
X49081035Y-35640500D01*
X49081036Y-35640500D01*
X49198965Y-35640500D01*
X49198965Y-35640499D01*
X49316444Y-35630222D01*
X49432580Y-35609744D01*
X49546490Y-35579222D01*
X49657306Y-35538888D01*
X49764186Y-35489050D01*
X49866315Y-35430086D01*
X49962916Y-35362445D01*
X50053254Y-35286642D01*
X50136642Y-35203254D01*
X50212445Y-35112916D01*
X50280086Y-35016315D01*
X50289181Y-35000561D01*
X50293217Y-34995576D01*
X50296123Y-34989849D01*
X50305360Y-34980579D01*
X50313593Y-34970412D01*
X50318977Y-34966914D01*
X50323508Y-34962369D01*
X50335155Y-34956408D01*
X50346130Y-34949281D01*
X50352328Y-34947619D01*
X50358044Y-34944695D01*
X50370968Y-34942624D01*
X50383603Y-34939239D01*
X50396330Y-34938560D01*
X50423193Y-34938513D01*
X50461514Y-34944514D01*
G37*
G04 #@! TD.AperFunction*
G04 #@! TD*
M02*
