G04 #@! TF.GenerationSoftware,KiCad,Pcbnew,9.0.5*
G04 #@! TF.CreationDate,2025-11-03T18:46:07+02:00*
G04 #@! TF.ProjectId,elecDeTrimisproiect,656c6563-4465-4547-9269-6d697370726f,rev?*
G04 #@! TF.SameCoordinates,Original*
G04 #@! TF.FileFunction,Legend,Bot*
G04 #@! TF.FilePolarity,Positive*
%FSLAX46Y46*%
G04 Gerber Fmt 4.6, Leading zero omitted, Abs format (unit mm)*
G04 Created by KiCad (PCBNEW 9.0.5) date 2025-11-03 18:46:07*
%MOMM*%
%LPD*%
G01*
G04 APERTURE LIST*
G04 Aperture macros list*
%AMRoundRect*
0 Rectangle with rounded corners*
0 $1 Rounding radius*
0 $2 $3 $4 $5 $6 $7 $8 $9 X,Y pos of 4 corners*
0 Add a 4 corners polygon primitive as box body*
4,1,4,$2,$3,$4,$5,$6,$7,$8,$9,$2,$3,0*
0 Add four circle primitives for the rounded corners*
1,1,$1+$1,$2,$3*
1,1,$1+$1,$4,$5*
1,1,$1+$1,$6,$7*
1,1,$1+$1,$8,$9*
0 Add four rect primitives between the rounded corners*
20,1,$1+$1,$2,$3,$4,$5,0*
20,1,$1+$1,$4,$5,$6,$7,0*
20,1,$1+$1,$6,$7,$8,$9,0*
20,1,$1+$1,$8,$9,$2,$3,0*%
G04 Aperture macros list end*
%ADD10C,0.150000*%
%ADD11C,0.120000*%
%ADD12RoundRect,0.200100X-0.949900X0.949900X-0.949900X-0.949900X0.949900X-0.949900X0.949900X0.949900X0*%
%ADD13C,2.200000*%
%ADD14C,1.500000*%
%ADD15R,1.700000X1.700000*%
%ADD16C,1.700000*%
%ADD17C,5.400000*%
G04 APERTURE END LIST*
D10*
X51833333Y-37754819D02*
X51833333Y-38469104D01*
X51833333Y-38469104D02*
X51880952Y-38611961D01*
X51880952Y-38611961D02*
X51976190Y-38707200D01*
X51976190Y-38707200D02*
X52119047Y-38754819D01*
X52119047Y-38754819D02*
X52214285Y-38754819D01*
X50833333Y-38754819D02*
X51404761Y-38754819D01*
X51119047Y-38754819D02*
X51119047Y-37754819D01*
X51119047Y-37754819D02*
X51214285Y-37897676D01*
X51214285Y-37897676D02*
X51309523Y-37992914D01*
X51309523Y-37992914D02*
X51404761Y-38040533D01*
D11*
G04 #@! TO.C,J1*
X32570000Y-30420000D02*
X32570000Y-33020000D01*
X32570000Y-30420000D02*
X83490000Y-30420000D01*
X32570000Y-33020000D02*
X35170000Y-33020000D01*
X32570000Y-34290000D02*
X32570000Y-35620000D01*
X32570000Y-35620000D02*
X33900000Y-35620000D01*
X35170000Y-33020000D02*
X35170000Y-35620000D01*
X35170000Y-35620000D02*
X83490000Y-35620000D01*
X83490000Y-30420000D02*
X83490000Y-35620000D01*
G04 #@! TD*
%LPC*%
D12*
G04 #@! TO.C,J2*
X86175000Y-43350000D03*
D13*
X88725000Y-40800000D03*
X83625000Y-40800000D03*
X88725000Y-45900000D03*
X83625000Y-45900000D03*
G04 #@! TD*
D14*
G04 #@! TO.C,X1*
X71235000Y-50515000D03*
X76115000Y-50515000D03*
G04 #@! TD*
D15*
G04 #@! TO.C,J1*
X33900000Y-34290000D03*
D16*
X33900000Y-31750000D03*
X36440000Y-34290000D03*
X36440000Y-31750000D03*
X38980000Y-34290000D03*
X38980000Y-31750000D03*
X41520000Y-34290000D03*
X41520000Y-31750000D03*
X44060000Y-34290000D03*
X44060000Y-31750000D03*
X46600000Y-34290000D03*
X46600000Y-31750000D03*
X49140000Y-34290000D03*
X49140000Y-31750000D03*
X51680000Y-34290000D03*
X51680000Y-31750000D03*
X54220000Y-34290000D03*
X54220000Y-31750000D03*
X56760000Y-34290000D03*
X56760000Y-31750000D03*
X59300000Y-34290000D03*
X59300000Y-31750000D03*
X61840000Y-34290000D03*
X61840000Y-31750000D03*
X64380000Y-34290000D03*
X64380000Y-31750000D03*
X66920000Y-34290000D03*
X66920000Y-31750000D03*
X69460000Y-34290000D03*
X69460000Y-31750000D03*
X72000000Y-34290000D03*
X72000000Y-31750000D03*
X74540000Y-34290000D03*
X74540000Y-31750000D03*
X77080000Y-34290000D03*
X77080000Y-31750000D03*
X79620000Y-34290000D03*
X79620000Y-31750000D03*
X82160000Y-34290000D03*
X82160000Y-31750000D03*
G04 #@! TD*
D17*
G04 #@! TO.C,REF\u002A\u002A*
X29000000Y-33000000D03*
G04 #@! TD*
G04 #@! TO.C,REF\u002A\u002A*
X87000000Y-33000000D03*
G04 #@! TD*
G04 #@! TO.C,REF\u002A\u002A*
X87000000Y-56000000D03*
G04 #@! TD*
G04 #@! TO.C,REF\u002A\u002A*
X29000000Y-56000000D03*
G04 #@! TD*
%LPD*%
M02*
