G04 #@! TF.GenerationSoftware,KiCad,Pcbnew,9.0.5*
G04 #@! TF.CreationDate,2025-11-03T18:46:07+02:00*
G04 #@! TF.ProjectId,elecDeTrimisproiect,656c6563-4465-4547-9269-6d697370726f,rev?*
G04 #@! TF.SameCoordinates,Original*
G04 #@! TF.FileFunction,Copper,L2,Bot*
G04 #@! TF.FilePolarity,Positive*
%FSLAX46Y46*%
G04 Gerber Fmt 4.6, Leading zero omitted, Abs format (unit mm)*
G04 Created by KiCad (PCBNEW 9.0.5) date 2025-11-03 18:46:07*
%MOMM*%
%LPD*%
G01*
G04 APERTURE LIST*
G04 Aperture macros list*
%AMRoundRect*
0 Rectangle with rounded corners*
0 $1 Rounding radius*
0 $2 $3 $4 $5 $6 $7 $8 $9 X,Y pos of 4 corners*
0 Add a 4 corners polygon primitive as box body*
4,1,4,$2,$3,$4,$5,$6,$7,$8,$9,$2,$3,0*
0 Add four circle primitives for the rounded corners*
1,1,$1+$1,$2,$3*
1,1,$1+$1,$4,$5*
1,1,$1+$1,$6,$7*
1,1,$1+$1,$8,$9*
0 Add four rect primitives between the rounded corners*
20,1,$1+$1,$2,$3,$4,$5,0*
20,1,$1+$1,$4,$5,$6,$7,0*
20,1,$1+$1,$6,$7,$8,$9,0*
20,1,$1+$1,$8,$9,$2,$3,0*%
G04 Aperture macros list end*
G04 #@! TA.AperFunction,ComponentPad*
%ADD10RoundRect,0.200100X-0.949900X0.949900X-0.949900X-0.949900X0.949900X-0.949900X0.949900X0.949900X0*%
G04 #@! TD*
G04 #@! TA.AperFunction,ComponentPad*
%ADD11C,2.200000*%
G04 #@! TD*
G04 #@! TA.AperFunction,ComponentPad*
%ADD12C,1.500000*%
G04 #@! TD*
G04 #@! TA.AperFunction,ComponentPad*
%ADD13R,1.700000X1.700000*%
G04 #@! TD*
G04 #@! TA.AperFunction,ComponentPad*
%ADD14C,1.700000*%
G04 #@! TD*
G04 #@! TA.AperFunction,ComponentPad*
%ADD15C,5.400000*%
G04 #@! TD*
G04 #@! TA.AperFunction,ViaPad*
%ADD16C,0.600000*%
G04 #@! TD*
G04 #@! TA.AperFunction,Conductor*
%ADD17C,0.300000*%
G04 #@! TD*
G04 APERTURE END LIST*
D10*
G04 #@! TO.P,J2,1,In*
G04 #@! TO.N,Net-(J2-In)*
X86175000Y-43350000D03*
D11*
G04 #@! TO.P,J2,2,Ext*
G04 #@! TO.N,GNDREF*
X88725000Y-40800000D03*
X83625000Y-40800000D03*
X88725000Y-45900000D03*
X83625000Y-45900000D03*
G04 #@! TD*
D12*
G04 #@! TO.P,X1,1,1*
G04 #@! TO.N,Net-(U4-XC2)*
X71235000Y-50515000D03*
G04 #@! TO.P,X1,2,2*
G04 #@! TO.N,Net-(U4-XC1)*
X76115000Y-50515000D03*
G04 #@! TD*
D13*
G04 #@! TO.P,J1,1,Pin_1*
G04 #@! TO.N,+3.3V*
X33900000Y-34290000D03*
D14*
G04 #@! TO.P,J1,2,Pin_2*
G04 #@! TO.N,unconnected-(J1-Pin_2-Pad2)*
X33900000Y-31750000D03*
G04 #@! TO.P,J1,3,Pin_3*
G04 #@! TO.N,/SDA*
X36440000Y-34290000D03*
G04 #@! TO.P,J1,4,Pin_4*
G04 #@! TO.N,unconnected-(J1-Pin_4-Pad4)*
X36440000Y-31750000D03*
G04 #@! TO.P,J1,5,Pin_5*
G04 #@! TO.N,/SCL*
X38980000Y-34290000D03*
G04 #@! TO.P,J1,6,Pin_6*
G04 #@! TO.N,GNDREF*
X38980000Y-31750000D03*
G04 #@! TO.P,J1,7,Pin_7*
G04 #@! TO.N,unconnected-(J1-Pin_7-Pad7)*
X41520000Y-34290000D03*
G04 #@! TO.P,J1,8,Pin_8*
G04 #@! TO.N,unconnected-(J1-Pin_8-Pad8)*
X41520000Y-31750000D03*
G04 #@! TO.P,J1,9,Pin_9*
G04 #@! TO.N,GNDREF*
X44060000Y-34290000D03*
G04 #@! TO.P,J1,10,Pin_10*
G04 #@! TO.N,unconnected-(J1-Pin_10-Pad10)*
X44060000Y-31750000D03*
G04 #@! TO.P,J1,11,Pin_11*
G04 #@! TO.N,/CE*
X46600000Y-34290000D03*
G04 #@! TO.P,J1,12,Pin_12*
G04 #@! TO.N,unconnected-(J1-Pin_12-Pad12)*
X46600000Y-31750000D03*
G04 #@! TO.P,J1,13,Pin_13*
G04 #@! TO.N,unconnected-(J1-Pin_13-Pad13)*
X49140000Y-34290000D03*
G04 #@! TO.P,J1,14,Pin_14*
G04 #@! TO.N,GNDREF*
X49140000Y-31750000D03*
G04 #@! TO.P,J1,15,Pin_15*
G04 #@! TO.N,unconnected-(J1-Pin_15-Pad15)*
X51680000Y-34290000D03*
G04 #@! TO.P,J1,16,Pin_16*
G04 #@! TO.N,unconnected-(J1-Pin_16-Pad16)*
X51680000Y-31750000D03*
G04 #@! TO.P,J1,17,Pin_17*
G04 #@! TO.N,+3.3V*
X54220000Y-34290000D03*
G04 #@! TO.P,J1,18,Pin_18*
G04 #@! TO.N,/IRQ*
X54220000Y-31750000D03*
G04 #@! TO.P,J1,19,Pin_19*
G04 #@! TO.N,/MOSI*
X56760000Y-34290000D03*
G04 #@! TO.P,J1,20,Pin_20*
G04 #@! TO.N,GNDREF*
X56760000Y-31750000D03*
G04 #@! TO.P,J1,21,Pin_21*
G04 #@! TO.N,/MISO*
X59300000Y-34290000D03*
G04 #@! TO.P,J1,22,Pin_22*
G04 #@! TO.N,unconnected-(J1-Pin_22-Pad22)*
X59300000Y-31750000D03*
G04 #@! TO.P,J1,23,Pin_23*
G04 #@! TO.N,/SCK*
X61840000Y-34290000D03*
G04 #@! TO.P,J1,24,Pin_24*
G04 #@! TO.N,/CSN*
X61840000Y-31750000D03*
G04 #@! TO.P,J1,25,Pin_25*
G04 #@! TO.N,GNDREF*
X64380000Y-34290000D03*
G04 #@! TO.P,J1,26,Pin_26*
G04 #@! TO.N,unconnected-(J1-Pin_26-Pad26)*
X64380000Y-31750000D03*
G04 #@! TO.P,J1,27,Pin_27*
G04 #@! TO.N,unconnected-(J1-Pin_27-Pad27)*
X66920000Y-34290000D03*
G04 #@! TO.P,J1,28,Pin_28*
G04 #@! TO.N,unconnected-(J1-Pin_28-Pad28)*
X66920000Y-31750000D03*
G04 #@! TO.P,J1,29,Pin_29*
G04 #@! TO.N,unconnected-(J1-Pin_29-Pad29)*
X69460000Y-34290000D03*
G04 #@! TO.P,J1,30,Pin_30*
G04 #@! TO.N,GNDREF*
X69460000Y-31750000D03*
G04 #@! TO.P,J1,31,Pin_31*
G04 #@! TO.N,unconnected-(J1-Pin_31-Pad31)*
X72000000Y-34290000D03*
G04 #@! TO.P,J1,32,Pin_32*
G04 #@! TO.N,unconnected-(J1-Pin_32-Pad32)*
X72000000Y-31750000D03*
G04 #@! TO.P,J1,33,Pin_33*
G04 #@! TO.N,unconnected-(J1-Pin_33-Pad33)*
X74540000Y-34290000D03*
G04 #@! TO.P,J1,34,Pin_34*
G04 #@! TO.N,GNDREF*
X74540000Y-31750000D03*
G04 #@! TO.P,J1,35,Pin_35*
G04 #@! TO.N,unconnected-(J1-Pin_35-Pad35)*
X77080000Y-34290000D03*
G04 #@! TO.P,J1,36,Pin_36*
G04 #@! TO.N,unconnected-(J1-Pin_36-Pad36)*
X77080000Y-31750000D03*
G04 #@! TO.P,J1,37,Pin_37*
G04 #@! TO.N,unconnected-(J1-Pin_37-Pad37)*
X79620000Y-34290000D03*
G04 #@! TO.P,J1,38,Pin_38*
G04 #@! TO.N,unconnected-(J1-Pin_38-Pad38)*
X79620000Y-31750000D03*
G04 #@! TO.P,J1,39,Pin_39*
G04 #@! TO.N,GNDREF*
X82160000Y-34290000D03*
G04 #@! TO.P,J1,40,Pin_40*
G04 #@! TO.N,unconnected-(J1-Pin_40-Pad40)*
X82160000Y-31750000D03*
G04 #@! TD*
D15*
G04 #@! TO.P,REF\u002A\u002A,1*
G04 #@! TO.N,N/C*
X29000000Y-33000000D03*
G04 #@! TD*
G04 #@! TO.P,REF\u002A\u002A,1*
G04 #@! TO.N,N/C*
X87000000Y-33000000D03*
G04 #@! TD*
G04 #@! TO.P,REF\u002A\u002A,1*
G04 #@! TO.N,N/C*
X87000000Y-56000000D03*
G04 #@! TD*
G04 #@! TO.P,REF\u002A\u002A,1*
G04 #@! TO.N,N/C*
X29000000Y-56000000D03*
G04 #@! TD*
D16*
G04 #@! TO.N,GNDREF*
X71900000Y-37700000D03*
X32500000Y-43750000D03*
X32250000Y-40750000D03*
X39500000Y-57750000D03*
X33750000Y-57000000D03*
X39750000Y-53000000D03*
X53750000Y-39500000D03*
X49250000Y-43750000D03*
X53000000Y-51250000D03*
X28500000Y-46250000D03*
X44250000Y-57500000D03*
X46250000Y-54500000D03*
X44250000Y-51250000D03*
G04 #@! TO.N,+3.3V*
X41462500Y-50262500D03*
G04 #@! TO.N,GNDREF*
X32525000Y-51775000D03*
X63925000Y-47000000D03*
X54000000Y-47600000D03*
X76050000Y-46712500D03*
X89800000Y-47650000D03*
X68600000Y-39262500D03*
X81400000Y-37162500D03*
X77100000Y-39462500D03*
X87950000Y-37150000D03*
X40462500Y-47262500D03*
X67685000Y-53002500D03*
X85750000Y-52600000D03*
X35662500Y-47562500D03*
X88150000Y-52550000D03*
X68385000Y-48165000D03*
X80735000Y-53102500D03*
X80535000Y-48765000D03*
X85700000Y-48150000D03*
X87750000Y-48200000D03*
X46100000Y-39750000D03*
X85250000Y-49950000D03*
X81050000Y-41312500D03*
X76700000Y-37162500D03*
X89700000Y-37150000D03*
X63950000Y-49675000D03*
X79850000Y-45362500D03*
X72200000Y-47162500D03*
X75500000Y-37162500D03*
X77150000Y-41012500D03*
X83050000Y-48150000D03*
X76750000Y-42312500D03*
X79250000Y-39712500D03*
X89750000Y-38450000D03*
X89850000Y-49550000D03*
X66985000Y-48565000D03*
X83200000Y-49850000D03*
X28250000Y-40800000D03*
X79050000Y-37162500D03*
X54200000Y-37300000D03*
X89700000Y-43550000D03*
X39362500Y-37062500D03*
X73735000Y-51865000D03*
X89700000Y-42100000D03*
X79950000Y-46962500D03*
X54050000Y-43400000D03*
X83650000Y-52650000D03*
X67600000Y-37212500D03*
X87750000Y-49950000D03*
X64025000Y-52400000D03*
X64050000Y-42000000D03*
X66075000Y-43975000D03*
X36162500Y-40312500D03*
X45050000Y-49700000D03*
X89850000Y-51500000D03*
X53800000Y-55900000D03*
X81050000Y-39762500D03*
X28350000Y-51000000D03*
X86000000Y-37150000D03*
X69800000Y-37212500D03*
X84050000Y-37200000D03*
G04 #@! TO.N,+3.3V*
X75393750Y-41406250D03*
X34162500Y-41637500D03*
X39200000Y-48000000D03*
X37962500Y-42162500D03*
X74800000Y-38612500D03*
G04 #@! TD*
D17*
G04 #@! TO.N,+3.3V*
X74800000Y-38612500D02*
X73250000Y-37062500D01*
X73250000Y-37062500D02*
X73250000Y-36512500D01*
X75393750Y-41406250D02*
X74800000Y-40812500D01*
X74800000Y-40812500D02*
X74800000Y-38612500D01*
X73250000Y-36512500D02*
X73250000Y-33000000D01*
X73250000Y-33000000D02*
X55510000Y-33000000D01*
X55510000Y-33000000D02*
X54220000Y-34290000D01*
X34162500Y-41637500D02*
X34237500Y-41712500D01*
X35412500Y-41712500D02*
X36912500Y-43212500D01*
X36912500Y-43212500D02*
X37962500Y-42162500D01*
X34237500Y-41712500D02*
X35412500Y-41712500D01*
X41462500Y-50262500D02*
X39200000Y-48000000D01*
G04 #@! TD*
G04 #@! TA.AperFunction,Conductor*
G04 #@! TO.N,GNDREF*
G36*
X42815780Y-32378006D02*
G01*
X42851999Y-32391908D01*
X42882149Y-32416323D01*
X42897383Y-32437290D01*
X42919914Y-32476315D01*
X42919917Y-32476319D01*
X42919918Y-32476321D01*
X42987559Y-32572922D01*
X43063344Y-32663238D01*
X43063350Y-32663245D01*
X43063358Y-32663254D01*
X43146746Y-32746642D01*
X43146755Y-32746650D01*
X43146761Y-32746655D01*
X43237077Y-32822440D01*
X43237083Y-32822444D01*
X43237084Y-32822445D01*
X43333685Y-32890086D01*
X43372703Y-32912613D01*
X43373204Y-32912902D01*
X43403354Y-32937317D01*
X43424484Y-32969854D01*
X43434525Y-33007327D01*
X43432494Y-33046070D01*
X43418591Y-33082289D01*
X43394176Y-33112439D01*
X43373204Y-33127676D01*
X43333957Y-33150334D01*
X43298626Y-33175072D01*
X43930590Y-33807036D01*
X43898935Y-33815519D01*
X43838381Y-33840601D01*
X43781619Y-33873373D01*
X43729620Y-33913273D01*
X43683273Y-33959620D01*
X43643373Y-34011619D01*
X43610601Y-34068381D01*
X43585519Y-34128935D01*
X43577036Y-34160590D01*
X42945072Y-33528626D01*
X42920334Y-33563957D01*
X42897676Y-33603204D01*
X42873261Y-33633354D01*
X42840725Y-33654483D01*
X42803251Y-33664525D01*
X42764508Y-33662494D01*
X42728289Y-33648591D01*
X42698139Y-33624176D01*
X42682902Y-33603204D01*
X42682613Y-33602703D01*
X42660086Y-33563685D01*
X42592445Y-33467084D01*
X42592444Y-33467083D01*
X42592440Y-33467077D01*
X42516655Y-33376761D01*
X42516650Y-33376755D01*
X42516642Y-33376746D01*
X42433254Y-33293358D01*
X42433245Y-33293350D01*
X42433238Y-33293344D01*
X42342922Y-33217559D01*
X42246321Y-33149918D01*
X42246316Y-33149915D01*
X42246315Y-33149914D01*
X42207292Y-33127384D01*
X42177147Y-33102973D01*
X42156017Y-33070436D01*
X42145975Y-33032962D01*
X42148006Y-32994220D01*
X42161908Y-32958001D01*
X42186323Y-32927851D01*
X42207290Y-32912616D01*
X42246315Y-32890086D01*
X42342916Y-32822445D01*
X42433254Y-32746642D01*
X42516642Y-32663254D01*
X42592445Y-32572916D01*
X42660086Y-32476315D01*
X42682615Y-32437292D01*
X42707027Y-32407147D01*
X42739564Y-32386017D01*
X42777038Y-32375975D01*
X42815780Y-32378006D01*
G37*
G04 #@! TD.AperFunction*
G04 #@! TA.AperFunction,Conductor*
G36*
X80915780Y-32378006D02*
G01*
X80951999Y-32391908D01*
X80982149Y-32416323D01*
X80997383Y-32437290D01*
X81019914Y-32476315D01*
X81019917Y-32476319D01*
X81019918Y-32476321D01*
X81087559Y-32572922D01*
X81163344Y-32663238D01*
X81163350Y-32663245D01*
X81163358Y-32663254D01*
X81246746Y-32746642D01*
X81246755Y-32746650D01*
X81246761Y-32746655D01*
X81337077Y-32822440D01*
X81337083Y-32822444D01*
X81337084Y-32822445D01*
X81433685Y-32890086D01*
X81472703Y-32912613D01*
X81473204Y-32912902D01*
X81503354Y-32937317D01*
X81524484Y-32969854D01*
X81534525Y-33007327D01*
X81532494Y-33046070D01*
X81518591Y-33082289D01*
X81494176Y-33112439D01*
X81473204Y-33127676D01*
X81433957Y-33150334D01*
X81398626Y-33175072D01*
X82030590Y-33807036D01*
X81998935Y-33815519D01*
X81938381Y-33840601D01*
X81881619Y-33873373D01*
X81829620Y-33913273D01*
X81783273Y-33959620D01*
X81743373Y-34011619D01*
X81710601Y-34068381D01*
X81685519Y-34128935D01*
X81677036Y-34160590D01*
X81045072Y-33528626D01*
X81020334Y-33563957D01*
X80997676Y-33603204D01*
X80973261Y-33633354D01*
X80940725Y-33654483D01*
X80903251Y-33664525D01*
X80864508Y-33662494D01*
X80828289Y-33648591D01*
X80798139Y-33624176D01*
X80782902Y-33603204D01*
X80782613Y-33602703D01*
X80760086Y-33563685D01*
X80692445Y-33467084D01*
X80692444Y-33467083D01*
X80692440Y-33467077D01*
X80616655Y-33376761D01*
X80616650Y-33376755D01*
X80616642Y-33376746D01*
X80533254Y-33293358D01*
X80533245Y-33293350D01*
X80533238Y-33293344D01*
X80442922Y-33217559D01*
X80346321Y-33149918D01*
X80346316Y-33149915D01*
X80346315Y-33149914D01*
X80307292Y-33127384D01*
X80277147Y-33102973D01*
X80256017Y-33070436D01*
X80245975Y-33032962D01*
X80248006Y-32994220D01*
X80261908Y-32958001D01*
X80286323Y-32927851D01*
X80307290Y-32912616D01*
X80346315Y-32890086D01*
X80442916Y-32822445D01*
X80533254Y-32746642D01*
X80616642Y-32663254D01*
X80692445Y-32572916D01*
X80760086Y-32476315D01*
X80782615Y-32437292D01*
X80807027Y-32407147D01*
X80839564Y-32386017D01*
X80877038Y-32375975D01*
X80915780Y-32378006D01*
G37*
G04 #@! TD.AperFunction*
G04 #@! TA.AperFunction,Conductor*
G36*
X45355780Y-32378006D02*
G01*
X45391999Y-32391908D01*
X45422149Y-32416323D01*
X45437383Y-32437290D01*
X45459914Y-32476315D01*
X45459917Y-32476319D01*
X45459918Y-32476321D01*
X45527559Y-32572922D01*
X45603344Y-32663238D01*
X45603350Y-32663245D01*
X45603358Y-32663254D01*
X45686746Y-32746642D01*
X45686755Y-32746650D01*
X45686761Y-32746655D01*
X45777077Y-32822440D01*
X45777083Y-32822444D01*
X45777084Y-32822445D01*
X45873685Y-32890086D01*
X45896557Y-32903291D01*
X45912703Y-32912613D01*
X45942853Y-32937028D01*
X45963983Y-32969565D01*
X45974024Y-33007039D01*
X45971993Y-33045782D01*
X45958090Y-33082000D01*
X45933675Y-33112150D01*
X45912703Y-33127387D01*
X45873693Y-33149909D01*
X45873678Y-33149918D01*
X45777077Y-33217559D01*
X45686761Y-33293344D01*
X45686737Y-33293366D01*
X45603366Y-33376737D01*
X45603344Y-33376761D01*
X45527559Y-33467077D01*
X45459918Y-33563678D01*
X45459910Y-33563691D01*
X45437096Y-33603206D01*
X45412681Y-33633355D01*
X45380143Y-33654485D01*
X45342669Y-33664525D01*
X45303927Y-33662494D01*
X45267708Y-33648590D01*
X45237559Y-33624175D01*
X45222323Y-33603204D01*
X45199667Y-33563963D01*
X45199658Y-33563948D01*
X45174925Y-33528626D01*
X44542962Y-34160589D01*
X44534481Y-34128935D01*
X44509399Y-34068381D01*
X44476627Y-34011619D01*
X44436727Y-33959620D01*
X44390380Y-33913273D01*
X44338381Y-33873373D01*
X44281619Y-33840601D01*
X44221065Y-33815519D01*
X44189409Y-33807037D01*
X44821372Y-33175074D01*
X44821371Y-33175072D01*
X44786062Y-33150348D01*
X44786046Y-33150338D01*
X44746794Y-33127676D01*
X44716645Y-33103261D01*
X44695515Y-33070724D01*
X44685474Y-33033250D01*
X44687505Y-32994507D01*
X44701408Y-32958288D01*
X44725823Y-32928139D01*
X44746787Y-32912906D01*
X44786315Y-32890086D01*
X44882916Y-32822445D01*
X44973254Y-32746642D01*
X45056642Y-32663254D01*
X45132445Y-32572916D01*
X45200086Y-32476315D01*
X45222615Y-32437292D01*
X45247027Y-32407147D01*
X45279564Y-32386017D01*
X45317038Y-32375975D01*
X45355780Y-32378006D01*
G37*
G04 #@! TD.AperFunction*
G04 #@! TA.AperFunction,Conductor*
G36*
X38505519Y-31911065D02*
G01*
X38530601Y-31971619D01*
X38563373Y-32028381D01*
X38603273Y-32080380D01*
X38649620Y-32126727D01*
X38701619Y-32166627D01*
X38758381Y-32199399D01*
X38818935Y-32224481D01*
X38850590Y-32232962D01*
X38218626Y-32864925D01*
X38253948Y-32889658D01*
X38253963Y-32889667D01*
X38293204Y-32912323D01*
X38323354Y-32936738D01*
X38344483Y-32969274D01*
X38354525Y-33006748D01*
X38352494Y-33045491D01*
X38338591Y-33081710D01*
X38314176Y-33111860D01*
X38293206Y-33127096D01*
X38253691Y-33149910D01*
X38253678Y-33149918D01*
X38157077Y-33217559D01*
X38066761Y-33293344D01*
X38066737Y-33293366D01*
X37983366Y-33376737D01*
X37983344Y-33376761D01*
X37907559Y-33467077D01*
X37839918Y-33563678D01*
X37839909Y-33563693D01*
X37817387Y-33602703D01*
X37792972Y-33632853D01*
X37760435Y-33653983D01*
X37722961Y-33664024D01*
X37684218Y-33661993D01*
X37648000Y-33648090D01*
X37617850Y-33623675D01*
X37602613Y-33602703D01*
X37601712Y-33601143D01*
X37580086Y-33563685D01*
X37512445Y-33467084D01*
X37512444Y-33467083D01*
X37512440Y-33467077D01*
X37436655Y-33376761D01*
X37436650Y-33376755D01*
X37436642Y-33376746D01*
X37353254Y-33293358D01*
X37353245Y-33293350D01*
X37353238Y-33293344D01*
X37262922Y-33217559D01*
X37166321Y-33149918D01*
X37166316Y-33149915D01*
X37166315Y-33149914D01*
X37127292Y-33127384D01*
X37097147Y-33102973D01*
X37076017Y-33070436D01*
X37065975Y-33032962D01*
X37068006Y-32994220D01*
X37081908Y-32958001D01*
X37106323Y-32927851D01*
X37127290Y-32912616D01*
X37166315Y-32890086D01*
X37262916Y-32822445D01*
X37353254Y-32746642D01*
X37436642Y-32663254D01*
X37512445Y-32572916D01*
X37580086Y-32476315D01*
X37602905Y-32436790D01*
X37627316Y-32406646D01*
X37659852Y-32385516D01*
X37697326Y-32375474D01*
X37736069Y-32377504D01*
X37772288Y-32391407D01*
X37802438Y-32415822D01*
X37817676Y-32436794D01*
X37840338Y-32476046D01*
X37840348Y-32476062D01*
X37865072Y-32511371D01*
X37865074Y-32511372D01*
X38497036Y-31879409D01*
X38505519Y-31911065D01*
G37*
G04 #@! TD.AperFunction*
G04 #@! TA.AperFunction,Conductor*
G36*
X40094925Y-32511371D02*
G01*
X40119660Y-32476047D01*
X40142322Y-32436796D01*
X40166737Y-32406646D01*
X40199273Y-32385516D01*
X40236747Y-32375474D01*
X40275489Y-32377504D01*
X40311709Y-32391407D01*
X40341859Y-32415822D01*
X40357095Y-32436791D01*
X40379914Y-32476315D01*
X40379917Y-32476319D01*
X40379918Y-32476321D01*
X40447559Y-32572922D01*
X40523344Y-32663238D01*
X40523350Y-32663245D01*
X40523358Y-32663254D01*
X40606746Y-32746642D01*
X40606755Y-32746650D01*
X40606761Y-32746655D01*
X40697077Y-32822440D01*
X40697083Y-32822444D01*
X40697084Y-32822445D01*
X40793685Y-32890086D01*
X40816557Y-32903291D01*
X40832703Y-32912613D01*
X40862853Y-32937028D01*
X40883983Y-32969565D01*
X40894024Y-33007039D01*
X40891993Y-33045782D01*
X40878090Y-33082000D01*
X40853675Y-33112150D01*
X40832703Y-33127387D01*
X40793693Y-33149909D01*
X40793678Y-33149918D01*
X40697077Y-33217559D01*
X40606761Y-33293344D01*
X40606737Y-33293366D01*
X40523366Y-33376737D01*
X40523344Y-33376761D01*
X40447559Y-33467077D01*
X40379918Y-33563678D01*
X40379909Y-33563693D01*
X40357387Y-33602703D01*
X40332972Y-33632853D01*
X40300435Y-33653983D01*
X40262961Y-33664024D01*
X40224218Y-33661993D01*
X40188000Y-33648090D01*
X40157850Y-33623675D01*
X40142613Y-33602703D01*
X40141712Y-33601143D01*
X40120086Y-33563685D01*
X40052445Y-33467084D01*
X40052444Y-33467083D01*
X40052440Y-33467077D01*
X39976655Y-33376761D01*
X39976650Y-33376755D01*
X39976642Y-33376746D01*
X39893254Y-33293358D01*
X39893245Y-33293350D01*
X39893238Y-33293344D01*
X39802922Y-33217559D01*
X39706321Y-33149918D01*
X39706319Y-33149917D01*
X39706315Y-33149914D01*
X39666792Y-33127095D01*
X39636644Y-33102682D01*
X39615515Y-33070145D01*
X39605474Y-33032671D01*
X39607505Y-32993928D01*
X39621408Y-32957709D01*
X39645823Y-32927559D01*
X39666796Y-32912322D01*
X39706047Y-32889660D01*
X39741371Y-32864925D01*
X39109409Y-32232963D01*
X39141065Y-32224481D01*
X39201619Y-32199399D01*
X39258381Y-32166627D01*
X39310380Y-32126727D01*
X39356727Y-32080380D01*
X39396627Y-32028381D01*
X39429399Y-31971619D01*
X39454481Y-31911065D01*
X39462963Y-31879409D01*
X40094925Y-32511371D01*
G37*
G04 #@! TD.AperFunction*
G04 #@! TA.AperFunction,Conductor*
G36*
X48665519Y-31911065D02*
G01*
X48690601Y-31971619D01*
X48723373Y-32028381D01*
X48763273Y-32080380D01*
X48809620Y-32126727D01*
X48861619Y-32166627D01*
X48918381Y-32199399D01*
X48978935Y-32224481D01*
X49010590Y-32232962D01*
X48378626Y-32864925D01*
X48413948Y-32889658D01*
X48413963Y-32889667D01*
X48453204Y-32912323D01*
X48483354Y-32936738D01*
X48504483Y-32969274D01*
X48514525Y-33006748D01*
X48512494Y-33045491D01*
X48498591Y-33081710D01*
X48474176Y-33111860D01*
X48453206Y-33127096D01*
X48413691Y-33149910D01*
X48413678Y-33149918D01*
X48317077Y-33217559D01*
X48226761Y-33293344D01*
X48226737Y-33293366D01*
X48143366Y-33376737D01*
X48143344Y-33376761D01*
X48067559Y-33467077D01*
X47999918Y-33563678D01*
X47999909Y-33563693D01*
X47977387Y-33602703D01*
X47952972Y-33632853D01*
X47920435Y-33653983D01*
X47882961Y-33664024D01*
X47844218Y-33661993D01*
X47808000Y-33648090D01*
X47777850Y-33623675D01*
X47762613Y-33602703D01*
X47761712Y-33601143D01*
X47740086Y-33563685D01*
X47672445Y-33467084D01*
X47672444Y-33467083D01*
X47672440Y-33467077D01*
X47596655Y-33376761D01*
X47596650Y-33376755D01*
X47596642Y-33376746D01*
X47513254Y-33293358D01*
X47513245Y-33293350D01*
X47513238Y-33293344D01*
X47422922Y-33217559D01*
X47326321Y-33149918D01*
X47326316Y-33149915D01*
X47326315Y-33149914D01*
X47287292Y-33127384D01*
X47257147Y-33102973D01*
X47236017Y-33070436D01*
X47225975Y-33032962D01*
X47228006Y-32994220D01*
X47241908Y-32958001D01*
X47266323Y-32927851D01*
X47287290Y-32912616D01*
X47326315Y-32890086D01*
X47422916Y-32822445D01*
X47513254Y-32746642D01*
X47596642Y-32663254D01*
X47672445Y-32572916D01*
X47740086Y-32476315D01*
X47762905Y-32436790D01*
X47787316Y-32406646D01*
X47819852Y-32385516D01*
X47857326Y-32375474D01*
X47896069Y-32377504D01*
X47932288Y-32391407D01*
X47962438Y-32415822D01*
X47977676Y-32436794D01*
X48000338Y-32476046D01*
X48000348Y-32476062D01*
X48025072Y-32511371D01*
X48025074Y-32511372D01*
X48657036Y-31879409D01*
X48665519Y-31911065D01*
G37*
G04 #@! TD.AperFunction*
G04 #@! TA.AperFunction,Conductor*
G36*
X50254925Y-32511371D02*
G01*
X50279660Y-32476047D01*
X50302322Y-32436796D01*
X50326737Y-32406646D01*
X50359273Y-32385516D01*
X50396747Y-32375474D01*
X50435489Y-32377504D01*
X50471709Y-32391407D01*
X50501859Y-32415822D01*
X50517095Y-32436791D01*
X50539914Y-32476315D01*
X50539917Y-32476319D01*
X50539918Y-32476321D01*
X50607559Y-32572922D01*
X50683344Y-32663238D01*
X50683350Y-32663245D01*
X50683358Y-32663254D01*
X50766746Y-32746642D01*
X50766755Y-32746650D01*
X50766761Y-32746655D01*
X50857077Y-32822440D01*
X50857083Y-32822444D01*
X50857084Y-32822445D01*
X50953685Y-32890086D01*
X50976557Y-32903291D01*
X50992703Y-32912613D01*
X51022853Y-32937028D01*
X51043983Y-32969565D01*
X51054024Y-33007039D01*
X51051993Y-33045782D01*
X51038090Y-33082000D01*
X51013675Y-33112150D01*
X50992703Y-33127387D01*
X50953693Y-33149909D01*
X50953678Y-33149918D01*
X50857077Y-33217559D01*
X50766761Y-33293344D01*
X50766737Y-33293366D01*
X50683366Y-33376737D01*
X50683344Y-33376761D01*
X50607559Y-33467077D01*
X50539918Y-33563678D01*
X50539909Y-33563693D01*
X50517387Y-33602703D01*
X50492972Y-33632853D01*
X50460435Y-33653983D01*
X50422961Y-33664024D01*
X50384218Y-33661993D01*
X50348000Y-33648090D01*
X50317850Y-33623675D01*
X50302613Y-33602703D01*
X50301712Y-33601143D01*
X50280086Y-33563685D01*
X50212445Y-33467084D01*
X50212444Y-33467083D01*
X50212440Y-33467077D01*
X50136655Y-33376761D01*
X50136650Y-33376755D01*
X50136642Y-33376746D01*
X50053254Y-33293358D01*
X50053245Y-33293350D01*
X50053238Y-33293344D01*
X49962922Y-33217559D01*
X49866321Y-33149918D01*
X49866319Y-33149917D01*
X49866315Y-33149914D01*
X49826792Y-33127095D01*
X49796644Y-33102682D01*
X49775515Y-33070145D01*
X49765474Y-33032671D01*
X49767505Y-32993928D01*
X49781408Y-32957709D01*
X49805823Y-32927559D01*
X49826796Y-32912322D01*
X49866047Y-32889660D01*
X49901371Y-32864925D01*
X49269409Y-32232963D01*
X49301065Y-32224481D01*
X49361619Y-32199399D01*
X49418381Y-32166627D01*
X49470380Y-32126727D01*
X49516727Y-32080380D01*
X49556627Y-32028381D01*
X49589399Y-31971619D01*
X49614481Y-31911065D01*
X49622963Y-31879409D01*
X50254925Y-32511371D01*
G37*
G04 #@! TD.AperFunction*
G04 #@! TA.AperFunction,Conductor*
G36*
X75654925Y-32511371D02*
G01*
X75679660Y-32476047D01*
X75702322Y-32436796D01*
X75726737Y-32406646D01*
X75759273Y-32385516D01*
X75796747Y-32375474D01*
X75835489Y-32377504D01*
X75871709Y-32391407D01*
X75901859Y-32415822D01*
X75917095Y-32436791D01*
X75939914Y-32476315D01*
X75939917Y-32476319D01*
X75939918Y-32476321D01*
X76007559Y-32572922D01*
X76083344Y-32663238D01*
X76083350Y-32663245D01*
X76083358Y-32663254D01*
X76166746Y-32746642D01*
X76166755Y-32746650D01*
X76166761Y-32746655D01*
X76257077Y-32822440D01*
X76257083Y-32822444D01*
X76257084Y-32822445D01*
X76353685Y-32890086D01*
X76376557Y-32903291D01*
X76392703Y-32912613D01*
X76422853Y-32937028D01*
X76443983Y-32969565D01*
X76454024Y-33007039D01*
X76451993Y-33045782D01*
X76438090Y-33082000D01*
X76413675Y-33112150D01*
X76392703Y-33127387D01*
X76353693Y-33149909D01*
X76353678Y-33149918D01*
X76257077Y-33217559D01*
X76166761Y-33293344D01*
X76166737Y-33293366D01*
X76083366Y-33376737D01*
X76083344Y-33376761D01*
X76007559Y-33467077D01*
X75939918Y-33563678D01*
X75939909Y-33563693D01*
X75917387Y-33602703D01*
X75892972Y-33632853D01*
X75860435Y-33653983D01*
X75822961Y-33664024D01*
X75784218Y-33661993D01*
X75748000Y-33648090D01*
X75717850Y-33623675D01*
X75702613Y-33602703D01*
X75701712Y-33601143D01*
X75680086Y-33563685D01*
X75612445Y-33467084D01*
X75612444Y-33467083D01*
X75612440Y-33467077D01*
X75536655Y-33376761D01*
X75536650Y-33376755D01*
X75536642Y-33376746D01*
X75453254Y-33293358D01*
X75453245Y-33293350D01*
X75453238Y-33293344D01*
X75362922Y-33217559D01*
X75266321Y-33149918D01*
X75266319Y-33149917D01*
X75266315Y-33149914D01*
X75226792Y-33127095D01*
X75196644Y-33102682D01*
X75175515Y-33070145D01*
X75165474Y-33032671D01*
X75167505Y-32993928D01*
X75181408Y-32957709D01*
X75205823Y-32927559D01*
X75226796Y-32912322D01*
X75266047Y-32889660D01*
X75301371Y-32864925D01*
X74669409Y-32232963D01*
X74701065Y-32224481D01*
X74761619Y-32199399D01*
X74818381Y-32166627D01*
X74870380Y-32126727D01*
X74916727Y-32080380D01*
X74956627Y-32028381D01*
X74989399Y-31971619D01*
X75014481Y-31911065D01*
X75022963Y-31879409D01*
X75654925Y-32511371D01*
G37*
G04 #@! TD.AperFunction*
G04 #@! TA.AperFunction,Conductor*
G36*
X86016608Y-29700618D02*
G01*
X86017358Y-29700509D01*
X86035772Y-29703653D01*
X86054178Y-29706569D01*
X86054851Y-29706912D01*
X86055600Y-29707040D01*
X86072173Y-29715738D01*
X86088745Y-29724182D01*
X86089278Y-29724715D01*
X86089952Y-29725069D01*
X86103031Y-29738468D01*
X86116178Y-29751615D01*
X86116520Y-29752287D01*
X86117051Y-29752831D01*
X86125326Y-29769569D01*
X86133791Y-29786182D01*
X86133909Y-29786930D01*
X86134245Y-29787609D01*
X86136939Y-29806063D01*
X86139860Y-29824500D01*
X86139741Y-29825248D01*
X86139851Y-29825998D01*
X86136706Y-29844412D01*
X86133791Y-29862818D01*
X86133447Y-29863491D01*
X86133320Y-29864240D01*
X86124621Y-29880813D01*
X86116178Y-29897385D01*
X86115644Y-29897918D01*
X86115291Y-29898592D01*
X86101891Y-29911671D01*
X86088745Y-29924818D01*
X86088072Y-29925160D01*
X86087529Y-29925691D01*
X86070790Y-29933966D01*
X86054178Y-29942431D01*
X86052751Y-29942885D01*
X85955514Y-29973185D01*
X85774673Y-30041769D01*
X85598277Y-30121158D01*
X85427032Y-30211035D01*
X85427018Y-30211043D01*
X85261508Y-30311097D01*
X85261483Y-30311113D01*
X85102321Y-30420975D01*
X84950075Y-30540251D01*
X84950048Y-30540274D01*
X84805298Y-30668511D01*
X84805262Y-30668545D01*
X84668545Y-30805262D01*
X84668511Y-30805298D01*
X84540274Y-30950048D01*
X84540251Y-30950075D01*
X84420975Y-31102321D01*
X84311113Y-31261483D01*
X84311097Y-31261508D01*
X84211043Y-31427018D01*
X84211035Y-31427032D01*
X84121158Y-31598277D01*
X84041769Y-31774673D01*
X83973185Y-31955514D01*
X83915644Y-32140168D01*
X83869359Y-32327960D01*
X83869357Y-32327966D01*
X83854939Y-32406646D01*
X83836021Y-32509879D01*
X83834491Y-32518226D01*
X83811178Y-32710224D01*
X83799500Y-32903282D01*
X83799500Y-33096717D01*
X83811178Y-33289775D01*
X83825785Y-33410074D01*
X83834492Y-33481781D01*
X83849553Y-33563963D01*
X83869357Y-33672033D01*
X83869359Y-33672039D01*
X83915644Y-33859831D01*
X83973185Y-34044485D01*
X84041769Y-34225326D01*
X84121158Y-34401722D01*
X84155127Y-34466444D01*
X84211041Y-34572978D01*
X84285618Y-34696343D01*
X84311097Y-34738491D01*
X84311113Y-34738516D01*
X84402664Y-34871151D01*
X84420977Y-34897681D01*
X84540261Y-35049937D01*
X84596056Y-35112916D01*
X84668511Y-35194701D01*
X84668545Y-35194737D01*
X84805262Y-35331454D01*
X84805280Y-35331471D01*
X84805288Y-35331479D01*
X84950063Y-35459739D01*
X85102319Y-35579023D01*
X85261499Y-35688897D01*
X85427022Y-35788959D01*
X85598285Y-35878845D01*
X85774663Y-35958226D01*
X85774670Y-35958228D01*
X85774673Y-35958230D01*
X85883354Y-35999447D01*
X85955511Y-36026813D01*
X86140171Y-36084356D01*
X86327969Y-36130643D01*
X86518219Y-36165508D01*
X86710226Y-36188822D01*
X86903291Y-36200500D01*
X86903304Y-36200500D01*
X87096696Y-36200500D01*
X87096709Y-36200500D01*
X87289774Y-36188822D01*
X87481781Y-36165508D01*
X87672031Y-36130643D01*
X87859829Y-36084356D01*
X88044489Y-36026813D01*
X88225337Y-35958226D01*
X88401715Y-35878845D01*
X88572978Y-35788959D01*
X88738501Y-35688897D01*
X88897681Y-35579023D01*
X89049937Y-35459739D01*
X89194712Y-35331479D01*
X89331479Y-35194712D01*
X89459739Y-35049937D01*
X89579023Y-34897681D01*
X89688897Y-34738501D01*
X89788959Y-34572978D01*
X89878845Y-34401715D01*
X89958226Y-34225337D01*
X90026813Y-34044489D01*
X90057115Y-33947248D01*
X90074309Y-33912471D01*
X90101408Y-33884709D01*
X90135760Y-33866679D01*
X90174002Y-33860148D01*
X90212391Y-33865754D01*
X90247168Y-33882948D01*
X90274930Y-33910047D01*
X90292960Y-33944399D01*
X90299491Y-33982641D01*
X90299500Y-33984139D01*
X90299500Y-39867471D01*
X90293431Y-39905789D01*
X90275818Y-39940356D01*
X90248385Y-39967789D01*
X90213818Y-39985402D01*
X90175500Y-39991471D01*
X90137182Y-39985402D01*
X90102615Y-39967789D01*
X90075182Y-39940356D01*
X90069774Y-39932263D01*
X90056382Y-39910410D01*
X90056362Y-39910381D01*
X90019251Y-39859302D01*
X90019250Y-39859301D01*
X89364309Y-40514242D01*
X89354158Y-40489734D01*
X89308278Y-40410266D01*
X89252417Y-40337468D01*
X89187532Y-40272583D01*
X89114734Y-40216722D01*
X89035266Y-40170842D01*
X89010756Y-40160689D01*
X89665696Y-39505748D01*
X89665696Y-39505747D01*
X89614618Y-39468637D01*
X89614585Y-39468615D01*
X89507413Y-39402939D01*
X89507402Y-39402933D01*
X89395369Y-39345849D01*
X89279204Y-39297732D01*
X89159659Y-39258890D01*
X89159633Y-39258883D01*
X89037379Y-39229532D01*
X88913214Y-39209866D01*
X88913195Y-39209864D01*
X88787869Y-39200000D01*
X88662130Y-39200000D01*
X88536804Y-39209864D01*
X88536785Y-39209866D01*
X88412620Y-39229532D01*
X88290366Y-39258883D01*
X88290340Y-39258890D01*
X88170795Y-39297732D01*
X88054630Y-39345849D01*
X87942597Y-39402933D01*
X87942586Y-39402939D01*
X87835408Y-39468618D01*
X87835403Y-39468622D01*
X87784302Y-39505747D01*
X87784302Y-39505748D01*
X88439243Y-40160689D01*
X88414734Y-40170842D01*
X88335266Y-40216722D01*
X88262468Y-40272583D01*
X88197583Y-40337468D01*
X88141722Y-40410266D01*
X88095842Y-40489734D01*
X88085689Y-40514243D01*
X87430748Y-39859302D01*
X87430747Y-39859302D01*
X87393622Y-39910403D01*
X87393618Y-39910408D01*
X87327939Y-40017586D01*
X87327933Y-40017597D01*
X87270849Y-40129630D01*
X87222732Y-40245795D01*
X87183890Y-40365340D01*
X87183883Y-40365366D01*
X87154532Y-40487620D01*
X87134866Y-40611785D01*
X87134864Y-40611804D01*
X87125000Y-40737130D01*
X87125000Y-40862869D01*
X87134864Y-40988195D01*
X87134866Y-40988214D01*
X87154532Y-41112379D01*
X87183883Y-41234633D01*
X87183890Y-41234659D01*
X87222732Y-41354204D01*
X87270849Y-41470370D01*
X87296885Y-41521469D01*
X87308873Y-41558366D01*
X87308872Y-41597161D01*
X87296883Y-41634058D01*
X87274079Y-41665444D01*
X87242692Y-41688248D01*
X87205795Y-41700236D01*
X87178293Y-41701496D01*
X87147830Y-41699500D01*
X85202170Y-41699500D01*
X85171707Y-41701496D01*
X85133077Y-41697947D01*
X85097431Y-41682632D01*
X85068263Y-41657052D01*
X85048427Y-41623711D01*
X85039865Y-41585872D01*
X85043415Y-41547239D01*
X85053115Y-41521467D01*
X85079150Y-41470369D01*
X85127267Y-41354204D01*
X85166109Y-41234659D01*
X85166116Y-41234633D01*
X85195467Y-41112379D01*
X85215133Y-40988214D01*
X85215135Y-40988195D01*
X85224999Y-40862869D01*
X85225000Y-40862857D01*
X85225000Y-40737142D01*
X85224999Y-40737130D01*
X85215135Y-40611804D01*
X85215133Y-40611785D01*
X85195467Y-40487620D01*
X85166116Y-40365366D01*
X85166109Y-40365340D01*
X85127267Y-40245795D01*
X85079150Y-40129630D01*
X85022066Y-40017597D01*
X85022060Y-40017586D01*
X84956384Y-39910414D01*
X84956362Y-39910381D01*
X84919251Y-39859302D01*
X84919250Y-39859301D01*
X84264309Y-40514242D01*
X84254158Y-40489734D01*
X84208278Y-40410266D01*
X84152417Y-40337468D01*
X84087532Y-40272583D01*
X84014734Y-40216722D01*
X83935266Y-40170842D01*
X83910756Y-40160689D01*
X84565696Y-39505748D01*
X84565696Y-39505747D01*
X84514618Y-39468637D01*
X84514585Y-39468615D01*
X84407413Y-39402939D01*
X84407402Y-39402933D01*
X84295369Y-39345849D01*
X84179204Y-39297732D01*
X84059659Y-39258890D01*
X84059633Y-39258883D01*
X83937379Y-39229532D01*
X83813214Y-39209866D01*
X83813195Y-39209864D01*
X83687869Y-39200000D01*
X83562130Y-39200000D01*
X83436804Y-39209864D01*
X83436785Y-39209866D01*
X83312620Y-39229532D01*
X83190366Y-39258883D01*
X83190340Y-39258890D01*
X83070795Y-39297732D01*
X82954630Y-39345849D01*
X82842597Y-39402933D01*
X82842586Y-39402939D01*
X82735408Y-39468618D01*
X82735403Y-39468622D01*
X82684302Y-39505747D01*
X82684302Y-39505748D01*
X83339243Y-40160689D01*
X83314734Y-40170842D01*
X83235266Y-40216722D01*
X83162468Y-40272583D01*
X83097583Y-40337468D01*
X83041722Y-40410266D01*
X82995842Y-40489734D01*
X82985689Y-40514243D01*
X82330748Y-39859302D01*
X82330747Y-39859302D01*
X82293622Y-39910403D01*
X82293618Y-39910408D01*
X82227939Y-40017586D01*
X82227933Y-40017597D01*
X82170849Y-40129630D01*
X82122732Y-40245795D01*
X82083890Y-40365340D01*
X82083883Y-40365366D01*
X82054532Y-40487620D01*
X82034866Y-40611785D01*
X82034864Y-40611804D01*
X82025000Y-40737130D01*
X82025000Y-40862869D01*
X82034864Y-40988195D01*
X82034866Y-40988214D01*
X82054532Y-41112379D01*
X82083883Y-41234633D01*
X82083890Y-41234659D01*
X82122732Y-41354204D01*
X82170849Y-41470369D01*
X82227933Y-41582402D01*
X82227939Y-41582413D01*
X82293615Y-41689585D01*
X82293637Y-41689618D01*
X82330747Y-41740696D01*
X82330748Y-41740696D01*
X82985689Y-41085755D01*
X82995842Y-41110266D01*
X83041722Y-41189734D01*
X83097583Y-41262532D01*
X83162468Y-41327417D01*
X83235266Y-41383278D01*
X83314734Y-41429158D01*
X83339242Y-41439309D01*
X82684301Y-42094250D01*
X82684302Y-42094251D01*
X82735381Y-42131362D01*
X82735414Y-42131384D01*
X82842586Y-42197060D01*
X82842597Y-42197066D01*
X82954630Y-42254150D01*
X83070795Y-42302267D01*
X83190340Y-42341109D01*
X83190366Y-42341116D01*
X83312620Y-42370467D01*
X83436785Y-42390133D01*
X83436804Y-42390135D01*
X83562130Y-42399999D01*
X83562142Y-42400000D01*
X83687858Y-42400000D01*
X83687869Y-42399999D01*
X83813195Y-42390135D01*
X83813214Y-42390133D01*
X83937379Y-42370467D01*
X84059633Y-42341116D01*
X84059659Y-42341109D01*
X84179204Y-42302267D01*
X84295369Y-42254150D01*
X84346467Y-42228115D01*
X84383364Y-42216127D01*
X84422160Y-42216127D01*
X84459057Y-42228115D01*
X84490443Y-42250919D01*
X84513247Y-42282305D01*
X84525235Y-42319202D01*
X84526496Y-42346706D01*
X84524500Y-42377170D01*
X84524500Y-44322830D01*
X84526497Y-44353289D01*
X84522947Y-44391922D01*
X84507632Y-44427567D01*
X84482052Y-44456736D01*
X84448711Y-44476571D01*
X84410872Y-44485134D01*
X84372239Y-44481584D01*
X84346469Y-44471885D01*
X84295370Y-44445849D01*
X84179204Y-44397732D01*
X84059659Y-44358890D01*
X84059633Y-44358883D01*
X83937379Y-44329532D01*
X83813214Y-44309866D01*
X83813195Y-44309864D01*
X83687869Y-44300000D01*
X83562130Y-44300000D01*
X83436804Y-44309864D01*
X83436785Y-44309866D01*
X83312620Y-44329532D01*
X83190366Y-44358883D01*
X83190340Y-44358890D01*
X83070795Y-44397732D01*
X82954630Y-44445849D01*
X82842597Y-44502933D01*
X82842586Y-44502939D01*
X82735408Y-44568618D01*
X82735403Y-44568622D01*
X82684302Y-44605747D01*
X82684302Y-44605748D01*
X83339243Y-45260689D01*
X83314734Y-45270842D01*
X83235266Y-45316722D01*
X83162468Y-45372583D01*
X83097583Y-45437468D01*
X83041722Y-45510266D01*
X82995842Y-45589734D01*
X82985689Y-45614243D01*
X82330748Y-44959302D01*
X82330747Y-44959302D01*
X82293622Y-45010403D01*
X82293618Y-45010408D01*
X82227939Y-45117586D01*
X82227933Y-45117597D01*
X82170849Y-45229630D01*
X82122732Y-45345795D01*
X82083890Y-45465340D01*
X82083883Y-45465366D01*
X82054532Y-45587620D01*
X82034866Y-45711785D01*
X82034864Y-45711804D01*
X82025000Y-45837130D01*
X82025000Y-45962869D01*
X82034864Y-46088195D01*
X82034866Y-46088214D01*
X82054532Y-46212379D01*
X82083883Y-46334633D01*
X82083890Y-46334659D01*
X82122732Y-46454204D01*
X82170849Y-46570369D01*
X82227933Y-46682402D01*
X82227939Y-46682413D01*
X82293615Y-46789585D01*
X82293637Y-46789618D01*
X82330747Y-46840696D01*
X82330748Y-46840696D01*
X82985689Y-46185755D01*
X82995842Y-46210266D01*
X83041722Y-46289734D01*
X83097583Y-46362532D01*
X83162468Y-46427417D01*
X83235266Y-46483278D01*
X83314734Y-46529158D01*
X83339243Y-46539309D01*
X82684301Y-47194250D01*
X82684302Y-47194251D01*
X82735381Y-47231362D01*
X82735414Y-47231384D01*
X82842586Y-47297060D01*
X82842597Y-47297066D01*
X82954630Y-47354150D01*
X83070795Y-47402267D01*
X83190340Y-47441109D01*
X83190366Y-47441116D01*
X83312620Y-47470467D01*
X83436785Y-47490133D01*
X83436804Y-47490135D01*
X83562130Y-47499999D01*
X83562142Y-47500000D01*
X83687858Y-47500000D01*
X83687869Y-47499999D01*
X83813195Y-47490135D01*
X83813214Y-47490133D01*
X83937379Y-47470467D01*
X84059633Y-47441116D01*
X84059659Y-47441109D01*
X84179204Y-47402267D01*
X84295369Y-47354150D01*
X84407402Y-47297066D01*
X84407413Y-47297060D01*
X84514582Y-47231386D01*
X84514604Y-47231372D01*
X84565696Y-47194250D01*
X84565697Y-47194250D01*
X83910756Y-46539310D01*
X83935266Y-46529158D01*
X84014734Y-46483278D01*
X84087532Y-46427417D01*
X84152417Y-46362532D01*
X84208278Y-46289734D01*
X84254158Y-46210266D01*
X84264310Y-46185756D01*
X84919250Y-46840697D01*
X84919250Y-46840696D01*
X84956372Y-46789604D01*
X84956386Y-46789582D01*
X85022060Y-46682413D01*
X85022066Y-46682402D01*
X85079150Y-46570369D01*
X85127267Y-46454204D01*
X85166109Y-46334659D01*
X85166116Y-46334633D01*
X85195467Y-46212379D01*
X85215133Y-46088214D01*
X85215135Y-46088195D01*
X85224999Y-45962869D01*
X85225000Y-45962857D01*
X85225000Y-45837142D01*
X85224999Y-45837130D01*
X85215135Y-45711804D01*
X85215133Y-45711785D01*
X85195467Y-45587620D01*
X85166116Y-45465366D01*
X85166109Y-45465340D01*
X85127267Y-45345795D01*
X85079148Y-45229625D01*
X85053115Y-45178531D01*
X85041127Y-45141634D01*
X85041127Y-45102838D01*
X85053116Y-45065942D01*
X85075919Y-45034555D01*
X85107306Y-45011752D01*
X85144203Y-44999764D01*
X85171707Y-44998503D01*
X85199189Y-45000304D01*
X85202169Y-45000500D01*
X85202170Y-45000500D01*
X87147830Y-45000500D01*
X87178289Y-44998503D01*
X87216919Y-45002051D01*
X87252564Y-45017365D01*
X87281733Y-45042944D01*
X87301570Y-45076285D01*
X87310133Y-45114123D01*
X87306585Y-45152757D01*
X87296885Y-45178530D01*
X87270849Y-45229629D01*
X87222732Y-45345795D01*
X87183890Y-45465340D01*
X87183883Y-45465366D01*
X87154532Y-45587620D01*
X87134866Y-45711785D01*
X87134864Y-45711804D01*
X87125000Y-45837130D01*
X87125000Y-45962869D01*
X87134864Y-46088195D01*
X87134866Y-46088214D01*
X87154532Y-46212379D01*
X87183883Y-46334633D01*
X87183890Y-46334659D01*
X87222732Y-46454204D01*
X87270849Y-46570369D01*
X87327933Y-46682402D01*
X87327939Y-46682413D01*
X87393615Y-46789585D01*
X87393637Y-46789618D01*
X87430747Y-46840696D01*
X87430748Y-46840696D01*
X88085689Y-46185755D01*
X88095842Y-46210266D01*
X88141722Y-46289734D01*
X88197583Y-46362532D01*
X88262468Y-46427417D01*
X88335266Y-46483278D01*
X88414734Y-46529158D01*
X88439243Y-46539309D01*
X87784301Y-47194250D01*
X87784302Y-47194251D01*
X87835381Y-47231362D01*
X87835414Y-47231384D01*
X87942586Y-47297060D01*
X87942597Y-47297066D01*
X88054630Y-47354150D01*
X88170795Y-47402267D01*
X88290340Y-47441109D01*
X88290366Y-47441116D01*
X88412620Y-47470467D01*
X88536785Y-47490133D01*
X88536804Y-47490135D01*
X88662130Y-47499999D01*
X88662142Y-47500000D01*
X88787858Y-47500000D01*
X88787869Y-47499999D01*
X88913195Y-47490135D01*
X88913214Y-47490133D01*
X89037379Y-47470467D01*
X89159633Y-47441116D01*
X89159659Y-47441109D01*
X89279204Y-47402267D01*
X89395369Y-47354150D01*
X89507402Y-47297066D01*
X89507413Y-47297060D01*
X89614582Y-47231386D01*
X89614604Y-47231372D01*
X89665696Y-47194250D01*
X89665697Y-47194250D01*
X89010756Y-46539310D01*
X89035266Y-46529158D01*
X89114734Y-46483278D01*
X89187532Y-46427417D01*
X89252417Y-46362532D01*
X89308278Y-46289734D01*
X89354158Y-46210266D01*
X89364309Y-46185756D01*
X90019250Y-46840697D01*
X90019250Y-46840696D01*
X90056372Y-46789604D01*
X90056386Y-46789582D01*
X90069773Y-46767738D01*
X90094968Y-46738238D01*
X90128047Y-46717967D01*
X90165771Y-46708910D01*
X90204447Y-46711954D01*
X90240290Y-46726801D01*
X90269790Y-46751996D01*
X90290061Y-46785075D01*
X90299118Y-46822799D01*
X90299500Y-46832528D01*
X90299500Y-55015860D01*
X90293431Y-55054178D01*
X90275818Y-55088745D01*
X90248385Y-55116178D01*
X90213818Y-55133791D01*
X90175500Y-55139860D01*
X90137182Y-55133791D01*
X90102615Y-55116178D01*
X90075182Y-55088745D01*
X90057569Y-55054178D01*
X90057115Y-55052751D01*
X90026814Y-54955514D01*
X89958230Y-54774673D01*
X89958228Y-54774670D01*
X89958226Y-54774663D01*
X89878845Y-54598285D01*
X89788959Y-54427022D01*
X89688897Y-54261499D01*
X89579023Y-54102319D01*
X89459739Y-53950063D01*
X89331479Y-53805288D01*
X89331471Y-53805280D01*
X89331454Y-53805262D01*
X89194737Y-53668545D01*
X89194701Y-53668511D01*
X89151402Y-53630151D01*
X89049937Y-53540261D01*
X88897681Y-53420977D01*
X88871151Y-53402664D01*
X88738516Y-53311113D01*
X88738508Y-53311108D01*
X88738501Y-53311103D01*
X88572978Y-53211041D01*
X88572967Y-53211035D01*
X88401722Y-53121158D01*
X88225326Y-53041769D01*
X88044485Y-52973185D01*
X87859831Y-52915644D01*
X87672039Y-52869359D01*
X87672033Y-52869357D01*
X87588277Y-52854008D01*
X87481781Y-52834492D01*
X87481773Y-52834491D01*
X87289775Y-52811178D01*
X87096717Y-52799500D01*
X87096709Y-52799500D01*
X86903291Y-52799500D01*
X86903282Y-52799500D01*
X86710224Y-52811178D01*
X86518226Y-52834491D01*
X86518223Y-52834491D01*
X86518219Y-52834492D01*
X86453598Y-52846334D01*
X86327966Y-52869357D01*
X86327960Y-52869359D01*
X86140168Y-52915644D01*
X85955514Y-52973185D01*
X85774673Y-53041769D01*
X85598277Y-53121158D01*
X85427032Y-53211035D01*
X85427018Y-53211043D01*
X85261508Y-53311097D01*
X85261483Y-53311113D01*
X85102321Y-53420975D01*
X84950075Y-53540251D01*
X84950048Y-53540274D01*
X84805298Y-53668511D01*
X84805262Y-53668545D01*
X84668545Y-53805262D01*
X84668511Y-53805298D01*
X84540274Y-53950048D01*
X84540251Y-53950075D01*
X84420975Y-54102321D01*
X84311113Y-54261483D01*
X84311097Y-54261508D01*
X84211043Y-54427018D01*
X84211035Y-54427032D01*
X84121158Y-54598277D01*
X84041769Y-54774673D01*
X83973185Y-54955514D01*
X83915644Y-55140168D01*
X83869359Y-55327960D01*
X83869357Y-55327966D01*
X83834491Y-55518226D01*
X83811178Y-55710224D01*
X83799500Y-55903282D01*
X83799500Y-56096717D01*
X83811178Y-56289774D01*
X83834492Y-56481781D01*
X83851200Y-56572952D01*
X83869357Y-56672033D01*
X83869359Y-56672039D01*
X83915644Y-56859831D01*
X83973185Y-57044485D01*
X84041769Y-57225326D01*
X84121158Y-57401722D01*
X84211035Y-57572967D01*
X84211041Y-57572978D01*
X84311103Y-57738501D01*
X84420977Y-57897681D01*
X84540261Y-58049937D01*
X84603110Y-58120878D01*
X84668511Y-58194701D01*
X84668545Y-58194737D01*
X84805262Y-58331454D01*
X84805280Y-58331471D01*
X84805288Y-58331479D01*
X84950063Y-58459739D01*
X85102319Y-58579023D01*
X85261499Y-58688897D01*
X85427022Y-58788959D01*
X85598285Y-58878845D01*
X85774663Y-58958226D01*
X85774670Y-58958228D01*
X85774673Y-58958230D01*
X85955514Y-59026814D01*
X86052751Y-59057115D01*
X86087529Y-59074309D01*
X86115291Y-59101408D01*
X86133320Y-59135760D01*
X86139851Y-59174002D01*
X86134245Y-59212391D01*
X86117051Y-59247169D01*
X86089952Y-59274931D01*
X86055600Y-59292960D01*
X86017358Y-59299491D01*
X86015860Y-59299500D01*
X29984140Y-59299500D01*
X29945822Y-59293431D01*
X29911255Y-59275818D01*
X29883822Y-59248385D01*
X29866209Y-59213818D01*
X29860140Y-59175500D01*
X29866209Y-59137182D01*
X29883822Y-59102615D01*
X29911255Y-59075182D01*
X29945822Y-59057569D01*
X29947249Y-59057115D01*
X30010834Y-59037300D01*
X30044489Y-59026813D01*
X30225337Y-58958226D01*
X30401715Y-58878845D01*
X30572978Y-58788959D01*
X30738501Y-58688897D01*
X30897681Y-58579023D01*
X31049937Y-58459739D01*
X31194712Y-58331479D01*
X31331479Y-58194712D01*
X31459739Y-58049937D01*
X31579023Y-57897681D01*
X31688897Y-57738501D01*
X31788959Y-57572978D01*
X31878845Y-57401715D01*
X31958226Y-57225337D01*
X32026813Y-57044489D01*
X32084356Y-56859829D01*
X32130643Y-56672031D01*
X32165508Y-56481781D01*
X32188822Y-56289774D01*
X32200500Y-56096709D01*
X32200500Y-55903291D01*
X32188822Y-55710226D01*
X32165508Y-55518219D01*
X32130643Y-55327969D01*
X32084356Y-55140171D01*
X32026813Y-54955511D01*
X31958226Y-54774663D01*
X31878845Y-54598285D01*
X31788959Y-54427022D01*
X31688897Y-54261499D01*
X31579023Y-54102319D01*
X31459739Y-53950063D01*
X31331479Y-53805288D01*
X31331471Y-53805280D01*
X31331454Y-53805262D01*
X31194737Y-53668545D01*
X31194701Y-53668511D01*
X31151402Y-53630151D01*
X31049937Y-53540261D01*
X30897681Y-53420977D01*
X30871151Y-53402664D01*
X30738516Y-53311113D01*
X30738508Y-53311108D01*
X30738501Y-53311103D01*
X30572978Y-53211041D01*
X30572967Y-53211035D01*
X30401722Y-53121158D01*
X30225326Y-53041769D01*
X30044485Y-52973185D01*
X29859831Y-52915644D01*
X29672039Y-52869359D01*
X29672033Y-52869357D01*
X29588277Y-52854008D01*
X29481781Y-52834492D01*
X29481773Y-52834491D01*
X29289775Y-52811178D01*
X29096717Y-52799500D01*
X29096709Y-52799500D01*
X28903291Y-52799500D01*
X28903282Y-52799500D01*
X28710224Y-52811178D01*
X28518226Y-52834491D01*
X28518223Y-52834491D01*
X28518219Y-52834492D01*
X28453598Y-52846334D01*
X28327966Y-52869357D01*
X28327960Y-52869359D01*
X28140168Y-52915644D01*
X27955514Y-52973185D01*
X27774673Y-53041769D01*
X27598277Y-53121158D01*
X27427032Y-53211035D01*
X27427018Y-53211043D01*
X27261508Y-53311097D01*
X27261483Y-53311113D01*
X27102321Y-53420975D01*
X26950075Y-53540251D01*
X26950048Y-53540274D01*
X26805298Y-53668511D01*
X26805262Y-53668545D01*
X26668545Y-53805262D01*
X26668511Y-53805298D01*
X26540274Y-53950048D01*
X26540251Y-53950075D01*
X26420975Y-54102321D01*
X26311113Y-54261483D01*
X26311097Y-54261508D01*
X26211043Y-54427018D01*
X26211035Y-54427032D01*
X26121158Y-54598277D01*
X26041769Y-54774673D01*
X25973185Y-54955514D01*
X25942885Y-55052751D01*
X25925691Y-55087529D01*
X25898592Y-55115291D01*
X25864240Y-55133320D01*
X25825998Y-55139851D01*
X25787609Y-55134245D01*
X25752831Y-55117051D01*
X25725069Y-55089952D01*
X25707040Y-55055600D01*
X25700509Y-55017358D01*
X25700500Y-55015860D01*
X25700500Y-47955040D01*
X38399500Y-47955040D01*
X38399500Y-48044959D01*
X38409565Y-48134287D01*
X38409567Y-48134303D01*
X38429572Y-48221950D01*
X38429574Y-48221956D01*
X38459267Y-48306818D01*
X38498282Y-48387831D01*
X38546110Y-48463949D01*
X38546112Y-48463952D01*
X38546115Y-48463956D01*
X38602173Y-48534251D01*
X38665749Y-48597827D01*
X38736044Y-48653885D01*
X38812173Y-48701720D01*
X38888436Y-48738446D01*
X38893181Y-48740732D01*
X38919988Y-48750111D01*
X38978044Y-48770426D01*
X39037075Y-48783899D01*
X39073081Y-48798342D01*
X39097163Y-48817109D01*
X40645390Y-50365336D01*
X40668194Y-50396722D01*
X40678600Y-50425424D01*
X40692073Y-50484453D01*
X40692074Y-50484456D01*
X40721767Y-50569318D01*
X40760782Y-50650331D01*
X40808610Y-50726449D01*
X40808612Y-50726452D01*
X40808615Y-50726456D01*
X40864673Y-50796751D01*
X40928249Y-50860327D01*
X40998544Y-50916385D01*
X40998548Y-50916387D01*
X40998550Y-50916389D01*
X41074668Y-50964217D01*
X41074673Y-50964220D01*
X41150936Y-51000946D01*
X41155681Y-51003232D01*
X41182488Y-51012611D01*
X41240544Y-51032926D01*
X41328200Y-51052933D01*
X41417540Y-51062999D01*
X41417541Y-51063000D01*
X41417545Y-51063000D01*
X41507459Y-51063000D01*
X41507459Y-51062999D01*
X41596800Y-51052933D01*
X41684456Y-51032926D01*
X41769321Y-51003231D01*
X41850327Y-50964220D01*
X41926456Y-50916385D01*
X41996751Y-50860327D01*
X42060327Y-50796751D01*
X42116385Y-50726456D01*
X42164220Y-50650327D01*
X42203231Y-50569321D01*
X42232926Y-50484456D01*
X42239976Y-50453569D01*
X69984500Y-50453569D01*
X69984500Y-50576430D01*
X69996542Y-50698705D01*
X69996542Y-50698707D01*
X70020507Y-50819192D01*
X70020510Y-50819203D01*
X70056180Y-50936794D01*
X70103199Y-51050304D01*
X70103201Y-51050309D01*
X70161110Y-51158649D01*
X70161121Y-51158667D01*
X70229381Y-51260825D01*
X70307327Y-51355802D01*
X70394197Y-51442672D01*
X70489174Y-51520618D01*
X70489180Y-51520622D01*
X70591339Y-51588883D01*
X70591348Y-51588888D01*
X70591350Y-51588889D01*
X70699690Y-51646798D01*
X70699692Y-51646798D01*
X70699698Y-51646802D01*
X70768875Y-51675456D01*
X70813205Y-51693819D01*
X70813209Y-51693820D01*
X70813211Y-51693821D01*
X70930787Y-51729487D01*
X70930793Y-51729488D01*
X70930796Y-51729489D01*
X70930807Y-51729492D01*
X71031659Y-51749551D01*
X71051292Y-51753457D01*
X71173567Y-51765500D01*
X71173569Y-51765500D01*
X71296431Y-51765500D01*
X71296433Y-51765500D01*
X71418708Y-51753457D01*
X71442163Y-51748791D01*
X71539192Y-51729492D01*
X71539203Y-51729489D01*
X71539203Y-51729488D01*
X71539213Y-51729487D01*
X71656789Y-51693821D01*
X71770302Y-51646802D01*
X71878661Y-51588883D01*
X71980820Y-51520622D01*
X72075797Y-51442677D01*
X72162677Y-51355797D01*
X72240622Y-51260820D01*
X72308883Y-51158661D01*
X72366802Y-51050302D01*
X72413821Y-50936789D01*
X72449487Y-50819213D01*
X72449489Y-50819203D01*
X72449492Y-50819192D01*
X72473457Y-50698707D01*
X72473457Y-50698705D01*
X72478222Y-50650331D01*
X72485500Y-50576433D01*
X72485500Y-50453569D01*
X74864500Y-50453569D01*
X74864500Y-50576430D01*
X74876542Y-50698705D01*
X74876542Y-50698707D01*
X74900507Y-50819192D01*
X74900510Y-50819203D01*
X74936180Y-50936794D01*
X74983199Y-51050304D01*
X74983201Y-51050309D01*
X75041110Y-51158649D01*
X75041121Y-51158667D01*
X75109381Y-51260825D01*
X75187327Y-51355802D01*
X75274197Y-51442672D01*
X75369174Y-51520618D01*
X75369180Y-51520622D01*
X75471339Y-51588883D01*
X75471348Y-51588888D01*
X75471350Y-51588889D01*
X75579690Y-51646798D01*
X75579692Y-51646798D01*
X75579698Y-51646802D01*
X75648875Y-51675456D01*
X75693205Y-51693819D01*
X75693209Y-51693820D01*
X75693211Y-51693821D01*
X75810787Y-51729487D01*
X75810793Y-51729488D01*
X75810796Y-51729489D01*
X75810807Y-51729492D01*
X75911659Y-51749551D01*
X75931292Y-51753457D01*
X76053567Y-51765500D01*
X76053569Y-51765500D01*
X76176431Y-51765500D01*
X76176433Y-51765500D01*
X76298708Y-51753457D01*
X76322163Y-51748791D01*
X76419192Y-51729492D01*
X76419203Y-51729489D01*
X76419203Y-51729488D01*
X76419213Y-51729487D01*
X76536789Y-51693821D01*
X76650302Y-51646802D01*
X76758661Y-51588883D01*
X76860820Y-51520622D01*
X76955797Y-51442677D01*
X77042677Y-51355797D01*
X77120622Y-51260820D01*
X77188883Y-51158661D01*
X77246802Y-51050302D01*
X77293821Y-50936789D01*
X77329487Y-50819213D01*
X77329489Y-50819203D01*
X77329492Y-50819192D01*
X77353457Y-50698707D01*
X77353457Y-50698705D01*
X77358222Y-50650331D01*
X77365500Y-50576433D01*
X77365500Y-50453567D01*
X77353457Y-50331292D01*
X77329492Y-50210807D01*
X77329489Y-50210796D01*
X77329488Y-50210793D01*
X77329487Y-50210787D01*
X77293821Y-50093211D01*
X77246802Y-49979698D01*
X77190662Y-49874668D01*
X77188889Y-49871350D01*
X77188888Y-49871348D01*
X77188883Y-49871339D01*
X77120622Y-49769180D01*
X77120618Y-49769174D01*
X77042672Y-49674197D01*
X76955802Y-49587327D01*
X76860825Y-49509381D01*
X76758667Y-49441121D01*
X76758666Y-49441120D01*
X76758661Y-49441117D01*
X76758656Y-49441114D01*
X76758649Y-49441110D01*
X76650309Y-49383201D01*
X76650304Y-49383199D01*
X76536794Y-49336180D01*
X76419203Y-49300510D01*
X76419192Y-49300507D01*
X76298706Y-49276542D01*
X76200517Y-49266872D01*
X76176433Y-49264500D01*
X76053567Y-49264500D01*
X76029483Y-49266872D01*
X75931294Y-49276542D01*
X75931292Y-49276542D01*
X75810807Y-49300507D01*
X75810796Y-49300510D01*
X75693205Y-49336180D01*
X75579695Y-49383199D01*
X75579690Y-49383201D01*
X75471350Y-49441110D01*
X75471332Y-49441121D01*
X75369174Y-49509381D01*
X75274197Y-49587327D01*
X75187327Y-49674197D01*
X75109381Y-49769174D01*
X75041121Y-49871332D01*
X75041110Y-49871350D01*
X74983201Y-49979690D01*
X74983199Y-49979695D01*
X74936180Y-50093205D01*
X74900510Y-50210796D01*
X74900507Y-50210807D01*
X74876542Y-50331292D01*
X74876542Y-50331294D01*
X74864500Y-50453569D01*
X72485500Y-50453569D01*
X72485500Y-50453567D01*
X72473457Y-50331292D01*
X72449492Y-50210807D01*
X72449489Y-50210796D01*
X72449488Y-50210793D01*
X72449487Y-50210787D01*
X72413821Y-50093211D01*
X72366802Y-49979698D01*
X72310662Y-49874668D01*
X72308889Y-49871350D01*
X72308888Y-49871348D01*
X72308883Y-49871339D01*
X72240622Y-49769180D01*
X72240618Y-49769174D01*
X72162672Y-49674197D01*
X72075802Y-49587327D01*
X71980825Y-49509381D01*
X71878667Y-49441121D01*
X71878666Y-49441120D01*
X71878661Y-49441117D01*
X71878656Y-49441114D01*
X71878649Y-49441110D01*
X71770309Y-49383201D01*
X71770304Y-49383199D01*
X71656794Y-49336180D01*
X71539203Y-49300510D01*
X71539192Y-49300507D01*
X71418706Y-49276542D01*
X71320517Y-49266872D01*
X71296433Y-49264500D01*
X71173567Y-49264500D01*
X71149483Y-49266872D01*
X71051294Y-49276542D01*
X71051292Y-49276542D01*
X70930807Y-49300507D01*
X70930796Y-49300510D01*
X70813205Y-49336180D01*
X70699695Y-49383199D01*
X70699690Y-49383201D01*
X70591350Y-49441110D01*
X70591332Y-49441121D01*
X70489174Y-49509381D01*
X70394197Y-49587327D01*
X70307327Y-49674197D01*
X70229381Y-49769174D01*
X70161121Y-49871332D01*
X70161110Y-49871350D01*
X70103201Y-49979690D01*
X70103199Y-49979695D01*
X70056180Y-50093205D01*
X70020510Y-50210796D01*
X70020507Y-50210807D01*
X69996542Y-50331292D01*
X69996542Y-50331294D01*
X69984500Y-50453569D01*
X42239976Y-50453569D01*
X42252933Y-50396800D01*
X42263000Y-50307455D01*
X42263000Y-50217545D01*
X42252933Y-50128200D01*
X42232926Y-50040544D01*
X42203231Y-49955679D01*
X42164220Y-49874673D01*
X42116385Y-49798544D01*
X42060327Y-49728249D01*
X41996751Y-49664673D01*
X41926456Y-49608615D01*
X41926452Y-49608612D01*
X41926449Y-49608610D01*
X41850331Y-49560782D01*
X41769318Y-49521767D01*
X41684456Y-49492074D01*
X41684453Y-49492073D01*
X41625424Y-49478600D01*
X41589417Y-49464156D01*
X41565336Y-49445390D01*
X40017109Y-47897163D01*
X39994305Y-47865777D01*
X39983899Y-47837074D01*
X39970427Y-47778049D01*
X39970426Y-47778044D01*
X39940731Y-47693179D01*
X39901720Y-47612173D01*
X39853885Y-47536044D01*
X39797827Y-47465749D01*
X39734251Y-47402173D01*
X39663956Y-47346115D01*
X39663952Y-47346112D01*
X39663949Y-47346110D01*
X39587831Y-47298282D01*
X39506819Y-47259268D01*
X39421956Y-47229574D01*
X39421950Y-47229572D01*
X39334303Y-47209567D01*
X39334287Y-47209565D01*
X39244959Y-47199500D01*
X39244955Y-47199500D01*
X39155045Y-47199500D01*
X39155041Y-47199500D01*
X39065712Y-47209565D01*
X39065696Y-47209567D01*
X38978049Y-47229572D01*
X38978043Y-47229574D01*
X38893181Y-47259267D01*
X38812168Y-47298282D01*
X38736050Y-47346110D01*
X38665748Y-47402173D01*
X38602173Y-47465748D01*
X38546110Y-47536050D01*
X38498282Y-47612168D01*
X38459267Y-47693181D01*
X38429574Y-47778043D01*
X38429572Y-47778049D01*
X38409567Y-47865696D01*
X38409565Y-47865712D01*
X38399500Y-47955040D01*
X25700500Y-47955040D01*
X25700500Y-41592540D01*
X33362000Y-41592540D01*
X33362000Y-41682459D01*
X33372065Y-41771787D01*
X33372067Y-41771803D01*
X33392072Y-41859450D01*
X33392074Y-41859456D01*
X33421767Y-41944318D01*
X33460782Y-42025331D01*
X33508610Y-42101449D01*
X33508612Y-42101452D01*
X33508615Y-42101456D01*
X33564673Y-42171751D01*
X33628249Y-42235327D01*
X33698544Y-42291385D01*
X33698548Y-42291387D01*
X33698550Y-42291389D01*
X33774668Y-42339217D01*
X33774673Y-42339220D01*
X33824052Y-42363000D01*
X33855681Y-42378232D01*
X33873452Y-42384450D01*
X33940544Y-42407926D01*
X34028200Y-42427933D01*
X34117540Y-42437999D01*
X34117541Y-42438000D01*
X34117545Y-42438000D01*
X34207459Y-42438000D01*
X34207459Y-42437999D01*
X34296800Y-42427933D01*
X34384456Y-42407926D01*
X34469321Y-42378231D01*
X34469320Y-42378231D01*
X34469324Y-42378230D01*
X34469327Y-42378228D01*
X34475448Y-42375281D01*
X34512604Y-42364122D01*
X34529251Y-42363000D01*
X35091692Y-42363000D01*
X35130010Y-42369069D01*
X35164577Y-42386682D01*
X35179373Y-42399319D01*
X36422379Y-43642325D01*
X36482674Y-43702620D01*
X36550315Y-43754524D01*
X36550318Y-43754526D01*
X36550326Y-43754532D01*
X36594634Y-43780113D01*
X36624170Y-43797166D01*
X36624172Y-43797166D01*
X36624174Y-43797168D01*
X36670323Y-43816283D01*
X36670326Y-43816285D01*
X36686638Y-43823041D01*
X36702954Y-43829800D01*
X36785321Y-43851870D01*
X36854754Y-43861010D01*
X36869863Y-43863000D01*
X36869864Y-43863000D01*
X36955137Y-43863000D01*
X36983317Y-43859290D01*
X37039679Y-43851870D01*
X37122045Y-43829800D01*
X37200826Y-43797168D01*
X37274674Y-43754532D01*
X37342325Y-43702621D01*
X38065338Y-42979606D01*
X38096721Y-42956805D01*
X38125421Y-42946400D01*
X38184456Y-42932926D01*
X38269321Y-42903231D01*
X38350327Y-42864220D01*
X38426456Y-42816385D01*
X38496751Y-42760327D01*
X38560327Y-42696751D01*
X38616385Y-42626456D01*
X38664220Y-42550327D01*
X38703231Y-42469321D01*
X38732926Y-42384456D01*
X38752933Y-42296800D01*
X38763000Y-42207455D01*
X38763000Y-42117545D01*
X38752933Y-42028200D01*
X38732926Y-41940544D01*
X38703231Y-41855679D01*
X38664220Y-41774673D01*
X38662407Y-41771787D01*
X38616389Y-41698550D01*
X38616387Y-41698548D01*
X38616385Y-41698544D01*
X38560327Y-41628249D01*
X38496751Y-41564673D01*
X38426456Y-41508615D01*
X38426452Y-41508612D01*
X38426449Y-41508610D01*
X38350331Y-41460782D01*
X38269318Y-41421767D01*
X38184456Y-41392074D01*
X38184450Y-41392072D01*
X38096803Y-41372067D01*
X38096787Y-41372065D01*
X38007459Y-41362000D01*
X38007455Y-41362000D01*
X37917545Y-41362000D01*
X37917541Y-41362000D01*
X37828212Y-41372065D01*
X37828196Y-41372067D01*
X37740549Y-41392072D01*
X37740543Y-41392074D01*
X37655681Y-41421767D01*
X37574668Y-41460782D01*
X37498550Y-41508610D01*
X37428248Y-41564673D01*
X37364673Y-41628248D01*
X37308610Y-41698550D01*
X37260782Y-41774668D01*
X37221767Y-41855681D01*
X37192074Y-41940543D01*
X37178600Y-41999575D01*
X37172912Y-42013752D01*
X37168194Y-42028276D01*
X37165721Y-42031678D01*
X37164156Y-42035582D01*
X37145390Y-42059662D01*
X37000180Y-42204872D01*
X36968794Y-42227676D01*
X36931897Y-42239664D01*
X36893101Y-42239664D01*
X36856204Y-42227676D01*
X36824818Y-42204872D01*
X35842333Y-41222386D01*
X35842325Y-41222379D01*
X35774684Y-41170475D01*
X35774678Y-41170471D01*
X35774674Y-41170468D01*
X35770711Y-41168180D01*
X35700829Y-41127833D01*
X35700819Y-41127829D01*
X35622047Y-41095200D01*
X35539677Y-41073129D01*
X35455137Y-41062000D01*
X35455136Y-41062000D01*
X34768138Y-41062000D01*
X34729820Y-41055931D01*
X34695253Y-41038318D01*
X34690827Y-41034948D01*
X34626453Y-40983613D01*
X34550331Y-40935782D01*
X34469318Y-40896767D01*
X34384456Y-40867074D01*
X34384450Y-40867072D01*
X34296803Y-40847067D01*
X34296787Y-40847065D01*
X34207459Y-40837000D01*
X34207455Y-40837000D01*
X34117545Y-40837000D01*
X34117541Y-40837000D01*
X34028212Y-40847065D01*
X34028196Y-40847067D01*
X33940549Y-40867072D01*
X33940543Y-40867074D01*
X33855681Y-40896767D01*
X33774668Y-40935782D01*
X33698550Y-40983610D01*
X33628248Y-41039673D01*
X33564673Y-41103248D01*
X33508610Y-41173550D01*
X33460782Y-41249668D01*
X33421767Y-41330681D01*
X33392074Y-41415543D01*
X33392072Y-41415549D01*
X33372067Y-41503196D01*
X33372065Y-41503212D01*
X33362000Y-41592540D01*
X25700500Y-41592540D01*
X25700500Y-33984139D01*
X25706569Y-33945821D01*
X25724182Y-33911254D01*
X25751615Y-33883821D01*
X25786182Y-33866208D01*
X25824500Y-33860139D01*
X25862818Y-33866208D01*
X25897385Y-33883821D01*
X25924818Y-33911254D01*
X25942431Y-33945821D01*
X25942885Y-33947248D01*
X25973185Y-34044485D01*
X26041769Y-34225326D01*
X26121158Y-34401722D01*
X26155127Y-34466444D01*
X26211041Y-34572978D01*
X26285618Y-34696343D01*
X26311097Y-34738491D01*
X26311113Y-34738516D01*
X26402664Y-34871151D01*
X26420977Y-34897681D01*
X26540261Y-35049937D01*
X26596056Y-35112916D01*
X26668511Y-35194701D01*
X26668545Y-35194737D01*
X26805262Y-35331454D01*
X26805280Y-35331471D01*
X26805288Y-35331479D01*
X26950063Y-35459739D01*
X27102319Y-35579023D01*
X27261499Y-35688897D01*
X27427022Y-35788959D01*
X27598285Y-35878845D01*
X27774663Y-35958226D01*
X27774670Y-35958228D01*
X27774673Y-35958230D01*
X27883354Y-35999447D01*
X27955511Y-36026813D01*
X28140171Y-36084356D01*
X28327969Y-36130643D01*
X28518219Y-36165508D01*
X28710226Y-36188822D01*
X28903291Y-36200500D01*
X28903304Y-36200500D01*
X29096696Y-36200500D01*
X29096709Y-36200500D01*
X29289774Y-36188822D01*
X29481781Y-36165508D01*
X29672031Y-36130643D01*
X29859829Y-36084356D01*
X30044489Y-36026813D01*
X30225337Y-35958226D01*
X30401715Y-35878845D01*
X30572978Y-35788959D01*
X30738501Y-35688897D01*
X30897681Y-35579023D01*
X31049937Y-35459739D01*
X31194712Y-35331479D01*
X31331479Y-35194712D01*
X31459739Y-35049937D01*
X31579023Y-34897681D01*
X31688897Y-34738501D01*
X31788959Y-34572978D01*
X31878845Y-34401715D01*
X31958226Y-34225337D01*
X32026813Y-34044489D01*
X32084356Y-33859829D01*
X32130643Y-33672031D01*
X32165508Y-33481781D01*
X32188822Y-33289774D01*
X32200500Y-33096709D01*
X32200500Y-32903291D01*
X32188822Y-32710226D01*
X32165508Y-32518219D01*
X32130643Y-32327969D01*
X32084356Y-32140171D01*
X32026813Y-31955511D01*
X31958226Y-31774663D01*
X31920587Y-31691032D01*
X32549500Y-31691032D01*
X32549500Y-31808967D01*
X32559778Y-31926446D01*
X32580255Y-32042574D01*
X32580258Y-32042587D01*
X32610774Y-32156479D01*
X32610777Y-32156489D01*
X32610778Y-32156490D01*
X32641699Y-32241445D01*
X32651117Y-32267319D01*
X32694629Y-32360630D01*
X32700950Y-32374186D01*
X32759913Y-32476314D01*
X32759918Y-32476321D01*
X32827559Y-32572922D01*
X32903344Y-32663238D01*
X32903350Y-32663245D01*
X32903358Y-32663254D01*
X32903366Y-32663262D01*
X32985282Y-32745178D01*
X33008086Y-32776564D01*
X33020074Y-32813461D01*
X33020074Y-32852257D01*
X33008086Y-32889154D01*
X32985282Y-32920540D01*
X32953896Y-32943344D01*
X32928168Y-32953033D01*
X32926288Y-32953510D01*
X32926282Y-32953512D01*
X32853470Y-32978099D01*
X32797732Y-33007039D01*
X32785265Y-33013512D01*
X32785258Y-33013516D01*
X32723266Y-33058919D01*
X32668919Y-33113266D01*
X32623516Y-33175258D01*
X32623512Y-33175265D01*
X32588099Y-33243470D01*
X32588098Y-33243473D01*
X32563512Y-33316281D01*
X32550328Y-33391995D01*
X32549500Y-33409257D01*
X32549500Y-35170729D01*
X32550219Y-35185739D01*
X32550328Y-35188006D01*
X32563512Y-35263718D01*
X32588099Y-35336530D01*
X32623512Y-35404735D01*
X32623514Y-35404738D01*
X32623516Y-35404741D01*
X32668919Y-35466733D01*
X32723266Y-35521080D01*
X32785258Y-35566483D01*
X32785265Y-35566488D01*
X32853470Y-35601901D01*
X32926282Y-35626488D01*
X33001994Y-35639672D01*
X33019269Y-35640500D01*
X34780730Y-35640499D01*
X34798006Y-35639672D01*
X34873718Y-35626488D01*
X34946530Y-35601901D01*
X35014735Y-35566488D01*
X35076736Y-35521078D01*
X35131078Y-35466736D01*
X35176488Y-35404735D01*
X35211901Y-35336530D01*
X35236488Y-35263718D01*
X35236491Y-35263696D01*
X35236961Y-35261853D01*
X35237689Y-35260158D01*
X35238008Y-35259215D01*
X35238083Y-35259240D01*
X35252282Y-35226211D01*
X35277867Y-35197047D01*
X35311212Y-35177217D01*
X35349053Y-35168662D01*
X35387685Y-35172219D01*
X35423327Y-35187540D01*
X35444821Y-35204717D01*
X35526746Y-35286642D01*
X35526755Y-35286650D01*
X35526761Y-35286655D01*
X35617077Y-35362440D01*
X35617083Y-35362444D01*
X35617084Y-35362445D01*
X35713685Y-35430086D01*
X35815814Y-35489050D01*
X35840500Y-35500561D01*
X35922680Y-35538882D01*
X35922685Y-35538883D01*
X35922694Y-35538888D01*
X36033510Y-35579222D01*
X36033516Y-35579223D01*
X36033520Y-35579225D01*
X36064536Y-35587535D01*
X36147420Y-35609744D01*
X36263556Y-35630222D01*
X36381034Y-35640499D01*
X36381035Y-35640500D01*
X36381036Y-35640500D01*
X36498965Y-35640500D01*
X36498965Y-35640499D01*
X36616444Y-35630222D01*
X36732580Y-35609744D01*
X36846490Y-35579222D01*
X36957306Y-35538888D01*
X37064186Y-35489050D01*
X37166315Y-35430086D01*
X37262916Y-35362445D01*
X37353254Y-35286642D01*
X37436642Y-35203254D01*
X37512445Y-35112916D01*
X37580086Y-35016315D01*
X37602615Y-34977292D01*
X37627027Y-34947147D01*
X37659564Y-34926017D01*
X37697038Y-34915975D01*
X37735780Y-34918006D01*
X37771999Y-34931908D01*
X37802149Y-34956323D01*
X37817383Y-34977290D01*
X37839914Y-35016315D01*
X37839917Y-35016319D01*
X37839918Y-35016321D01*
X37907559Y-35112922D01*
X37983344Y-35203238D01*
X37983350Y-35203245D01*
X37983358Y-35203254D01*
X38066746Y-35286642D01*
X38066755Y-35286650D01*
X38066761Y-35286655D01*
X38157077Y-35362440D01*
X38157083Y-35362444D01*
X38157084Y-35362445D01*
X38253685Y-35430086D01*
X38355814Y-35489050D01*
X38380500Y-35500561D01*
X38462680Y-35538882D01*
X38462685Y-35538883D01*
X38462694Y-35538888D01*
X38573510Y-35579222D01*
X38573516Y-35579223D01*
X38573520Y-35579225D01*
X38604536Y-35587535D01*
X38687420Y-35609744D01*
X38803556Y-35630222D01*
X38921034Y-35640499D01*
X38921035Y-35640500D01*
X38921036Y-35640500D01*
X39038965Y-35640500D01*
X39038965Y-35640499D01*
X39156444Y-35630222D01*
X39272580Y-35609744D01*
X39386490Y-35579222D01*
X39497306Y-35538888D01*
X39604186Y-35489050D01*
X39706315Y-35430086D01*
X39802916Y-35362445D01*
X39893254Y-35286642D01*
X39976642Y-35203254D01*
X40052445Y-35112916D01*
X40120086Y-35016315D01*
X40142615Y-34977292D01*
X40167027Y-34947147D01*
X40199564Y-34926017D01*
X40237038Y-34915975D01*
X40275780Y-34918006D01*
X40311999Y-34931908D01*
X40342149Y-34956323D01*
X40357383Y-34977290D01*
X40379914Y-35016315D01*
X40379917Y-35016319D01*
X40379918Y-35016321D01*
X40447559Y-35112922D01*
X40523344Y-35203238D01*
X40523350Y-35203245D01*
X40523358Y-35203254D01*
X40606746Y-35286642D01*
X40606755Y-35286650D01*
X40606761Y-35286655D01*
X40697077Y-35362440D01*
X40697083Y-35362444D01*
X40697084Y-35362445D01*
X40793685Y-35430086D01*
X40895814Y-35489050D01*
X40920500Y-35500561D01*
X41002680Y-35538882D01*
X41002685Y-35538883D01*
X41002694Y-35538888D01*
X41113510Y-35579222D01*
X41113516Y-35579223D01*
X41113520Y-35579225D01*
X41144536Y-35587535D01*
X41227420Y-35609744D01*
X41343556Y-35630222D01*
X41461034Y-35640499D01*
X41461035Y-35640500D01*
X41461036Y-35640500D01*
X41578965Y-35640500D01*
X41578965Y-35640499D01*
X41696444Y-35630222D01*
X41812580Y-35609744D01*
X41926490Y-35579222D01*
X42037306Y-35538888D01*
X42144186Y-35489050D01*
X42246315Y-35430086D01*
X42342916Y-35362445D01*
X42433254Y-35286642D01*
X42516642Y-35203254D01*
X42592445Y-35112916D01*
X42660086Y-35016315D01*
X42682905Y-34976790D01*
X42707316Y-34946646D01*
X42739852Y-34925516D01*
X42777326Y-34915474D01*
X42816069Y-34917504D01*
X42852288Y-34931407D01*
X42882438Y-34955822D01*
X42897676Y-34976794D01*
X42920338Y-35016046D01*
X42920348Y-35016062D01*
X42945072Y-35051371D01*
X42945074Y-35051372D01*
X43577036Y-34419409D01*
X43585519Y-34451065D01*
X43610601Y-34511619D01*
X43643373Y-34568381D01*
X43683273Y-34620380D01*
X43729620Y-34666727D01*
X43781619Y-34706627D01*
X43838381Y-34739399D01*
X43898935Y-34764481D01*
X43930590Y-34772962D01*
X43298626Y-35404925D01*
X43333948Y-35429658D01*
X43333963Y-35429667D01*
X43436039Y-35488601D01*
X43436055Y-35488609D01*
X43542867Y-35538417D01*
X43542875Y-35538420D01*
X43653657Y-35578742D01*
X43767526Y-35609254D01*
X43767533Y-35609255D01*
X43883620Y-35629725D01*
X43883619Y-35629725D01*
X44001054Y-35639999D01*
X44001057Y-35640000D01*
X44118943Y-35640000D01*
X44118945Y-35639999D01*
X44236380Y-35629725D01*
X44352466Y-35609255D01*
X44352473Y-35609254D01*
X44466341Y-35578742D01*
X44466343Y-35578742D01*
X44577124Y-35538420D01*
X44577132Y-35538417D01*
X44683944Y-35488609D01*
X44683960Y-35488601D01*
X44786043Y-35429663D01*
X44821371Y-35404925D01*
X44189409Y-34772963D01*
X44221065Y-34764481D01*
X44281619Y-34739399D01*
X44338381Y-34706627D01*
X44390380Y-34666727D01*
X44436727Y-34620380D01*
X44476627Y-34568381D01*
X44509399Y-34511619D01*
X44534481Y-34451065D01*
X44542963Y-34419409D01*
X45174925Y-35051371D01*
X45199660Y-35016047D01*
X45222322Y-34976796D01*
X45246737Y-34946646D01*
X45279273Y-34925516D01*
X45316747Y-34915474D01*
X45355489Y-34917504D01*
X45391709Y-34931407D01*
X45421859Y-34955822D01*
X45437095Y-34976791D01*
X45459914Y-35016315D01*
X45459917Y-35016319D01*
X45459918Y-35016321D01*
X45527559Y-35112922D01*
X45603344Y-35203238D01*
X45603350Y-35203245D01*
X45603358Y-35203254D01*
X45686746Y-35286642D01*
X45686755Y-35286650D01*
X45686761Y-35286655D01*
X45777077Y-35362440D01*
X45777083Y-35362444D01*
X45777084Y-35362445D01*
X45873685Y-35430086D01*
X45975814Y-35489050D01*
X46000500Y-35500561D01*
X46082680Y-35538882D01*
X46082685Y-35538883D01*
X46082694Y-35538888D01*
X46193510Y-35579222D01*
X46193516Y-35579223D01*
X46193520Y-35579225D01*
X46224536Y-35587535D01*
X46307420Y-35609744D01*
X46423556Y-35630222D01*
X46541034Y-35640499D01*
X46541035Y-35640500D01*
X46541036Y-35640500D01*
X46658965Y-35640500D01*
X46658965Y-35640499D01*
X46776444Y-35630222D01*
X46892580Y-35609744D01*
X47006490Y-35579222D01*
X47117306Y-35538888D01*
X47224186Y-35489050D01*
X47326315Y-35430086D01*
X47422916Y-35362445D01*
X47513254Y-35286642D01*
X47596642Y-35203254D01*
X47672445Y-35112916D01*
X47740086Y-35016315D01*
X47762615Y-34977292D01*
X47787027Y-34947147D01*
X47819564Y-34926017D01*
X47857038Y-34915975D01*
X47895780Y-34918006D01*
X47931999Y-34931908D01*
X47962149Y-34956323D01*
X47977383Y-34977290D01*
X47999914Y-35016315D01*
X47999917Y-35016319D01*
X47999918Y-35016321D01*
X48067559Y-35112922D01*
X48143344Y-35203238D01*
X48143350Y-35203245D01*
X48143358Y-35203254D01*
X48226746Y-35286642D01*
X48226755Y-35286650D01*
X48226761Y-35286655D01*
X48317077Y-35362440D01*
X48317083Y-35362444D01*
X48317084Y-35362445D01*
X48413685Y-35430086D01*
X48515814Y-35489050D01*
X48540500Y-35500561D01*
X48622680Y-35538882D01*
X48622685Y-35538883D01*
X48622694Y-35538888D01*
X48733510Y-35579222D01*
X48733516Y-35579223D01*
X48733520Y-35579225D01*
X48764536Y-35587535D01*
X48847420Y-35609744D01*
X48963556Y-35630222D01*
X49081034Y-35640499D01*
X49081035Y-35640500D01*
X49081036Y-35640500D01*
X49198965Y-35640500D01*
X49198965Y-35640499D01*
X49316444Y-35630222D01*
X49432580Y-35609744D01*
X49546490Y-35579222D01*
X49657306Y-35538888D01*
X49764186Y-35489050D01*
X49866315Y-35430086D01*
X49962916Y-35362445D01*
X50053254Y-35286642D01*
X50136642Y-35203254D01*
X50212445Y-35112916D01*
X50280086Y-35016315D01*
X50302615Y-34977292D01*
X50327027Y-34947147D01*
X50359564Y-34926017D01*
X50397038Y-34915975D01*
X50435780Y-34918006D01*
X50471999Y-34931908D01*
X50502149Y-34956323D01*
X50517383Y-34977290D01*
X50539914Y-35016315D01*
X50539917Y-35016319D01*
X50539918Y-35016321D01*
X50607559Y-35112922D01*
X50683344Y-35203238D01*
X50683350Y-35203245D01*
X50683358Y-35203254D01*
X50766746Y-35286642D01*
X50766755Y-35286650D01*
X50766761Y-35286655D01*
X50857077Y-35362440D01*
X50857083Y-35362444D01*
X50857084Y-35362445D01*
X50953685Y-35430086D01*
X51055814Y-35489050D01*
X51080500Y-35500561D01*
X51162680Y-35538882D01*
X51162685Y-35538883D01*
X51162694Y-35538888D01*
X51273510Y-35579222D01*
X51273516Y-35579223D01*
X51273520Y-35579225D01*
X51304536Y-35587535D01*
X51387420Y-35609744D01*
X51503556Y-35630222D01*
X51621034Y-35640499D01*
X51621035Y-35640500D01*
X51621036Y-35640500D01*
X51738965Y-35640500D01*
X51738965Y-35640499D01*
X51856444Y-35630222D01*
X51972580Y-35609744D01*
X52086490Y-35579222D01*
X52197306Y-35538888D01*
X52304186Y-35489050D01*
X52406315Y-35430086D01*
X52502916Y-35362445D01*
X52593254Y-35286642D01*
X52676642Y-35203254D01*
X52752445Y-35112916D01*
X52820086Y-35016315D01*
X52842615Y-34977292D01*
X52867027Y-34947147D01*
X52899564Y-34926017D01*
X52937038Y-34915975D01*
X52975780Y-34918006D01*
X53011999Y-34931908D01*
X53042149Y-34956323D01*
X53057383Y-34977290D01*
X53079914Y-35016315D01*
X53079917Y-35016319D01*
X53079918Y-35016321D01*
X53147559Y-35112922D01*
X53223344Y-35203238D01*
X53223350Y-35203245D01*
X53223358Y-35203254D01*
X53306746Y-35286642D01*
X53306755Y-35286650D01*
X53306761Y-35286655D01*
X53397077Y-35362440D01*
X53397083Y-35362444D01*
X53397084Y-35362445D01*
X53493685Y-35430086D01*
X53595814Y-35489050D01*
X53620500Y-35500561D01*
X53702680Y-35538882D01*
X53702685Y-35538883D01*
X53702694Y-35538888D01*
X53813510Y-35579222D01*
X53813516Y-35579223D01*
X53813520Y-35579225D01*
X53844536Y-35587535D01*
X53927420Y-35609744D01*
X54043556Y-35630222D01*
X54161034Y-35640499D01*
X54161035Y-35640500D01*
X54161036Y-35640500D01*
X54278965Y-35640500D01*
X54278965Y-35640499D01*
X54396444Y-35630222D01*
X54512580Y-35609744D01*
X54626490Y-35579222D01*
X54737306Y-35538888D01*
X54844186Y-35489050D01*
X54946315Y-35430086D01*
X55042916Y-35362445D01*
X55133254Y-35286642D01*
X55216642Y-35203254D01*
X55292445Y-35112916D01*
X55360086Y-35016315D01*
X55382615Y-34977292D01*
X55407027Y-34947147D01*
X55439564Y-34926017D01*
X55477038Y-34915975D01*
X55515780Y-34918006D01*
X55551999Y-34931908D01*
X55582149Y-34956323D01*
X55597383Y-34977290D01*
X55619914Y-35016315D01*
X55619917Y-35016319D01*
X55619918Y-35016321D01*
X55687559Y-35112922D01*
X55763344Y-35203238D01*
X55763350Y-35203245D01*
X55763358Y-35203254D01*
X55846746Y-35286642D01*
X55846755Y-35286650D01*
X55846761Y-35286655D01*
X55937077Y-35362440D01*
X55937083Y-35362444D01*
X55937084Y-35362445D01*
X56033685Y-35430086D01*
X56135814Y-35489050D01*
X56160500Y-35500561D01*
X56242680Y-35538882D01*
X56242685Y-35538883D01*
X56242694Y-35538888D01*
X56353510Y-35579222D01*
X56353516Y-35579223D01*
X56353520Y-35579225D01*
X56384536Y-35587535D01*
X56467420Y-35609744D01*
X56583556Y-35630222D01*
X56701034Y-35640499D01*
X56701035Y-35640500D01*
X56701036Y-35640500D01*
X56818965Y-35640500D01*
X56818965Y-35640499D01*
X56936444Y-35630222D01*
X57052580Y-35609744D01*
X57166490Y-35579222D01*
X57277306Y-35538888D01*
X57384186Y-35489050D01*
X57486315Y-35430086D01*
X57582916Y-35362445D01*
X57673254Y-35286642D01*
X57756642Y-35203254D01*
X57832445Y-35112916D01*
X57900086Y-35016315D01*
X57922615Y-34977292D01*
X57947027Y-34947147D01*
X57979564Y-34926017D01*
X58017038Y-34915975D01*
X58055780Y-34918006D01*
X58091999Y-34931908D01*
X58122149Y-34956323D01*
X58137383Y-34977290D01*
X58159914Y-35016315D01*
X58159917Y-35016319D01*
X58159918Y-35016321D01*
X58227559Y-35112922D01*
X58303344Y-35203238D01*
X58303350Y-35203245D01*
X58303358Y-35203254D01*
X58386746Y-35286642D01*
X58386755Y-35286650D01*
X58386761Y-35286655D01*
X58477077Y-35362440D01*
X58477083Y-35362444D01*
X58477084Y-35362445D01*
X58573685Y-35430086D01*
X58675814Y-35489050D01*
X58700500Y-35500561D01*
X58782680Y-35538882D01*
X58782685Y-35538883D01*
X58782694Y-35538888D01*
X58893510Y-35579222D01*
X58893516Y-35579223D01*
X58893520Y-35579225D01*
X58924536Y-35587535D01*
X59007420Y-35609744D01*
X59123556Y-35630222D01*
X59241034Y-35640499D01*
X59241035Y-35640500D01*
X59241036Y-35640500D01*
X59358965Y-35640500D01*
X59358965Y-35640499D01*
X59476444Y-35630222D01*
X59592580Y-35609744D01*
X59706490Y-35579222D01*
X59817306Y-35538888D01*
X59924186Y-35489050D01*
X60026315Y-35430086D01*
X60122916Y-35362445D01*
X60213254Y-35286642D01*
X60296642Y-35203254D01*
X60372445Y-35112916D01*
X60440086Y-35016315D01*
X60462615Y-34977292D01*
X60487027Y-34947147D01*
X60519564Y-34926017D01*
X60557038Y-34915975D01*
X60595780Y-34918006D01*
X60631999Y-34931908D01*
X60662149Y-34956323D01*
X60677383Y-34977290D01*
X60699914Y-35016315D01*
X60699917Y-35016319D01*
X60699918Y-35016321D01*
X60767559Y-35112922D01*
X60843344Y-35203238D01*
X60843350Y-35203245D01*
X60843358Y-35203254D01*
X60926746Y-35286642D01*
X60926755Y-35286650D01*
X60926761Y-35286655D01*
X61017077Y-35362440D01*
X61017083Y-35362444D01*
X61017084Y-35362445D01*
X61113685Y-35430086D01*
X61215814Y-35489050D01*
X61240500Y-35500561D01*
X61322680Y-35538882D01*
X61322685Y-35538883D01*
X61322694Y-35538888D01*
X61433510Y-35579222D01*
X61433516Y-35579223D01*
X61433520Y-35579225D01*
X61464536Y-35587535D01*
X61547420Y-35609744D01*
X61663556Y-35630222D01*
X61781034Y-35640499D01*
X61781035Y-35640500D01*
X61781036Y-35640500D01*
X61898965Y-35640500D01*
X61898965Y-35640499D01*
X62016444Y-35630222D01*
X62132580Y-35609744D01*
X62246490Y-35579222D01*
X62357306Y-35538888D01*
X62464186Y-35489050D01*
X62566315Y-35430086D01*
X62662916Y-35362445D01*
X62753254Y-35286642D01*
X62836642Y-35203254D01*
X62912445Y-35112916D01*
X62980086Y-35016315D01*
X63002905Y-34976790D01*
X63027316Y-34946646D01*
X63059852Y-34925516D01*
X63097326Y-34915474D01*
X63136069Y-34917504D01*
X63172288Y-34931407D01*
X63202438Y-34955822D01*
X63217676Y-34976794D01*
X63240338Y-35016046D01*
X63240348Y-35016062D01*
X63265072Y-35051371D01*
X63265073Y-35051372D01*
X63897036Y-34419408D01*
X63905519Y-34451065D01*
X63930601Y-34511619D01*
X63963373Y-34568381D01*
X64003273Y-34620380D01*
X64049620Y-34666727D01*
X64101619Y-34706627D01*
X64158381Y-34739399D01*
X64218935Y-34764481D01*
X64250590Y-34772962D01*
X63618626Y-35404925D01*
X63653948Y-35429658D01*
X63653963Y-35429667D01*
X63756039Y-35488601D01*
X63756055Y-35488609D01*
X63862867Y-35538417D01*
X63862875Y-35538420D01*
X63973657Y-35578742D01*
X64087526Y-35609254D01*
X64087533Y-35609255D01*
X64203620Y-35629725D01*
X64203619Y-35629725D01*
X64321054Y-35639999D01*
X64321057Y-35640000D01*
X64438943Y-35640000D01*
X64438945Y-35639999D01*
X64556380Y-35629725D01*
X64672466Y-35609255D01*
X64672473Y-35609254D01*
X64786341Y-35578742D01*
X64786343Y-35578742D01*
X64897124Y-35538420D01*
X64897132Y-35538417D01*
X65003944Y-35488609D01*
X65003960Y-35488601D01*
X65106043Y-35429663D01*
X65141371Y-35404925D01*
X64509409Y-34772963D01*
X64541065Y-34764481D01*
X64601619Y-34739399D01*
X64658381Y-34706627D01*
X64710380Y-34666727D01*
X64756727Y-34620380D01*
X64796627Y-34568381D01*
X64829399Y-34511619D01*
X64854481Y-34451065D01*
X64862963Y-34419409D01*
X65494925Y-35051371D01*
X65519660Y-35016047D01*
X65542322Y-34976796D01*
X65566737Y-34946646D01*
X65599273Y-34925516D01*
X65636747Y-34915474D01*
X65675489Y-34917504D01*
X65711709Y-34931407D01*
X65741859Y-34955822D01*
X65757095Y-34976791D01*
X65779914Y-35016315D01*
X65779917Y-35016319D01*
X65779918Y-35016321D01*
X65847559Y-35112922D01*
X65923344Y-35203238D01*
X65923350Y-35203245D01*
X65923358Y-35203254D01*
X66006746Y-35286642D01*
X66006755Y-35286650D01*
X66006761Y-35286655D01*
X66097077Y-35362440D01*
X66097083Y-35362444D01*
X66097084Y-35362445D01*
X66193685Y-35430086D01*
X66295814Y-35489050D01*
X66320500Y-35500561D01*
X66402680Y-35538882D01*
X66402685Y-35538883D01*
X66402694Y-35538888D01*
X66513510Y-35579222D01*
X66513516Y-35579223D01*
X66513520Y-35579225D01*
X66544536Y-35587535D01*
X66627420Y-35609744D01*
X66743556Y-35630222D01*
X66861034Y-35640499D01*
X66861035Y-35640500D01*
X66861036Y-35640500D01*
X66978965Y-35640500D01*
X66978965Y-35640499D01*
X67096444Y-35630222D01*
X67212580Y-35609744D01*
X67326490Y-35579222D01*
X67437306Y-35538888D01*
X67544186Y-35489050D01*
X67646315Y-35430086D01*
X67742916Y-35362445D01*
X67833254Y-35286642D01*
X67916642Y-35203254D01*
X67992445Y-35112916D01*
X68060086Y-35016315D01*
X68082615Y-34977292D01*
X68107027Y-34947147D01*
X68139564Y-34926017D01*
X68177038Y-34915975D01*
X68215780Y-34918006D01*
X68251999Y-34931908D01*
X68282149Y-34956323D01*
X68297383Y-34977290D01*
X68319914Y-35016315D01*
X68319917Y-35016319D01*
X68319918Y-35016321D01*
X68387559Y-35112922D01*
X68463344Y-35203238D01*
X68463350Y-35203245D01*
X68463358Y-35203254D01*
X68546746Y-35286642D01*
X68546755Y-35286650D01*
X68546761Y-35286655D01*
X68637077Y-35362440D01*
X68637083Y-35362444D01*
X68637084Y-35362445D01*
X68733685Y-35430086D01*
X68835814Y-35489050D01*
X68860500Y-35500561D01*
X68942680Y-35538882D01*
X68942685Y-35538883D01*
X68942694Y-35538888D01*
X69053510Y-35579222D01*
X69053516Y-35579223D01*
X69053520Y-35579225D01*
X69084536Y-35587535D01*
X69167420Y-35609744D01*
X69283556Y-35630222D01*
X69401034Y-35640499D01*
X69401035Y-35640500D01*
X69401036Y-35640500D01*
X69518965Y-35640500D01*
X69518965Y-35640499D01*
X69636444Y-35630222D01*
X69752580Y-35609744D01*
X69866490Y-35579222D01*
X69977306Y-35538888D01*
X70084186Y-35489050D01*
X70186315Y-35430086D01*
X70282916Y-35362445D01*
X70373254Y-35286642D01*
X70456642Y-35203254D01*
X70532445Y-35112916D01*
X70600086Y-35016315D01*
X70622615Y-34977292D01*
X70647027Y-34947147D01*
X70679564Y-34926017D01*
X70717038Y-34915975D01*
X70755780Y-34918006D01*
X70791999Y-34931908D01*
X70822149Y-34956323D01*
X70837383Y-34977290D01*
X70859914Y-35016315D01*
X70859917Y-35016319D01*
X70859918Y-35016321D01*
X70927559Y-35112922D01*
X71003344Y-35203238D01*
X71003350Y-35203245D01*
X71003358Y-35203254D01*
X71086746Y-35286642D01*
X71086755Y-35286650D01*
X71086761Y-35286655D01*
X71177077Y-35362440D01*
X71177083Y-35362444D01*
X71177084Y-35362445D01*
X71273685Y-35430086D01*
X71375814Y-35489050D01*
X71400500Y-35500561D01*
X71482680Y-35538882D01*
X71482685Y-35538883D01*
X71482694Y-35538888D01*
X71593510Y-35579222D01*
X71593516Y-35579223D01*
X71593520Y-35579225D01*
X71624536Y-35587535D01*
X71707420Y-35609744D01*
X71823556Y-35630222D01*
X71941034Y-35640499D01*
X71941035Y-35640500D01*
X71941036Y-35640500D01*
X72058965Y-35640500D01*
X72058965Y-35640499D01*
X72176444Y-35630222D01*
X72292580Y-35609744D01*
X72406490Y-35579222D01*
X72433093Y-35569539D01*
X72471172Y-35562138D01*
X72509678Y-35566865D01*
X72544839Y-35583261D01*
X72573213Y-35609719D01*
X72592022Y-35643651D01*
X72599424Y-35681734D01*
X72599500Y-35686062D01*
X72599500Y-37105136D01*
X72610629Y-37189677D01*
X72632700Y-37272047D01*
X72665329Y-37350819D01*
X72665333Y-37350829D01*
X72705680Y-37420711D01*
X72707968Y-37424674D01*
X72707971Y-37424678D01*
X72707975Y-37424684D01*
X72759879Y-37492325D01*
X72759886Y-37492333D01*
X73982890Y-38715336D01*
X74005694Y-38746722D01*
X74016100Y-38775424D01*
X74029573Y-38834453D01*
X74029574Y-38834456D01*
X74059267Y-38919318D01*
X74098282Y-39000331D01*
X74130494Y-39051595D01*
X74145741Y-39087269D01*
X74149500Y-39117567D01*
X74149500Y-40855136D01*
X74160629Y-40939677D01*
X74182700Y-41022047D01*
X74215329Y-41100819D01*
X74215333Y-41100829D01*
X74230924Y-41127833D01*
X74257968Y-41174674D01*
X74257971Y-41174678D01*
X74257975Y-41174684D01*
X74309879Y-41242325D01*
X74309886Y-41242333D01*
X74576640Y-41509086D01*
X74599444Y-41540472D01*
X74609850Y-41569174D01*
X74623323Y-41628203D01*
X74623324Y-41628206D01*
X74644812Y-41689618D01*
X74653019Y-41713071D01*
X74691059Y-41792061D01*
X74692032Y-41794081D01*
X74739860Y-41870199D01*
X74739862Y-41870202D01*
X74739865Y-41870206D01*
X74795923Y-41940501D01*
X74859499Y-42004077D01*
X74929794Y-42060135D01*
X74929798Y-42060137D01*
X74929800Y-42060139D01*
X74984089Y-42094251D01*
X75005923Y-42107970D01*
X75082186Y-42144696D01*
X75086931Y-42146982D01*
X75113738Y-42156361D01*
X75171794Y-42176676D01*
X75259450Y-42196683D01*
X75348790Y-42206749D01*
X75348791Y-42206750D01*
X75348795Y-42206750D01*
X75438709Y-42206750D01*
X75438709Y-42206749D01*
X75528050Y-42196683D01*
X75615706Y-42176676D01*
X75700571Y-42146981D01*
X75781577Y-42107970D01*
X75857706Y-42060135D01*
X75928001Y-42004077D01*
X75991577Y-41940501D01*
X76047635Y-41870206D01*
X76095470Y-41794077D01*
X76134481Y-41713071D01*
X76164176Y-41628206D01*
X76184183Y-41540550D01*
X76194250Y-41451205D01*
X76194250Y-41361295D01*
X76184183Y-41271950D01*
X76164176Y-41184294D01*
X76135818Y-41103249D01*
X76134482Y-41099431D01*
X76121815Y-41073129D01*
X76095470Y-41018423D01*
X76095465Y-41018415D01*
X76047639Y-40942300D01*
X76047637Y-40942298D01*
X76047635Y-40942294D01*
X75991577Y-40871999D01*
X75928001Y-40808423D01*
X75857706Y-40752365D01*
X75857702Y-40752362D01*
X75857699Y-40752360D01*
X75781581Y-40704532D01*
X75700568Y-40665517D01*
X75615706Y-40635824D01*
X75615703Y-40635823D01*
X75556674Y-40622350D01*
X75542500Y-40616664D01*
X75527972Y-40611944D01*
X75524568Y-40609470D01*
X75520667Y-40607906D01*
X75496586Y-40589140D01*
X75486819Y-40579373D01*
X75464015Y-40547987D01*
X75452027Y-40511090D01*
X75450500Y-40491692D01*
X75450500Y-39117567D01*
X75456569Y-39079249D01*
X75469506Y-39051595D01*
X75501717Y-39000331D01*
X75501720Y-39000327D01*
X75540731Y-38919321D01*
X75570426Y-38834456D01*
X75590433Y-38746800D01*
X75600500Y-38657455D01*
X75600500Y-38567545D01*
X75590433Y-38478200D01*
X75570426Y-38390544D01*
X75540731Y-38305679D01*
X75501720Y-38224673D01*
X75453885Y-38148544D01*
X75397827Y-38078249D01*
X75334251Y-38014673D01*
X75263956Y-37958615D01*
X75263952Y-37958612D01*
X75263949Y-37958610D01*
X75187831Y-37910782D01*
X75106818Y-37871767D01*
X75021956Y-37842074D01*
X75021953Y-37842073D01*
X74962924Y-37828600D01*
X74926917Y-37814156D01*
X74902836Y-37795390D01*
X73936819Y-36829373D01*
X73914015Y-36797987D01*
X73902027Y-36761090D01*
X73900500Y-36741692D01*
X73900500Y-35671503D01*
X73906569Y-35633185D01*
X73924182Y-35598618D01*
X73951615Y-35571185D01*
X73986182Y-35553572D01*
X74024500Y-35547503D01*
X74062818Y-35553572D01*
X74066871Y-35554967D01*
X74133510Y-35579222D01*
X74133516Y-35579223D01*
X74133520Y-35579225D01*
X74164536Y-35587535D01*
X74247420Y-35609744D01*
X74363556Y-35630222D01*
X74481034Y-35640499D01*
X74481035Y-35640500D01*
X74481036Y-35640500D01*
X74598965Y-35640500D01*
X74598965Y-35640499D01*
X74716444Y-35630222D01*
X74832580Y-35609744D01*
X74946490Y-35579222D01*
X75057306Y-35538888D01*
X75164186Y-35489050D01*
X75266315Y-35430086D01*
X75362916Y-35362445D01*
X75453254Y-35286642D01*
X75536642Y-35203254D01*
X75612445Y-35112916D01*
X75680086Y-35016315D01*
X75702615Y-34977292D01*
X75727027Y-34947147D01*
X75759564Y-34926017D01*
X75797038Y-34915975D01*
X75835780Y-34918006D01*
X75871999Y-34931908D01*
X75902149Y-34956323D01*
X75917383Y-34977290D01*
X75939914Y-35016315D01*
X75939917Y-35016319D01*
X75939918Y-35016321D01*
X76007559Y-35112922D01*
X76083344Y-35203238D01*
X76083350Y-35203245D01*
X76083358Y-35203254D01*
X76166746Y-35286642D01*
X76166755Y-35286650D01*
X76166761Y-35286655D01*
X76257077Y-35362440D01*
X76257083Y-35362444D01*
X76257084Y-35362445D01*
X76353685Y-35430086D01*
X76455814Y-35489050D01*
X76480500Y-35500561D01*
X76562680Y-35538882D01*
X76562685Y-35538883D01*
X76562694Y-35538888D01*
X76673510Y-35579222D01*
X76673516Y-35579223D01*
X76673520Y-35579225D01*
X76704536Y-35587535D01*
X76787420Y-35609744D01*
X76903556Y-35630222D01*
X77021034Y-35640499D01*
X77021035Y-35640500D01*
X77021036Y-35640500D01*
X77138965Y-35640500D01*
X77138965Y-35640499D01*
X77256444Y-35630222D01*
X77372580Y-35609744D01*
X77486490Y-35579222D01*
X77597306Y-35538888D01*
X77704186Y-35489050D01*
X77806315Y-35430086D01*
X77902916Y-35362445D01*
X77993254Y-35286642D01*
X78076642Y-35203254D01*
X78152445Y-35112916D01*
X78220086Y-35016315D01*
X78242615Y-34977292D01*
X78267027Y-34947147D01*
X78299564Y-34926017D01*
X78337038Y-34915975D01*
X78375780Y-34918006D01*
X78411999Y-34931908D01*
X78442149Y-34956323D01*
X78457383Y-34977290D01*
X78479914Y-35016315D01*
X78479917Y-35016319D01*
X78479918Y-35016321D01*
X78547559Y-35112922D01*
X78623344Y-35203238D01*
X78623350Y-35203245D01*
X78623358Y-35203254D01*
X78706746Y-35286642D01*
X78706755Y-35286650D01*
X78706761Y-35286655D01*
X78797077Y-35362440D01*
X78797083Y-35362444D01*
X78797084Y-35362445D01*
X78893685Y-35430086D01*
X78995814Y-35489050D01*
X79020500Y-35500561D01*
X79102680Y-35538882D01*
X79102685Y-35538883D01*
X79102694Y-35538888D01*
X79213510Y-35579222D01*
X79213516Y-35579223D01*
X79213520Y-35579225D01*
X79244536Y-35587535D01*
X79327420Y-35609744D01*
X79443556Y-35630222D01*
X79561034Y-35640499D01*
X79561035Y-35640500D01*
X79561036Y-35640500D01*
X79678965Y-35640500D01*
X79678965Y-35640499D01*
X79796444Y-35630222D01*
X79912580Y-35609744D01*
X80026490Y-35579222D01*
X80137306Y-35538888D01*
X80244186Y-35489050D01*
X80346315Y-35430086D01*
X80442916Y-35362445D01*
X80533254Y-35286642D01*
X80616642Y-35203254D01*
X80692445Y-35112916D01*
X80760086Y-35016315D01*
X80782905Y-34976790D01*
X80807316Y-34946646D01*
X80839852Y-34925516D01*
X80877326Y-34915474D01*
X80916069Y-34917504D01*
X80952288Y-34931407D01*
X80982438Y-34955822D01*
X80997676Y-34976794D01*
X81020338Y-35016046D01*
X81020348Y-35016062D01*
X81045072Y-35051371D01*
X81045074Y-35051372D01*
X81677036Y-34419409D01*
X81685519Y-34451065D01*
X81710601Y-34511619D01*
X81743373Y-34568381D01*
X81783273Y-34620380D01*
X81829620Y-34666727D01*
X81881619Y-34706627D01*
X81938381Y-34739399D01*
X81998935Y-34764481D01*
X82030590Y-34772962D01*
X81398626Y-35404925D01*
X81433948Y-35429658D01*
X81433963Y-35429667D01*
X81536039Y-35488601D01*
X81536055Y-35488609D01*
X81642867Y-35538417D01*
X81642875Y-35538420D01*
X81753657Y-35578742D01*
X81867526Y-35609254D01*
X81867533Y-35609255D01*
X81983620Y-35629725D01*
X81983619Y-35629725D01*
X82101054Y-35639999D01*
X82101057Y-35640000D01*
X82218943Y-35640000D01*
X82218945Y-35639999D01*
X82336380Y-35629725D01*
X82452466Y-35609255D01*
X82452473Y-35609254D01*
X82566341Y-35578742D01*
X82566343Y-35578742D01*
X82677124Y-35538420D01*
X82677132Y-35538417D01*
X82783944Y-35488609D01*
X82783960Y-35488601D01*
X82886043Y-35429663D01*
X82921371Y-35404925D01*
X82289409Y-34772963D01*
X82321065Y-34764481D01*
X82381619Y-34739399D01*
X82438381Y-34706627D01*
X82490380Y-34666727D01*
X82536727Y-34620380D01*
X82576627Y-34568381D01*
X82609399Y-34511619D01*
X82634481Y-34451065D01*
X82642963Y-34419409D01*
X83274925Y-35051371D01*
X83299663Y-35016043D01*
X83358601Y-34913960D01*
X83358609Y-34913944D01*
X83408417Y-34807132D01*
X83408420Y-34807124D01*
X83448742Y-34696343D01*
X83448742Y-34696341D01*
X83479254Y-34582473D01*
X83479255Y-34582466D01*
X83499725Y-34466380D01*
X83509999Y-34348945D01*
X83510000Y-34348943D01*
X83510000Y-34231057D01*
X83509999Y-34231054D01*
X83499725Y-34113619D01*
X83479255Y-33997533D01*
X83479254Y-33997526D01*
X83448742Y-33883658D01*
X83448742Y-33883656D01*
X83408420Y-33772875D01*
X83408417Y-33772867D01*
X83358609Y-33666055D01*
X83358601Y-33666039D01*
X83299667Y-33563963D01*
X83299658Y-33563948D01*
X83274925Y-33528626D01*
X82642962Y-34160589D01*
X82634481Y-34128935D01*
X82609399Y-34068381D01*
X82576627Y-34011619D01*
X82536727Y-33959620D01*
X82490380Y-33913273D01*
X82438381Y-33873373D01*
X82381619Y-33840601D01*
X82321065Y-33815519D01*
X82289409Y-33807037D01*
X82921372Y-33175074D01*
X82921371Y-33175072D01*
X82886062Y-33150348D01*
X82886046Y-33150338D01*
X82846794Y-33127676D01*
X82816645Y-33103261D01*
X82795515Y-33070724D01*
X82785474Y-33033250D01*
X82787505Y-32994507D01*
X82801408Y-32958288D01*
X82825823Y-32928139D01*
X82846787Y-32912906D01*
X82886315Y-32890086D01*
X82982916Y-32822445D01*
X83073254Y-32746642D01*
X83156642Y-32663254D01*
X83232445Y-32572916D01*
X83300086Y-32476315D01*
X83359050Y-32374186D01*
X83408888Y-32267306D01*
X83449222Y-32156490D01*
X83479744Y-32042580D01*
X83500222Y-31926444D01*
X83510500Y-31808964D01*
X83510500Y-31691036D01*
X83500222Y-31573556D01*
X83479744Y-31457420D01*
X83449222Y-31343510D01*
X83408888Y-31232694D01*
X83408883Y-31232685D01*
X83408882Y-31232680D01*
X83359058Y-31125832D01*
X83359050Y-31125814D01*
X83300086Y-31023685D01*
X83232445Y-30927084D01*
X83232444Y-30927083D01*
X83232440Y-30927077D01*
X83156655Y-30836761D01*
X83156650Y-30836755D01*
X83156642Y-30836746D01*
X83073254Y-30753358D01*
X83073245Y-30753350D01*
X83073238Y-30753344D01*
X82982922Y-30677559D01*
X82886321Y-30609918D01*
X82886318Y-30609916D01*
X82886315Y-30609914D01*
X82784186Y-30550950D01*
X82784167Y-30550941D01*
X82677319Y-30501117D01*
X82677308Y-30501113D01*
X82677306Y-30501112D01*
X82566490Y-30460778D01*
X82566489Y-30460777D01*
X82566479Y-30460774D01*
X82452587Y-30430258D01*
X82452590Y-30430258D01*
X82452580Y-30430256D01*
X82436180Y-30427364D01*
X82336446Y-30409778D01*
X82218967Y-30399500D01*
X82218964Y-30399500D01*
X82101036Y-30399500D01*
X82101032Y-30399500D01*
X81983553Y-30409778D01*
X81867425Y-30430255D01*
X81867422Y-30430255D01*
X81867420Y-30430256D01*
X81867415Y-30430257D01*
X81867412Y-30430258D01*
X81753520Y-30460774D01*
X81642680Y-30501117D01*
X81535832Y-30550941D01*
X81535808Y-30550953D01*
X81433693Y-30609909D01*
X81433678Y-30609918D01*
X81337077Y-30677559D01*
X81246761Y-30753344D01*
X81246737Y-30753366D01*
X81163366Y-30836737D01*
X81163344Y-30836761D01*
X81087559Y-30927077D01*
X81019918Y-31023678D01*
X81019909Y-31023693D01*
X80997387Y-31062703D01*
X80972972Y-31092853D01*
X80940435Y-31113983D01*
X80902961Y-31124024D01*
X80864218Y-31121993D01*
X80828000Y-31108090D01*
X80797850Y-31083675D01*
X80782613Y-31062703D01*
X80763544Y-31029675D01*
X80760086Y-31023685D01*
X80692445Y-30927084D01*
X80692444Y-30927083D01*
X80692440Y-30927077D01*
X80616655Y-30836761D01*
X80616650Y-30836755D01*
X80616642Y-30836746D01*
X80533254Y-30753358D01*
X80533245Y-30753350D01*
X80533238Y-30753344D01*
X80442922Y-30677559D01*
X80346321Y-30609918D01*
X80346318Y-30609916D01*
X80346315Y-30609914D01*
X80244186Y-30550950D01*
X80244167Y-30550941D01*
X80137319Y-30501117D01*
X80137308Y-30501113D01*
X80137306Y-30501112D01*
X80026490Y-30460778D01*
X80026489Y-30460777D01*
X80026479Y-30460774D01*
X79912587Y-30430258D01*
X79912590Y-30430258D01*
X79912580Y-30430256D01*
X79896180Y-30427364D01*
X79796446Y-30409778D01*
X79678967Y-30399500D01*
X79678964Y-30399500D01*
X79561036Y-30399500D01*
X79561032Y-30399500D01*
X79443553Y-30409778D01*
X79327425Y-30430255D01*
X79327422Y-30430255D01*
X79327420Y-30430256D01*
X79327415Y-30430257D01*
X79327412Y-30430258D01*
X79213520Y-30460774D01*
X79102680Y-30501117D01*
X78995832Y-30550941D01*
X78995808Y-30550953D01*
X78893693Y-30609909D01*
X78893678Y-30609918D01*
X78797077Y-30677559D01*
X78706761Y-30753344D01*
X78706737Y-30753366D01*
X78623366Y-30836737D01*
X78623344Y-30836761D01*
X78547559Y-30927077D01*
X78479918Y-31023678D01*
X78479909Y-31023693D01*
X78457387Y-31062703D01*
X78432972Y-31092853D01*
X78400435Y-31113983D01*
X78362961Y-31124024D01*
X78324218Y-31121993D01*
X78288000Y-31108090D01*
X78257850Y-31083675D01*
X78242613Y-31062703D01*
X78223544Y-31029675D01*
X78220086Y-31023685D01*
X78152445Y-30927084D01*
X78152444Y-30927083D01*
X78152440Y-30927077D01*
X78076655Y-30836761D01*
X78076650Y-30836755D01*
X78076642Y-30836746D01*
X77993254Y-30753358D01*
X77993245Y-30753350D01*
X77993238Y-30753344D01*
X77902922Y-30677559D01*
X77806321Y-30609918D01*
X77806318Y-30609916D01*
X77806315Y-30609914D01*
X77704186Y-30550950D01*
X77704167Y-30550941D01*
X77597319Y-30501117D01*
X77597308Y-30501113D01*
X77597306Y-30501112D01*
X77486490Y-30460778D01*
X77486489Y-30460777D01*
X77486479Y-30460774D01*
X77372587Y-30430258D01*
X77372590Y-30430258D01*
X77372580Y-30430256D01*
X77356180Y-30427364D01*
X77256446Y-30409778D01*
X77138967Y-30399500D01*
X77138964Y-30399500D01*
X77021036Y-30399500D01*
X77021032Y-30399500D01*
X76903553Y-30409778D01*
X76787425Y-30430255D01*
X76787422Y-30430255D01*
X76787420Y-30430256D01*
X76787415Y-30430257D01*
X76787412Y-30430258D01*
X76673520Y-30460774D01*
X76562680Y-30501117D01*
X76455832Y-30550941D01*
X76455808Y-30550953D01*
X76353693Y-30609909D01*
X76353678Y-30609918D01*
X76257077Y-30677559D01*
X76166761Y-30753344D01*
X76166737Y-30753366D01*
X76083366Y-30836737D01*
X76083344Y-30836761D01*
X76007559Y-30927077D01*
X75939918Y-31023678D01*
X75939910Y-31023691D01*
X75917096Y-31063206D01*
X75892681Y-31093355D01*
X75860143Y-31114485D01*
X75822669Y-31124525D01*
X75783927Y-31122494D01*
X75747708Y-31108590D01*
X75717559Y-31084175D01*
X75702323Y-31063204D01*
X75679667Y-31023963D01*
X75679658Y-31023948D01*
X75654925Y-30988626D01*
X75022962Y-31620589D01*
X75014481Y-31588935D01*
X74989399Y-31528381D01*
X74956627Y-31471619D01*
X74916727Y-31419620D01*
X74870380Y-31373273D01*
X74818381Y-31333373D01*
X74761619Y-31300601D01*
X74701065Y-31275519D01*
X74669409Y-31267037D01*
X75301372Y-30635074D01*
X75301371Y-30635072D01*
X75266062Y-30610348D01*
X75266036Y-30610332D01*
X75163960Y-30551398D01*
X75163944Y-30551390D01*
X75057132Y-30501582D01*
X75057124Y-30501579D01*
X74946342Y-30461257D01*
X74832473Y-30430745D01*
X74832466Y-30430744D01*
X74716379Y-30410274D01*
X74716380Y-30410274D01*
X74598945Y-30400000D01*
X74481054Y-30400000D01*
X74363619Y-30410274D01*
X74247533Y-30430744D01*
X74247526Y-30430745D01*
X74133658Y-30461257D01*
X74133656Y-30461257D01*
X74022875Y-30501579D01*
X74022867Y-30501582D01*
X73916055Y-30551390D01*
X73916028Y-30551403D01*
X73813967Y-30610328D01*
X73813957Y-30610334D01*
X73778626Y-30635072D01*
X74410590Y-31267036D01*
X74378935Y-31275519D01*
X74318381Y-31300601D01*
X74261619Y-31333373D01*
X74209620Y-31373273D01*
X74163273Y-31419620D01*
X74123373Y-31471619D01*
X74090601Y-31528381D01*
X74065519Y-31588935D01*
X74057036Y-31620590D01*
X73425072Y-30988626D01*
X73400334Y-31023957D01*
X73377676Y-31063204D01*
X73353261Y-31093354D01*
X73320725Y-31114483D01*
X73283251Y-31124525D01*
X73244508Y-31122494D01*
X73208289Y-31108591D01*
X73178139Y-31084176D01*
X73162902Y-31063204D01*
X73143544Y-31029675D01*
X73140086Y-31023685D01*
X73072445Y-30927084D01*
X73072444Y-30927083D01*
X73072440Y-30927077D01*
X72996655Y-30836761D01*
X72996650Y-30836755D01*
X72996642Y-30836746D01*
X72913254Y-30753358D01*
X72913245Y-30753350D01*
X72913238Y-30753344D01*
X72822922Y-30677559D01*
X72726321Y-30609918D01*
X72726318Y-30609916D01*
X72726315Y-30609914D01*
X72624186Y-30550950D01*
X72624167Y-30550941D01*
X72517319Y-30501117D01*
X72517308Y-30501113D01*
X72517306Y-30501112D01*
X72406490Y-30460778D01*
X72406489Y-30460777D01*
X72406479Y-30460774D01*
X72292587Y-30430258D01*
X72292590Y-30430258D01*
X72292580Y-30430256D01*
X72276180Y-30427364D01*
X72176446Y-30409778D01*
X72058967Y-30399500D01*
X72058964Y-30399500D01*
X71941036Y-30399500D01*
X71941032Y-30399500D01*
X71823553Y-30409778D01*
X71707425Y-30430255D01*
X71707422Y-30430255D01*
X71707420Y-30430256D01*
X71707415Y-30430257D01*
X71707412Y-30430258D01*
X71593520Y-30460774D01*
X71482680Y-30501117D01*
X71375832Y-30550941D01*
X71375808Y-30550953D01*
X71273693Y-30609909D01*
X71273678Y-30609918D01*
X71177077Y-30677559D01*
X71086761Y-30753344D01*
X71086737Y-30753366D01*
X71003366Y-30836737D01*
X71003344Y-30836761D01*
X70927559Y-30927077D01*
X70859918Y-31023678D01*
X70859910Y-31023691D01*
X70837096Y-31063206D01*
X70812681Y-31093355D01*
X70780143Y-31114485D01*
X70742669Y-31124525D01*
X70703927Y-31122494D01*
X70667708Y-31108590D01*
X70637559Y-31084175D01*
X70622323Y-31063204D01*
X70599667Y-31023963D01*
X70599658Y-31023948D01*
X70574925Y-30988626D01*
X69942962Y-31620589D01*
X69934481Y-31588935D01*
X69909399Y-31528381D01*
X69876627Y-31471619D01*
X69836727Y-31419620D01*
X69790380Y-31373273D01*
X69738381Y-31333373D01*
X69681619Y-31300601D01*
X69621065Y-31275519D01*
X69589409Y-31267037D01*
X70221372Y-30635074D01*
X70221371Y-30635072D01*
X70186062Y-30610348D01*
X70186036Y-30610332D01*
X70083960Y-30551398D01*
X70083944Y-30551390D01*
X69977132Y-30501582D01*
X69977124Y-30501579D01*
X69866342Y-30461257D01*
X69752473Y-30430745D01*
X69752466Y-30430744D01*
X69636379Y-30410274D01*
X69636380Y-30410274D01*
X69518945Y-30400000D01*
X69401054Y-30400000D01*
X69283619Y-30410274D01*
X69167533Y-30430744D01*
X69167526Y-30430745D01*
X69053658Y-30461257D01*
X69053656Y-30461257D01*
X68942875Y-30501579D01*
X68942867Y-30501582D01*
X68836055Y-30551390D01*
X68836028Y-30551403D01*
X68733967Y-30610328D01*
X68733957Y-30610334D01*
X68698626Y-30635072D01*
X69330590Y-31267036D01*
X69298935Y-31275519D01*
X69238381Y-31300601D01*
X69181619Y-31333373D01*
X69129620Y-31373273D01*
X69083273Y-31419620D01*
X69043373Y-31471619D01*
X69010601Y-31528381D01*
X68985519Y-31588935D01*
X68977036Y-31620590D01*
X68345072Y-30988626D01*
X68320334Y-31023957D01*
X68297676Y-31063204D01*
X68273261Y-31093354D01*
X68240725Y-31114483D01*
X68203251Y-31124525D01*
X68164508Y-31122494D01*
X68128289Y-31108591D01*
X68098139Y-31084176D01*
X68082902Y-31063204D01*
X68063544Y-31029675D01*
X68060086Y-31023685D01*
X67992445Y-30927084D01*
X67992444Y-30927083D01*
X67992440Y-30927077D01*
X67916655Y-30836761D01*
X67916650Y-30836755D01*
X67916642Y-30836746D01*
X67833254Y-30753358D01*
X67833245Y-30753350D01*
X67833238Y-30753344D01*
X67742922Y-30677559D01*
X67646321Y-30609918D01*
X67646318Y-30609916D01*
X67646315Y-30609914D01*
X67544186Y-30550950D01*
X67544167Y-30550941D01*
X67437319Y-30501117D01*
X67437308Y-30501113D01*
X67437306Y-30501112D01*
X67326490Y-30460778D01*
X67326489Y-30460777D01*
X67326479Y-30460774D01*
X67212587Y-30430258D01*
X67212590Y-30430258D01*
X67212580Y-30430256D01*
X67196180Y-30427364D01*
X67096446Y-30409778D01*
X66978967Y-30399500D01*
X66978964Y-30399500D01*
X66861036Y-30399500D01*
X66861032Y-30399500D01*
X66743553Y-30409778D01*
X66627425Y-30430255D01*
X66627422Y-30430255D01*
X66627420Y-30430256D01*
X66627415Y-30430257D01*
X66627412Y-30430258D01*
X66513520Y-30460774D01*
X66402680Y-30501117D01*
X66295832Y-30550941D01*
X66295808Y-30550953D01*
X66193693Y-30609909D01*
X66193678Y-30609918D01*
X66097077Y-30677559D01*
X66006761Y-30753344D01*
X66006737Y-30753366D01*
X65923366Y-30836737D01*
X65923344Y-30836761D01*
X65847559Y-30927077D01*
X65779918Y-31023678D01*
X65779909Y-31023693D01*
X65757387Y-31062703D01*
X65732972Y-31092853D01*
X65700435Y-31113983D01*
X65662961Y-31124024D01*
X65624218Y-31121993D01*
X65588000Y-31108090D01*
X65557850Y-31083675D01*
X65542613Y-31062703D01*
X65523544Y-31029675D01*
X65520086Y-31023685D01*
X65452445Y-30927084D01*
X65452444Y-30927083D01*
X65452440Y-30927077D01*
X65376655Y-30836761D01*
X65376650Y-30836755D01*
X65376642Y-30836746D01*
X65293254Y-30753358D01*
X65293245Y-30753350D01*
X65293238Y-30753344D01*
X65202922Y-30677559D01*
X65106321Y-30609918D01*
X65106318Y-30609916D01*
X65106315Y-30609914D01*
X65004186Y-30550950D01*
X65004167Y-30550941D01*
X64897319Y-30501117D01*
X64897308Y-30501113D01*
X64897306Y-30501112D01*
X64786490Y-30460778D01*
X64786489Y-30460777D01*
X64786479Y-30460774D01*
X64672587Y-30430258D01*
X64672590Y-30430258D01*
X64672580Y-30430256D01*
X64656180Y-30427364D01*
X64556446Y-30409778D01*
X64438967Y-30399500D01*
X64438964Y-30399500D01*
X64321036Y-30399500D01*
X64321032Y-30399500D01*
X64203553Y-30409778D01*
X64087425Y-30430255D01*
X64087422Y-30430255D01*
X64087420Y-30430256D01*
X64087415Y-30430257D01*
X64087412Y-30430258D01*
X63973520Y-30460774D01*
X63862680Y-30501117D01*
X63755832Y-30550941D01*
X63755808Y-30550953D01*
X63653693Y-30609909D01*
X63653678Y-30609918D01*
X63557077Y-30677559D01*
X63466761Y-30753344D01*
X63466737Y-30753366D01*
X63383366Y-30836737D01*
X63383344Y-30836761D01*
X63307559Y-30927077D01*
X63239918Y-31023678D01*
X63239909Y-31023693D01*
X63217387Y-31062703D01*
X63192972Y-31092853D01*
X63160435Y-31113983D01*
X63122961Y-31124024D01*
X63084218Y-31121993D01*
X63048000Y-31108090D01*
X63017850Y-31083675D01*
X63002613Y-31062703D01*
X62983544Y-31029675D01*
X62980086Y-31023685D01*
X62912445Y-30927084D01*
X62912444Y-30927083D01*
X62912440Y-30927077D01*
X62836655Y-30836761D01*
X62836650Y-30836755D01*
X62836642Y-30836746D01*
X62753254Y-30753358D01*
X62753245Y-30753350D01*
X62753238Y-30753344D01*
X62662922Y-30677559D01*
X62566321Y-30609918D01*
X62566318Y-30609916D01*
X62566315Y-30609914D01*
X62464186Y-30550950D01*
X62464167Y-30550941D01*
X62357319Y-30501117D01*
X62357308Y-30501113D01*
X62357306Y-30501112D01*
X62246490Y-30460778D01*
X62246489Y-30460777D01*
X62246479Y-30460774D01*
X62132587Y-30430258D01*
X62132590Y-30430258D01*
X62132580Y-30430256D01*
X62116180Y-30427364D01*
X62016446Y-30409778D01*
X61898967Y-30399500D01*
X61898964Y-30399500D01*
X61781036Y-30399500D01*
X61781032Y-30399500D01*
X61663553Y-30409778D01*
X61547425Y-30430255D01*
X61547422Y-30430255D01*
X61547420Y-30430256D01*
X61547415Y-30430257D01*
X61547412Y-30430258D01*
X61433520Y-30460774D01*
X61322680Y-30501117D01*
X61215832Y-30550941D01*
X61215808Y-30550953D01*
X61113693Y-30609909D01*
X61113678Y-30609918D01*
X61017077Y-30677559D01*
X60926761Y-30753344D01*
X60926737Y-30753366D01*
X60843366Y-30836737D01*
X60843344Y-30836761D01*
X60767559Y-30927077D01*
X60699918Y-31023678D01*
X60699909Y-31023693D01*
X60677387Y-31062703D01*
X60652972Y-31092853D01*
X60620435Y-31113983D01*
X60582961Y-31124024D01*
X60544218Y-31121993D01*
X60508000Y-31108090D01*
X60477850Y-31083675D01*
X60462613Y-31062703D01*
X60443544Y-31029675D01*
X60440086Y-31023685D01*
X60372445Y-30927084D01*
X60372444Y-30927083D01*
X60372440Y-30927077D01*
X60296655Y-30836761D01*
X60296650Y-30836755D01*
X60296642Y-30836746D01*
X60213254Y-30753358D01*
X60213245Y-30753350D01*
X60213238Y-30753344D01*
X60122922Y-30677559D01*
X60026321Y-30609918D01*
X60026318Y-30609916D01*
X60026315Y-30609914D01*
X59924186Y-30550950D01*
X59924167Y-30550941D01*
X59817319Y-30501117D01*
X59817308Y-30501113D01*
X59817306Y-30501112D01*
X59706490Y-30460778D01*
X59706489Y-30460777D01*
X59706479Y-30460774D01*
X59592587Y-30430258D01*
X59592590Y-30430258D01*
X59592580Y-30430256D01*
X59576180Y-30427364D01*
X59476446Y-30409778D01*
X59358967Y-30399500D01*
X59358964Y-30399500D01*
X59241036Y-30399500D01*
X59241032Y-30399500D01*
X59123553Y-30409778D01*
X59007425Y-30430255D01*
X59007422Y-30430255D01*
X59007420Y-30430256D01*
X59007415Y-30430257D01*
X59007412Y-30430258D01*
X58893520Y-30460774D01*
X58782680Y-30501117D01*
X58675832Y-30550941D01*
X58675808Y-30550953D01*
X58573693Y-30609909D01*
X58573678Y-30609918D01*
X58477077Y-30677559D01*
X58386761Y-30753344D01*
X58386737Y-30753366D01*
X58303366Y-30836737D01*
X58303344Y-30836761D01*
X58227559Y-30927077D01*
X58159918Y-31023678D01*
X58159910Y-31023691D01*
X58137096Y-31063206D01*
X58112681Y-31093355D01*
X58080143Y-31114485D01*
X58042669Y-31124525D01*
X58003927Y-31122494D01*
X57967708Y-31108590D01*
X57937559Y-31084175D01*
X57922323Y-31063204D01*
X57899667Y-31023963D01*
X57899658Y-31023948D01*
X57874925Y-30988626D01*
X57242962Y-31620589D01*
X57234481Y-31588935D01*
X57209399Y-31528381D01*
X57176627Y-31471619D01*
X57136727Y-31419620D01*
X57090380Y-31373273D01*
X57038381Y-31333373D01*
X56981619Y-31300601D01*
X56921065Y-31275519D01*
X56889409Y-31267037D01*
X57521372Y-30635074D01*
X57521371Y-30635072D01*
X57486062Y-30610348D01*
X57486036Y-30610332D01*
X57383960Y-30551398D01*
X57383944Y-30551390D01*
X57277132Y-30501582D01*
X57277124Y-30501579D01*
X57166342Y-30461257D01*
X57052473Y-30430745D01*
X57052466Y-30430744D01*
X56936379Y-30410274D01*
X56936380Y-30410274D01*
X56818945Y-30400000D01*
X56701054Y-30400000D01*
X56583619Y-30410274D01*
X56467533Y-30430744D01*
X56467526Y-30430745D01*
X56353658Y-30461257D01*
X56353656Y-30461257D01*
X56242875Y-30501579D01*
X56242867Y-30501582D01*
X56136055Y-30551390D01*
X56136028Y-30551403D01*
X56033967Y-30610328D01*
X56033957Y-30610334D01*
X55998626Y-30635072D01*
X56630590Y-31267036D01*
X56598935Y-31275519D01*
X56538381Y-31300601D01*
X56481619Y-31333373D01*
X56429620Y-31373273D01*
X56383273Y-31419620D01*
X56343373Y-31471619D01*
X56310601Y-31528381D01*
X56285519Y-31588935D01*
X56277036Y-31620590D01*
X55645072Y-30988626D01*
X55620334Y-31023957D01*
X55597676Y-31063204D01*
X55573261Y-31093354D01*
X55540725Y-31114483D01*
X55503251Y-31124525D01*
X55464508Y-31122494D01*
X55428289Y-31108591D01*
X55398139Y-31084176D01*
X55382902Y-31063204D01*
X55363544Y-31029675D01*
X55360086Y-31023685D01*
X55292445Y-30927084D01*
X55292444Y-30927083D01*
X55292440Y-30927077D01*
X55216655Y-30836761D01*
X55216650Y-30836755D01*
X55216642Y-30836746D01*
X55133254Y-30753358D01*
X55133245Y-30753350D01*
X55133238Y-30753344D01*
X55042922Y-30677559D01*
X54946321Y-30609918D01*
X54946318Y-30609916D01*
X54946315Y-30609914D01*
X54844186Y-30550950D01*
X54844167Y-30550941D01*
X54737319Y-30501117D01*
X54737308Y-30501113D01*
X54737306Y-30501112D01*
X54626490Y-30460778D01*
X54626489Y-30460777D01*
X54626479Y-30460774D01*
X54512587Y-30430258D01*
X54512590Y-30430258D01*
X54512580Y-30430256D01*
X54496180Y-30427364D01*
X54396446Y-30409778D01*
X54278967Y-30399500D01*
X54278964Y-30399500D01*
X54161036Y-30399500D01*
X54161032Y-30399500D01*
X54043553Y-30409778D01*
X53927425Y-30430255D01*
X53927422Y-30430255D01*
X53927420Y-30430256D01*
X53927415Y-30430257D01*
X53927412Y-30430258D01*
X53813520Y-30460774D01*
X53702680Y-30501117D01*
X53595832Y-30550941D01*
X53595808Y-30550953D01*
X53493693Y-30609909D01*
X53493678Y-30609918D01*
X53397077Y-30677559D01*
X53306761Y-30753344D01*
X53306737Y-30753366D01*
X53223366Y-30836737D01*
X53223344Y-30836761D01*
X53147559Y-30927077D01*
X53079918Y-31023678D01*
X53079909Y-31023693D01*
X53057387Y-31062703D01*
X53032972Y-31092853D01*
X53000435Y-31113983D01*
X52962961Y-31124024D01*
X52924218Y-31121993D01*
X52888000Y-31108090D01*
X52857850Y-31083675D01*
X52842613Y-31062703D01*
X52823544Y-31029675D01*
X52820086Y-31023685D01*
X52752445Y-30927084D01*
X52752444Y-30927083D01*
X52752440Y-30927077D01*
X52676655Y-30836761D01*
X52676650Y-30836755D01*
X52676642Y-30836746D01*
X52593254Y-30753358D01*
X52593245Y-30753350D01*
X52593238Y-30753344D01*
X52502922Y-30677559D01*
X52406321Y-30609918D01*
X52406318Y-30609916D01*
X52406315Y-30609914D01*
X52304186Y-30550950D01*
X52304167Y-30550941D01*
X52197319Y-30501117D01*
X52197308Y-30501113D01*
X52197306Y-30501112D01*
X52086490Y-30460778D01*
X52086489Y-30460777D01*
X52086479Y-30460774D01*
X51972587Y-30430258D01*
X51972590Y-30430258D01*
X51972580Y-30430256D01*
X51956180Y-30427364D01*
X51856446Y-30409778D01*
X51738967Y-30399500D01*
X51738964Y-30399500D01*
X51621036Y-30399500D01*
X51621032Y-30399500D01*
X51503553Y-30409778D01*
X51387425Y-30430255D01*
X51387422Y-30430255D01*
X51387420Y-30430256D01*
X51387415Y-30430257D01*
X51387412Y-30430258D01*
X51273520Y-30460774D01*
X51162680Y-30501117D01*
X51055832Y-30550941D01*
X51055808Y-30550953D01*
X50953693Y-30609909D01*
X50953678Y-30609918D01*
X50857077Y-30677559D01*
X50766761Y-30753344D01*
X50766737Y-30753366D01*
X50683366Y-30836737D01*
X50683344Y-30836761D01*
X50607559Y-30927077D01*
X50539918Y-31023678D01*
X50539910Y-31023691D01*
X50517096Y-31063206D01*
X50492681Y-31093355D01*
X50460143Y-31114485D01*
X50422669Y-31124525D01*
X50383927Y-31122494D01*
X50347708Y-31108590D01*
X50317559Y-31084175D01*
X50302323Y-31063204D01*
X50279667Y-31023963D01*
X50279658Y-31023948D01*
X50254925Y-30988626D01*
X49622962Y-31620589D01*
X49614481Y-31588935D01*
X49589399Y-31528381D01*
X49556627Y-31471619D01*
X49516727Y-31419620D01*
X49470380Y-31373273D01*
X49418381Y-31333373D01*
X49361619Y-31300601D01*
X49301065Y-31275519D01*
X49269409Y-31267037D01*
X49901372Y-30635074D01*
X49901371Y-30635072D01*
X49866062Y-30610348D01*
X49866036Y-30610332D01*
X49763960Y-30551398D01*
X49763944Y-30551390D01*
X49657132Y-30501582D01*
X49657124Y-30501579D01*
X49546342Y-30461257D01*
X49432473Y-30430745D01*
X49432466Y-30430744D01*
X49316379Y-30410274D01*
X49316380Y-30410274D01*
X49198945Y-30400000D01*
X49081054Y-30400000D01*
X48963619Y-30410274D01*
X48847533Y-30430744D01*
X48847526Y-30430745D01*
X48733658Y-30461257D01*
X48733656Y-30461257D01*
X48622875Y-30501579D01*
X48622867Y-30501582D01*
X48516055Y-30551390D01*
X48516028Y-30551403D01*
X48413967Y-30610328D01*
X48413957Y-30610334D01*
X48378626Y-30635072D01*
X49010590Y-31267036D01*
X48978935Y-31275519D01*
X48918381Y-31300601D01*
X48861619Y-31333373D01*
X48809620Y-31373273D01*
X48763273Y-31419620D01*
X48723373Y-31471619D01*
X48690601Y-31528381D01*
X48665519Y-31588935D01*
X48657036Y-31620590D01*
X48025072Y-30988626D01*
X48000334Y-31023957D01*
X47977676Y-31063204D01*
X47953261Y-31093354D01*
X47920725Y-31114483D01*
X47883251Y-31124525D01*
X47844508Y-31122494D01*
X47808289Y-31108591D01*
X47778139Y-31084176D01*
X47762902Y-31063204D01*
X47743544Y-31029675D01*
X47740086Y-31023685D01*
X47672445Y-30927084D01*
X47672444Y-30927083D01*
X47672440Y-30927077D01*
X47596655Y-30836761D01*
X47596650Y-30836755D01*
X47596642Y-30836746D01*
X47513254Y-30753358D01*
X47513245Y-30753350D01*
X47513238Y-30753344D01*
X47422922Y-30677559D01*
X47326321Y-30609918D01*
X47326318Y-30609916D01*
X47326315Y-30609914D01*
X47224186Y-30550950D01*
X47224167Y-30550941D01*
X47117319Y-30501117D01*
X47117308Y-30501113D01*
X47117306Y-30501112D01*
X47006490Y-30460778D01*
X47006489Y-30460777D01*
X47006479Y-30460774D01*
X46892587Y-30430258D01*
X46892590Y-30430258D01*
X46892580Y-30430256D01*
X46876180Y-30427364D01*
X46776446Y-30409778D01*
X46658967Y-30399500D01*
X46658964Y-30399500D01*
X46541036Y-30399500D01*
X46541032Y-30399500D01*
X46423553Y-30409778D01*
X46307425Y-30430255D01*
X46307422Y-30430255D01*
X46307420Y-30430256D01*
X46307415Y-30430257D01*
X46307412Y-30430258D01*
X46193520Y-30460774D01*
X46082680Y-30501117D01*
X45975832Y-30550941D01*
X45975808Y-30550953D01*
X45873693Y-30609909D01*
X45873678Y-30609918D01*
X45777077Y-30677559D01*
X45686761Y-30753344D01*
X45686737Y-30753366D01*
X45603366Y-30836737D01*
X45603344Y-30836761D01*
X45527559Y-30927077D01*
X45459918Y-31023678D01*
X45459909Y-31023693D01*
X45437387Y-31062703D01*
X45412972Y-31092853D01*
X45380435Y-31113983D01*
X45342961Y-31124024D01*
X45304218Y-31121993D01*
X45268000Y-31108090D01*
X45237850Y-31083675D01*
X45222613Y-31062703D01*
X45203544Y-31029675D01*
X45200086Y-31023685D01*
X45132445Y-30927084D01*
X45132444Y-30927083D01*
X45132440Y-30927077D01*
X45056655Y-30836761D01*
X45056650Y-30836755D01*
X45056642Y-30836746D01*
X44973254Y-30753358D01*
X44973245Y-30753350D01*
X44973238Y-30753344D01*
X44882922Y-30677559D01*
X44786321Y-30609918D01*
X44786318Y-30609916D01*
X44786315Y-30609914D01*
X44684186Y-30550950D01*
X44684167Y-30550941D01*
X44577319Y-30501117D01*
X44577308Y-30501113D01*
X44577306Y-30501112D01*
X44466490Y-30460778D01*
X44466489Y-30460777D01*
X44466479Y-30460774D01*
X44352587Y-30430258D01*
X44352590Y-30430258D01*
X44352580Y-30430256D01*
X44336180Y-30427364D01*
X44236446Y-30409778D01*
X44118967Y-30399500D01*
X44118964Y-30399500D01*
X44001036Y-30399500D01*
X44001032Y-30399500D01*
X43883553Y-30409778D01*
X43767425Y-30430255D01*
X43767422Y-30430255D01*
X43767420Y-30430256D01*
X43767415Y-30430257D01*
X43767412Y-30430258D01*
X43653520Y-30460774D01*
X43542680Y-30501117D01*
X43435832Y-30550941D01*
X43435808Y-30550953D01*
X43333693Y-30609909D01*
X43333678Y-30609918D01*
X43237077Y-30677559D01*
X43146761Y-30753344D01*
X43146737Y-30753366D01*
X43063366Y-30836737D01*
X43063344Y-30836761D01*
X42987559Y-30927077D01*
X42919918Y-31023678D01*
X42919909Y-31023693D01*
X42897387Y-31062703D01*
X42872972Y-31092853D01*
X42840435Y-31113983D01*
X42802961Y-31124024D01*
X42764218Y-31121993D01*
X42728000Y-31108090D01*
X42697850Y-31083675D01*
X42682613Y-31062703D01*
X42663544Y-31029675D01*
X42660086Y-31023685D01*
X42592445Y-30927084D01*
X42592444Y-30927083D01*
X42592440Y-30927077D01*
X42516655Y-30836761D01*
X42516650Y-30836755D01*
X42516642Y-30836746D01*
X42433254Y-30753358D01*
X42433245Y-30753350D01*
X42433238Y-30753344D01*
X42342922Y-30677559D01*
X42246321Y-30609918D01*
X42246318Y-30609916D01*
X42246315Y-30609914D01*
X42144186Y-30550950D01*
X42144167Y-30550941D01*
X42037319Y-30501117D01*
X42037308Y-30501113D01*
X42037306Y-30501112D01*
X41926490Y-30460778D01*
X41926489Y-30460777D01*
X41926479Y-30460774D01*
X41812587Y-30430258D01*
X41812590Y-30430258D01*
X41812580Y-30430256D01*
X41796180Y-30427364D01*
X41696446Y-30409778D01*
X41578967Y-30399500D01*
X41578964Y-30399500D01*
X41461036Y-30399500D01*
X41461032Y-30399500D01*
X41343553Y-30409778D01*
X41227425Y-30430255D01*
X41227422Y-30430255D01*
X41227420Y-30430256D01*
X41227415Y-30430257D01*
X41227412Y-30430258D01*
X41113520Y-30460774D01*
X41002680Y-30501117D01*
X40895832Y-30550941D01*
X40895808Y-30550953D01*
X40793693Y-30609909D01*
X40793678Y-30609918D01*
X40697077Y-30677559D01*
X40606761Y-30753344D01*
X40606737Y-30753366D01*
X40523366Y-30836737D01*
X40523344Y-30836761D01*
X40447559Y-30927077D01*
X40379918Y-31023678D01*
X40379910Y-31023691D01*
X40357096Y-31063206D01*
X40332681Y-31093355D01*
X40300143Y-31114485D01*
X40262669Y-31124525D01*
X40223927Y-31122494D01*
X40187708Y-31108590D01*
X40157559Y-31084175D01*
X40142323Y-31063204D01*
X40119667Y-31023963D01*
X40119658Y-31023948D01*
X40094925Y-30988626D01*
X39462962Y-31620589D01*
X39454481Y-31588935D01*
X39429399Y-31528381D01*
X39396627Y-31471619D01*
X39356727Y-31419620D01*
X39310380Y-31373273D01*
X39258381Y-31333373D01*
X39201619Y-31300601D01*
X39141065Y-31275519D01*
X39109409Y-31267037D01*
X39741372Y-30635074D01*
X39741371Y-30635072D01*
X39706062Y-30610348D01*
X39706036Y-30610332D01*
X39603960Y-30551398D01*
X39603944Y-30551390D01*
X39497132Y-30501582D01*
X39497124Y-30501579D01*
X39386342Y-30461257D01*
X39272473Y-30430745D01*
X39272466Y-30430744D01*
X39156379Y-30410274D01*
X39156380Y-30410274D01*
X39038945Y-30400000D01*
X38921054Y-30400000D01*
X38803619Y-30410274D01*
X38687533Y-30430744D01*
X38687526Y-30430745D01*
X38573658Y-30461257D01*
X38573656Y-30461257D01*
X38462875Y-30501579D01*
X38462867Y-30501582D01*
X38356055Y-30551390D01*
X38356028Y-30551403D01*
X38253967Y-30610328D01*
X38253957Y-30610334D01*
X38218626Y-30635072D01*
X38850590Y-31267036D01*
X38818935Y-31275519D01*
X38758381Y-31300601D01*
X38701619Y-31333373D01*
X38649620Y-31373273D01*
X38603273Y-31419620D01*
X38563373Y-31471619D01*
X38530601Y-31528381D01*
X38505519Y-31588935D01*
X38497036Y-31620590D01*
X37865072Y-30988626D01*
X37840334Y-31023957D01*
X37817676Y-31063204D01*
X37793261Y-31093354D01*
X37760725Y-31114483D01*
X37723251Y-31124525D01*
X37684508Y-31122494D01*
X37648289Y-31108591D01*
X37618139Y-31084176D01*
X37602902Y-31063204D01*
X37583544Y-31029675D01*
X37580086Y-31023685D01*
X37512445Y-30927084D01*
X37512444Y-30927083D01*
X37512440Y-30927077D01*
X37436655Y-30836761D01*
X37436650Y-30836755D01*
X37436642Y-30836746D01*
X37353254Y-30753358D01*
X37353245Y-30753350D01*
X37353238Y-30753344D01*
X37262922Y-30677559D01*
X37166321Y-30609918D01*
X37166318Y-30609916D01*
X37166315Y-30609914D01*
X37064186Y-30550950D01*
X37064167Y-30550941D01*
X36957319Y-30501117D01*
X36957308Y-30501113D01*
X36957306Y-30501112D01*
X36846490Y-30460778D01*
X36846489Y-30460777D01*
X36846479Y-30460774D01*
X36732587Y-30430258D01*
X36732590Y-30430258D01*
X36732580Y-30430256D01*
X36716180Y-30427364D01*
X36616446Y-30409778D01*
X36498967Y-30399500D01*
X36498964Y-30399500D01*
X36381036Y-30399500D01*
X36381032Y-30399500D01*
X36263553Y-30409778D01*
X36147425Y-30430255D01*
X36147422Y-30430255D01*
X36147420Y-30430256D01*
X36147415Y-30430257D01*
X36147412Y-30430258D01*
X36033520Y-30460774D01*
X35922680Y-30501117D01*
X35815832Y-30550941D01*
X35815808Y-30550953D01*
X35713693Y-30609909D01*
X35713678Y-30609918D01*
X35617077Y-30677559D01*
X35526761Y-30753344D01*
X35526737Y-30753366D01*
X35443366Y-30836737D01*
X35443344Y-30836761D01*
X35367559Y-30927077D01*
X35299918Y-31023678D01*
X35299909Y-31023693D01*
X35277387Y-31062703D01*
X35252972Y-31092853D01*
X35220435Y-31113983D01*
X35182961Y-31124024D01*
X35144218Y-31121993D01*
X35108000Y-31108090D01*
X35077850Y-31083675D01*
X35062613Y-31062703D01*
X35043544Y-31029675D01*
X35040086Y-31023685D01*
X34972445Y-30927084D01*
X34972444Y-30927083D01*
X34972440Y-30927077D01*
X34896655Y-30836761D01*
X34896650Y-30836755D01*
X34896642Y-30836746D01*
X34813254Y-30753358D01*
X34813245Y-30753350D01*
X34813238Y-30753344D01*
X34722922Y-30677559D01*
X34626321Y-30609918D01*
X34626318Y-30609916D01*
X34626315Y-30609914D01*
X34524186Y-30550950D01*
X34524167Y-30550941D01*
X34417319Y-30501117D01*
X34417308Y-30501113D01*
X34417306Y-30501112D01*
X34306490Y-30460778D01*
X34306489Y-30460777D01*
X34306479Y-30460774D01*
X34192587Y-30430258D01*
X34192590Y-30430258D01*
X34192580Y-30430256D01*
X34176180Y-30427364D01*
X34076446Y-30409778D01*
X33958967Y-30399500D01*
X33958964Y-30399500D01*
X33841036Y-30399500D01*
X33841032Y-30399500D01*
X33723553Y-30409778D01*
X33607425Y-30430255D01*
X33607422Y-30430255D01*
X33607420Y-30430256D01*
X33607415Y-30430257D01*
X33607412Y-30430258D01*
X33493520Y-30460774D01*
X33382680Y-30501117D01*
X33275832Y-30550941D01*
X33275808Y-30550953D01*
X33173693Y-30609909D01*
X33173678Y-30609918D01*
X33077077Y-30677559D01*
X32986761Y-30753344D01*
X32986737Y-30753366D01*
X32903366Y-30836737D01*
X32903344Y-30836761D01*
X32827559Y-30927077D01*
X32759918Y-31023678D01*
X32759909Y-31023693D01*
X32700953Y-31125808D01*
X32700941Y-31125832D01*
X32651117Y-31232680D01*
X32610774Y-31343520D01*
X32580258Y-31457412D01*
X32580255Y-31457425D01*
X32559778Y-31573553D01*
X32549500Y-31691032D01*
X31920587Y-31691032D01*
X31878845Y-31598285D01*
X31788959Y-31427022D01*
X31688897Y-31261499D01*
X31579023Y-31102319D01*
X31459739Y-30950063D01*
X31331479Y-30805288D01*
X31331471Y-30805280D01*
X31331454Y-30805262D01*
X31194737Y-30668545D01*
X31194701Y-30668511D01*
X31151402Y-30630151D01*
X31049937Y-30540261D01*
X30897681Y-30420977D01*
X30799772Y-30353395D01*
X30738516Y-30311113D01*
X30738508Y-30311108D01*
X30738501Y-30311103D01*
X30572978Y-30211041D01*
X30572967Y-30211035D01*
X30401722Y-30121158D01*
X30225326Y-30041769D01*
X30044485Y-29973185D01*
X29947249Y-29942885D01*
X29912471Y-29925691D01*
X29884709Y-29898592D01*
X29866680Y-29864240D01*
X29860149Y-29825998D01*
X29865755Y-29787609D01*
X29882949Y-29752831D01*
X29910048Y-29725069D01*
X29944400Y-29707040D01*
X29982642Y-29700509D01*
X29984140Y-29700500D01*
X86015860Y-29700500D01*
X86016608Y-29700618D01*
G37*
G04 #@! TD.AperFunction*
G04 #@! TA.AperFunction,Conductor*
G36*
X90019250Y-41740697D02*
G01*
X90019250Y-41740696D01*
X90056372Y-41689604D01*
X90056386Y-41689582D01*
X90069773Y-41667738D01*
X90094968Y-41638238D01*
X90128047Y-41617967D01*
X90165771Y-41608910D01*
X90204447Y-41611954D01*
X90240290Y-41626801D01*
X90269790Y-41651996D01*
X90290061Y-41685075D01*
X90299118Y-41722799D01*
X90299500Y-41732528D01*
X90299500Y-44967471D01*
X90293431Y-45005789D01*
X90275818Y-45040356D01*
X90248385Y-45067789D01*
X90213818Y-45085402D01*
X90175500Y-45091471D01*
X90137182Y-45085402D01*
X90102615Y-45067789D01*
X90075182Y-45040356D01*
X90069774Y-45032263D01*
X90056382Y-45010410D01*
X90056362Y-45010381D01*
X90019251Y-44959302D01*
X90019250Y-44959301D01*
X89364309Y-45614242D01*
X89354158Y-45589734D01*
X89308278Y-45510266D01*
X89252417Y-45437468D01*
X89187532Y-45372583D01*
X89114734Y-45316722D01*
X89035266Y-45270842D01*
X89010755Y-45260689D01*
X89665696Y-44605748D01*
X89665696Y-44605747D01*
X89614618Y-44568637D01*
X89614585Y-44568615D01*
X89507413Y-44502939D01*
X89507402Y-44502933D01*
X89395369Y-44445849D01*
X89279204Y-44397732D01*
X89159659Y-44358890D01*
X89159633Y-44358883D01*
X89037379Y-44329532D01*
X88913214Y-44309866D01*
X88913195Y-44309864D01*
X88787869Y-44300000D01*
X88662130Y-44300000D01*
X88536804Y-44309864D01*
X88536785Y-44309866D01*
X88412620Y-44329532D01*
X88290366Y-44358883D01*
X88290340Y-44358890D01*
X88170795Y-44397732D01*
X88054629Y-44445849D01*
X88003530Y-44471885D01*
X87966632Y-44483873D01*
X87927837Y-44483872D01*
X87890940Y-44471883D01*
X87859554Y-44449078D01*
X87836751Y-44417692D01*
X87824763Y-44380794D01*
X87823503Y-44353289D01*
X87825500Y-44322830D01*
X87825500Y-42377170D01*
X87823503Y-42346709D01*
X87827052Y-42308080D01*
X87842365Y-42272435D01*
X87867944Y-42243266D01*
X87901285Y-42223429D01*
X87939124Y-42214866D01*
X87977757Y-42218415D01*
X88003531Y-42228115D01*
X88054625Y-42254148D01*
X88054624Y-42254148D01*
X88170795Y-42302267D01*
X88290340Y-42341109D01*
X88290366Y-42341116D01*
X88412620Y-42370467D01*
X88536785Y-42390133D01*
X88536804Y-42390135D01*
X88662130Y-42399999D01*
X88662142Y-42400000D01*
X88787858Y-42400000D01*
X88787869Y-42399999D01*
X88913195Y-42390135D01*
X88913214Y-42390133D01*
X89037379Y-42370467D01*
X89159633Y-42341116D01*
X89159659Y-42341109D01*
X89279204Y-42302267D01*
X89395369Y-42254150D01*
X89507402Y-42197066D01*
X89507413Y-42197060D01*
X89614582Y-42131386D01*
X89614604Y-42131372D01*
X89665696Y-42094250D01*
X89665697Y-42094250D01*
X89010756Y-41439310D01*
X89035266Y-41429158D01*
X89114734Y-41383278D01*
X89187532Y-41327417D01*
X89252417Y-41262532D01*
X89308278Y-41189734D01*
X89354158Y-41110266D01*
X89364309Y-41085756D01*
X90019250Y-41740697D01*
G37*
G04 #@! TD.AperFunction*
G04 #@! TD*
M02*
