G04 #@! TF.GenerationSoftware,KiCad,Pcbnew,9.0.5*
G04 #@! TF.CreationDate,2025-11-03T18:46:07+02:00*
G04 #@! TF.ProjectId,elecDeTrimisproiect,656c6563-4465-4547-9269-6d697370726f,rev?*
G04 #@! TF.SameCoordinates,Original*
G04 #@! TF.FileFunction,Other,User*
%FSLAX46Y46*%
G04 Gerber Fmt 4.6, Leading zero omitted, Abs format (unit mm)*
G04 Created by KiCad (PCBNEW 9.0.5) date 2025-11-03 18:46:07*
%MOMM*%
%LPD*%
G01*
G04 APERTURE LIST*
%ADD10C,0.150000*%
%ADD11C,0.100000*%
G04 APERTURE END LIST*
D10*
X87702381Y-31304819D02*
X88321428Y-31304819D01*
X88321428Y-31304819D02*
X87988095Y-31685771D01*
X87988095Y-31685771D02*
X88130952Y-31685771D01*
X88130952Y-31685771D02*
X88226190Y-31733390D01*
X88226190Y-31733390D02*
X88273809Y-31781009D01*
X88273809Y-31781009D02*
X88321428Y-31876247D01*
X88321428Y-31876247D02*
X88321428Y-32114342D01*
X88321428Y-32114342D02*
X88273809Y-32209580D01*
X88273809Y-32209580D02*
X88226190Y-32257200D01*
X88226190Y-32257200D02*
X88130952Y-32304819D01*
X88130952Y-32304819D02*
X87845238Y-32304819D01*
X87845238Y-32304819D02*
X87750000Y-32257200D01*
X87750000Y-32257200D02*
X87702381Y-32209580D01*
X88750000Y-32209580D02*
X88797619Y-32257200D01*
X88797619Y-32257200D02*
X88750000Y-32304819D01*
X88750000Y-32304819D02*
X88702381Y-32257200D01*
X88702381Y-32257200D02*
X88750000Y-32209580D01*
X88750000Y-32209580D02*
X88750000Y-32304819D01*
X89702380Y-31304819D02*
X89226190Y-31304819D01*
X89226190Y-31304819D02*
X89178571Y-31781009D01*
X89178571Y-31781009D02*
X89226190Y-31733390D01*
X89226190Y-31733390D02*
X89321428Y-31685771D01*
X89321428Y-31685771D02*
X89559523Y-31685771D01*
X89559523Y-31685771D02*
X89654761Y-31733390D01*
X89654761Y-31733390D02*
X89702380Y-31781009D01*
X89702380Y-31781009D02*
X89749999Y-31876247D01*
X89749999Y-31876247D02*
X89749999Y-32114342D01*
X89749999Y-32114342D02*
X89702380Y-32209580D01*
X89702380Y-32209580D02*
X89654761Y-32257200D01*
X89654761Y-32257200D02*
X89559523Y-32304819D01*
X89559523Y-32304819D02*
X89321428Y-32304819D01*
X89321428Y-32304819D02*
X89226190Y-32257200D01*
X89226190Y-32257200D02*
X89178571Y-32209580D01*
D11*
X90500000Y-33000000D02*
X90500000Y-33000000D01*
X87000000Y-33000000D02*
X87000000Y-33000000D01*
X90500000Y-33000000D02*
X87000000Y-33000000D01*
X90500000Y-33000000D02*
X89373496Y-33586421D01*
X90500000Y-33000000D02*
X89373496Y-32413579D01*
X87000000Y-33000000D02*
X88126504Y-32413579D01*
X87000000Y-33000000D02*
X88126504Y-33586421D01*
D10*
X26202381Y-54304819D02*
X26821428Y-54304819D01*
X26821428Y-54304819D02*
X26488095Y-54685771D01*
X26488095Y-54685771D02*
X26630952Y-54685771D01*
X26630952Y-54685771D02*
X26726190Y-54733390D01*
X26726190Y-54733390D02*
X26773809Y-54781009D01*
X26773809Y-54781009D02*
X26821428Y-54876247D01*
X26821428Y-54876247D02*
X26821428Y-55114342D01*
X26821428Y-55114342D02*
X26773809Y-55209580D01*
X26773809Y-55209580D02*
X26726190Y-55257200D01*
X26726190Y-55257200D02*
X26630952Y-55304819D01*
X26630952Y-55304819D02*
X26345238Y-55304819D01*
X26345238Y-55304819D02*
X26250000Y-55257200D01*
X26250000Y-55257200D02*
X26202381Y-55209580D01*
X27250000Y-55209580D02*
X27297619Y-55257200D01*
X27297619Y-55257200D02*
X27250000Y-55304819D01*
X27250000Y-55304819D02*
X27202381Y-55257200D01*
X27202381Y-55257200D02*
X27250000Y-55209580D01*
X27250000Y-55209580D02*
X27250000Y-55304819D01*
X28202380Y-54304819D02*
X27726190Y-54304819D01*
X27726190Y-54304819D02*
X27678571Y-54781009D01*
X27678571Y-54781009D02*
X27726190Y-54733390D01*
X27726190Y-54733390D02*
X27821428Y-54685771D01*
X27821428Y-54685771D02*
X28059523Y-54685771D01*
X28059523Y-54685771D02*
X28154761Y-54733390D01*
X28154761Y-54733390D02*
X28202380Y-54781009D01*
X28202380Y-54781009D02*
X28249999Y-54876247D01*
X28249999Y-54876247D02*
X28249999Y-55114342D01*
X28249999Y-55114342D02*
X28202380Y-55209580D01*
X28202380Y-55209580D02*
X28154761Y-55257200D01*
X28154761Y-55257200D02*
X28059523Y-55304819D01*
X28059523Y-55304819D02*
X27821428Y-55304819D01*
X27821428Y-55304819D02*
X27726190Y-55257200D01*
X27726190Y-55257200D02*
X27678571Y-55209580D01*
D11*
X29000000Y-56000000D02*
X29000000Y-56000000D01*
X25500000Y-56000000D02*
X25500000Y-56000000D01*
X29000000Y-56000000D02*
X25500000Y-56000000D01*
X29000000Y-56000000D02*
X27873496Y-56586421D01*
X29000000Y-56000000D02*
X27873496Y-55413579D01*
X25500000Y-56000000D02*
X26626504Y-55413579D01*
X25500000Y-56000000D02*
X26626504Y-56586421D01*
D10*
X26202381Y-31304819D02*
X26821428Y-31304819D01*
X26821428Y-31304819D02*
X26488095Y-31685771D01*
X26488095Y-31685771D02*
X26630952Y-31685771D01*
X26630952Y-31685771D02*
X26726190Y-31733390D01*
X26726190Y-31733390D02*
X26773809Y-31781009D01*
X26773809Y-31781009D02*
X26821428Y-31876247D01*
X26821428Y-31876247D02*
X26821428Y-32114342D01*
X26821428Y-32114342D02*
X26773809Y-32209580D01*
X26773809Y-32209580D02*
X26726190Y-32257200D01*
X26726190Y-32257200D02*
X26630952Y-32304819D01*
X26630952Y-32304819D02*
X26345238Y-32304819D01*
X26345238Y-32304819D02*
X26250000Y-32257200D01*
X26250000Y-32257200D02*
X26202381Y-32209580D01*
X27250000Y-32209580D02*
X27297619Y-32257200D01*
X27297619Y-32257200D02*
X27250000Y-32304819D01*
X27250000Y-32304819D02*
X27202381Y-32257200D01*
X27202381Y-32257200D02*
X27250000Y-32209580D01*
X27250000Y-32209580D02*
X27250000Y-32304819D01*
X28202380Y-31304819D02*
X27726190Y-31304819D01*
X27726190Y-31304819D02*
X27678571Y-31781009D01*
X27678571Y-31781009D02*
X27726190Y-31733390D01*
X27726190Y-31733390D02*
X27821428Y-31685771D01*
X27821428Y-31685771D02*
X28059523Y-31685771D01*
X28059523Y-31685771D02*
X28154761Y-31733390D01*
X28154761Y-31733390D02*
X28202380Y-31781009D01*
X28202380Y-31781009D02*
X28249999Y-31876247D01*
X28249999Y-31876247D02*
X28249999Y-32114342D01*
X28249999Y-32114342D02*
X28202380Y-32209580D01*
X28202380Y-32209580D02*
X28154761Y-32257200D01*
X28154761Y-32257200D02*
X28059523Y-32304819D01*
X28059523Y-32304819D02*
X27821428Y-32304819D01*
X27821428Y-32304819D02*
X27726190Y-32257200D01*
X27726190Y-32257200D02*
X27678571Y-32209580D01*
D11*
X29000000Y-33000000D02*
X29000000Y-33000000D01*
X25500000Y-33000000D02*
X25500000Y-33000000D01*
X29000000Y-33000000D02*
X25500000Y-33000000D01*
X29000000Y-33000000D02*
X27873496Y-33586421D01*
X29000000Y-33000000D02*
X27873496Y-32413579D01*
X25500000Y-33000000D02*
X26626504Y-32413579D01*
X25500000Y-33000000D02*
X26626504Y-33586421D01*
D10*
X87702381Y-54304819D02*
X88321428Y-54304819D01*
X88321428Y-54304819D02*
X87988095Y-54685771D01*
X87988095Y-54685771D02*
X88130952Y-54685771D01*
X88130952Y-54685771D02*
X88226190Y-54733390D01*
X88226190Y-54733390D02*
X88273809Y-54781009D01*
X88273809Y-54781009D02*
X88321428Y-54876247D01*
X88321428Y-54876247D02*
X88321428Y-55114342D01*
X88321428Y-55114342D02*
X88273809Y-55209580D01*
X88273809Y-55209580D02*
X88226190Y-55257200D01*
X88226190Y-55257200D02*
X88130952Y-55304819D01*
X88130952Y-55304819D02*
X87845238Y-55304819D01*
X87845238Y-55304819D02*
X87750000Y-55257200D01*
X87750000Y-55257200D02*
X87702381Y-55209580D01*
X88750000Y-55209580D02*
X88797619Y-55257200D01*
X88797619Y-55257200D02*
X88750000Y-55304819D01*
X88750000Y-55304819D02*
X88702381Y-55257200D01*
X88702381Y-55257200D02*
X88750000Y-55209580D01*
X88750000Y-55209580D02*
X88750000Y-55304819D01*
X89702380Y-54304819D02*
X89226190Y-54304819D01*
X89226190Y-54304819D02*
X89178571Y-54781009D01*
X89178571Y-54781009D02*
X89226190Y-54733390D01*
X89226190Y-54733390D02*
X89321428Y-54685771D01*
X89321428Y-54685771D02*
X89559523Y-54685771D01*
X89559523Y-54685771D02*
X89654761Y-54733390D01*
X89654761Y-54733390D02*
X89702380Y-54781009D01*
X89702380Y-54781009D02*
X89749999Y-54876247D01*
X89749999Y-54876247D02*
X89749999Y-55114342D01*
X89749999Y-55114342D02*
X89702380Y-55209580D01*
X89702380Y-55209580D02*
X89654761Y-55257200D01*
X89654761Y-55257200D02*
X89559523Y-55304819D01*
X89559523Y-55304819D02*
X89321428Y-55304819D01*
X89321428Y-55304819D02*
X89226190Y-55257200D01*
X89226190Y-55257200D02*
X89178571Y-55209580D01*
D11*
X90500000Y-56000000D02*
X90500000Y-56000000D01*
X87000000Y-56000000D02*
X87000000Y-56000000D01*
X90500000Y-56000000D02*
X87000000Y-56000000D01*
X90500000Y-56000000D02*
X89373496Y-56586421D01*
X90500000Y-56000000D02*
X89373496Y-55413579D01*
X87000000Y-56000000D02*
X88126504Y-55413579D01*
X87000000Y-56000000D02*
X88126504Y-56586421D01*
M02*
