%TF.GenerationSoftware,KiCad,Pcbnew,9.0.5*%
%TF.CreationDate,2025-11-03T18:46:07+02:00*%
%TF.ProjectId,elecDeTrimisproiect,656c6563-4465-4547-9269-6d697370726f,rev?*%
%TF.SameCoordinates,Original*%
%TF.FileFunction,Drillmap*%
%TF.FilePolarity,Positive*%
%FSLAX45Y45*%
G04 Gerber Fmt 4.5, Leading zero omitted, Abs format (unit mm)*
G04 Created by KiCad (PCBNEW 9.0.5) date 2025-11-03 18:46:07*
%MOMM*%
%LPD*%
G01*
G04 APERTURE LIST*
%ADD10C,0.050000*%
%ADD11C,0.200000*%
G04 APERTURE END LIST*
D10*
X2550000Y-5600000D02*
X2550000Y-3300000D01*
X2900000Y-2950000D02*
X8700000Y-2950000D01*
X8700000Y-5950000D02*
X2900000Y-5950000D01*
X2900000Y-5950000D02*
G75*
G02*
X2550000Y-5600000I0J350000D01*
G01*
X9050000Y-5600000D02*
G75*
G02*
X8700000Y-5950000I-350000J0D01*
G01*
X9050000Y-3300000D02*
X9050000Y-5600000D01*
X2550000Y-3300000D02*
G75*
G02*
X2900000Y-2950000I350000J0D01*
G01*
X8700000Y-2950000D02*
G75*
G02*
X9050000Y-3300000I0J-350000D01*
G01*
D11*
X2808277Y-6263984D02*
X2808277Y-6063984D01*
X2808277Y-6063984D02*
X2855896Y-6063984D01*
X2855896Y-6063984D02*
X2884467Y-6073508D01*
X2884467Y-6073508D02*
X2903515Y-6092555D01*
X2903515Y-6092555D02*
X2913039Y-6111603D01*
X2913039Y-6111603D02*
X2922562Y-6149698D01*
X2922562Y-6149698D02*
X2922562Y-6178269D01*
X2922562Y-6178269D02*
X2913039Y-6216365D01*
X2913039Y-6216365D02*
X2903515Y-6235412D01*
X2903515Y-6235412D02*
X2884467Y-6254460D01*
X2884467Y-6254460D02*
X2855896Y-6263984D01*
X2855896Y-6263984D02*
X2808277Y-6263984D01*
X3008277Y-6263984D02*
X3008277Y-6130650D01*
X3008277Y-6168746D02*
X3017801Y-6149698D01*
X3017801Y-6149698D02*
X3027324Y-6140174D01*
X3027324Y-6140174D02*
X3046372Y-6130650D01*
X3046372Y-6130650D02*
X3065420Y-6130650D01*
X3132086Y-6263984D02*
X3132086Y-6130650D01*
X3132086Y-6063984D02*
X3122562Y-6073508D01*
X3122562Y-6073508D02*
X3132086Y-6083031D01*
X3132086Y-6083031D02*
X3141610Y-6073508D01*
X3141610Y-6073508D02*
X3132086Y-6063984D01*
X3132086Y-6063984D02*
X3132086Y-6083031D01*
X3255896Y-6263984D02*
X3236848Y-6254460D01*
X3236848Y-6254460D02*
X3227324Y-6235412D01*
X3227324Y-6235412D02*
X3227324Y-6063984D01*
X3360658Y-6263984D02*
X3341610Y-6254460D01*
X3341610Y-6254460D02*
X3332086Y-6235412D01*
X3332086Y-6235412D02*
X3332086Y-6063984D01*
X3589229Y-6263984D02*
X3589229Y-6063984D01*
X3589229Y-6063984D02*
X3655896Y-6206841D01*
X3655896Y-6206841D02*
X3722562Y-6063984D01*
X3722562Y-6063984D02*
X3722562Y-6263984D01*
X3903515Y-6263984D02*
X3903515Y-6159222D01*
X3903515Y-6159222D02*
X3893991Y-6140174D01*
X3893991Y-6140174D02*
X3874943Y-6130650D01*
X3874943Y-6130650D02*
X3836848Y-6130650D01*
X3836848Y-6130650D02*
X3817801Y-6140174D01*
X3903515Y-6254460D02*
X3884467Y-6263984D01*
X3884467Y-6263984D02*
X3836848Y-6263984D01*
X3836848Y-6263984D02*
X3817801Y-6254460D01*
X3817801Y-6254460D02*
X3808277Y-6235412D01*
X3808277Y-6235412D02*
X3808277Y-6216365D01*
X3808277Y-6216365D02*
X3817801Y-6197317D01*
X3817801Y-6197317D02*
X3836848Y-6187793D01*
X3836848Y-6187793D02*
X3884467Y-6187793D01*
X3884467Y-6187793D02*
X3903515Y-6178269D01*
X3998753Y-6130650D02*
X3998753Y-6330650D01*
X3998753Y-6140174D02*
X4017801Y-6130650D01*
X4017801Y-6130650D02*
X4055896Y-6130650D01*
X4055896Y-6130650D02*
X4074943Y-6140174D01*
X4074943Y-6140174D02*
X4084467Y-6149698D01*
X4084467Y-6149698D02*
X4093991Y-6168746D01*
X4093991Y-6168746D02*
X4093991Y-6225888D01*
X4093991Y-6225888D02*
X4084467Y-6244936D01*
X4084467Y-6244936D02*
X4074943Y-6254460D01*
X4074943Y-6254460D02*
X4055896Y-6263984D01*
X4055896Y-6263984D02*
X4017801Y-6263984D01*
X4017801Y-6263984D02*
X3998753Y-6254460D01*
X4179705Y-6244936D02*
X4189229Y-6254460D01*
X4189229Y-6254460D02*
X4179705Y-6263984D01*
X4179705Y-6263984D02*
X4170182Y-6254460D01*
X4170182Y-6254460D02*
X4179705Y-6244936D01*
X4179705Y-6244936D02*
X4179705Y-6263984D01*
X4179705Y-6140174D02*
X4189229Y-6149698D01*
X4189229Y-6149698D02*
X4179705Y-6159222D01*
X4179705Y-6159222D02*
X4170182Y-6149698D01*
X4170182Y-6149698D02*
X4179705Y-6140174D01*
X4179705Y-6140174D02*
X4179705Y-6159222D01*
M02*
