%TF.GenerationSoftware,KiCad,Pcbnew,9.0.5*%
%TF.CreationDate,2025-11-03T18:46:07+02:00*%
%TF.ProjectId,elecDeTrimisproiect,656c6563-4465-4547-9269-6d697370726f,rev?*%
%TF.SameCoordinates,Original*%
%TF.FileFunction,Drillmap*%
%TF.FilePolarity,Positive*%
%FSLAX45Y45*%
G04 Gerber Fmt 4.5, Leading zero omitted, Abs format (unit mm)*
G04 Created by KiCad (PCBNEW 9.0.5) date 2025-11-03 18:46:07*
%MOMM*%
%LPD*%
G01*
G04 APERTURE LIST*
%ADD10C,0.050000*%
%ADD11C,0.200000*%
%ADD12C,0.100000*%
%ADD13C,0.140000*%
%ADD14C,0.270000*%
G04 APERTURE END LIST*
D10*
X2550000Y-5600000D02*
X2550000Y-3300000D01*
X2900000Y-2950000D02*
X8700000Y-2950000D01*
X8700000Y-5950000D02*
X2900000Y-5950000D01*
X2900000Y-5950000D02*
G75*
G02*
X2550000Y-5600000I0J350000D01*
G01*
X9050000Y-5600000D02*
G75*
G02*
X8700000Y-5950000I-350000J0D01*
G01*
X9050000Y-3300000D02*
X9050000Y-5600000D01*
X2550000Y-3300000D02*
G75*
G02*
X2900000Y-2950000I350000J0D01*
G01*
X8700000Y-2950000D02*
G75*
G02*
X9050000Y-3300000I0J-350000D01*
G01*
D11*
D12*
X2810000Y-4065000D02*
X2840000Y-4095000D01*
X2840000Y-4065000D02*
X2810000Y-4095000D01*
X2820000Y-5085000D02*
X2850000Y-5115000D01*
X2850000Y-5085000D02*
X2820000Y-5115000D01*
X2835000Y-4610000D02*
X2865000Y-4640000D01*
X2865000Y-4610000D02*
X2835000Y-4640000D01*
X3210000Y-4060000D02*
X3240000Y-4090000D01*
X3240000Y-4060000D02*
X3210000Y-4090000D01*
X3235000Y-4360000D02*
X3265000Y-4390000D01*
X3265000Y-4360000D02*
X3235000Y-4390000D01*
X3237500Y-5162500D02*
X3267500Y-5192500D01*
X3267500Y-5162500D02*
X3237500Y-5192500D01*
X3360000Y-5685000D02*
X3390000Y-5715000D01*
X3390000Y-5685000D02*
X3360000Y-5715000D01*
X3401250Y-4148750D02*
X3431250Y-4178750D01*
X3431250Y-4148750D02*
X3401250Y-4178750D01*
X3551250Y-4741250D02*
X3581250Y-4771250D01*
X3581250Y-4741250D02*
X3551250Y-4771250D01*
X3601250Y-4016250D02*
X3631250Y-4046250D01*
X3631250Y-4016250D02*
X3601250Y-4046250D01*
X3781250Y-4201250D02*
X3811250Y-4231250D01*
X3811250Y-4201250D02*
X3781250Y-4231250D01*
X3905000Y-4785000D02*
X3935000Y-4815000D01*
X3935000Y-4785000D02*
X3905000Y-4815000D01*
X3921250Y-3691250D02*
X3951250Y-3721250D01*
X3951250Y-3691250D02*
X3921250Y-3721250D01*
X3935000Y-5760000D02*
X3965000Y-5790000D01*
X3965000Y-5760000D02*
X3935000Y-5790000D01*
X3960000Y-5285000D02*
X3990000Y-5315000D01*
X3990000Y-5285000D02*
X3960000Y-5315000D01*
X4031250Y-4711250D02*
X4061250Y-4741250D01*
X4061250Y-4711250D02*
X4031250Y-4741250D01*
X4131250Y-5011250D02*
X4161250Y-5041250D01*
X4161250Y-5011250D02*
X4131250Y-5041250D01*
X4410000Y-5110000D02*
X4440000Y-5140000D01*
X4440000Y-5110000D02*
X4410000Y-5140000D01*
X4410000Y-5735000D02*
X4440000Y-5765000D01*
X4440000Y-5735000D02*
X4410000Y-5765000D01*
X4490000Y-4955000D02*
X4520000Y-4985000D01*
X4520000Y-4955000D02*
X4490000Y-4985000D01*
X4595000Y-3960000D02*
X4625000Y-3990000D01*
X4625000Y-3960000D02*
X4595000Y-3990000D01*
X4610000Y-5435000D02*
X4640000Y-5465000D01*
X4640000Y-5435000D02*
X4610000Y-5465000D01*
X4910000Y-4360000D02*
X4940000Y-4390000D01*
X4940000Y-4360000D02*
X4910000Y-4390000D01*
X5285000Y-5110000D02*
X5315000Y-5140000D01*
X5315000Y-5110000D02*
X5285000Y-5140000D01*
X5360000Y-3935000D02*
X5390000Y-3965000D01*
X5390000Y-3935000D02*
X5360000Y-3965000D01*
X5365000Y-5575000D02*
X5395000Y-5605000D01*
X5395000Y-5575000D02*
X5365000Y-5605000D01*
X5385000Y-4745000D02*
X5415000Y-4775000D01*
X5415000Y-4745000D02*
X5385000Y-4775000D01*
X5390000Y-4325000D02*
X5420000Y-4355000D01*
X5420000Y-4325000D02*
X5390000Y-4355000D01*
X5405000Y-3715000D02*
X5435000Y-3745000D01*
X5435000Y-3715000D02*
X5405000Y-3745000D01*
X6377500Y-4685000D02*
X6407500Y-4715000D01*
X6407500Y-4685000D02*
X6377500Y-4715000D01*
X6380000Y-4952500D02*
X6410000Y-4982500D01*
X6410000Y-4952500D02*
X6380000Y-4982500D01*
X6387500Y-5225000D02*
X6417500Y-5255000D01*
X6417500Y-5225000D02*
X6387500Y-5255000D01*
X6390000Y-4185000D02*
X6420000Y-4215000D01*
X6420000Y-4185000D02*
X6390000Y-4215000D01*
X6592500Y-4382500D02*
X6622500Y-4412500D01*
X6622500Y-4382500D02*
X6592500Y-4412500D01*
X6683500Y-4841500D02*
X6713500Y-4871500D01*
X6713500Y-4841500D02*
X6683500Y-4871500D01*
X6745000Y-3706250D02*
X6775000Y-3736250D01*
X6775000Y-3706250D02*
X6745000Y-3736250D01*
X6753500Y-5285250D02*
X6783500Y-5315250D01*
X6783500Y-5285250D02*
X6753500Y-5315250D01*
X6823500Y-4801500D02*
X6853500Y-4831500D01*
X6853500Y-4801500D02*
X6823500Y-4831500D01*
X6845000Y-3911250D02*
X6875000Y-3941250D01*
X6875000Y-3911250D02*
X6845000Y-3941250D01*
X6965000Y-3706250D02*
X6995000Y-3736250D01*
X6995000Y-3706250D02*
X6965000Y-3736250D01*
X7175000Y-3755000D02*
X7205000Y-3785000D01*
X7205000Y-3755000D02*
X7175000Y-3785000D01*
X7205000Y-4701250D02*
X7235000Y-4731250D01*
X7235000Y-4701250D02*
X7205000Y-4731250D01*
X7358500Y-5171500D02*
X7388500Y-5201500D01*
X7388500Y-5171500D02*
X7358500Y-5201500D01*
X7465000Y-3846250D02*
X7495000Y-3876250D01*
X7495000Y-3846250D02*
X7465000Y-3876250D01*
X7524375Y-4125625D02*
X7554375Y-4155625D01*
X7554375Y-4125625D02*
X7524375Y-4155625D01*
X7535000Y-3701250D02*
X7565000Y-3731250D01*
X7565000Y-3701250D02*
X7535000Y-3731250D01*
X7590000Y-4656250D02*
X7620000Y-4686250D01*
X7620000Y-4656250D02*
X7590000Y-4686250D01*
X7655000Y-3701250D02*
X7685000Y-3731250D01*
X7685000Y-3701250D02*
X7655000Y-3731250D01*
X7660000Y-4216250D02*
X7690000Y-4246250D01*
X7690000Y-4216250D02*
X7660000Y-4246250D01*
X7695000Y-3931250D02*
X7725000Y-3961250D01*
X7725000Y-3931250D02*
X7695000Y-3961250D01*
X7700000Y-4086250D02*
X7730000Y-4116250D01*
X7730000Y-4086250D02*
X7700000Y-4116250D01*
X7890000Y-3701250D02*
X7920000Y-3731250D01*
X7920000Y-3701250D02*
X7890000Y-3731250D01*
X7910000Y-3956250D02*
X7940000Y-3986250D01*
X7940000Y-3956250D02*
X7910000Y-3986250D01*
X7970000Y-4521250D02*
X8000000Y-4551250D01*
X8000000Y-4521250D02*
X7970000Y-4551250D01*
X7980000Y-4681250D02*
X8010000Y-4711250D01*
X8010000Y-4681250D02*
X7980000Y-4711250D01*
X8038500Y-4861500D02*
X8068500Y-4891500D01*
X8068500Y-4861500D02*
X8038500Y-4891500D01*
X8058500Y-5295250D02*
X8088500Y-5325250D01*
X8088500Y-5295250D02*
X8058500Y-5325250D01*
X8090000Y-3961250D02*
X8120000Y-3991250D01*
X8120000Y-3961250D02*
X8090000Y-3991250D01*
X8090000Y-4116250D02*
X8120000Y-4146250D01*
X8120000Y-4116250D02*
X8090000Y-4146250D01*
X8125000Y-3701250D02*
X8155000Y-3731250D01*
X8155000Y-3701250D02*
X8125000Y-3731250D01*
X8290000Y-4800000D02*
X8320000Y-4830000D01*
X8320000Y-4800000D02*
X8290000Y-4830000D01*
X8305000Y-4970000D02*
X8335000Y-5000000D01*
X8335000Y-4970000D02*
X8305000Y-5000000D01*
X8350000Y-5250000D02*
X8380000Y-5280000D01*
X8380000Y-5250000D02*
X8350000Y-5280000D01*
X8390000Y-3705000D02*
X8420000Y-3735000D01*
X8420000Y-3705000D02*
X8390000Y-3735000D01*
X8510000Y-4980000D02*
X8540000Y-5010000D01*
X8540000Y-4980000D02*
X8510000Y-5010000D01*
X8555000Y-4800000D02*
X8585000Y-4830000D01*
X8585000Y-4800000D02*
X8555000Y-4830000D01*
X8560000Y-5245000D02*
X8590000Y-5275000D01*
X8590000Y-5245000D02*
X8560000Y-5275000D01*
X8585000Y-3700000D02*
X8615000Y-3730000D01*
X8615000Y-3700000D02*
X8585000Y-3730000D01*
X8760000Y-4805000D02*
X8790000Y-4835000D01*
X8790000Y-4805000D02*
X8760000Y-4835000D01*
X8760000Y-4980000D02*
X8790000Y-5010000D01*
X8790000Y-4980000D02*
X8760000Y-5010000D01*
X8780000Y-3700000D02*
X8810000Y-3730000D01*
X8810000Y-3700000D02*
X8780000Y-3730000D01*
X8800000Y-5240000D02*
X8830000Y-5270000D01*
X8830000Y-5240000D02*
X8800000Y-5270000D01*
X8955000Y-3700000D02*
X8985000Y-3730000D01*
X8985000Y-3700000D02*
X8955000Y-3730000D01*
X8955000Y-4195000D02*
X8985000Y-4225000D01*
X8985000Y-4195000D02*
X8955000Y-4225000D01*
X8955000Y-4340000D02*
X8985000Y-4370000D01*
X8985000Y-4340000D02*
X8955000Y-4370000D01*
X8960000Y-3830000D02*
X8990000Y-3860000D01*
X8990000Y-3830000D02*
X8960000Y-3860000D01*
X8965000Y-4750000D02*
X8995000Y-4780000D01*
X8995000Y-4750000D02*
X8965000Y-4780000D01*
X8970000Y-4940000D02*
X9000000Y-4970000D01*
X9000000Y-4940000D02*
X8970000Y-4970000D01*
X8970000Y-5135000D02*
X9000000Y-5165000D01*
X9000000Y-5135000D02*
X8970000Y-5165000D01*
X7163500Y-5051500D02*
G75*
G02*
X7083500Y-5051500I-40000J0D01*
G01*
X7083500Y-5051500D02*
G75*
G02*
X7163500Y-5051500I40000J0D01*
G01*
X7651500Y-5051500D02*
G75*
G02*
X7571500Y-5051500I-40000J0D01*
G01*
X7571500Y-5051500D02*
G75*
G02*
X7651500Y-5051500I40000J0D01*
G01*
X3390000Y-3125000D02*
X3390000Y-3225000D01*
X3340000Y-3175000D02*
X3440000Y-3175000D01*
X3390000Y-3379000D02*
X3390000Y-3479000D01*
X3340000Y-3429000D02*
X3440000Y-3429000D01*
X3644000Y-3125000D02*
X3644000Y-3225000D01*
X3594000Y-3175000D02*
X3694000Y-3175000D01*
X3644000Y-3379000D02*
X3644000Y-3479000D01*
X3594000Y-3429000D02*
X3694000Y-3429000D01*
X3898000Y-3125000D02*
X3898000Y-3225000D01*
X3848000Y-3175000D02*
X3948000Y-3175000D01*
X3898000Y-3379000D02*
X3898000Y-3479000D01*
X3848000Y-3429000D02*
X3948000Y-3429000D01*
X4152000Y-3125000D02*
X4152000Y-3225000D01*
X4102000Y-3175000D02*
X4202000Y-3175000D01*
X4152000Y-3379000D02*
X4152000Y-3479000D01*
X4102000Y-3429000D02*
X4202000Y-3429000D01*
X4406000Y-3125000D02*
X4406000Y-3225000D01*
X4356000Y-3175000D02*
X4456000Y-3175000D01*
X4406000Y-3379000D02*
X4406000Y-3479000D01*
X4356000Y-3429000D02*
X4456000Y-3429000D01*
X4660000Y-3125000D02*
X4660000Y-3225000D01*
X4610000Y-3175000D02*
X4710000Y-3175000D01*
X4660000Y-3379000D02*
X4660000Y-3479000D01*
X4610000Y-3429000D02*
X4710000Y-3429000D01*
X4914000Y-3125000D02*
X4914000Y-3225000D01*
X4864000Y-3175000D02*
X4964000Y-3175000D01*
X4914000Y-3379000D02*
X4914000Y-3479000D01*
X4864000Y-3429000D02*
X4964000Y-3429000D01*
X5168000Y-3125000D02*
X5168000Y-3225000D01*
X5118000Y-3175000D02*
X5218000Y-3175000D01*
X5168000Y-3379000D02*
X5168000Y-3479000D01*
X5118000Y-3429000D02*
X5218000Y-3429000D01*
X5422000Y-3125000D02*
X5422000Y-3225000D01*
X5372000Y-3175000D02*
X5472000Y-3175000D01*
X5422000Y-3379000D02*
X5422000Y-3479000D01*
X5372000Y-3429000D02*
X5472000Y-3429000D01*
X5676000Y-3125000D02*
X5676000Y-3225000D01*
X5626000Y-3175000D02*
X5726000Y-3175000D01*
X5676000Y-3379000D02*
X5676000Y-3479000D01*
X5626000Y-3429000D02*
X5726000Y-3429000D01*
X5930000Y-3125000D02*
X5930000Y-3225000D01*
X5880000Y-3175000D02*
X5980000Y-3175000D01*
X5930000Y-3379000D02*
X5930000Y-3479000D01*
X5880000Y-3429000D02*
X5980000Y-3429000D01*
X6184000Y-3125000D02*
X6184000Y-3225000D01*
X6134000Y-3175000D02*
X6234000Y-3175000D01*
X6184000Y-3379000D02*
X6184000Y-3479000D01*
X6134000Y-3429000D02*
X6234000Y-3429000D01*
X6438000Y-3125000D02*
X6438000Y-3225000D01*
X6388000Y-3175000D02*
X6488000Y-3175000D01*
X6438000Y-3379000D02*
X6438000Y-3479000D01*
X6388000Y-3429000D02*
X6488000Y-3429000D01*
X6692000Y-3125000D02*
X6692000Y-3225000D01*
X6642000Y-3175000D02*
X6742000Y-3175000D01*
X6692000Y-3379000D02*
X6692000Y-3479000D01*
X6642000Y-3429000D02*
X6742000Y-3429000D01*
X6946000Y-3125000D02*
X6946000Y-3225000D01*
X6896000Y-3175000D02*
X6996000Y-3175000D01*
X6946000Y-3379000D02*
X6946000Y-3479000D01*
X6896000Y-3429000D02*
X6996000Y-3429000D01*
X7200000Y-3125000D02*
X7200000Y-3225000D01*
X7150000Y-3175000D02*
X7250000Y-3175000D01*
X7200000Y-3379000D02*
X7200000Y-3479000D01*
X7150000Y-3429000D02*
X7250000Y-3429000D01*
X7454000Y-3125000D02*
X7454000Y-3225000D01*
X7404000Y-3175000D02*
X7504000Y-3175000D01*
X7454000Y-3379000D02*
X7454000Y-3479000D01*
X7404000Y-3429000D02*
X7504000Y-3429000D01*
X7708000Y-3125000D02*
X7708000Y-3225000D01*
X7658000Y-3175000D02*
X7758000Y-3175000D01*
X7708000Y-3379000D02*
X7708000Y-3479000D01*
X7658000Y-3429000D02*
X7758000Y-3429000D01*
X7962000Y-3125000D02*
X7962000Y-3225000D01*
X7912000Y-3175000D02*
X8012000Y-3175000D01*
X7962000Y-3379000D02*
X7962000Y-3479000D01*
X7912000Y-3429000D02*
X8012000Y-3429000D01*
X8216000Y-3125000D02*
X8216000Y-3225000D01*
X8166000Y-3175000D02*
X8266000Y-3175000D01*
X8216000Y-3379000D02*
X8216000Y-3479000D01*
X8166000Y-3429000D02*
X8266000Y-3429000D01*
D13*
X8411998Y-4129498D02*
X8411998Y-4030502D01*
X8313002Y-4030502D01*
X8313002Y-4129498D01*
X8411998Y-4129498D01*
X8411998Y-4639498D02*
X8411998Y-4540502D01*
X8313002Y-4540502D01*
X8313002Y-4639498D01*
X8411998Y-4639498D01*
X8666998Y-4384498D02*
X8666998Y-4285502D01*
X8568002Y-4285502D01*
X8568002Y-4384498D01*
X8666998Y-4384498D01*
X8921998Y-4129498D02*
X8921998Y-4030502D01*
X8823002Y-4030502D01*
X8823002Y-4129498D01*
X8921998Y-4129498D01*
X8921998Y-4639498D02*
X8921998Y-4540502D01*
X8823002Y-4540502D01*
X8823002Y-4639498D01*
X8921998Y-4639498D01*
D14*
X2900000Y-3435000D02*
X3035000Y-3300000D01*
X2900000Y-3165000D01*
X2765000Y-3300000D01*
X2900000Y-3435000D01*
X2900000Y-5735000D02*
X3035000Y-5600000D01*
X2900000Y-5465000D01*
X2765000Y-5600000D01*
X2900000Y-5735000D01*
X8700000Y-3435000D02*
X8835000Y-3300000D01*
X8700000Y-3165000D01*
X8565000Y-3300000D01*
X8700000Y-3435000D01*
X8700000Y-5735000D02*
X8835000Y-5600000D01*
X8700000Y-5465000D01*
X8565000Y-5600000D01*
X8700000Y-5735000D01*
D11*
X2808277Y-6263984D02*
X2808277Y-6063984D01*
X2808277Y-6063984D02*
X2855896Y-6063984D01*
X2855896Y-6063984D02*
X2884467Y-6073508D01*
X2884467Y-6073508D02*
X2903515Y-6092555D01*
X2903515Y-6092555D02*
X2913039Y-6111603D01*
X2913039Y-6111603D02*
X2922562Y-6149698D01*
X2922562Y-6149698D02*
X2922562Y-6178269D01*
X2922562Y-6178269D02*
X2913039Y-6216365D01*
X2913039Y-6216365D02*
X2903515Y-6235412D01*
X2903515Y-6235412D02*
X2884467Y-6254460D01*
X2884467Y-6254460D02*
X2855896Y-6263984D01*
X2855896Y-6263984D02*
X2808277Y-6263984D01*
X3008277Y-6263984D02*
X3008277Y-6130650D01*
X3008277Y-6168746D02*
X3017801Y-6149698D01*
X3017801Y-6149698D02*
X3027324Y-6140174D01*
X3027324Y-6140174D02*
X3046372Y-6130650D01*
X3046372Y-6130650D02*
X3065420Y-6130650D01*
X3132086Y-6263984D02*
X3132086Y-6130650D01*
X3132086Y-6063984D02*
X3122562Y-6073508D01*
X3122562Y-6073508D02*
X3132086Y-6083031D01*
X3132086Y-6083031D02*
X3141610Y-6073508D01*
X3141610Y-6073508D02*
X3132086Y-6063984D01*
X3132086Y-6063984D02*
X3132086Y-6083031D01*
X3255896Y-6263984D02*
X3236848Y-6254460D01*
X3236848Y-6254460D02*
X3227324Y-6235412D01*
X3227324Y-6235412D02*
X3227324Y-6063984D01*
X3360658Y-6263984D02*
X3341610Y-6254460D01*
X3341610Y-6254460D02*
X3332086Y-6235412D01*
X3332086Y-6235412D02*
X3332086Y-6063984D01*
X3589229Y-6263984D02*
X3589229Y-6063984D01*
X3589229Y-6063984D02*
X3655896Y-6206841D01*
X3655896Y-6206841D02*
X3722562Y-6063984D01*
X3722562Y-6063984D02*
X3722562Y-6263984D01*
X3903515Y-6263984D02*
X3903515Y-6159222D01*
X3903515Y-6159222D02*
X3893991Y-6140174D01*
X3893991Y-6140174D02*
X3874943Y-6130650D01*
X3874943Y-6130650D02*
X3836848Y-6130650D01*
X3836848Y-6130650D02*
X3817801Y-6140174D01*
X3903515Y-6254460D02*
X3884467Y-6263984D01*
X3884467Y-6263984D02*
X3836848Y-6263984D01*
X3836848Y-6263984D02*
X3817801Y-6254460D01*
X3817801Y-6254460D02*
X3808277Y-6235412D01*
X3808277Y-6235412D02*
X3808277Y-6216365D01*
X3808277Y-6216365D02*
X3817801Y-6197317D01*
X3817801Y-6197317D02*
X3836848Y-6187793D01*
X3836848Y-6187793D02*
X3884467Y-6187793D01*
X3884467Y-6187793D02*
X3903515Y-6178269D01*
X3998753Y-6130650D02*
X3998753Y-6330650D01*
X3998753Y-6140174D02*
X4017801Y-6130650D01*
X4017801Y-6130650D02*
X4055896Y-6130650D01*
X4055896Y-6130650D02*
X4074943Y-6140174D01*
X4074943Y-6140174D02*
X4084467Y-6149698D01*
X4084467Y-6149698D02*
X4093991Y-6168746D01*
X4093991Y-6168746D02*
X4093991Y-6225888D01*
X4093991Y-6225888D02*
X4084467Y-6244936D01*
X4084467Y-6244936D02*
X4074943Y-6254460D01*
X4074943Y-6254460D02*
X4055896Y-6263984D01*
X4055896Y-6263984D02*
X4017801Y-6263984D01*
X4017801Y-6263984D02*
X3998753Y-6254460D01*
X4179705Y-6244936D02*
X4189229Y-6254460D01*
X4189229Y-6254460D02*
X4179705Y-6263984D01*
X4179705Y-6263984D02*
X4170182Y-6254460D01*
X4170182Y-6254460D02*
X4179705Y-6244936D01*
X4179705Y-6244936D02*
X4179705Y-6263984D01*
X4179705Y-6140174D02*
X4189229Y-6149698D01*
X4189229Y-6149698D02*
X4179705Y-6159222D01*
X4179705Y-6159222D02*
X4170182Y-6149698D01*
X4170182Y-6149698D02*
X4179705Y-6140174D01*
X4179705Y-6140174D02*
X4179705Y-6159222D01*
D12*
X2517500Y-6577500D02*
X2547500Y-6607500D01*
X2547500Y-6577500D02*
X2517500Y-6607500D01*
D11*
X2846372Y-6483984D02*
X2865420Y-6483984D01*
X2865420Y-6483984D02*
X2884467Y-6493508D01*
X2884467Y-6493508D02*
X2893991Y-6503031D01*
X2893991Y-6503031D02*
X2903515Y-6522079D01*
X2903515Y-6522079D02*
X2913039Y-6560174D01*
X2913039Y-6560174D02*
X2913039Y-6607793D01*
X2913039Y-6607793D02*
X2903515Y-6645888D01*
X2903515Y-6645888D02*
X2893991Y-6664936D01*
X2893991Y-6664936D02*
X2884467Y-6674460D01*
X2884467Y-6674460D02*
X2865420Y-6683984D01*
X2865420Y-6683984D02*
X2846372Y-6683984D01*
X2846372Y-6683984D02*
X2827324Y-6674460D01*
X2827324Y-6674460D02*
X2817801Y-6664936D01*
X2817801Y-6664936D02*
X2808277Y-6645888D01*
X2808277Y-6645888D02*
X2798753Y-6607793D01*
X2798753Y-6607793D02*
X2798753Y-6560174D01*
X2798753Y-6560174D02*
X2808277Y-6522079D01*
X2808277Y-6522079D02*
X2817801Y-6503031D01*
X2817801Y-6503031D02*
X2827324Y-6493508D01*
X2827324Y-6493508D02*
X2846372Y-6483984D01*
X2998753Y-6664936D02*
X3008277Y-6674460D01*
X3008277Y-6674460D02*
X2998753Y-6683984D01*
X2998753Y-6683984D02*
X2989229Y-6674460D01*
X2989229Y-6674460D02*
X2998753Y-6664936D01*
X2998753Y-6664936D02*
X2998753Y-6683984D01*
X3074943Y-6483984D02*
X3198753Y-6483984D01*
X3198753Y-6483984D02*
X3132086Y-6560174D01*
X3132086Y-6560174D02*
X3160658Y-6560174D01*
X3160658Y-6560174D02*
X3179705Y-6569698D01*
X3179705Y-6569698D02*
X3189229Y-6579222D01*
X3189229Y-6579222D02*
X3198753Y-6598269D01*
X3198753Y-6598269D02*
X3198753Y-6645888D01*
X3198753Y-6645888D02*
X3189229Y-6664936D01*
X3189229Y-6664936D02*
X3179705Y-6674460D01*
X3179705Y-6674460D02*
X3160658Y-6683984D01*
X3160658Y-6683984D02*
X3103515Y-6683984D01*
X3103515Y-6683984D02*
X3084467Y-6674460D01*
X3084467Y-6674460D02*
X3074943Y-6664936D01*
X3322562Y-6483984D02*
X3341610Y-6483984D01*
X3341610Y-6483984D02*
X3360658Y-6493508D01*
X3360658Y-6493508D02*
X3370182Y-6503031D01*
X3370182Y-6503031D02*
X3379705Y-6522079D01*
X3379705Y-6522079D02*
X3389229Y-6560174D01*
X3389229Y-6560174D02*
X3389229Y-6607793D01*
X3389229Y-6607793D02*
X3379705Y-6645888D01*
X3379705Y-6645888D02*
X3370182Y-6664936D01*
X3370182Y-6664936D02*
X3360658Y-6674460D01*
X3360658Y-6674460D02*
X3341610Y-6683984D01*
X3341610Y-6683984D02*
X3322562Y-6683984D01*
X3322562Y-6683984D02*
X3303515Y-6674460D01*
X3303515Y-6674460D02*
X3293991Y-6664936D01*
X3293991Y-6664936D02*
X3284467Y-6645888D01*
X3284467Y-6645888D02*
X3274943Y-6607793D01*
X3274943Y-6607793D02*
X3274943Y-6560174D01*
X3274943Y-6560174D02*
X3284467Y-6522079D01*
X3284467Y-6522079D02*
X3293991Y-6503031D01*
X3293991Y-6503031D02*
X3303515Y-6493508D01*
X3303515Y-6493508D02*
X3322562Y-6483984D01*
X3513039Y-6483984D02*
X3532086Y-6483984D01*
X3532086Y-6483984D02*
X3551134Y-6493508D01*
X3551134Y-6493508D02*
X3560658Y-6503031D01*
X3560658Y-6503031D02*
X3570182Y-6522079D01*
X3570182Y-6522079D02*
X3579705Y-6560174D01*
X3579705Y-6560174D02*
X3579705Y-6607793D01*
X3579705Y-6607793D02*
X3570182Y-6645888D01*
X3570182Y-6645888D02*
X3560658Y-6664936D01*
X3560658Y-6664936D02*
X3551134Y-6674460D01*
X3551134Y-6674460D02*
X3532086Y-6683984D01*
X3532086Y-6683984D02*
X3513039Y-6683984D01*
X3513039Y-6683984D02*
X3493991Y-6674460D01*
X3493991Y-6674460D02*
X3484467Y-6664936D01*
X3484467Y-6664936D02*
X3474943Y-6645888D01*
X3474943Y-6645888D02*
X3465420Y-6607793D01*
X3465420Y-6607793D02*
X3465420Y-6560174D01*
X3465420Y-6560174D02*
X3474943Y-6522079D01*
X3474943Y-6522079D02*
X3484467Y-6503031D01*
X3484467Y-6503031D02*
X3493991Y-6493508D01*
X3493991Y-6493508D02*
X3513039Y-6483984D01*
X3665420Y-6683984D02*
X3665420Y-6550650D01*
X3665420Y-6569698D02*
X3674943Y-6560174D01*
X3674943Y-6560174D02*
X3693991Y-6550650D01*
X3693991Y-6550650D02*
X3722563Y-6550650D01*
X3722563Y-6550650D02*
X3741610Y-6560174D01*
X3741610Y-6560174D02*
X3751134Y-6579222D01*
X3751134Y-6579222D02*
X3751134Y-6683984D01*
X3751134Y-6579222D02*
X3760658Y-6560174D01*
X3760658Y-6560174D02*
X3779705Y-6550650D01*
X3779705Y-6550650D02*
X3808277Y-6550650D01*
X3808277Y-6550650D02*
X3827324Y-6560174D01*
X3827324Y-6560174D02*
X3836848Y-6579222D01*
X3836848Y-6579222D02*
X3836848Y-6683984D01*
X3932086Y-6683984D02*
X3932086Y-6550650D01*
X3932086Y-6569698D02*
X3941610Y-6560174D01*
X3941610Y-6560174D02*
X3960658Y-6550650D01*
X3960658Y-6550650D02*
X3989229Y-6550650D01*
X3989229Y-6550650D02*
X4008277Y-6560174D01*
X4008277Y-6560174D02*
X4017801Y-6579222D01*
X4017801Y-6579222D02*
X4017801Y-6683984D01*
X4017801Y-6579222D02*
X4027324Y-6560174D01*
X4027324Y-6560174D02*
X4046372Y-6550650D01*
X4046372Y-6550650D02*
X4074943Y-6550650D01*
X4074943Y-6550650D02*
X4093991Y-6560174D01*
X4093991Y-6560174D02*
X4103515Y-6579222D01*
X4103515Y-6579222D02*
X4103515Y-6683984D01*
X4493991Y-6474460D02*
X4322563Y-6731603D01*
X4751134Y-6483984D02*
X4770182Y-6483984D01*
X4770182Y-6483984D02*
X4789229Y-6493508D01*
X4789229Y-6493508D02*
X4798753Y-6503031D01*
X4798753Y-6503031D02*
X4808277Y-6522079D01*
X4808277Y-6522079D02*
X4817801Y-6560174D01*
X4817801Y-6560174D02*
X4817801Y-6607793D01*
X4817801Y-6607793D02*
X4808277Y-6645888D01*
X4808277Y-6645888D02*
X4798753Y-6664936D01*
X4798753Y-6664936D02*
X4789229Y-6674460D01*
X4789229Y-6674460D02*
X4770182Y-6683984D01*
X4770182Y-6683984D02*
X4751134Y-6683984D01*
X4751134Y-6683984D02*
X4732087Y-6674460D01*
X4732087Y-6674460D02*
X4722563Y-6664936D01*
X4722563Y-6664936D02*
X4713039Y-6645888D01*
X4713039Y-6645888D02*
X4703515Y-6607793D01*
X4703515Y-6607793D02*
X4703515Y-6560174D01*
X4703515Y-6560174D02*
X4713039Y-6522079D01*
X4713039Y-6522079D02*
X4722563Y-6503031D01*
X4722563Y-6503031D02*
X4732087Y-6493508D01*
X4732087Y-6493508D02*
X4751134Y-6483984D01*
X4903515Y-6664936D02*
X4913039Y-6674460D01*
X4913039Y-6674460D02*
X4903515Y-6683984D01*
X4903515Y-6683984D02*
X4893991Y-6674460D01*
X4893991Y-6674460D02*
X4903515Y-6664936D01*
X4903515Y-6664936D02*
X4903515Y-6683984D01*
X5036848Y-6483984D02*
X5055896Y-6483984D01*
X5055896Y-6483984D02*
X5074944Y-6493508D01*
X5074944Y-6493508D02*
X5084468Y-6503031D01*
X5084468Y-6503031D02*
X5093991Y-6522079D01*
X5093991Y-6522079D02*
X5103515Y-6560174D01*
X5103515Y-6560174D02*
X5103515Y-6607793D01*
X5103515Y-6607793D02*
X5093991Y-6645888D01*
X5093991Y-6645888D02*
X5084468Y-6664936D01*
X5084468Y-6664936D02*
X5074944Y-6674460D01*
X5074944Y-6674460D02*
X5055896Y-6683984D01*
X5055896Y-6683984D02*
X5036848Y-6683984D01*
X5036848Y-6683984D02*
X5017801Y-6674460D01*
X5017801Y-6674460D02*
X5008277Y-6664936D01*
X5008277Y-6664936D02*
X4998753Y-6645888D01*
X4998753Y-6645888D02*
X4989229Y-6607793D01*
X4989229Y-6607793D02*
X4989229Y-6560174D01*
X4989229Y-6560174D02*
X4998753Y-6522079D01*
X4998753Y-6522079D02*
X5008277Y-6503031D01*
X5008277Y-6503031D02*
X5017801Y-6493508D01*
X5017801Y-6493508D02*
X5036848Y-6483984D01*
X5293991Y-6683984D02*
X5179706Y-6683984D01*
X5236848Y-6683984D02*
X5236848Y-6483984D01*
X5236848Y-6483984D02*
X5217801Y-6512555D01*
X5217801Y-6512555D02*
X5198753Y-6531603D01*
X5198753Y-6531603D02*
X5179706Y-6541127D01*
X5484468Y-6683984D02*
X5370182Y-6683984D01*
X5427325Y-6683984D02*
X5427325Y-6483984D01*
X5427325Y-6483984D02*
X5408277Y-6512555D01*
X5408277Y-6512555D02*
X5389229Y-6531603D01*
X5389229Y-6531603D02*
X5370182Y-6541127D01*
X5598753Y-6569698D02*
X5579706Y-6560174D01*
X5579706Y-6560174D02*
X5570182Y-6550650D01*
X5570182Y-6550650D02*
X5560658Y-6531603D01*
X5560658Y-6531603D02*
X5560658Y-6522079D01*
X5560658Y-6522079D02*
X5570182Y-6503031D01*
X5570182Y-6503031D02*
X5579706Y-6493508D01*
X5579706Y-6493508D02*
X5598753Y-6483984D01*
X5598753Y-6483984D02*
X5636848Y-6483984D01*
X5636848Y-6483984D02*
X5655896Y-6493508D01*
X5655896Y-6493508D02*
X5665420Y-6503031D01*
X5665420Y-6503031D02*
X5674944Y-6522079D01*
X5674944Y-6522079D02*
X5674944Y-6531603D01*
X5674944Y-6531603D02*
X5665420Y-6550650D01*
X5665420Y-6550650D02*
X5655896Y-6560174D01*
X5655896Y-6560174D02*
X5636848Y-6569698D01*
X5636848Y-6569698D02*
X5598753Y-6569698D01*
X5598753Y-6569698D02*
X5579706Y-6579222D01*
X5579706Y-6579222D02*
X5570182Y-6588746D01*
X5570182Y-6588746D02*
X5560658Y-6607793D01*
X5560658Y-6607793D02*
X5560658Y-6645888D01*
X5560658Y-6645888D02*
X5570182Y-6664936D01*
X5570182Y-6664936D02*
X5579706Y-6674460D01*
X5579706Y-6674460D02*
X5598753Y-6683984D01*
X5598753Y-6683984D02*
X5636848Y-6683984D01*
X5636848Y-6683984D02*
X5655896Y-6674460D01*
X5655896Y-6674460D02*
X5665420Y-6664936D01*
X5665420Y-6664936D02*
X5674944Y-6645888D01*
X5674944Y-6645888D02*
X5674944Y-6607793D01*
X5674944Y-6607793D02*
X5665420Y-6588746D01*
X5665420Y-6588746D02*
X5655896Y-6579222D01*
X5655896Y-6579222D02*
X5636848Y-6569698D01*
X5751134Y-6483984D02*
X5751134Y-6522079D01*
X5827325Y-6483984D02*
X5827325Y-6522079D01*
X6122563Y-6760174D02*
X6113039Y-6750650D01*
X6113039Y-6750650D02*
X6093991Y-6722079D01*
X6093991Y-6722079D02*
X6084468Y-6703031D01*
X6084468Y-6703031D02*
X6074944Y-6674460D01*
X6074944Y-6674460D02*
X6065420Y-6626841D01*
X6065420Y-6626841D02*
X6065420Y-6588746D01*
X6065420Y-6588746D02*
X6074944Y-6541127D01*
X6074944Y-6541127D02*
X6084468Y-6512555D01*
X6084468Y-6512555D02*
X6093991Y-6493508D01*
X6093991Y-6493508D02*
X6113039Y-6464936D01*
X6113039Y-6464936D02*
X6122563Y-6455412D01*
X6179706Y-6483984D02*
X6313039Y-6483984D01*
X6313039Y-6483984D02*
X6227325Y-6683984D01*
X6398753Y-6683984D02*
X6436848Y-6683984D01*
X6436848Y-6683984D02*
X6455896Y-6674460D01*
X6455896Y-6674460D02*
X6465420Y-6664936D01*
X6465420Y-6664936D02*
X6484468Y-6636365D01*
X6484468Y-6636365D02*
X6493991Y-6598269D01*
X6493991Y-6598269D02*
X6493991Y-6522079D01*
X6493991Y-6522079D02*
X6484468Y-6503031D01*
X6484468Y-6503031D02*
X6474944Y-6493508D01*
X6474944Y-6493508D02*
X6455896Y-6483984D01*
X6455896Y-6483984D02*
X6417801Y-6483984D01*
X6417801Y-6483984D02*
X6398753Y-6493508D01*
X6398753Y-6493508D02*
X6389229Y-6503031D01*
X6389229Y-6503031D02*
X6379706Y-6522079D01*
X6379706Y-6522079D02*
X6379706Y-6569698D01*
X6379706Y-6569698D02*
X6389229Y-6588746D01*
X6389229Y-6588746D02*
X6398753Y-6598269D01*
X6398753Y-6598269D02*
X6417801Y-6607793D01*
X6417801Y-6607793D02*
X6455896Y-6607793D01*
X6455896Y-6607793D02*
X6474944Y-6598269D01*
X6474944Y-6598269D02*
X6484468Y-6588746D01*
X6484468Y-6588746D02*
X6493991Y-6569698D01*
X6732087Y-6683984D02*
X6732087Y-6483984D01*
X6817801Y-6683984D02*
X6817801Y-6579222D01*
X6817801Y-6579222D02*
X6808277Y-6560174D01*
X6808277Y-6560174D02*
X6789230Y-6550650D01*
X6789230Y-6550650D02*
X6760658Y-6550650D01*
X6760658Y-6550650D02*
X6741610Y-6560174D01*
X6741610Y-6560174D02*
X6732087Y-6569698D01*
X6941610Y-6683984D02*
X6922563Y-6674460D01*
X6922563Y-6674460D02*
X6913039Y-6664936D01*
X6913039Y-6664936D02*
X6903515Y-6645888D01*
X6903515Y-6645888D02*
X6903515Y-6588746D01*
X6903515Y-6588746D02*
X6913039Y-6569698D01*
X6913039Y-6569698D02*
X6922563Y-6560174D01*
X6922563Y-6560174D02*
X6941610Y-6550650D01*
X6941610Y-6550650D02*
X6970182Y-6550650D01*
X6970182Y-6550650D02*
X6989230Y-6560174D01*
X6989230Y-6560174D02*
X6998753Y-6569698D01*
X6998753Y-6569698D02*
X7008277Y-6588746D01*
X7008277Y-6588746D02*
X7008277Y-6645888D01*
X7008277Y-6645888D02*
X6998753Y-6664936D01*
X6998753Y-6664936D02*
X6989230Y-6674460D01*
X6989230Y-6674460D02*
X6970182Y-6683984D01*
X6970182Y-6683984D02*
X6941610Y-6683984D01*
X7122563Y-6683984D02*
X7103515Y-6674460D01*
X7103515Y-6674460D02*
X7093991Y-6655412D01*
X7093991Y-6655412D02*
X7093991Y-6483984D01*
X7274944Y-6674460D02*
X7255896Y-6683984D01*
X7255896Y-6683984D02*
X7217801Y-6683984D01*
X7217801Y-6683984D02*
X7198753Y-6674460D01*
X7198753Y-6674460D02*
X7189230Y-6655412D01*
X7189230Y-6655412D02*
X7189230Y-6579222D01*
X7189230Y-6579222D02*
X7198753Y-6560174D01*
X7198753Y-6560174D02*
X7217801Y-6550650D01*
X7217801Y-6550650D02*
X7255896Y-6550650D01*
X7255896Y-6550650D02*
X7274944Y-6560174D01*
X7274944Y-6560174D02*
X7284468Y-6579222D01*
X7284468Y-6579222D02*
X7284468Y-6598269D01*
X7284468Y-6598269D02*
X7189230Y-6617317D01*
X7360658Y-6674460D02*
X7379706Y-6683984D01*
X7379706Y-6683984D02*
X7417801Y-6683984D01*
X7417801Y-6683984D02*
X7436849Y-6674460D01*
X7436849Y-6674460D02*
X7446372Y-6655412D01*
X7446372Y-6655412D02*
X7446372Y-6645888D01*
X7446372Y-6645888D02*
X7436849Y-6626841D01*
X7436849Y-6626841D02*
X7417801Y-6617317D01*
X7417801Y-6617317D02*
X7389230Y-6617317D01*
X7389230Y-6617317D02*
X7370182Y-6607793D01*
X7370182Y-6607793D02*
X7360658Y-6588746D01*
X7360658Y-6588746D02*
X7360658Y-6579222D01*
X7360658Y-6579222D02*
X7370182Y-6560174D01*
X7370182Y-6560174D02*
X7389230Y-6550650D01*
X7389230Y-6550650D02*
X7417801Y-6550650D01*
X7417801Y-6550650D02*
X7436849Y-6560174D01*
X7513039Y-6760174D02*
X7522563Y-6750650D01*
X7522563Y-6750650D02*
X7541611Y-6722079D01*
X7541611Y-6722079D02*
X7551134Y-6703031D01*
X7551134Y-6703031D02*
X7560658Y-6674460D01*
X7560658Y-6674460D02*
X7570182Y-6626841D01*
X7570182Y-6626841D02*
X7570182Y-6588746D01*
X7570182Y-6588746D02*
X7560658Y-6541127D01*
X7560658Y-6541127D02*
X7551134Y-6512555D01*
X7551134Y-6512555D02*
X7541611Y-6493508D01*
X7541611Y-6493508D02*
X7522563Y-6464936D01*
X7522563Y-6464936D02*
X7513039Y-6455412D01*
D12*
X2547500Y-6856500D02*
G75*
G02*
X2467500Y-6856500I-40000J0D01*
G01*
X2467500Y-6856500D02*
G75*
G02*
X2547500Y-6856500I40000J0D01*
G01*
D11*
X2846372Y-6747984D02*
X2865420Y-6747984D01*
X2865420Y-6747984D02*
X2884467Y-6757508D01*
X2884467Y-6757508D02*
X2893991Y-6767031D01*
X2893991Y-6767031D02*
X2903515Y-6786079D01*
X2903515Y-6786079D02*
X2913039Y-6824174D01*
X2913039Y-6824174D02*
X2913039Y-6871793D01*
X2913039Y-6871793D02*
X2903515Y-6909888D01*
X2903515Y-6909888D02*
X2893991Y-6928936D01*
X2893991Y-6928936D02*
X2884467Y-6938460D01*
X2884467Y-6938460D02*
X2865420Y-6947984D01*
X2865420Y-6947984D02*
X2846372Y-6947984D01*
X2846372Y-6947984D02*
X2827324Y-6938460D01*
X2827324Y-6938460D02*
X2817801Y-6928936D01*
X2817801Y-6928936D02*
X2808277Y-6909888D01*
X2808277Y-6909888D02*
X2798753Y-6871793D01*
X2798753Y-6871793D02*
X2798753Y-6824174D01*
X2798753Y-6824174D02*
X2808277Y-6786079D01*
X2808277Y-6786079D02*
X2817801Y-6767031D01*
X2817801Y-6767031D02*
X2827324Y-6757508D01*
X2827324Y-6757508D02*
X2846372Y-6747984D01*
X2998753Y-6928936D02*
X3008277Y-6938460D01*
X3008277Y-6938460D02*
X2998753Y-6947984D01*
X2998753Y-6947984D02*
X2989229Y-6938460D01*
X2989229Y-6938460D02*
X2998753Y-6928936D01*
X2998753Y-6928936D02*
X2998753Y-6947984D01*
X3122562Y-6833698D02*
X3103515Y-6824174D01*
X3103515Y-6824174D02*
X3093991Y-6814650D01*
X3093991Y-6814650D02*
X3084467Y-6795603D01*
X3084467Y-6795603D02*
X3084467Y-6786079D01*
X3084467Y-6786079D02*
X3093991Y-6767031D01*
X3093991Y-6767031D02*
X3103515Y-6757508D01*
X3103515Y-6757508D02*
X3122562Y-6747984D01*
X3122562Y-6747984D02*
X3160658Y-6747984D01*
X3160658Y-6747984D02*
X3179705Y-6757508D01*
X3179705Y-6757508D02*
X3189229Y-6767031D01*
X3189229Y-6767031D02*
X3198753Y-6786079D01*
X3198753Y-6786079D02*
X3198753Y-6795603D01*
X3198753Y-6795603D02*
X3189229Y-6814650D01*
X3189229Y-6814650D02*
X3179705Y-6824174D01*
X3179705Y-6824174D02*
X3160658Y-6833698D01*
X3160658Y-6833698D02*
X3122562Y-6833698D01*
X3122562Y-6833698D02*
X3103515Y-6843222D01*
X3103515Y-6843222D02*
X3093991Y-6852746D01*
X3093991Y-6852746D02*
X3084467Y-6871793D01*
X3084467Y-6871793D02*
X3084467Y-6909888D01*
X3084467Y-6909888D02*
X3093991Y-6928936D01*
X3093991Y-6928936D02*
X3103515Y-6938460D01*
X3103515Y-6938460D02*
X3122562Y-6947984D01*
X3122562Y-6947984D02*
X3160658Y-6947984D01*
X3160658Y-6947984D02*
X3179705Y-6938460D01*
X3179705Y-6938460D02*
X3189229Y-6928936D01*
X3189229Y-6928936D02*
X3198753Y-6909888D01*
X3198753Y-6909888D02*
X3198753Y-6871793D01*
X3198753Y-6871793D02*
X3189229Y-6852746D01*
X3189229Y-6852746D02*
X3179705Y-6843222D01*
X3179705Y-6843222D02*
X3160658Y-6833698D01*
X3322562Y-6747984D02*
X3341610Y-6747984D01*
X3341610Y-6747984D02*
X3360658Y-6757508D01*
X3360658Y-6757508D02*
X3370182Y-6767031D01*
X3370182Y-6767031D02*
X3379705Y-6786079D01*
X3379705Y-6786079D02*
X3389229Y-6824174D01*
X3389229Y-6824174D02*
X3389229Y-6871793D01*
X3389229Y-6871793D02*
X3379705Y-6909888D01*
X3379705Y-6909888D02*
X3370182Y-6928936D01*
X3370182Y-6928936D02*
X3360658Y-6938460D01*
X3360658Y-6938460D02*
X3341610Y-6947984D01*
X3341610Y-6947984D02*
X3322562Y-6947984D01*
X3322562Y-6947984D02*
X3303515Y-6938460D01*
X3303515Y-6938460D02*
X3293991Y-6928936D01*
X3293991Y-6928936D02*
X3284467Y-6909888D01*
X3284467Y-6909888D02*
X3274943Y-6871793D01*
X3274943Y-6871793D02*
X3274943Y-6824174D01*
X3274943Y-6824174D02*
X3284467Y-6786079D01*
X3284467Y-6786079D02*
X3293991Y-6767031D01*
X3293991Y-6767031D02*
X3303515Y-6757508D01*
X3303515Y-6757508D02*
X3322562Y-6747984D01*
X3513039Y-6747984D02*
X3532086Y-6747984D01*
X3532086Y-6747984D02*
X3551134Y-6757508D01*
X3551134Y-6757508D02*
X3560658Y-6767031D01*
X3560658Y-6767031D02*
X3570182Y-6786079D01*
X3570182Y-6786079D02*
X3579705Y-6824174D01*
X3579705Y-6824174D02*
X3579705Y-6871793D01*
X3579705Y-6871793D02*
X3570182Y-6909888D01*
X3570182Y-6909888D02*
X3560658Y-6928936D01*
X3560658Y-6928936D02*
X3551134Y-6938460D01*
X3551134Y-6938460D02*
X3532086Y-6947984D01*
X3532086Y-6947984D02*
X3513039Y-6947984D01*
X3513039Y-6947984D02*
X3493991Y-6938460D01*
X3493991Y-6938460D02*
X3484467Y-6928936D01*
X3484467Y-6928936D02*
X3474943Y-6909888D01*
X3474943Y-6909888D02*
X3465420Y-6871793D01*
X3465420Y-6871793D02*
X3465420Y-6824174D01*
X3465420Y-6824174D02*
X3474943Y-6786079D01*
X3474943Y-6786079D02*
X3484467Y-6767031D01*
X3484467Y-6767031D02*
X3493991Y-6757508D01*
X3493991Y-6757508D02*
X3513039Y-6747984D01*
X3665420Y-6947984D02*
X3665420Y-6814650D01*
X3665420Y-6833698D02*
X3674943Y-6824174D01*
X3674943Y-6824174D02*
X3693991Y-6814650D01*
X3693991Y-6814650D02*
X3722563Y-6814650D01*
X3722563Y-6814650D02*
X3741610Y-6824174D01*
X3741610Y-6824174D02*
X3751134Y-6843222D01*
X3751134Y-6843222D02*
X3751134Y-6947984D01*
X3751134Y-6843222D02*
X3760658Y-6824174D01*
X3760658Y-6824174D02*
X3779705Y-6814650D01*
X3779705Y-6814650D02*
X3808277Y-6814650D01*
X3808277Y-6814650D02*
X3827324Y-6824174D01*
X3827324Y-6824174D02*
X3836848Y-6843222D01*
X3836848Y-6843222D02*
X3836848Y-6947984D01*
X3932086Y-6947984D02*
X3932086Y-6814650D01*
X3932086Y-6833698D02*
X3941610Y-6824174D01*
X3941610Y-6824174D02*
X3960658Y-6814650D01*
X3960658Y-6814650D02*
X3989229Y-6814650D01*
X3989229Y-6814650D02*
X4008277Y-6824174D01*
X4008277Y-6824174D02*
X4017801Y-6843222D01*
X4017801Y-6843222D02*
X4017801Y-6947984D01*
X4017801Y-6843222D02*
X4027324Y-6824174D01*
X4027324Y-6824174D02*
X4046372Y-6814650D01*
X4046372Y-6814650D02*
X4074943Y-6814650D01*
X4074943Y-6814650D02*
X4093991Y-6824174D01*
X4093991Y-6824174D02*
X4103515Y-6843222D01*
X4103515Y-6843222D02*
X4103515Y-6947984D01*
X4493991Y-6738460D02*
X4322563Y-6995603D01*
X4751134Y-6747984D02*
X4770182Y-6747984D01*
X4770182Y-6747984D02*
X4789229Y-6757508D01*
X4789229Y-6757508D02*
X4798753Y-6767031D01*
X4798753Y-6767031D02*
X4808277Y-6786079D01*
X4808277Y-6786079D02*
X4817801Y-6824174D01*
X4817801Y-6824174D02*
X4817801Y-6871793D01*
X4817801Y-6871793D02*
X4808277Y-6909888D01*
X4808277Y-6909888D02*
X4798753Y-6928936D01*
X4798753Y-6928936D02*
X4789229Y-6938460D01*
X4789229Y-6938460D02*
X4770182Y-6947984D01*
X4770182Y-6947984D02*
X4751134Y-6947984D01*
X4751134Y-6947984D02*
X4732087Y-6938460D01*
X4732087Y-6938460D02*
X4722563Y-6928936D01*
X4722563Y-6928936D02*
X4713039Y-6909888D01*
X4713039Y-6909888D02*
X4703515Y-6871793D01*
X4703515Y-6871793D02*
X4703515Y-6824174D01*
X4703515Y-6824174D02*
X4713039Y-6786079D01*
X4713039Y-6786079D02*
X4722563Y-6767031D01*
X4722563Y-6767031D02*
X4732087Y-6757508D01*
X4732087Y-6757508D02*
X4751134Y-6747984D01*
X4903515Y-6928936D02*
X4913039Y-6938460D01*
X4913039Y-6938460D02*
X4903515Y-6947984D01*
X4903515Y-6947984D02*
X4893991Y-6938460D01*
X4893991Y-6938460D02*
X4903515Y-6928936D01*
X4903515Y-6928936D02*
X4903515Y-6947984D01*
X5036848Y-6747984D02*
X5055896Y-6747984D01*
X5055896Y-6747984D02*
X5074944Y-6757508D01*
X5074944Y-6757508D02*
X5084468Y-6767031D01*
X5084468Y-6767031D02*
X5093991Y-6786079D01*
X5093991Y-6786079D02*
X5103515Y-6824174D01*
X5103515Y-6824174D02*
X5103515Y-6871793D01*
X5103515Y-6871793D02*
X5093991Y-6909888D01*
X5093991Y-6909888D02*
X5084468Y-6928936D01*
X5084468Y-6928936D02*
X5074944Y-6938460D01*
X5074944Y-6938460D02*
X5055896Y-6947984D01*
X5055896Y-6947984D02*
X5036848Y-6947984D01*
X5036848Y-6947984D02*
X5017801Y-6938460D01*
X5017801Y-6938460D02*
X5008277Y-6928936D01*
X5008277Y-6928936D02*
X4998753Y-6909888D01*
X4998753Y-6909888D02*
X4989229Y-6871793D01*
X4989229Y-6871793D02*
X4989229Y-6824174D01*
X4989229Y-6824174D02*
X4998753Y-6786079D01*
X4998753Y-6786079D02*
X5008277Y-6767031D01*
X5008277Y-6767031D02*
X5017801Y-6757508D01*
X5017801Y-6757508D02*
X5036848Y-6747984D01*
X5170182Y-6747984D02*
X5293991Y-6747984D01*
X5293991Y-6747984D02*
X5227325Y-6824174D01*
X5227325Y-6824174D02*
X5255896Y-6824174D01*
X5255896Y-6824174D02*
X5274944Y-6833698D01*
X5274944Y-6833698D02*
X5284468Y-6843222D01*
X5284468Y-6843222D02*
X5293991Y-6862269D01*
X5293991Y-6862269D02*
X5293991Y-6909888D01*
X5293991Y-6909888D02*
X5284468Y-6928936D01*
X5284468Y-6928936D02*
X5274944Y-6938460D01*
X5274944Y-6938460D02*
X5255896Y-6947984D01*
X5255896Y-6947984D02*
X5198753Y-6947984D01*
X5198753Y-6947984D02*
X5179706Y-6938460D01*
X5179706Y-6938460D02*
X5170182Y-6928936D01*
X5484468Y-6947984D02*
X5370182Y-6947984D01*
X5427325Y-6947984D02*
X5427325Y-6747984D01*
X5427325Y-6747984D02*
X5408277Y-6776555D01*
X5408277Y-6776555D02*
X5389229Y-6795603D01*
X5389229Y-6795603D02*
X5370182Y-6805127D01*
X5665420Y-6747984D02*
X5570182Y-6747984D01*
X5570182Y-6747984D02*
X5560658Y-6843222D01*
X5560658Y-6843222D02*
X5570182Y-6833698D01*
X5570182Y-6833698D02*
X5589229Y-6824174D01*
X5589229Y-6824174D02*
X5636848Y-6824174D01*
X5636848Y-6824174D02*
X5655896Y-6833698D01*
X5655896Y-6833698D02*
X5665420Y-6843222D01*
X5665420Y-6843222D02*
X5674944Y-6862269D01*
X5674944Y-6862269D02*
X5674944Y-6909888D01*
X5674944Y-6909888D02*
X5665420Y-6928936D01*
X5665420Y-6928936D02*
X5655896Y-6938460D01*
X5655896Y-6938460D02*
X5636848Y-6947984D01*
X5636848Y-6947984D02*
X5589229Y-6947984D01*
X5589229Y-6947984D02*
X5570182Y-6938460D01*
X5570182Y-6938460D02*
X5560658Y-6928936D01*
X5751134Y-6747984D02*
X5751134Y-6786079D01*
X5827325Y-6747984D02*
X5827325Y-6786079D01*
X6122563Y-7024174D02*
X6113039Y-7014650D01*
X6113039Y-7014650D02*
X6093991Y-6986079D01*
X6093991Y-6986079D02*
X6084468Y-6967031D01*
X6084468Y-6967031D02*
X6074944Y-6938460D01*
X6074944Y-6938460D02*
X6065420Y-6890841D01*
X6065420Y-6890841D02*
X6065420Y-6852746D01*
X6065420Y-6852746D02*
X6074944Y-6805127D01*
X6074944Y-6805127D02*
X6084468Y-6776555D01*
X6084468Y-6776555D02*
X6093991Y-6757508D01*
X6093991Y-6757508D02*
X6113039Y-6728936D01*
X6113039Y-6728936D02*
X6122563Y-6719412D01*
X6189229Y-6767031D02*
X6198753Y-6757508D01*
X6198753Y-6757508D02*
X6217801Y-6747984D01*
X6217801Y-6747984D02*
X6265420Y-6747984D01*
X6265420Y-6747984D02*
X6284468Y-6757508D01*
X6284468Y-6757508D02*
X6293991Y-6767031D01*
X6293991Y-6767031D02*
X6303515Y-6786079D01*
X6303515Y-6786079D02*
X6303515Y-6805127D01*
X6303515Y-6805127D02*
X6293991Y-6833698D01*
X6293991Y-6833698D02*
X6179706Y-6947984D01*
X6179706Y-6947984D02*
X6303515Y-6947984D01*
X6541610Y-6947984D02*
X6541610Y-6747984D01*
X6627325Y-6947984D02*
X6627325Y-6843222D01*
X6627325Y-6843222D02*
X6617801Y-6824174D01*
X6617801Y-6824174D02*
X6598753Y-6814650D01*
X6598753Y-6814650D02*
X6570182Y-6814650D01*
X6570182Y-6814650D02*
X6551134Y-6824174D01*
X6551134Y-6824174D02*
X6541610Y-6833698D01*
X6751134Y-6947984D02*
X6732087Y-6938460D01*
X6732087Y-6938460D02*
X6722563Y-6928936D01*
X6722563Y-6928936D02*
X6713039Y-6909888D01*
X6713039Y-6909888D02*
X6713039Y-6852746D01*
X6713039Y-6852746D02*
X6722563Y-6833698D01*
X6722563Y-6833698D02*
X6732087Y-6824174D01*
X6732087Y-6824174D02*
X6751134Y-6814650D01*
X6751134Y-6814650D02*
X6779706Y-6814650D01*
X6779706Y-6814650D02*
X6798753Y-6824174D01*
X6798753Y-6824174D02*
X6808277Y-6833698D01*
X6808277Y-6833698D02*
X6817801Y-6852746D01*
X6817801Y-6852746D02*
X6817801Y-6909888D01*
X6817801Y-6909888D02*
X6808277Y-6928936D01*
X6808277Y-6928936D02*
X6798753Y-6938460D01*
X6798753Y-6938460D02*
X6779706Y-6947984D01*
X6779706Y-6947984D02*
X6751134Y-6947984D01*
X6932087Y-6947984D02*
X6913039Y-6938460D01*
X6913039Y-6938460D02*
X6903515Y-6919412D01*
X6903515Y-6919412D02*
X6903515Y-6747984D01*
X7084468Y-6938460D02*
X7065420Y-6947984D01*
X7065420Y-6947984D02*
X7027325Y-6947984D01*
X7027325Y-6947984D02*
X7008277Y-6938460D01*
X7008277Y-6938460D02*
X6998753Y-6919412D01*
X6998753Y-6919412D02*
X6998753Y-6843222D01*
X6998753Y-6843222D02*
X7008277Y-6824174D01*
X7008277Y-6824174D02*
X7027325Y-6814650D01*
X7027325Y-6814650D02*
X7065420Y-6814650D01*
X7065420Y-6814650D02*
X7084468Y-6824174D01*
X7084468Y-6824174D02*
X7093991Y-6843222D01*
X7093991Y-6843222D02*
X7093991Y-6862269D01*
X7093991Y-6862269D02*
X6998753Y-6881317D01*
X7170182Y-6938460D02*
X7189230Y-6947984D01*
X7189230Y-6947984D02*
X7227325Y-6947984D01*
X7227325Y-6947984D02*
X7246372Y-6938460D01*
X7246372Y-6938460D02*
X7255896Y-6919412D01*
X7255896Y-6919412D02*
X7255896Y-6909888D01*
X7255896Y-6909888D02*
X7246372Y-6890841D01*
X7246372Y-6890841D02*
X7227325Y-6881317D01*
X7227325Y-6881317D02*
X7198753Y-6881317D01*
X7198753Y-6881317D02*
X7179706Y-6871793D01*
X7179706Y-6871793D02*
X7170182Y-6852746D01*
X7170182Y-6852746D02*
X7170182Y-6843222D01*
X7170182Y-6843222D02*
X7179706Y-6824174D01*
X7179706Y-6824174D02*
X7198753Y-6814650D01*
X7198753Y-6814650D02*
X7227325Y-6814650D01*
X7227325Y-6814650D02*
X7246372Y-6824174D01*
X7322563Y-7024174D02*
X7332087Y-7014650D01*
X7332087Y-7014650D02*
X7351134Y-6986079D01*
X7351134Y-6986079D02*
X7360658Y-6967031D01*
X7360658Y-6967031D02*
X7370182Y-6938460D01*
X7370182Y-6938460D02*
X7379706Y-6890841D01*
X7379706Y-6890841D02*
X7379706Y-6852746D01*
X7379706Y-6852746D02*
X7370182Y-6805127D01*
X7370182Y-6805127D02*
X7360658Y-6776555D01*
X7360658Y-6776555D02*
X7351134Y-6757508D01*
X7351134Y-6757508D02*
X7332087Y-6728936D01*
X7332087Y-6728936D02*
X7322563Y-6719412D01*
D12*
X2497500Y-7070500D02*
X2497500Y-7170500D01*
X2447500Y-7120500D02*
X2547500Y-7120500D01*
D11*
X2913039Y-7211984D02*
X2798753Y-7211984D01*
X2855896Y-7211984D02*
X2855896Y-7011984D01*
X2855896Y-7011984D02*
X2836848Y-7040555D01*
X2836848Y-7040555D02*
X2817801Y-7059603D01*
X2817801Y-7059603D02*
X2798753Y-7069127D01*
X2998753Y-7192936D02*
X3008277Y-7202460D01*
X3008277Y-7202460D02*
X2998753Y-7211984D01*
X2998753Y-7211984D02*
X2989229Y-7202460D01*
X2989229Y-7202460D02*
X2998753Y-7192936D01*
X2998753Y-7192936D02*
X2998753Y-7211984D01*
X3132086Y-7011984D02*
X3151134Y-7011984D01*
X3151134Y-7011984D02*
X3170182Y-7021508D01*
X3170182Y-7021508D02*
X3179705Y-7031031D01*
X3179705Y-7031031D02*
X3189229Y-7050079D01*
X3189229Y-7050079D02*
X3198753Y-7088174D01*
X3198753Y-7088174D02*
X3198753Y-7135793D01*
X3198753Y-7135793D02*
X3189229Y-7173888D01*
X3189229Y-7173888D02*
X3179705Y-7192936D01*
X3179705Y-7192936D02*
X3170182Y-7202460D01*
X3170182Y-7202460D02*
X3151134Y-7211984D01*
X3151134Y-7211984D02*
X3132086Y-7211984D01*
X3132086Y-7211984D02*
X3113039Y-7202460D01*
X3113039Y-7202460D02*
X3103515Y-7192936D01*
X3103515Y-7192936D02*
X3093991Y-7173888D01*
X3093991Y-7173888D02*
X3084467Y-7135793D01*
X3084467Y-7135793D02*
X3084467Y-7088174D01*
X3084467Y-7088174D02*
X3093991Y-7050079D01*
X3093991Y-7050079D02*
X3103515Y-7031031D01*
X3103515Y-7031031D02*
X3113039Y-7021508D01*
X3113039Y-7021508D02*
X3132086Y-7011984D01*
X3322562Y-7011984D02*
X3341610Y-7011984D01*
X3341610Y-7011984D02*
X3360658Y-7021508D01*
X3360658Y-7021508D02*
X3370182Y-7031031D01*
X3370182Y-7031031D02*
X3379705Y-7050079D01*
X3379705Y-7050079D02*
X3389229Y-7088174D01*
X3389229Y-7088174D02*
X3389229Y-7135793D01*
X3389229Y-7135793D02*
X3379705Y-7173888D01*
X3379705Y-7173888D02*
X3370182Y-7192936D01*
X3370182Y-7192936D02*
X3360658Y-7202460D01*
X3360658Y-7202460D02*
X3341610Y-7211984D01*
X3341610Y-7211984D02*
X3322562Y-7211984D01*
X3322562Y-7211984D02*
X3303515Y-7202460D01*
X3303515Y-7202460D02*
X3293991Y-7192936D01*
X3293991Y-7192936D02*
X3284467Y-7173888D01*
X3284467Y-7173888D02*
X3274943Y-7135793D01*
X3274943Y-7135793D02*
X3274943Y-7088174D01*
X3274943Y-7088174D02*
X3284467Y-7050079D01*
X3284467Y-7050079D02*
X3293991Y-7031031D01*
X3293991Y-7031031D02*
X3303515Y-7021508D01*
X3303515Y-7021508D02*
X3322562Y-7011984D01*
X3513039Y-7011984D02*
X3532086Y-7011984D01*
X3532086Y-7011984D02*
X3551134Y-7021508D01*
X3551134Y-7021508D02*
X3560658Y-7031031D01*
X3560658Y-7031031D02*
X3570182Y-7050079D01*
X3570182Y-7050079D02*
X3579705Y-7088174D01*
X3579705Y-7088174D02*
X3579705Y-7135793D01*
X3579705Y-7135793D02*
X3570182Y-7173888D01*
X3570182Y-7173888D02*
X3560658Y-7192936D01*
X3560658Y-7192936D02*
X3551134Y-7202460D01*
X3551134Y-7202460D02*
X3532086Y-7211984D01*
X3532086Y-7211984D02*
X3513039Y-7211984D01*
X3513039Y-7211984D02*
X3493991Y-7202460D01*
X3493991Y-7202460D02*
X3484467Y-7192936D01*
X3484467Y-7192936D02*
X3474943Y-7173888D01*
X3474943Y-7173888D02*
X3465420Y-7135793D01*
X3465420Y-7135793D02*
X3465420Y-7088174D01*
X3465420Y-7088174D02*
X3474943Y-7050079D01*
X3474943Y-7050079D02*
X3484467Y-7031031D01*
X3484467Y-7031031D02*
X3493991Y-7021508D01*
X3493991Y-7021508D02*
X3513039Y-7011984D01*
X3665420Y-7211984D02*
X3665420Y-7078650D01*
X3665420Y-7097698D02*
X3674943Y-7088174D01*
X3674943Y-7088174D02*
X3693991Y-7078650D01*
X3693991Y-7078650D02*
X3722563Y-7078650D01*
X3722563Y-7078650D02*
X3741610Y-7088174D01*
X3741610Y-7088174D02*
X3751134Y-7107222D01*
X3751134Y-7107222D02*
X3751134Y-7211984D01*
X3751134Y-7107222D02*
X3760658Y-7088174D01*
X3760658Y-7088174D02*
X3779705Y-7078650D01*
X3779705Y-7078650D02*
X3808277Y-7078650D01*
X3808277Y-7078650D02*
X3827324Y-7088174D01*
X3827324Y-7088174D02*
X3836848Y-7107222D01*
X3836848Y-7107222D02*
X3836848Y-7211984D01*
X3932086Y-7211984D02*
X3932086Y-7078650D01*
X3932086Y-7097698D02*
X3941610Y-7088174D01*
X3941610Y-7088174D02*
X3960658Y-7078650D01*
X3960658Y-7078650D02*
X3989229Y-7078650D01*
X3989229Y-7078650D02*
X4008277Y-7088174D01*
X4008277Y-7088174D02*
X4017801Y-7107222D01*
X4017801Y-7107222D02*
X4017801Y-7211984D01*
X4017801Y-7107222D02*
X4027324Y-7088174D01*
X4027324Y-7088174D02*
X4046372Y-7078650D01*
X4046372Y-7078650D02*
X4074943Y-7078650D01*
X4074943Y-7078650D02*
X4093991Y-7088174D01*
X4093991Y-7088174D02*
X4103515Y-7107222D01*
X4103515Y-7107222D02*
X4103515Y-7211984D01*
X4493991Y-7002460D02*
X4322563Y-7259603D01*
X4751134Y-7011984D02*
X4770182Y-7011984D01*
X4770182Y-7011984D02*
X4789229Y-7021508D01*
X4789229Y-7021508D02*
X4798753Y-7031031D01*
X4798753Y-7031031D02*
X4808277Y-7050079D01*
X4808277Y-7050079D02*
X4817801Y-7088174D01*
X4817801Y-7088174D02*
X4817801Y-7135793D01*
X4817801Y-7135793D02*
X4808277Y-7173888D01*
X4808277Y-7173888D02*
X4798753Y-7192936D01*
X4798753Y-7192936D02*
X4789229Y-7202460D01*
X4789229Y-7202460D02*
X4770182Y-7211984D01*
X4770182Y-7211984D02*
X4751134Y-7211984D01*
X4751134Y-7211984D02*
X4732087Y-7202460D01*
X4732087Y-7202460D02*
X4722563Y-7192936D01*
X4722563Y-7192936D02*
X4713039Y-7173888D01*
X4713039Y-7173888D02*
X4703515Y-7135793D01*
X4703515Y-7135793D02*
X4703515Y-7088174D01*
X4703515Y-7088174D02*
X4713039Y-7050079D01*
X4713039Y-7050079D02*
X4722563Y-7031031D01*
X4722563Y-7031031D02*
X4732087Y-7021508D01*
X4732087Y-7021508D02*
X4751134Y-7011984D01*
X4903515Y-7192936D02*
X4913039Y-7202460D01*
X4913039Y-7202460D02*
X4903515Y-7211984D01*
X4903515Y-7211984D02*
X4893991Y-7202460D01*
X4893991Y-7202460D02*
X4903515Y-7192936D01*
X4903515Y-7192936D02*
X4903515Y-7211984D01*
X5036848Y-7011984D02*
X5055896Y-7011984D01*
X5055896Y-7011984D02*
X5074944Y-7021508D01*
X5074944Y-7021508D02*
X5084468Y-7031031D01*
X5084468Y-7031031D02*
X5093991Y-7050079D01*
X5093991Y-7050079D02*
X5103515Y-7088174D01*
X5103515Y-7088174D02*
X5103515Y-7135793D01*
X5103515Y-7135793D02*
X5093991Y-7173888D01*
X5093991Y-7173888D02*
X5084468Y-7192936D01*
X5084468Y-7192936D02*
X5074944Y-7202460D01*
X5074944Y-7202460D02*
X5055896Y-7211984D01*
X5055896Y-7211984D02*
X5036848Y-7211984D01*
X5036848Y-7211984D02*
X5017801Y-7202460D01*
X5017801Y-7202460D02*
X5008277Y-7192936D01*
X5008277Y-7192936D02*
X4998753Y-7173888D01*
X4998753Y-7173888D02*
X4989229Y-7135793D01*
X4989229Y-7135793D02*
X4989229Y-7088174D01*
X4989229Y-7088174D02*
X4998753Y-7050079D01*
X4998753Y-7050079D02*
X5008277Y-7031031D01*
X5008277Y-7031031D02*
X5017801Y-7021508D01*
X5017801Y-7021508D02*
X5036848Y-7011984D01*
X5170182Y-7011984D02*
X5293991Y-7011984D01*
X5293991Y-7011984D02*
X5227325Y-7088174D01*
X5227325Y-7088174D02*
X5255896Y-7088174D01*
X5255896Y-7088174D02*
X5274944Y-7097698D01*
X5274944Y-7097698D02*
X5284468Y-7107222D01*
X5284468Y-7107222D02*
X5293991Y-7126269D01*
X5293991Y-7126269D02*
X5293991Y-7173888D01*
X5293991Y-7173888D02*
X5284468Y-7192936D01*
X5284468Y-7192936D02*
X5274944Y-7202460D01*
X5274944Y-7202460D02*
X5255896Y-7211984D01*
X5255896Y-7211984D02*
X5198753Y-7211984D01*
X5198753Y-7211984D02*
X5179706Y-7202460D01*
X5179706Y-7202460D02*
X5170182Y-7192936D01*
X5389229Y-7211984D02*
X5427325Y-7211984D01*
X5427325Y-7211984D02*
X5446372Y-7202460D01*
X5446372Y-7202460D02*
X5455896Y-7192936D01*
X5455896Y-7192936D02*
X5474944Y-7164365D01*
X5474944Y-7164365D02*
X5484468Y-7126269D01*
X5484468Y-7126269D02*
X5484468Y-7050079D01*
X5484468Y-7050079D02*
X5474944Y-7031031D01*
X5474944Y-7031031D02*
X5465420Y-7021508D01*
X5465420Y-7021508D02*
X5446372Y-7011984D01*
X5446372Y-7011984D02*
X5408277Y-7011984D01*
X5408277Y-7011984D02*
X5389229Y-7021508D01*
X5389229Y-7021508D02*
X5379706Y-7031031D01*
X5379706Y-7031031D02*
X5370182Y-7050079D01*
X5370182Y-7050079D02*
X5370182Y-7097698D01*
X5370182Y-7097698D02*
X5379706Y-7116746D01*
X5379706Y-7116746D02*
X5389229Y-7126269D01*
X5389229Y-7126269D02*
X5408277Y-7135793D01*
X5408277Y-7135793D02*
X5446372Y-7135793D01*
X5446372Y-7135793D02*
X5465420Y-7126269D01*
X5465420Y-7126269D02*
X5474944Y-7116746D01*
X5474944Y-7116746D02*
X5484468Y-7097698D01*
X5655896Y-7078650D02*
X5655896Y-7211984D01*
X5608277Y-7002460D02*
X5560658Y-7145317D01*
X5560658Y-7145317D02*
X5684467Y-7145317D01*
X5751134Y-7011984D02*
X5751134Y-7050079D01*
X5827325Y-7011984D02*
X5827325Y-7050079D01*
X6122563Y-7288174D02*
X6113039Y-7278650D01*
X6113039Y-7278650D02*
X6093991Y-7250079D01*
X6093991Y-7250079D02*
X6084468Y-7231031D01*
X6084468Y-7231031D02*
X6074944Y-7202460D01*
X6074944Y-7202460D02*
X6065420Y-7154841D01*
X6065420Y-7154841D02*
X6065420Y-7116746D01*
X6065420Y-7116746D02*
X6074944Y-7069127D01*
X6074944Y-7069127D02*
X6084468Y-7040555D01*
X6084468Y-7040555D02*
X6093991Y-7021508D01*
X6093991Y-7021508D02*
X6113039Y-6992936D01*
X6113039Y-6992936D02*
X6122563Y-6983412D01*
X6284468Y-7078650D02*
X6284468Y-7211984D01*
X6236848Y-7002460D02*
X6189229Y-7145317D01*
X6189229Y-7145317D02*
X6313039Y-7145317D01*
X6427325Y-7011984D02*
X6446372Y-7011984D01*
X6446372Y-7011984D02*
X6465420Y-7021508D01*
X6465420Y-7021508D02*
X6474944Y-7031031D01*
X6474944Y-7031031D02*
X6484468Y-7050079D01*
X6484468Y-7050079D02*
X6493991Y-7088174D01*
X6493991Y-7088174D02*
X6493991Y-7135793D01*
X6493991Y-7135793D02*
X6484468Y-7173888D01*
X6484468Y-7173888D02*
X6474944Y-7192936D01*
X6474944Y-7192936D02*
X6465420Y-7202460D01*
X6465420Y-7202460D02*
X6446372Y-7211984D01*
X6446372Y-7211984D02*
X6427325Y-7211984D01*
X6427325Y-7211984D02*
X6408277Y-7202460D01*
X6408277Y-7202460D02*
X6398753Y-7192936D01*
X6398753Y-7192936D02*
X6389229Y-7173888D01*
X6389229Y-7173888D02*
X6379706Y-7135793D01*
X6379706Y-7135793D02*
X6379706Y-7088174D01*
X6379706Y-7088174D02*
X6389229Y-7050079D01*
X6389229Y-7050079D02*
X6398753Y-7031031D01*
X6398753Y-7031031D02*
X6408277Y-7021508D01*
X6408277Y-7021508D02*
X6427325Y-7011984D01*
X6732087Y-7211984D02*
X6732087Y-7011984D01*
X6817801Y-7211984D02*
X6817801Y-7107222D01*
X6817801Y-7107222D02*
X6808277Y-7088174D01*
X6808277Y-7088174D02*
X6789230Y-7078650D01*
X6789230Y-7078650D02*
X6760658Y-7078650D01*
X6760658Y-7078650D02*
X6741610Y-7088174D01*
X6741610Y-7088174D02*
X6732087Y-7097698D01*
X6941610Y-7211984D02*
X6922563Y-7202460D01*
X6922563Y-7202460D02*
X6913039Y-7192936D01*
X6913039Y-7192936D02*
X6903515Y-7173888D01*
X6903515Y-7173888D02*
X6903515Y-7116746D01*
X6903515Y-7116746D02*
X6913039Y-7097698D01*
X6913039Y-7097698D02*
X6922563Y-7088174D01*
X6922563Y-7088174D02*
X6941610Y-7078650D01*
X6941610Y-7078650D02*
X6970182Y-7078650D01*
X6970182Y-7078650D02*
X6989230Y-7088174D01*
X6989230Y-7088174D02*
X6998753Y-7097698D01*
X6998753Y-7097698D02*
X7008277Y-7116746D01*
X7008277Y-7116746D02*
X7008277Y-7173888D01*
X7008277Y-7173888D02*
X6998753Y-7192936D01*
X6998753Y-7192936D02*
X6989230Y-7202460D01*
X6989230Y-7202460D02*
X6970182Y-7211984D01*
X6970182Y-7211984D02*
X6941610Y-7211984D01*
X7122563Y-7211984D02*
X7103515Y-7202460D01*
X7103515Y-7202460D02*
X7093991Y-7183412D01*
X7093991Y-7183412D02*
X7093991Y-7011984D01*
X7274944Y-7202460D02*
X7255896Y-7211984D01*
X7255896Y-7211984D02*
X7217801Y-7211984D01*
X7217801Y-7211984D02*
X7198753Y-7202460D01*
X7198753Y-7202460D02*
X7189230Y-7183412D01*
X7189230Y-7183412D02*
X7189230Y-7107222D01*
X7189230Y-7107222D02*
X7198753Y-7088174D01*
X7198753Y-7088174D02*
X7217801Y-7078650D01*
X7217801Y-7078650D02*
X7255896Y-7078650D01*
X7255896Y-7078650D02*
X7274944Y-7088174D01*
X7274944Y-7088174D02*
X7284468Y-7107222D01*
X7284468Y-7107222D02*
X7284468Y-7126269D01*
X7284468Y-7126269D02*
X7189230Y-7145317D01*
X7360658Y-7202460D02*
X7379706Y-7211984D01*
X7379706Y-7211984D02*
X7417801Y-7211984D01*
X7417801Y-7211984D02*
X7436849Y-7202460D01*
X7436849Y-7202460D02*
X7446372Y-7183412D01*
X7446372Y-7183412D02*
X7446372Y-7173888D01*
X7446372Y-7173888D02*
X7436849Y-7154841D01*
X7436849Y-7154841D02*
X7417801Y-7145317D01*
X7417801Y-7145317D02*
X7389230Y-7145317D01*
X7389230Y-7145317D02*
X7370182Y-7135793D01*
X7370182Y-7135793D02*
X7360658Y-7116746D01*
X7360658Y-7116746D02*
X7360658Y-7107222D01*
X7360658Y-7107222D02*
X7370182Y-7088174D01*
X7370182Y-7088174D02*
X7389230Y-7078650D01*
X7389230Y-7078650D02*
X7417801Y-7078650D01*
X7417801Y-7078650D02*
X7436849Y-7088174D01*
X7513039Y-7288174D02*
X7522563Y-7278650D01*
X7522563Y-7278650D02*
X7541611Y-7250079D01*
X7541611Y-7250079D02*
X7551134Y-7231031D01*
X7551134Y-7231031D02*
X7560658Y-7202460D01*
X7560658Y-7202460D02*
X7570182Y-7154841D01*
X7570182Y-7154841D02*
X7570182Y-7116746D01*
X7570182Y-7116746D02*
X7560658Y-7069127D01*
X7560658Y-7069127D02*
X7551134Y-7040555D01*
X7551134Y-7040555D02*
X7541611Y-7021508D01*
X7541611Y-7021508D02*
X7522563Y-6992936D01*
X7522563Y-6992936D02*
X7513039Y-6983412D01*
D13*
X2526998Y-7433998D02*
X2526998Y-7335002D01*
X2428002Y-7335002D01*
X2428002Y-7433998D01*
X2526998Y-7433998D01*
D11*
X2913039Y-7475984D02*
X2798753Y-7475984D01*
X2855896Y-7475984D02*
X2855896Y-7275984D01*
X2855896Y-7275984D02*
X2836848Y-7304555D01*
X2836848Y-7304555D02*
X2817801Y-7323603D01*
X2817801Y-7323603D02*
X2798753Y-7333127D01*
X2998753Y-7456936D02*
X3008277Y-7466460D01*
X3008277Y-7466460D02*
X2998753Y-7475984D01*
X2998753Y-7475984D02*
X2989229Y-7466460D01*
X2989229Y-7466460D02*
X2998753Y-7456936D01*
X2998753Y-7456936D02*
X2998753Y-7475984D01*
X3179705Y-7342650D02*
X3179705Y-7475984D01*
X3132086Y-7266460D02*
X3084467Y-7409317D01*
X3084467Y-7409317D02*
X3208277Y-7409317D01*
X3322562Y-7275984D02*
X3341610Y-7275984D01*
X3341610Y-7275984D02*
X3360658Y-7285508D01*
X3360658Y-7285508D02*
X3370182Y-7295031D01*
X3370182Y-7295031D02*
X3379705Y-7314079D01*
X3379705Y-7314079D02*
X3389229Y-7352174D01*
X3389229Y-7352174D02*
X3389229Y-7399793D01*
X3389229Y-7399793D02*
X3379705Y-7437888D01*
X3379705Y-7437888D02*
X3370182Y-7456936D01*
X3370182Y-7456936D02*
X3360658Y-7466460D01*
X3360658Y-7466460D02*
X3341610Y-7475984D01*
X3341610Y-7475984D02*
X3322562Y-7475984D01*
X3322562Y-7475984D02*
X3303515Y-7466460D01*
X3303515Y-7466460D02*
X3293991Y-7456936D01*
X3293991Y-7456936D02*
X3284467Y-7437888D01*
X3284467Y-7437888D02*
X3274943Y-7399793D01*
X3274943Y-7399793D02*
X3274943Y-7352174D01*
X3274943Y-7352174D02*
X3284467Y-7314079D01*
X3284467Y-7314079D02*
X3293991Y-7295031D01*
X3293991Y-7295031D02*
X3303515Y-7285508D01*
X3303515Y-7285508D02*
X3322562Y-7275984D01*
X3513039Y-7275984D02*
X3532086Y-7275984D01*
X3532086Y-7275984D02*
X3551134Y-7285508D01*
X3551134Y-7285508D02*
X3560658Y-7295031D01*
X3560658Y-7295031D02*
X3570182Y-7314079D01*
X3570182Y-7314079D02*
X3579705Y-7352174D01*
X3579705Y-7352174D02*
X3579705Y-7399793D01*
X3579705Y-7399793D02*
X3570182Y-7437888D01*
X3570182Y-7437888D02*
X3560658Y-7456936D01*
X3560658Y-7456936D02*
X3551134Y-7466460D01*
X3551134Y-7466460D02*
X3532086Y-7475984D01*
X3532086Y-7475984D02*
X3513039Y-7475984D01*
X3513039Y-7475984D02*
X3493991Y-7466460D01*
X3493991Y-7466460D02*
X3484467Y-7456936D01*
X3484467Y-7456936D02*
X3474943Y-7437888D01*
X3474943Y-7437888D02*
X3465420Y-7399793D01*
X3465420Y-7399793D02*
X3465420Y-7352174D01*
X3465420Y-7352174D02*
X3474943Y-7314079D01*
X3474943Y-7314079D02*
X3484467Y-7295031D01*
X3484467Y-7295031D02*
X3493991Y-7285508D01*
X3493991Y-7285508D02*
X3513039Y-7275984D01*
X3665420Y-7475984D02*
X3665420Y-7342650D01*
X3665420Y-7361698D02*
X3674943Y-7352174D01*
X3674943Y-7352174D02*
X3693991Y-7342650D01*
X3693991Y-7342650D02*
X3722563Y-7342650D01*
X3722563Y-7342650D02*
X3741610Y-7352174D01*
X3741610Y-7352174D02*
X3751134Y-7371222D01*
X3751134Y-7371222D02*
X3751134Y-7475984D01*
X3751134Y-7371222D02*
X3760658Y-7352174D01*
X3760658Y-7352174D02*
X3779705Y-7342650D01*
X3779705Y-7342650D02*
X3808277Y-7342650D01*
X3808277Y-7342650D02*
X3827324Y-7352174D01*
X3827324Y-7352174D02*
X3836848Y-7371222D01*
X3836848Y-7371222D02*
X3836848Y-7475984D01*
X3932086Y-7475984D02*
X3932086Y-7342650D01*
X3932086Y-7361698D02*
X3941610Y-7352174D01*
X3941610Y-7352174D02*
X3960658Y-7342650D01*
X3960658Y-7342650D02*
X3989229Y-7342650D01*
X3989229Y-7342650D02*
X4008277Y-7352174D01*
X4008277Y-7352174D02*
X4017801Y-7371222D01*
X4017801Y-7371222D02*
X4017801Y-7475984D01*
X4017801Y-7371222D02*
X4027324Y-7352174D01*
X4027324Y-7352174D02*
X4046372Y-7342650D01*
X4046372Y-7342650D02*
X4074943Y-7342650D01*
X4074943Y-7342650D02*
X4093991Y-7352174D01*
X4093991Y-7352174D02*
X4103515Y-7371222D01*
X4103515Y-7371222D02*
X4103515Y-7475984D01*
X4493991Y-7266460D02*
X4322563Y-7523603D01*
X4751134Y-7275984D02*
X4770182Y-7275984D01*
X4770182Y-7275984D02*
X4789229Y-7285508D01*
X4789229Y-7285508D02*
X4798753Y-7295031D01*
X4798753Y-7295031D02*
X4808277Y-7314079D01*
X4808277Y-7314079D02*
X4817801Y-7352174D01*
X4817801Y-7352174D02*
X4817801Y-7399793D01*
X4817801Y-7399793D02*
X4808277Y-7437888D01*
X4808277Y-7437888D02*
X4798753Y-7456936D01*
X4798753Y-7456936D02*
X4789229Y-7466460D01*
X4789229Y-7466460D02*
X4770182Y-7475984D01*
X4770182Y-7475984D02*
X4751134Y-7475984D01*
X4751134Y-7475984D02*
X4732087Y-7466460D01*
X4732087Y-7466460D02*
X4722563Y-7456936D01*
X4722563Y-7456936D02*
X4713039Y-7437888D01*
X4713039Y-7437888D02*
X4703515Y-7399793D01*
X4703515Y-7399793D02*
X4703515Y-7352174D01*
X4703515Y-7352174D02*
X4713039Y-7314079D01*
X4713039Y-7314079D02*
X4722563Y-7295031D01*
X4722563Y-7295031D02*
X4732087Y-7285508D01*
X4732087Y-7285508D02*
X4751134Y-7275984D01*
X4903515Y-7456936D02*
X4913039Y-7466460D01*
X4913039Y-7466460D02*
X4903515Y-7475984D01*
X4903515Y-7475984D02*
X4893991Y-7466460D01*
X4893991Y-7466460D02*
X4903515Y-7456936D01*
X4903515Y-7456936D02*
X4903515Y-7475984D01*
X5036848Y-7275984D02*
X5055896Y-7275984D01*
X5055896Y-7275984D02*
X5074944Y-7285508D01*
X5074944Y-7285508D02*
X5084468Y-7295031D01*
X5084468Y-7295031D02*
X5093991Y-7314079D01*
X5093991Y-7314079D02*
X5103515Y-7352174D01*
X5103515Y-7352174D02*
X5103515Y-7399793D01*
X5103515Y-7399793D02*
X5093991Y-7437888D01*
X5093991Y-7437888D02*
X5084468Y-7456936D01*
X5084468Y-7456936D02*
X5074944Y-7466460D01*
X5074944Y-7466460D02*
X5055896Y-7475984D01*
X5055896Y-7475984D02*
X5036848Y-7475984D01*
X5036848Y-7475984D02*
X5017801Y-7466460D01*
X5017801Y-7466460D02*
X5008277Y-7456936D01*
X5008277Y-7456936D02*
X4998753Y-7437888D01*
X4998753Y-7437888D02*
X4989229Y-7399793D01*
X4989229Y-7399793D02*
X4989229Y-7352174D01*
X4989229Y-7352174D02*
X4998753Y-7314079D01*
X4998753Y-7314079D02*
X5008277Y-7295031D01*
X5008277Y-7295031D02*
X5017801Y-7285508D01*
X5017801Y-7285508D02*
X5036848Y-7275984D01*
X5284468Y-7275984D02*
X5189229Y-7275984D01*
X5189229Y-7275984D02*
X5179706Y-7371222D01*
X5179706Y-7371222D02*
X5189229Y-7361698D01*
X5189229Y-7361698D02*
X5208277Y-7352174D01*
X5208277Y-7352174D02*
X5255896Y-7352174D01*
X5255896Y-7352174D02*
X5274944Y-7361698D01*
X5274944Y-7361698D02*
X5284468Y-7371222D01*
X5284468Y-7371222D02*
X5293991Y-7390269D01*
X5293991Y-7390269D02*
X5293991Y-7437888D01*
X5293991Y-7437888D02*
X5284468Y-7456936D01*
X5284468Y-7456936D02*
X5274944Y-7466460D01*
X5274944Y-7466460D02*
X5255896Y-7475984D01*
X5255896Y-7475984D02*
X5208277Y-7475984D01*
X5208277Y-7475984D02*
X5189229Y-7466460D01*
X5189229Y-7466460D02*
X5179706Y-7456936D01*
X5474944Y-7275984D02*
X5379706Y-7275984D01*
X5379706Y-7275984D02*
X5370182Y-7371222D01*
X5370182Y-7371222D02*
X5379706Y-7361698D01*
X5379706Y-7361698D02*
X5398753Y-7352174D01*
X5398753Y-7352174D02*
X5446372Y-7352174D01*
X5446372Y-7352174D02*
X5465420Y-7361698D01*
X5465420Y-7361698D02*
X5474944Y-7371222D01*
X5474944Y-7371222D02*
X5484468Y-7390269D01*
X5484468Y-7390269D02*
X5484468Y-7437888D01*
X5484468Y-7437888D02*
X5474944Y-7456936D01*
X5474944Y-7456936D02*
X5465420Y-7466460D01*
X5465420Y-7466460D02*
X5446372Y-7475984D01*
X5446372Y-7475984D02*
X5398753Y-7475984D01*
X5398753Y-7475984D02*
X5379706Y-7466460D01*
X5379706Y-7466460D02*
X5370182Y-7456936D01*
X5674944Y-7475984D02*
X5560658Y-7475984D01*
X5617801Y-7475984D02*
X5617801Y-7275984D01*
X5617801Y-7275984D02*
X5598753Y-7304555D01*
X5598753Y-7304555D02*
X5579706Y-7323603D01*
X5579706Y-7323603D02*
X5560658Y-7333127D01*
X5751134Y-7275984D02*
X5751134Y-7314079D01*
X5827325Y-7275984D02*
X5827325Y-7314079D01*
X6122563Y-7552174D02*
X6113039Y-7542650D01*
X6113039Y-7542650D02*
X6093991Y-7514079D01*
X6093991Y-7514079D02*
X6084468Y-7495031D01*
X6084468Y-7495031D02*
X6074944Y-7466460D01*
X6074944Y-7466460D02*
X6065420Y-7418841D01*
X6065420Y-7418841D02*
X6065420Y-7380746D01*
X6065420Y-7380746D02*
X6074944Y-7333127D01*
X6074944Y-7333127D02*
X6084468Y-7304555D01*
X6084468Y-7304555D02*
X6093991Y-7285508D01*
X6093991Y-7285508D02*
X6113039Y-7256936D01*
X6113039Y-7256936D02*
X6122563Y-7247412D01*
X6293991Y-7275984D02*
X6198753Y-7275984D01*
X6198753Y-7275984D02*
X6189229Y-7371222D01*
X6189229Y-7371222D02*
X6198753Y-7361698D01*
X6198753Y-7361698D02*
X6217801Y-7352174D01*
X6217801Y-7352174D02*
X6265420Y-7352174D01*
X6265420Y-7352174D02*
X6284468Y-7361698D01*
X6284468Y-7361698D02*
X6293991Y-7371222D01*
X6293991Y-7371222D02*
X6303515Y-7390269D01*
X6303515Y-7390269D02*
X6303515Y-7437888D01*
X6303515Y-7437888D02*
X6293991Y-7456936D01*
X6293991Y-7456936D02*
X6284468Y-7466460D01*
X6284468Y-7466460D02*
X6265420Y-7475984D01*
X6265420Y-7475984D02*
X6217801Y-7475984D01*
X6217801Y-7475984D02*
X6198753Y-7466460D01*
X6198753Y-7466460D02*
X6189229Y-7456936D01*
X6541610Y-7475984D02*
X6541610Y-7275984D01*
X6627325Y-7475984D02*
X6627325Y-7371222D01*
X6627325Y-7371222D02*
X6617801Y-7352174D01*
X6617801Y-7352174D02*
X6598753Y-7342650D01*
X6598753Y-7342650D02*
X6570182Y-7342650D01*
X6570182Y-7342650D02*
X6551134Y-7352174D01*
X6551134Y-7352174D02*
X6541610Y-7361698D01*
X6751134Y-7475984D02*
X6732087Y-7466460D01*
X6732087Y-7466460D02*
X6722563Y-7456936D01*
X6722563Y-7456936D02*
X6713039Y-7437888D01*
X6713039Y-7437888D02*
X6713039Y-7380746D01*
X6713039Y-7380746D02*
X6722563Y-7361698D01*
X6722563Y-7361698D02*
X6732087Y-7352174D01*
X6732087Y-7352174D02*
X6751134Y-7342650D01*
X6751134Y-7342650D02*
X6779706Y-7342650D01*
X6779706Y-7342650D02*
X6798753Y-7352174D01*
X6798753Y-7352174D02*
X6808277Y-7361698D01*
X6808277Y-7361698D02*
X6817801Y-7380746D01*
X6817801Y-7380746D02*
X6817801Y-7437888D01*
X6817801Y-7437888D02*
X6808277Y-7456936D01*
X6808277Y-7456936D02*
X6798753Y-7466460D01*
X6798753Y-7466460D02*
X6779706Y-7475984D01*
X6779706Y-7475984D02*
X6751134Y-7475984D01*
X6932087Y-7475984D02*
X6913039Y-7466460D01*
X6913039Y-7466460D02*
X6903515Y-7447412D01*
X6903515Y-7447412D02*
X6903515Y-7275984D01*
X7084468Y-7466460D02*
X7065420Y-7475984D01*
X7065420Y-7475984D02*
X7027325Y-7475984D01*
X7027325Y-7475984D02*
X7008277Y-7466460D01*
X7008277Y-7466460D02*
X6998753Y-7447412D01*
X6998753Y-7447412D02*
X6998753Y-7371222D01*
X6998753Y-7371222D02*
X7008277Y-7352174D01*
X7008277Y-7352174D02*
X7027325Y-7342650D01*
X7027325Y-7342650D02*
X7065420Y-7342650D01*
X7065420Y-7342650D02*
X7084468Y-7352174D01*
X7084468Y-7352174D02*
X7093991Y-7371222D01*
X7093991Y-7371222D02*
X7093991Y-7390269D01*
X7093991Y-7390269D02*
X6998753Y-7409317D01*
X7170182Y-7466460D02*
X7189230Y-7475984D01*
X7189230Y-7475984D02*
X7227325Y-7475984D01*
X7227325Y-7475984D02*
X7246372Y-7466460D01*
X7246372Y-7466460D02*
X7255896Y-7447412D01*
X7255896Y-7447412D02*
X7255896Y-7437888D01*
X7255896Y-7437888D02*
X7246372Y-7418841D01*
X7246372Y-7418841D02*
X7227325Y-7409317D01*
X7227325Y-7409317D02*
X7198753Y-7409317D01*
X7198753Y-7409317D02*
X7179706Y-7399793D01*
X7179706Y-7399793D02*
X7170182Y-7380746D01*
X7170182Y-7380746D02*
X7170182Y-7371222D01*
X7170182Y-7371222D02*
X7179706Y-7352174D01*
X7179706Y-7352174D02*
X7198753Y-7342650D01*
X7198753Y-7342650D02*
X7227325Y-7342650D01*
X7227325Y-7342650D02*
X7246372Y-7352174D01*
X7322563Y-7552174D02*
X7332087Y-7542650D01*
X7332087Y-7542650D02*
X7351134Y-7514079D01*
X7351134Y-7514079D02*
X7360658Y-7495031D01*
X7360658Y-7495031D02*
X7370182Y-7466460D01*
X7370182Y-7466460D02*
X7379706Y-7418841D01*
X7379706Y-7418841D02*
X7379706Y-7380746D01*
X7379706Y-7380746D02*
X7370182Y-7333127D01*
X7370182Y-7333127D02*
X7360658Y-7304555D01*
X7360658Y-7304555D02*
X7351134Y-7285508D01*
X7351134Y-7285508D02*
X7332087Y-7256936D01*
X7332087Y-7256936D02*
X7322563Y-7247412D01*
X2447500Y-7748500D02*
X2547500Y-7648500D01*
X2447500Y-7548500D01*
X2347500Y-7648500D01*
X2447500Y-7748500D01*
X2798753Y-7559031D02*
X2808277Y-7549508D01*
X2808277Y-7549508D02*
X2827324Y-7539984D01*
X2827324Y-7539984D02*
X2874943Y-7539984D01*
X2874943Y-7539984D02*
X2893991Y-7549508D01*
X2893991Y-7549508D02*
X2903515Y-7559031D01*
X2903515Y-7559031D02*
X2913039Y-7578079D01*
X2913039Y-7578079D02*
X2913039Y-7597127D01*
X2913039Y-7597127D02*
X2903515Y-7625698D01*
X2903515Y-7625698D02*
X2789229Y-7739984D01*
X2789229Y-7739984D02*
X2913039Y-7739984D01*
X2998753Y-7720936D02*
X3008277Y-7730460D01*
X3008277Y-7730460D02*
X2998753Y-7739984D01*
X2998753Y-7739984D02*
X2989229Y-7730460D01*
X2989229Y-7730460D02*
X2998753Y-7720936D01*
X2998753Y-7720936D02*
X2998753Y-7739984D01*
X3074943Y-7539984D02*
X3208277Y-7539984D01*
X3208277Y-7539984D02*
X3122562Y-7739984D01*
X3322562Y-7539984D02*
X3341610Y-7539984D01*
X3341610Y-7539984D02*
X3360658Y-7549508D01*
X3360658Y-7549508D02*
X3370182Y-7559031D01*
X3370182Y-7559031D02*
X3379705Y-7578079D01*
X3379705Y-7578079D02*
X3389229Y-7616174D01*
X3389229Y-7616174D02*
X3389229Y-7663793D01*
X3389229Y-7663793D02*
X3379705Y-7701888D01*
X3379705Y-7701888D02*
X3370182Y-7720936D01*
X3370182Y-7720936D02*
X3360658Y-7730460D01*
X3360658Y-7730460D02*
X3341610Y-7739984D01*
X3341610Y-7739984D02*
X3322562Y-7739984D01*
X3322562Y-7739984D02*
X3303515Y-7730460D01*
X3303515Y-7730460D02*
X3293991Y-7720936D01*
X3293991Y-7720936D02*
X3284467Y-7701888D01*
X3284467Y-7701888D02*
X3274943Y-7663793D01*
X3274943Y-7663793D02*
X3274943Y-7616174D01*
X3274943Y-7616174D02*
X3284467Y-7578079D01*
X3284467Y-7578079D02*
X3293991Y-7559031D01*
X3293991Y-7559031D02*
X3303515Y-7549508D01*
X3303515Y-7549508D02*
X3322562Y-7539984D01*
X3513039Y-7539984D02*
X3532086Y-7539984D01*
X3532086Y-7539984D02*
X3551134Y-7549508D01*
X3551134Y-7549508D02*
X3560658Y-7559031D01*
X3560658Y-7559031D02*
X3570182Y-7578079D01*
X3570182Y-7578079D02*
X3579705Y-7616174D01*
X3579705Y-7616174D02*
X3579705Y-7663793D01*
X3579705Y-7663793D02*
X3570182Y-7701888D01*
X3570182Y-7701888D02*
X3560658Y-7720936D01*
X3560658Y-7720936D02*
X3551134Y-7730460D01*
X3551134Y-7730460D02*
X3532086Y-7739984D01*
X3532086Y-7739984D02*
X3513039Y-7739984D01*
X3513039Y-7739984D02*
X3493991Y-7730460D01*
X3493991Y-7730460D02*
X3484467Y-7720936D01*
X3484467Y-7720936D02*
X3474943Y-7701888D01*
X3474943Y-7701888D02*
X3465420Y-7663793D01*
X3465420Y-7663793D02*
X3465420Y-7616174D01*
X3465420Y-7616174D02*
X3474943Y-7578079D01*
X3474943Y-7578079D02*
X3484467Y-7559031D01*
X3484467Y-7559031D02*
X3493991Y-7549508D01*
X3493991Y-7549508D02*
X3513039Y-7539984D01*
X3665420Y-7739984D02*
X3665420Y-7606650D01*
X3665420Y-7625698D02*
X3674943Y-7616174D01*
X3674943Y-7616174D02*
X3693991Y-7606650D01*
X3693991Y-7606650D02*
X3722563Y-7606650D01*
X3722563Y-7606650D02*
X3741610Y-7616174D01*
X3741610Y-7616174D02*
X3751134Y-7635222D01*
X3751134Y-7635222D02*
X3751134Y-7739984D01*
X3751134Y-7635222D02*
X3760658Y-7616174D01*
X3760658Y-7616174D02*
X3779705Y-7606650D01*
X3779705Y-7606650D02*
X3808277Y-7606650D01*
X3808277Y-7606650D02*
X3827324Y-7616174D01*
X3827324Y-7616174D02*
X3836848Y-7635222D01*
X3836848Y-7635222D02*
X3836848Y-7739984D01*
X3932086Y-7739984D02*
X3932086Y-7606650D01*
X3932086Y-7625698D02*
X3941610Y-7616174D01*
X3941610Y-7616174D02*
X3960658Y-7606650D01*
X3960658Y-7606650D02*
X3989229Y-7606650D01*
X3989229Y-7606650D02*
X4008277Y-7616174D01*
X4008277Y-7616174D02*
X4017801Y-7635222D01*
X4017801Y-7635222D02*
X4017801Y-7739984D01*
X4017801Y-7635222D02*
X4027324Y-7616174D01*
X4027324Y-7616174D02*
X4046372Y-7606650D01*
X4046372Y-7606650D02*
X4074943Y-7606650D01*
X4074943Y-7606650D02*
X4093991Y-7616174D01*
X4093991Y-7616174D02*
X4103515Y-7635222D01*
X4103515Y-7635222D02*
X4103515Y-7739984D01*
X4493991Y-7530460D02*
X4322563Y-7787603D01*
X4751134Y-7539984D02*
X4770182Y-7539984D01*
X4770182Y-7539984D02*
X4789229Y-7549508D01*
X4789229Y-7549508D02*
X4798753Y-7559031D01*
X4798753Y-7559031D02*
X4808277Y-7578079D01*
X4808277Y-7578079D02*
X4817801Y-7616174D01*
X4817801Y-7616174D02*
X4817801Y-7663793D01*
X4817801Y-7663793D02*
X4808277Y-7701888D01*
X4808277Y-7701888D02*
X4798753Y-7720936D01*
X4798753Y-7720936D02*
X4789229Y-7730460D01*
X4789229Y-7730460D02*
X4770182Y-7739984D01*
X4770182Y-7739984D02*
X4751134Y-7739984D01*
X4751134Y-7739984D02*
X4732087Y-7730460D01*
X4732087Y-7730460D02*
X4722563Y-7720936D01*
X4722563Y-7720936D02*
X4713039Y-7701888D01*
X4713039Y-7701888D02*
X4703515Y-7663793D01*
X4703515Y-7663793D02*
X4703515Y-7616174D01*
X4703515Y-7616174D02*
X4713039Y-7578079D01*
X4713039Y-7578079D02*
X4722563Y-7559031D01*
X4722563Y-7559031D02*
X4732087Y-7549508D01*
X4732087Y-7549508D02*
X4751134Y-7539984D01*
X4903515Y-7720936D02*
X4913039Y-7730460D01*
X4913039Y-7730460D02*
X4903515Y-7739984D01*
X4903515Y-7739984D02*
X4893991Y-7730460D01*
X4893991Y-7730460D02*
X4903515Y-7720936D01*
X4903515Y-7720936D02*
X4903515Y-7739984D01*
X5103515Y-7739984D02*
X4989229Y-7739984D01*
X5046372Y-7739984D02*
X5046372Y-7539984D01*
X5046372Y-7539984D02*
X5027325Y-7568555D01*
X5027325Y-7568555D02*
X5008277Y-7587603D01*
X5008277Y-7587603D02*
X4989229Y-7597127D01*
X5227325Y-7539984D02*
X5246372Y-7539984D01*
X5246372Y-7539984D02*
X5265420Y-7549508D01*
X5265420Y-7549508D02*
X5274944Y-7559031D01*
X5274944Y-7559031D02*
X5284468Y-7578079D01*
X5284468Y-7578079D02*
X5293991Y-7616174D01*
X5293991Y-7616174D02*
X5293991Y-7663793D01*
X5293991Y-7663793D02*
X5284468Y-7701888D01*
X5284468Y-7701888D02*
X5274944Y-7720936D01*
X5274944Y-7720936D02*
X5265420Y-7730460D01*
X5265420Y-7730460D02*
X5246372Y-7739984D01*
X5246372Y-7739984D02*
X5227325Y-7739984D01*
X5227325Y-7739984D02*
X5208277Y-7730460D01*
X5208277Y-7730460D02*
X5198753Y-7720936D01*
X5198753Y-7720936D02*
X5189229Y-7701888D01*
X5189229Y-7701888D02*
X5179706Y-7663793D01*
X5179706Y-7663793D02*
X5179706Y-7616174D01*
X5179706Y-7616174D02*
X5189229Y-7578079D01*
X5189229Y-7578079D02*
X5198753Y-7559031D01*
X5198753Y-7559031D02*
X5208277Y-7549508D01*
X5208277Y-7549508D02*
X5227325Y-7539984D01*
X5465420Y-7539984D02*
X5427325Y-7539984D01*
X5427325Y-7539984D02*
X5408277Y-7549508D01*
X5408277Y-7549508D02*
X5398753Y-7559031D01*
X5398753Y-7559031D02*
X5379706Y-7587603D01*
X5379706Y-7587603D02*
X5370182Y-7625698D01*
X5370182Y-7625698D02*
X5370182Y-7701888D01*
X5370182Y-7701888D02*
X5379706Y-7720936D01*
X5379706Y-7720936D02*
X5389229Y-7730460D01*
X5389229Y-7730460D02*
X5408277Y-7739984D01*
X5408277Y-7739984D02*
X5446372Y-7739984D01*
X5446372Y-7739984D02*
X5465420Y-7730460D01*
X5465420Y-7730460D02*
X5474944Y-7720936D01*
X5474944Y-7720936D02*
X5484468Y-7701888D01*
X5484468Y-7701888D02*
X5484468Y-7654269D01*
X5484468Y-7654269D02*
X5474944Y-7635222D01*
X5474944Y-7635222D02*
X5465420Y-7625698D01*
X5465420Y-7625698D02*
X5446372Y-7616174D01*
X5446372Y-7616174D02*
X5408277Y-7616174D01*
X5408277Y-7616174D02*
X5389229Y-7625698D01*
X5389229Y-7625698D02*
X5379706Y-7635222D01*
X5379706Y-7635222D02*
X5370182Y-7654269D01*
X5551134Y-7539984D02*
X5674944Y-7539984D01*
X5674944Y-7539984D02*
X5608277Y-7616174D01*
X5608277Y-7616174D02*
X5636848Y-7616174D01*
X5636848Y-7616174D02*
X5655896Y-7625698D01*
X5655896Y-7625698D02*
X5665420Y-7635222D01*
X5665420Y-7635222D02*
X5674944Y-7654269D01*
X5674944Y-7654269D02*
X5674944Y-7701888D01*
X5674944Y-7701888D02*
X5665420Y-7720936D01*
X5665420Y-7720936D02*
X5655896Y-7730460D01*
X5655896Y-7730460D02*
X5636848Y-7739984D01*
X5636848Y-7739984D02*
X5579706Y-7739984D01*
X5579706Y-7739984D02*
X5560658Y-7730460D01*
X5560658Y-7730460D02*
X5551134Y-7720936D01*
X5751134Y-7539984D02*
X5751134Y-7578079D01*
X5827325Y-7539984D02*
X5827325Y-7578079D01*
X6122563Y-7816174D02*
X6113039Y-7806650D01*
X6113039Y-7806650D02*
X6093991Y-7778079D01*
X6093991Y-7778079D02*
X6084468Y-7759031D01*
X6084468Y-7759031D02*
X6074944Y-7730460D01*
X6074944Y-7730460D02*
X6065420Y-7682841D01*
X6065420Y-7682841D02*
X6065420Y-7644746D01*
X6065420Y-7644746D02*
X6074944Y-7597127D01*
X6074944Y-7597127D02*
X6084468Y-7568555D01*
X6084468Y-7568555D02*
X6093991Y-7549508D01*
X6093991Y-7549508D02*
X6113039Y-7520936D01*
X6113039Y-7520936D02*
X6122563Y-7511412D01*
X6284468Y-7606650D02*
X6284468Y-7739984D01*
X6236848Y-7530460D02*
X6189229Y-7673317D01*
X6189229Y-7673317D02*
X6313039Y-7673317D01*
X6541610Y-7739984D02*
X6541610Y-7539984D01*
X6627325Y-7739984D02*
X6627325Y-7635222D01*
X6627325Y-7635222D02*
X6617801Y-7616174D01*
X6617801Y-7616174D02*
X6598753Y-7606650D01*
X6598753Y-7606650D02*
X6570182Y-7606650D01*
X6570182Y-7606650D02*
X6551134Y-7616174D01*
X6551134Y-7616174D02*
X6541610Y-7625698D01*
X6751134Y-7739984D02*
X6732087Y-7730460D01*
X6732087Y-7730460D02*
X6722563Y-7720936D01*
X6722563Y-7720936D02*
X6713039Y-7701888D01*
X6713039Y-7701888D02*
X6713039Y-7644746D01*
X6713039Y-7644746D02*
X6722563Y-7625698D01*
X6722563Y-7625698D02*
X6732087Y-7616174D01*
X6732087Y-7616174D02*
X6751134Y-7606650D01*
X6751134Y-7606650D02*
X6779706Y-7606650D01*
X6779706Y-7606650D02*
X6798753Y-7616174D01*
X6798753Y-7616174D02*
X6808277Y-7625698D01*
X6808277Y-7625698D02*
X6817801Y-7644746D01*
X6817801Y-7644746D02*
X6817801Y-7701888D01*
X6817801Y-7701888D02*
X6808277Y-7720936D01*
X6808277Y-7720936D02*
X6798753Y-7730460D01*
X6798753Y-7730460D02*
X6779706Y-7739984D01*
X6779706Y-7739984D02*
X6751134Y-7739984D01*
X6932087Y-7739984D02*
X6913039Y-7730460D01*
X6913039Y-7730460D02*
X6903515Y-7711412D01*
X6903515Y-7711412D02*
X6903515Y-7539984D01*
X7084468Y-7730460D02*
X7065420Y-7739984D01*
X7065420Y-7739984D02*
X7027325Y-7739984D01*
X7027325Y-7739984D02*
X7008277Y-7730460D01*
X7008277Y-7730460D02*
X6998753Y-7711412D01*
X6998753Y-7711412D02*
X6998753Y-7635222D01*
X6998753Y-7635222D02*
X7008277Y-7616174D01*
X7008277Y-7616174D02*
X7027325Y-7606650D01*
X7027325Y-7606650D02*
X7065420Y-7606650D01*
X7065420Y-7606650D02*
X7084468Y-7616174D01*
X7084468Y-7616174D02*
X7093991Y-7635222D01*
X7093991Y-7635222D02*
X7093991Y-7654269D01*
X7093991Y-7654269D02*
X6998753Y-7673317D01*
X7170182Y-7730460D02*
X7189230Y-7739984D01*
X7189230Y-7739984D02*
X7227325Y-7739984D01*
X7227325Y-7739984D02*
X7246372Y-7730460D01*
X7246372Y-7730460D02*
X7255896Y-7711412D01*
X7255896Y-7711412D02*
X7255896Y-7701888D01*
X7255896Y-7701888D02*
X7246372Y-7682841D01*
X7246372Y-7682841D02*
X7227325Y-7673317D01*
X7227325Y-7673317D02*
X7198753Y-7673317D01*
X7198753Y-7673317D02*
X7179706Y-7663793D01*
X7179706Y-7663793D02*
X7170182Y-7644746D01*
X7170182Y-7644746D02*
X7170182Y-7635222D01*
X7170182Y-7635222D02*
X7179706Y-7616174D01*
X7179706Y-7616174D02*
X7198753Y-7606650D01*
X7198753Y-7606650D02*
X7227325Y-7606650D01*
X7227325Y-7606650D02*
X7246372Y-7616174D01*
X7322563Y-7816174D02*
X7332087Y-7806650D01*
X7332087Y-7806650D02*
X7351134Y-7778079D01*
X7351134Y-7778079D02*
X7360658Y-7759031D01*
X7360658Y-7759031D02*
X7370182Y-7730460D01*
X7370182Y-7730460D02*
X7379706Y-7682841D01*
X7379706Y-7682841D02*
X7379706Y-7644746D01*
X7379706Y-7644746D02*
X7370182Y-7597127D01*
X7370182Y-7597127D02*
X7360658Y-7568555D01*
X7360658Y-7568555D02*
X7351134Y-7549508D01*
X7351134Y-7549508D02*
X7332087Y-7520936D01*
X7332087Y-7520936D02*
X7322563Y-7511412D01*
M02*
