G04 #@! TF.GenerationSoftware,KiCad,Pcbnew,9.0.5*
G04 #@! TF.CreationDate,2025-11-03T18:46:07+02:00*
G04 #@! TF.ProjectId,elecDeTrimisproiect,656c6563-4465-4547-9269-6d697370726f,rev?*
G04 #@! TF.SameCoordinates,Original*
G04 #@! TF.FileFunction,Soldermask,Top*
G04 #@! TF.FilePolarity,Negative*
%FSLAX46Y46*%
G04 Gerber Fmt 4.6, Leading zero omitted, Abs format (unit mm)*
G04 Created by KiCad (PCBNEW 9.0.5) date 2025-11-03 18:46:07*
%MOMM*%
%LPD*%
G01*
G04 APERTURE LIST*
G04 Aperture macros list*
%AMRoundRect*
0 Rectangle with rounded corners*
0 $1 Rounding radius*
0 $2 $3 $4 $5 $6 $7 $8 $9 X,Y pos of 4 corners*
0 Add a 4 corners polygon primitive as box body*
4,1,4,$2,$3,$4,$5,$6,$7,$8,$9,$2,$3,0*
0 Add four circle primitives for the rounded corners*
1,1,$1+$1,$2,$3*
1,1,$1+$1,$4,$5*
1,1,$1+$1,$6,$7*
1,1,$1+$1,$8,$9*
0 Add four rect primitives between the rounded corners*
20,1,$1+$1,$2,$3,$4,$5,0*
20,1,$1+$1,$4,$5,$6,$7,0*
20,1,$1+$1,$6,$7,$8,$9,0*
20,1,$1+$1,$8,$9,$2,$3,0*%
G04 Aperture macros list end*
%ADD10R,2.500000X2.500000*%
%ADD11RoundRect,0.062500X-0.062500X-0.350000X0.062500X-0.350000X0.062500X0.350000X-0.062500X0.350000X0*%
%ADD12RoundRect,0.062500X-0.350000X-0.062500X0.350000X-0.062500X0.350000X0.062500X-0.350000X0.062500X0*%
%ADD13RoundRect,0.087500X0.125000X0.087500X-0.125000X0.087500X-0.125000X-0.087500X0.125000X-0.087500X0*%
%ADD14RoundRect,0.087500X0.087500X0.125000X-0.087500X0.125000X-0.087500X-0.125000X0.087500X-0.125000X0*%
%ADD15RoundRect,0.225000X-0.250000X0.225000X-0.250000X-0.225000X0.250000X-0.225000X0.250000X0.225000X0*%
%ADD16RoundRect,0.140000X0.170000X-0.140000X0.170000X0.140000X-0.170000X0.140000X-0.170000X-0.140000X0*%
%ADD17RoundRect,0.140000X-0.140000X-0.170000X0.140000X-0.170000X0.140000X0.170000X-0.140000X0.170000X0*%
%ADD18RoundRect,0.225000X0.225000X0.250000X-0.225000X0.250000X-0.225000X-0.250000X0.225000X-0.250000X0*%
%ADD19RoundRect,0.225000X-0.225000X-0.250000X0.225000X-0.250000X0.225000X0.250000X-0.225000X0.250000X0*%
%ADD20RoundRect,0.200000X0.200000X0.275000X-0.200000X0.275000X-0.200000X-0.275000X0.200000X-0.275000X0*%
%ADD21RoundRect,0.200000X-0.275000X0.200000X-0.275000X-0.200000X0.275000X-0.200000X0.275000X0.200000X0*%
%ADD22RoundRect,0.200100X-0.949900X0.949900X-0.949900X-0.949900X0.949900X-0.949900X0.949900X0.949900X0*%
%ADD23C,2.200000*%
%ADD24RoundRect,0.200000X-0.200000X-0.275000X0.200000X-0.275000X0.200000X0.275000X-0.200000X0.275000X0*%
%ADD25RoundRect,0.135000X-0.135000X-0.185000X0.135000X-0.185000X0.135000X0.185000X-0.135000X0.185000X0*%
%ADD26RoundRect,0.225000X0.250000X-0.225000X0.250000X0.225000X-0.250000X0.225000X-0.250000X-0.225000X0*%
%ADD27R,0.350000X0.375000*%
%ADD28R,0.375000X0.350000*%
%ADD29C,1.500000*%
%ADD30RoundRect,0.147500X0.172500X-0.147500X0.172500X0.147500X-0.172500X0.147500X-0.172500X-0.147500X0*%
%ADD31RoundRect,0.135000X-0.185000X0.135000X-0.185000X-0.135000X0.185000X-0.135000X0.185000X0.135000X0*%
%ADD32RoundRect,0.140000X0.140000X0.170000X-0.140000X0.170000X-0.140000X-0.170000X0.140000X-0.170000X0*%
%ADD33RoundRect,0.087500X-0.225000X-0.087500X0.225000X-0.087500X0.225000X0.087500X-0.225000X0.087500X0*%
%ADD34RoundRect,0.087500X-0.087500X-0.225000X0.087500X-0.225000X0.087500X0.225000X-0.087500X0.225000X0*%
%ADD35RoundRect,0.147500X-0.172500X0.147500X-0.172500X-0.147500X0.172500X-0.147500X0.172500X0.147500X0*%
%ADD36RoundRect,0.147500X-0.147500X-0.172500X0.147500X-0.172500X0.147500X0.172500X-0.147500X0.172500X0*%
%ADD37R,1.700000X1.700000*%
%ADD38C,1.700000*%
%ADD39C,5.400000*%
G04 APERTURE END LIST*
D10*
G04 #@! TO.C,U4*
X72500000Y-43500000D03*
D11*
X71500000Y-41562500D03*
X72000000Y-41562500D03*
X72500000Y-41562500D03*
X73000000Y-41562500D03*
X73500000Y-41562500D03*
D12*
X74437500Y-42500000D03*
X74437500Y-43000000D03*
X74437500Y-43500000D03*
X74437500Y-44000000D03*
X74437500Y-44500000D03*
D11*
X73500000Y-45437500D03*
X73000000Y-45437500D03*
X72500000Y-45437500D03*
X72000000Y-45437500D03*
X71500000Y-45437500D03*
D12*
X70562500Y-44500000D03*
X70562500Y-44000000D03*
X70562500Y-43500000D03*
X70562500Y-43000000D03*
X70562500Y-42500000D03*
G04 #@! TD*
D13*
G04 #@! TO.C,U3*
X39162500Y-39362500D03*
X39162500Y-38862500D03*
D14*
X38900000Y-38350000D03*
X38400000Y-38350000D03*
X37900000Y-38350000D03*
D13*
X37637500Y-38862500D03*
X37637500Y-39362500D03*
D14*
X37900000Y-39875000D03*
X38400000Y-39875000D03*
X38900000Y-39875000D03*
G04 #@! TD*
D15*
G04 #@! TO.C,C1*
X34250000Y-50225000D03*
X34250000Y-51775000D03*
G04 #@! TD*
D16*
G04 #@! TO.C,C15*
X80350000Y-43392500D03*
X80350000Y-42432500D03*
G04 #@! TD*
D15*
G04 #@! TO.C,C6*
X35662500Y-44937500D03*
X35662500Y-46487500D03*
G04 #@! TD*
D17*
G04 #@! TO.C,C16*
X78450000Y-43312500D03*
X79410000Y-43312500D03*
G04 #@! TD*
D16*
G04 #@! TO.C,C9*
X66915000Y-50995000D03*
X66915000Y-50035000D03*
G04 #@! TD*
D18*
G04 #@! TO.C,C5*
X38537500Y-41112500D03*
X36987500Y-41112500D03*
G04 #@! TD*
D19*
G04 #@! TO.C,C2*
X42725000Y-54500000D03*
X44275000Y-54500000D03*
G04 #@! TD*
D17*
G04 #@! TO.C,C10*
X72470000Y-40012500D03*
X73430000Y-40012500D03*
G04 #@! TD*
G04 #@! TO.C,C13*
X77830000Y-46362500D03*
X78790000Y-46362500D03*
G04 #@! TD*
D20*
G04 #@! TO.C,R1*
X45125000Y-38100000D03*
X43475000Y-38100000D03*
G04 #@! TD*
D19*
G04 #@! TO.C,C3*
X42725000Y-56000000D03*
X44275000Y-56000000D03*
G04 #@! TD*
D21*
G04 #@! TO.C,R7*
X35412500Y-41637500D03*
X35412500Y-43287500D03*
G04 #@! TD*
D20*
G04 #@! TO.C,R5*
X36487500Y-37762500D03*
X34837500Y-37762500D03*
G04 #@! TD*
D22*
G04 #@! TO.C,J2*
X86175000Y-43350000D03*
D23*
X88725000Y-40800000D03*
X83625000Y-40800000D03*
X88725000Y-45900000D03*
X83625000Y-45900000D03*
G04 #@! TD*
D17*
G04 #@! TO.C,C14*
X77830000Y-45362500D03*
X78790000Y-45362500D03*
G04 #@! TD*
D24*
G04 #@! TO.C,R3*
X37475000Y-49212500D03*
X39125000Y-49212500D03*
G04 #@! TD*
D25*
G04 #@! TO.C,R9*
X73240000Y-47000000D03*
X74260000Y-47000000D03*
G04 #@! TD*
D26*
G04 #@! TO.C,C7*
X40962500Y-46237500D03*
X40962500Y-44687500D03*
G04 #@! TD*
D20*
G04 #@! TO.C,R6*
X41987500Y-42912500D03*
X40337500Y-42912500D03*
G04 #@! TD*
D27*
G04 #@! TO.C,U2*
X37500000Y-54237500D03*
X37000000Y-54237500D03*
X36500000Y-54237500D03*
X36000000Y-54237500D03*
D28*
X35987500Y-54750000D03*
X35987500Y-55250000D03*
D27*
X36000000Y-55762500D03*
X36500000Y-55762500D03*
X37000000Y-55762500D03*
X37500000Y-55762500D03*
D28*
X37512500Y-55250000D03*
X37512500Y-54750000D03*
G04 #@! TD*
D29*
G04 #@! TO.C,X1*
X71235000Y-50515000D03*
X76115000Y-50515000D03*
G04 #@! TD*
D30*
G04 #@! TO.C,L1*
X76810000Y-45332500D03*
X76810000Y-44362500D03*
G04 #@! TD*
D17*
G04 #@! TO.C,C11*
X72470000Y-38962500D03*
X73430000Y-38962500D03*
G04 #@! TD*
D31*
G04 #@! TO.C,R8*
X75890000Y-39312500D03*
X75890000Y-40332500D03*
G04 #@! TD*
D32*
G04 #@! TO.C,C8*
X71530000Y-40012500D03*
X70570000Y-40012500D03*
G04 #@! TD*
D19*
G04 #@! TO.C,C4*
X42725000Y-53000000D03*
X44275000Y-53000000D03*
G04 #@! TD*
D16*
G04 #@! TO.C,C12*
X80415000Y-51095000D03*
X80415000Y-50135000D03*
G04 #@! TD*
D33*
G04 #@! TO.C,U1*
X37137500Y-44462500D03*
X37137500Y-44962500D03*
X37137500Y-45462500D03*
X37137500Y-45962500D03*
D34*
X37800000Y-46125000D03*
X38300000Y-46125000D03*
X38800000Y-46125000D03*
D33*
X39462500Y-45962500D03*
X39462500Y-45462500D03*
X39462500Y-44962500D03*
X39462500Y-44462500D03*
D34*
X38800000Y-44300000D03*
X38300000Y-44300000D03*
X37800000Y-44300000D03*
G04 #@! TD*
D35*
G04 #@! TO.C,L3*
X75625000Y-43252500D03*
X75625000Y-44222500D03*
G04 #@! TD*
D20*
G04 #@! TO.C,R4*
X36487500Y-39262500D03*
X34837500Y-39262500D03*
G04 #@! TD*
G04 #@! TO.C,R2*
X32725000Y-38100000D03*
X31075000Y-38100000D03*
G04 #@! TD*
D36*
G04 #@! TO.C,L2*
X76590000Y-43312500D03*
X77560000Y-43312500D03*
G04 #@! TD*
D37*
G04 #@! TO.C,J1*
X33900000Y-34290000D03*
D38*
X33900000Y-31750000D03*
X36440000Y-34290000D03*
X36440000Y-31750000D03*
X38980000Y-34290000D03*
X38980000Y-31750000D03*
X41520000Y-34290000D03*
X41520000Y-31750000D03*
X44060000Y-34290000D03*
X44060000Y-31750000D03*
X46600000Y-34290000D03*
X46600000Y-31750000D03*
X49140000Y-34290000D03*
X49140000Y-31750000D03*
X51680000Y-34290000D03*
X51680000Y-31750000D03*
X54220000Y-34290000D03*
X54220000Y-31750000D03*
X56760000Y-34290000D03*
X56760000Y-31750000D03*
X59300000Y-34290000D03*
X59300000Y-31750000D03*
X61840000Y-34290000D03*
X61840000Y-31750000D03*
X64380000Y-34290000D03*
X64380000Y-31750000D03*
X66920000Y-34290000D03*
X66920000Y-31750000D03*
X69460000Y-34290000D03*
X69460000Y-31750000D03*
X72000000Y-34290000D03*
X72000000Y-31750000D03*
X74540000Y-34290000D03*
X74540000Y-31750000D03*
X77080000Y-34290000D03*
X77080000Y-31750000D03*
X79620000Y-34290000D03*
X79620000Y-31750000D03*
X82160000Y-34290000D03*
X82160000Y-31750000D03*
G04 #@! TD*
D39*
G04 #@! TO.C,REF\u002A\u002A*
X29000000Y-33000000D03*
G04 #@! TD*
G04 #@! TO.C,REF\u002A\u002A*
X87000000Y-33000000D03*
G04 #@! TD*
G04 #@! TO.C,REF\u002A\u002A*
X87000000Y-56000000D03*
G04 #@! TD*
G04 #@! TO.C,REF\u002A\u002A*
X29000000Y-56000000D03*
G04 #@! TD*
M02*
